%TF.GenerationSoftware,KiCad,Pcbnew,9.0.6*%
%TF.CreationDate,2026-07-10T16:37:43+05:00*%
%TF.ProjectId,HLT8012-Interface-board,484c5438-3031-4322-9d49-6e7465726661,rev?*%
%TF.SameCoordinates,Original*%
%TF.FileFunction,Copper,L1,Top*%
%TF.FilePolarity,Positive*%
%FSLAX46Y46*%
G04 Gerber Fmt 4.6, Leading zero omitted, Abs format (unit mm)*
G04 Created by KiCad (PCBNEW 9.0.6) date 2026-07-10 16:37:43*
%MOMM*%
%LPD*%
G01*
G04 APERTURE LIST*
G04 Aperture macros list*
%AMRoundRect*
0 Rectangle with rounded corners*
0 $1 Rounding radius*
0 $2 $3 $4 $5 $6 $7 $8 $9 X,Y pos of 4 corners*
0 Add a 4 corners polygon primitive as box body*
4,1,4,$2,$3,$4,$5,$6,$7,$8,$9,$2,$3,0*
0 Add four circle primitives for the rounded corners*
1,1,$1+$1,$2,$3*
1,1,$1+$1,$4,$5*
1,1,$1+$1,$6,$7*
1,1,$1+$1,$8,$9*
0 Add four rect primitives between the rounded corners*
20,1,$1+$1,$2,$3,$4,$5,0*
20,1,$1+$1,$4,$5,$6,$7,0*
20,1,$1+$1,$6,$7,$8,$9,0*
20,1,$1+$1,$8,$9,$2,$3,0*%
G04 Aperture macros list end*
%TA.AperFunction,ComponentPad*%
%ADD10RoundRect,0.250000X0.550000X-0.550000X0.550000X0.550000X-0.550000X0.550000X-0.550000X-0.550000X0*%
%TD*%
%TA.AperFunction,ComponentPad*%
%ADD11C,1.600000*%
%TD*%
%TA.AperFunction,ComponentPad*%
%ADD12RoundRect,0.250000X0.550000X0.550000X-0.550000X0.550000X-0.550000X-0.550000X0.550000X-0.550000X0*%
%TD*%
%TA.AperFunction,ComponentPad*%
%ADD13C,2.000000*%
%TD*%
%TA.AperFunction,ComponentPad*%
%ADD14RoundRect,0.250000X-1.000000X1.000000X-1.000000X-1.000000X1.000000X-1.000000X1.000000X1.000000X0*%
%TD*%
%TA.AperFunction,ComponentPad*%
%ADD15C,2.500000*%
%TD*%
%TA.AperFunction,SMDPad,CuDef*%
%ADD16RoundRect,0.375000X0.375000X-0.625000X0.375000X0.625000X-0.375000X0.625000X-0.375000X-0.625000X0*%
%TD*%
%TA.AperFunction,SMDPad,CuDef*%
%ADD17RoundRect,0.500000X1.400000X-0.500000X1.400000X0.500000X-1.400000X0.500000X-1.400000X-0.500000X0*%
%TD*%
%TA.AperFunction,ComponentPad*%
%ADD18C,1.400000*%
%TD*%
%TA.AperFunction,ComponentPad*%
%ADD19RoundRect,0.250000X-0.550000X-0.550000X0.550000X-0.550000X0.550000X0.550000X-0.550000X0.550000X0*%
%TD*%
%TA.AperFunction,SMDPad,CuDef*%
%ADD20RoundRect,0.249999X0.450001X1.425001X-0.450001X1.425001X-0.450001X-1.425001X0.450001X-1.425001X0*%
%TD*%
%TA.AperFunction,ComponentPad*%
%ADD21C,3.000000*%
%TD*%
%TA.AperFunction,SMDPad,CuDef*%
%ADD22R,0.650000X1.525000*%
%TD*%
%TA.AperFunction,SMDPad,CuDef*%
%ADD23RoundRect,0.375000X-0.375000X0.625000X-0.375000X-0.625000X0.375000X-0.625000X0.375000X0.625000X0*%
%TD*%
%TA.AperFunction,SMDPad,CuDef*%
%ADD24RoundRect,0.500000X-1.400000X0.500000X-1.400000X-0.500000X1.400000X-0.500000X1.400000X0.500000X0*%
%TD*%
%TA.AperFunction,ComponentPad*%
%ADD25R,1.508000X1.508000*%
%TD*%
%TA.AperFunction,ComponentPad*%
%ADD26C,1.508000*%
%TD*%
%TA.AperFunction,Conductor*%
%ADD27C,0.200000*%
%TD*%
%TA.AperFunction,Conductor*%
%ADD28C,1.500000*%
%TD*%
G04 APERTURE END LIST*
D10*
%TO.P,C2,1*%
%TO.N,GND*%
X142700000Y-73228856D03*
D11*
%TO.P,C2,2*%
%TO.N,Net-(U1-V1P)*%
X142700000Y-70728856D03*
%TD*%
D12*
%TO.P,C3,1*%
%TO.N,Net-(U1-V1N)*%
X149428856Y-71750000D03*
D11*
%TO.P,C3,2*%
%TO.N,GND*%
X146928856Y-71750000D03*
%TD*%
D12*
%TO.P,C6,1*%
%TO.N,+3.3V*%
X113928856Y-74000000D03*
D11*
%TO.P,C6,2*%
%TO.N,GND*%
X111428856Y-74000000D03*
%TD*%
D13*
%TO.P,SW1,1,1*%
%TO.N,Net-(U2-~{RST})*%
X139250000Y-87500000D03*
X145750000Y-87500000D03*
%TO.P,SW1,2,2*%
%TO.N,+3.3V*%
X139250000Y-92000000D03*
X145750000Y-92000000D03*
%TD*%
D14*
%TO.P,J4,1,Pin_1*%
%TO.N,GND*%
X110832500Y-88750000D03*
D15*
%TO.P,J4,2,Pin_2*%
%TO.N,+12V*%
X110832500Y-93750000D03*
%TD*%
D16*
%TO.P,U4,1,GND*%
%TO.N,GND*%
X117150000Y-88650000D03*
%TO.P,U4,2,VO*%
%TO.N,+5V*%
X119450000Y-88650000D03*
D17*
X119450000Y-82350000D03*
D16*
%TO.P,U4,3,VI*%
%TO.N,+12V*%
X121750000Y-88650000D03*
%TD*%
D14*
%TO.P,J3,1,Pin_1*%
%TO.N,-AC*%
X111332500Y-63000000D03*
D15*
%TO.P,J3,2,Pin_2*%
%TO.N,/LOAD*%
X111332500Y-68000000D03*
%TD*%
D18*
%TO.P,R9,1*%
%TO.N,/LOAD*%
X135200000Y-65460000D03*
%TO.P,R9,2*%
%TO.N,Net-(U1-V1N)*%
X135200000Y-70540000D03*
%TD*%
%TO.P,R2,1*%
%TO.N,Net-(R2-Pad1)*%
X120300000Y-55540000D03*
%TO.P,R2,2*%
%TO.N,Net-(R1-Pad1)*%
X120300000Y-50460000D03*
%TD*%
D19*
%TO.P,C8,1*%
%TO.N,+5V*%
X116971144Y-93000000D03*
D11*
%TO.P,C8,2*%
%TO.N,GND*%
X119471144Y-93000000D03*
%TD*%
D19*
%TO.P,C10,1*%
%TO.N,+12V*%
X122221144Y-92750000D03*
D11*
%TO.P,C10,2*%
%TO.N,GND*%
X124721144Y-92750000D03*
%TD*%
D18*
%TO.P,R3,1*%
%TO.N,Net-(R3-Pad1)*%
X123450000Y-55540000D03*
%TO.P,R3,2*%
%TO.N,Net-(R2-Pad1)*%
X123450000Y-50460000D03*
%TD*%
D10*
%TO.P,C1,1*%
%TO.N,V2P*%
X140050000Y-53478856D03*
D11*
%TO.P,C1,2*%
%TO.N,GND*%
X140050000Y-50978856D03*
%TD*%
D20*
%TO.P,R10,1*%
%TO.N,+AC*%
X140000000Y-61500000D03*
%TO.P,R10,2*%
%TO.N,/LOAD*%
X133900000Y-61500000D03*
%TD*%
D18*
%TO.P,R11,1*%
%TO.N,Net-(R11-Pad1)*%
X132750000Y-55540000D03*
%TO.P,R11,2*%
%TO.N,V2P*%
X132750000Y-50460000D03*
%TD*%
D12*
%TO.P,C4,1*%
%TO.N,+5V*%
X114178856Y-81000000D03*
D11*
%TO.P,C4,2*%
%TO.N,GND*%
X111678856Y-81000000D03*
%TD*%
D18*
%TO.P,R1,1*%
%TO.N,Net-(R1-Pad1)*%
X117150000Y-55540000D03*
%TO.P,R1,2*%
%TO.N,-AC*%
X117150000Y-50460000D03*
%TD*%
%TO.P,R7,1*%
%TO.N,V2P*%
X135500000Y-55540000D03*
%TO.P,R7,2*%
%TO.N,GND*%
X135500000Y-50460000D03*
%TD*%
D21*
%TO.P,J1,1,Pin_1*%
%TO.N,+AC*%
X148200000Y-54250000D03*
%TD*%
D18*
%TO.P,R5,1*%
%TO.N,Net-(R4-Pad2)*%
X129750000Y-55540000D03*
%TO.P,R5,2*%
%TO.N,Net-(R11-Pad1)*%
X129750000Y-50460000D03*
%TD*%
%TO.P,R4,1*%
%TO.N,Net-(R3-Pad1)*%
X126600000Y-55540000D03*
%TO.P,R4,2*%
%TO.N,Net-(R4-Pad2)*%
X126600000Y-50460000D03*
%TD*%
%TO.P,R6,1*%
%TO.N,Net-(U1-VDD)*%
X124200000Y-77210000D03*
%TO.P,R6,2*%
%TO.N,+5V*%
X124200000Y-82290000D03*
%TD*%
%TO.P,R8,1*%
%TO.N,+AC*%
X138700000Y-65460000D03*
%TO.P,R8,2*%
%TO.N,Net-(U1-V1P)*%
X138700000Y-70540000D03*
%TD*%
D21*
%TO.P,J2,1,Pin_1*%
%TO.N,-AC*%
X110450000Y-54250000D03*
%TD*%
D22*
%TO.P,U1,1,VDD*%
%TO.N,Net-(U1-VDD)*%
X131855000Y-74788000D03*
%TO.P,U1,2,V1P*%
%TO.N,Net-(U1-V1P)*%
X130585000Y-74788000D03*
%TO.P,U1,3,V1N*%
%TO.N,Net-(U1-V1N)*%
X129315000Y-74788000D03*
%TO.P,U1,4,V2P*%
%TO.N,V2P*%
X128045000Y-74788000D03*
%TO.P,U1,5,GND*%
%TO.N,GND*%
X128045000Y-80212000D03*
%TO.P,U1,6,CF*%
%TO.N,CF*%
X129315000Y-80212000D03*
%TO.P,U1,7,CF1*%
%TO.N,CF1*%
X130585000Y-80212000D03*
%TO.P,U1,8,SEL*%
%TO.N,SEL*%
X131855000Y-80212000D03*
%TD*%
D23*
%TO.P,U3,1,GND*%
%TO.N,GND*%
X121750000Y-73350000D03*
%TO.P,U3,2,VO*%
%TO.N,+3.3V*%
X119450000Y-73350000D03*
D24*
X119450000Y-79650000D03*
D23*
%TO.P,U3,3,VI*%
%TO.N,+5V*%
X117150000Y-73350000D03*
%TD*%
D25*
%TO.P,U2,1,GND*%
%TO.N,GND*%
X130340000Y-93060000D03*
D26*
%TO.P,U2,2,GPIO2*%
%TO.N,CF1*%
X130340000Y-90520000D03*
%TO.P,U2,3,GPIO0*%
%TO.N,CF*%
X130340000Y-87980000D03*
%TO.P,U2,4,RXD*%
%TO.N,unconnected-(U2-RXD-Pad4)*%
X130340000Y-85440000D03*
%TO.P,U2,5,VCC*%
%TO.N,+3.3V*%
X127800000Y-85440000D03*
%TO.P,U2,6,~{RST}*%
%TO.N,Net-(U2-~{RST})*%
X127800000Y-87980000D03*
%TO.P,U2,7,CH_PD*%
%TO.N,+3.3V*%
X127800000Y-90520000D03*
%TO.P,U2,8,TXD*%
%TO.N,SEL*%
X127800000Y-93060000D03*
%TD*%
D27*
%TO.N,+3.3V*%
X139250000Y-92000000D02*
X145750000Y-92000000D01*
%TO.N,Net-(U2-~{RST})*%
X139250000Y-87500000D02*
X145750000Y-87500000D01*
%TO.N,Net-(U1-VDD)*%
X124200000Y-77210000D02*
X130252500Y-77210000D01*
X130252500Y-77210000D02*
X131855000Y-75607500D01*
X131855000Y-75607500D02*
X131855000Y-74788000D01*
%TO.N,V2P*%
X128045000Y-74788000D02*
X128045000Y-73347819D01*
X134681819Y-66711000D02*
X135718181Y-66711000D01*
X135718181Y-66711000D02*
X136950000Y-65479181D01*
X136950000Y-65479181D02*
X136950000Y-62000000D01*
X128045000Y-73347819D02*
X134681819Y-66711000D01*
X137000000Y-61950000D02*
X137000000Y-58750000D01*
X140050000Y-55700000D02*
X140050000Y-53478856D01*
X136950000Y-62000000D02*
X137000000Y-61950000D01*
X137000000Y-58750000D02*
X140050000Y-55700000D01*
%TO.N,Net-(U1-V1N)*%
X129315000Y-74788000D02*
X129315000Y-73825500D01*
X129315000Y-73825500D02*
X132600500Y-70540000D01*
X132600500Y-70540000D02*
X135200000Y-70540000D01*
%TO.N,Net-(U1-V1P)*%
X130585000Y-74788000D02*
X130585000Y-73825500D01*
X130585000Y-73825500D02*
X132660500Y-71750000D01*
X132660500Y-71750000D02*
X137490000Y-71750000D01*
X137490000Y-71750000D02*
X138700000Y-70540000D01*
%TO.N,CF1*%
X130585000Y-80212000D02*
X130585000Y-83060219D01*
X132196000Y-84671219D02*
X132196000Y-88664000D01*
X130585000Y-83060219D02*
X132196000Y-84671219D01*
X132196000Y-88664000D02*
X130340000Y-90520000D01*
%TO.N,CF*%
X129315000Y-80212000D02*
X129315000Y-82640161D01*
X129315000Y-82640161D02*
X131595000Y-84920161D01*
X131595000Y-84920161D02*
X131595000Y-86725000D01*
X131595000Y-86725000D02*
X130340000Y-87980000D01*
%TO.N,SEL*%
X131855000Y-80212000D02*
X134750000Y-83107000D01*
X134750000Y-83107000D02*
X134750000Y-88000000D01*
X134750000Y-88000000D02*
X130945000Y-91805000D01*
X130945000Y-91805000D02*
X129055000Y-91805000D01*
X129055000Y-91805000D02*
X127800000Y-93060000D01*
%TO.N,+3.3V*%
X127800000Y-85440000D02*
X129055000Y-86695000D01*
X129055000Y-86695000D02*
X129055000Y-89265000D01*
X129055000Y-89265000D02*
X127800000Y-90520000D01*
X139250000Y-92000000D02*
X136935000Y-94315000D01*
X126545000Y-91775000D02*
X127800000Y-90520000D01*
X136935000Y-94315000D02*
X127280161Y-94315000D01*
X127280161Y-94315000D02*
X126545000Y-93579839D01*
X126545000Y-93579839D02*
X126545000Y-91775000D01*
%TO.N,CF*%
X129315000Y-80212000D02*
X129085000Y-80442000D01*
%TO.N,+3.3V*%
X127800000Y-85440000D02*
X127800000Y-84191529D01*
X127800000Y-84191529D02*
X123258471Y-79650000D01*
X123258471Y-79650000D02*
X119450000Y-79650000D01*
%TO.N,V2P*%
X135500000Y-55540000D02*
X137988856Y-55540000D01*
X132750000Y-52790000D02*
X135500000Y-55540000D01*
X137988856Y-55540000D02*
X140050000Y-53478856D01*
X132750000Y-50460000D02*
X132750000Y-52790000D01*
%TO.N,Net-(U1-V1P)*%
X142511144Y-70540000D02*
X142700000Y-70728856D01*
X138700000Y-70540000D02*
X142511144Y-70540000D01*
%TO.N,Net-(U1-V1N)*%
X146928856Y-69250000D02*
X136490000Y-69250000D01*
X135160000Y-70500000D02*
X135200000Y-70540000D01*
X136490000Y-69250000D02*
X135200000Y-70540000D01*
X135315000Y-70655000D02*
X135200000Y-70540000D01*
X149428856Y-71750000D02*
X146928856Y-69250000D01*
D28*
%TO.N,+AC*%
X148200000Y-54250000D02*
X147250000Y-54250000D01*
X138700000Y-65460000D02*
X138700000Y-62800000D01*
X138700000Y-62800000D02*
X140000000Y-61500000D01*
X147250000Y-54250000D02*
X140000000Y-61500000D01*
%TO.N,-AC*%
X110450000Y-54250000D02*
X113360000Y-54250000D01*
X113360000Y-54250000D02*
X117150000Y-50460000D01*
X111332500Y-56382500D02*
X110450000Y-55500000D01*
X111332500Y-63000000D02*
X111332500Y-56382500D01*
X110450000Y-55500000D02*
X110450000Y-54250000D01*
%TO.N,/LOAD*%
X135200000Y-65460000D02*
X135200000Y-62800000D01*
X135200000Y-62800000D02*
X133900000Y-61500000D01*
X111332500Y-68000000D02*
X127400000Y-68000000D01*
X127400000Y-68000000D02*
X133900000Y-61500000D01*
D27*
%TO.N,+5V*%
X119510000Y-82290000D02*
X119450000Y-82350000D01*
X116971144Y-93000000D02*
X116971144Y-91128856D01*
X116971144Y-91128856D02*
X119450000Y-88650000D01*
X114178856Y-76321144D02*
X117150000Y-73350000D01*
X115528856Y-82350000D02*
X114178856Y-81000000D01*
X124200000Y-82290000D02*
X119510000Y-82290000D01*
X119050000Y-82350000D02*
X118950000Y-82250000D01*
X119450000Y-82350000D02*
X119050000Y-82350000D01*
X114178856Y-81000000D02*
X114178856Y-76321144D01*
X119450000Y-82350000D02*
X115528856Y-82350000D01*
%TO.N,Net-(R1-Pad1)*%
X120300000Y-50460000D02*
X120300000Y-52390000D01*
X120300000Y-52390000D02*
X117150000Y-55540000D01*
%TO.N,Net-(R2-Pad1)*%
X120300000Y-55540000D02*
X120300000Y-53610000D01*
X120300000Y-53610000D02*
X123450000Y-50460000D01*
%TO.N,Net-(R3-Pad1)*%
X126600000Y-55540000D02*
X123450000Y-55540000D01*
%TO.N,Net-(R4-Pad2)*%
X126600000Y-52390000D02*
X129750000Y-55540000D01*
X126600000Y-50460000D02*
X126600000Y-52390000D01*
%TO.N,+12V*%
X121950000Y-95750000D02*
X122221144Y-95478856D01*
X112832500Y-95750000D02*
X121950000Y-95750000D01*
X122221144Y-92750000D02*
X122221144Y-89121144D01*
X122221144Y-95478856D02*
X122221144Y-92750000D01*
X110832500Y-93750000D02*
X112832500Y-95750000D01*
X122221144Y-89121144D02*
X121750000Y-88650000D01*
%TO.N,+3.3V*%
X113928856Y-74000000D02*
X113928856Y-72521144D01*
X114700000Y-71750000D02*
X118950000Y-71750000D01*
X119450000Y-72250000D02*
X119450000Y-73350000D01*
X113928856Y-72521144D02*
X114700000Y-71750000D01*
X118800000Y-74000000D02*
X119450000Y-73350000D01*
X118950000Y-71750000D02*
X119450000Y-72250000D01*
%TO.N,Net-(R11-Pad1)*%
X129750000Y-50460000D02*
X129750000Y-52540000D01*
X129750000Y-52540000D02*
X132750000Y-55540000D01*
%TD*%
%TA.AperFunction,Conductor*%
%TO.N,GND*%
G36*
X116208703Y-49420185D02*
G01*
X116254458Y-49472989D01*
X116264402Y-49542147D01*
X116235377Y-49605703D01*
X116229345Y-49612181D01*
X112878345Y-52963181D01*
X112817022Y-52996666D01*
X112790664Y-52999500D01*
X112073182Y-52999500D01*
X112006143Y-52979815D01*
X111974808Y-52950989D01*
X111973332Y-52949066D01*
X111957282Y-52928149D01*
X111957277Y-52928144D01*
X111957274Y-52928140D01*
X111771860Y-52742726D01*
X111771851Y-52742718D01*
X111563803Y-52583075D01*
X111336700Y-52451958D01*
X111336690Y-52451953D01*
X111094428Y-52351605D01*
X111094421Y-52351603D01*
X111094419Y-52351602D01*
X110841116Y-52283730D01*
X110783339Y-52276123D01*
X110581127Y-52249500D01*
X110581120Y-52249500D01*
X110318880Y-52249500D01*
X110318872Y-52249500D01*
X110087772Y-52279926D01*
X110058884Y-52283730D01*
X109863268Y-52336145D01*
X109805581Y-52351602D01*
X109805571Y-52351605D01*
X109563309Y-52451953D01*
X109563299Y-52451958D01*
X109336196Y-52583075D01*
X109128148Y-52742718D01*
X108942718Y-52928148D01*
X108783075Y-53136196D01*
X108651958Y-53363299D01*
X108651953Y-53363309D01*
X108551605Y-53605571D01*
X108551602Y-53605581D01*
X108483730Y-53858885D01*
X108449500Y-54118872D01*
X108449500Y-54381127D01*
X108464969Y-54498617D01*
X108483730Y-54641116D01*
X108550691Y-54891018D01*
X108551602Y-54894418D01*
X108551605Y-54894428D01*
X108651953Y-55136690D01*
X108651958Y-55136700D01*
X108783075Y-55363803D01*
X108942718Y-55571851D01*
X108942726Y-55571860D01*
X109128143Y-55757277D01*
X109128147Y-55757280D01*
X109128149Y-55757282D01*
X109156527Y-55779057D01*
X109218284Y-55826445D01*
X109259486Y-55882873D01*
X109260728Y-55886502D01*
X109291117Y-55980030D01*
X109380476Y-56155405D01*
X109496172Y-56314646D01*
X109496174Y-56314648D01*
X110045681Y-56864155D01*
X110079166Y-56925478D01*
X110082000Y-56951836D01*
X110082000Y-61204091D01*
X110062315Y-61271130D01*
X110018231Y-61309641D01*
X110019313Y-61311395D01*
X110013167Y-61315185D01*
X110013166Y-61315186D01*
X109914919Y-61375784D01*
X109863842Y-61407289D01*
X109739789Y-61531342D01*
X109647687Y-61680663D01*
X109647685Y-61680668D01*
X109634110Y-61721636D01*
X109592501Y-61847203D01*
X109592501Y-61847204D01*
X109592500Y-61847204D01*
X109582000Y-61949983D01*
X109582000Y-64050001D01*
X109582001Y-64050018D01*
X109592500Y-64152796D01*
X109592501Y-64152799D01*
X109646660Y-64316239D01*
X109647686Y-64319334D01*
X109739788Y-64468656D01*
X109863844Y-64592712D01*
X110013166Y-64684814D01*
X110179703Y-64739999D01*
X110282491Y-64750500D01*
X112382508Y-64750499D01*
X112485297Y-64739999D01*
X112651834Y-64684814D01*
X112801156Y-64592712D01*
X112925212Y-64468656D01*
X113017314Y-64319334D01*
X113072499Y-64152797D01*
X113083000Y-64050009D01*
X113082999Y-61949992D01*
X113072499Y-61847203D01*
X113017314Y-61680666D01*
X112994521Y-61643713D01*
X121399500Y-61643713D01*
X121399500Y-61856286D01*
X121427275Y-62031654D01*
X121432754Y-62066243D01*
X121458212Y-62144595D01*
X121498444Y-62268414D01*
X121594951Y-62457820D01*
X121719890Y-62629786D01*
X121870213Y-62780109D01*
X122042179Y-62905048D01*
X122042181Y-62905049D01*
X122042184Y-62905051D01*
X122231588Y-63001557D01*
X122433757Y-63067246D01*
X122643713Y-63100500D01*
X122643714Y-63100500D01*
X122856286Y-63100500D01*
X122856287Y-63100500D01*
X123066243Y-63067246D01*
X123268412Y-63001557D01*
X123457816Y-62905051D01*
X123540540Y-62844949D01*
X123629786Y-62780109D01*
X123629788Y-62780106D01*
X123629792Y-62780104D01*
X123780104Y-62629792D01*
X123780106Y-62629788D01*
X123780109Y-62629786D01*
X123905048Y-62457820D01*
X123905047Y-62457820D01*
X123905051Y-62457816D01*
X124001557Y-62268412D01*
X124067246Y-62066243D01*
X124100500Y-61856287D01*
X124100500Y-61643713D01*
X124067246Y-61433757D01*
X124001557Y-61231588D01*
X123905051Y-61042184D01*
X123905049Y-61042181D01*
X123905048Y-61042179D01*
X123780109Y-60870213D01*
X123629786Y-60719890D01*
X123457820Y-60594951D01*
X123268414Y-60498444D01*
X123268413Y-60498443D01*
X123268412Y-60498443D01*
X123066243Y-60432754D01*
X123066241Y-60432753D01*
X123066240Y-60432753D01*
X122904957Y-60407208D01*
X122856287Y-60399500D01*
X122643713Y-60399500D01*
X122595042Y-60407208D01*
X122433760Y-60432753D01*
X122231585Y-60498444D01*
X122042179Y-60594951D01*
X121870213Y-60719890D01*
X121719890Y-60870213D01*
X121594951Y-61042179D01*
X121498444Y-61231585D01*
X121432753Y-61433760D01*
X121399500Y-61643713D01*
X112994521Y-61643713D01*
X112925212Y-61531344D01*
X112801156Y-61407288D01*
X112651834Y-61315186D01*
X112651832Y-61315185D01*
X112645687Y-61311395D01*
X112646790Y-61309605D01*
X112602149Y-61270290D01*
X112583000Y-61204091D01*
X112583000Y-56284078D01*
X112569782Y-56200627D01*
X112569782Y-56200625D01*
X112552210Y-56089677D01*
X112552209Y-56089675D01*
X112552209Y-56089673D01*
X112516582Y-55980026D01*
X112491384Y-55902475D01*
X112491382Y-55902472D01*
X112491382Y-55902470D01*
X112402023Y-55727094D01*
X112380439Y-55697386D01*
X112356959Y-55631579D01*
X112372784Y-55563525D01*
X112422890Y-55514830D01*
X112480757Y-55500500D01*
X113458422Y-55500500D01*
X113652826Y-55469709D01*
X113661345Y-55466941D01*
X113840026Y-55408884D01*
X114015405Y-55319524D01*
X114174646Y-55203828D01*
X118103828Y-51274646D01*
X118219523Y-51115406D01*
X118308883Y-50940026D01*
X118369709Y-50752827D01*
X118386504Y-50646785D01*
X118400500Y-50558422D01*
X118400500Y-50361578D01*
X118371563Y-50178882D01*
X118369709Y-50167174D01*
X118308883Y-49979974D01*
X118308881Y-49979971D01*
X118308881Y-49979969D01*
X118261741Y-49887454D01*
X118219523Y-49804595D01*
X118103828Y-49645355D01*
X118070654Y-49612181D01*
X118037169Y-49550858D01*
X118042153Y-49481166D01*
X118084025Y-49425233D01*
X118149489Y-49400816D01*
X118158335Y-49400500D01*
X119362375Y-49400500D01*
X119429414Y-49420185D01*
X119475169Y-49472989D01*
X119485113Y-49542147D01*
X119456088Y-49605703D01*
X119450056Y-49612181D01*
X119384312Y-49677924D01*
X119384312Y-49677925D01*
X119384310Y-49677927D01*
X119336610Y-49743579D01*
X119273240Y-49830800D01*
X119187454Y-49999163D01*
X119129059Y-50178881D01*
X119099500Y-50365513D01*
X119099500Y-50554486D01*
X119129059Y-50741118D01*
X119187454Y-50920836D01*
X119273240Y-51089199D01*
X119384310Y-51242073D01*
X119517927Y-51375690D01*
X119648386Y-51470474D01*
X119691051Y-51525803D01*
X119699500Y-51570791D01*
X119699500Y-52089902D01*
X119679815Y-52156941D01*
X119663181Y-52177583D01*
X117510830Y-54329933D01*
X117449507Y-54363418D01*
X117403751Y-54364725D01*
X117244486Y-54339500D01*
X117244481Y-54339500D01*
X117055519Y-54339500D01*
X117055514Y-54339500D01*
X116868881Y-54369059D01*
X116689163Y-54427454D01*
X116520800Y-54513240D01*
X116433579Y-54576610D01*
X116367927Y-54624310D01*
X116367925Y-54624312D01*
X116367924Y-54624312D01*
X116234312Y-54757924D01*
X116234312Y-54757925D01*
X116234310Y-54757927D01*
X116218779Y-54779304D01*
X116123240Y-54910800D01*
X116037454Y-55079163D01*
X115979059Y-55258881D01*
X115949500Y-55445513D01*
X115949500Y-55634486D01*
X115979059Y-55821118D01*
X116037454Y-56000836D01*
X116087766Y-56099577D01*
X116123240Y-56169199D01*
X116234310Y-56322073D01*
X116367927Y-56455690D01*
X116520801Y-56566760D01*
X116600347Y-56607290D01*
X116689163Y-56652545D01*
X116689165Y-56652545D01*
X116689168Y-56652547D01*
X116785497Y-56683846D01*
X116868881Y-56710940D01*
X117055514Y-56740500D01*
X117055519Y-56740500D01*
X117244486Y-56740500D01*
X117431118Y-56710940D01*
X117610832Y-56652547D01*
X117779199Y-56566760D01*
X117932073Y-56455690D01*
X118065690Y-56322073D01*
X118176760Y-56169199D01*
X118262547Y-56000832D01*
X118320940Y-55821118D01*
X118327602Y-55779055D01*
X118350500Y-55634486D01*
X118350500Y-55445513D01*
X118325274Y-55286246D01*
X118334228Y-55216953D01*
X118360065Y-55179169D01*
X119487820Y-54051413D01*
X119549142Y-54017930D01*
X119618834Y-54022914D01*
X119674767Y-54064786D01*
X119699184Y-54130250D01*
X119699500Y-54139096D01*
X119699500Y-54429207D01*
X119679815Y-54496246D01*
X119648386Y-54529525D01*
X119517925Y-54624311D01*
X119384312Y-54757924D01*
X119384312Y-54757925D01*
X119384310Y-54757927D01*
X119368779Y-54779304D01*
X119273240Y-54910800D01*
X119187454Y-55079163D01*
X119129059Y-55258881D01*
X119099500Y-55445513D01*
X119099500Y-55634486D01*
X119129059Y-55821118D01*
X119187454Y-56000836D01*
X119237766Y-56099577D01*
X119273240Y-56169199D01*
X119384310Y-56322073D01*
X119517927Y-56455690D01*
X119670801Y-56566760D01*
X119750347Y-56607290D01*
X119839163Y-56652545D01*
X119839165Y-56652545D01*
X119839168Y-56652547D01*
X119935497Y-56683846D01*
X120018881Y-56710940D01*
X120205514Y-56740500D01*
X120205519Y-56740500D01*
X120394486Y-56740500D01*
X120581118Y-56710940D01*
X120760832Y-56652547D01*
X120929199Y-56566760D01*
X121082073Y-56455690D01*
X121215690Y-56322073D01*
X121326760Y-56169199D01*
X121412547Y-56000832D01*
X121470940Y-55821118D01*
X121477602Y-55779055D01*
X121500500Y-55634486D01*
X121500500Y-55445513D01*
X122249500Y-55445513D01*
X122249500Y-55634486D01*
X122279059Y-55821118D01*
X122337454Y-56000836D01*
X122387766Y-56099577D01*
X122423240Y-56169199D01*
X122534310Y-56322073D01*
X122667927Y-56455690D01*
X122820801Y-56566760D01*
X122900347Y-56607290D01*
X122989163Y-56652545D01*
X122989165Y-56652545D01*
X122989168Y-56652547D01*
X123085497Y-56683846D01*
X123168881Y-56710940D01*
X123355514Y-56740500D01*
X123355519Y-56740500D01*
X123544486Y-56740500D01*
X123731118Y-56710940D01*
X123910832Y-56652547D01*
X124079199Y-56566760D01*
X124232073Y-56455690D01*
X124365690Y-56322073D01*
X124460475Y-56191613D01*
X124515804Y-56148949D01*
X124560792Y-56140500D01*
X125489208Y-56140500D01*
X125556247Y-56160185D01*
X125589524Y-56191612D01*
X125684310Y-56322073D01*
X125817927Y-56455690D01*
X125970801Y-56566760D01*
X126050347Y-56607290D01*
X126139163Y-56652545D01*
X126139165Y-56652545D01*
X126139168Y-56652547D01*
X126235497Y-56683846D01*
X126318881Y-56710940D01*
X126505514Y-56740500D01*
X126505519Y-56740500D01*
X126694486Y-56740500D01*
X126881118Y-56710940D01*
X127060832Y-56652547D01*
X127229199Y-56566760D01*
X127382073Y-56455690D01*
X127515690Y-56322073D01*
X127626760Y-56169199D01*
X127712547Y-56000832D01*
X127770940Y-55821118D01*
X127777602Y-55779055D01*
X127800500Y-55634486D01*
X127800500Y-55445513D01*
X127770940Y-55258881D01*
X127722828Y-55110809D01*
X127712547Y-55079168D01*
X127712545Y-55079165D01*
X127712545Y-55079163D01*
X127639939Y-54936666D01*
X127626760Y-54910801D01*
X127515690Y-54757927D01*
X127382073Y-54624310D01*
X127229199Y-54513240D01*
X127198331Y-54497512D01*
X127060836Y-54427454D01*
X126881118Y-54369059D01*
X126694486Y-54339500D01*
X126694481Y-54339500D01*
X126505519Y-54339500D01*
X126505514Y-54339500D01*
X126318881Y-54369059D01*
X126139163Y-54427454D01*
X125970800Y-54513240D01*
X125883579Y-54576610D01*
X125817927Y-54624310D01*
X125817925Y-54624312D01*
X125817924Y-54624312D01*
X125684312Y-54757924D01*
X125684312Y-54757925D01*
X125684310Y-54757927D01*
X125589526Y-54888386D01*
X125534196Y-54931051D01*
X125489208Y-54939500D01*
X124560792Y-54939500D01*
X124493753Y-54919815D01*
X124460474Y-54888386D01*
X124365690Y-54757927D01*
X124232073Y-54624310D01*
X124079199Y-54513240D01*
X124048331Y-54497512D01*
X123910836Y-54427454D01*
X123731118Y-54369059D01*
X123544486Y-54339500D01*
X123544481Y-54339500D01*
X123355519Y-54339500D01*
X123355514Y-54339500D01*
X123168881Y-54369059D01*
X122989163Y-54427454D01*
X122820800Y-54513240D01*
X122733579Y-54576610D01*
X122667927Y-54624310D01*
X122667925Y-54624312D01*
X122667924Y-54624312D01*
X122534312Y-54757924D01*
X122534312Y-54757925D01*
X122534310Y-54757927D01*
X122518779Y-54779304D01*
X122423240Y-54910800D01*
X122337454Y-55079163D01*
X122279059Y-55258881D01*
X122249500Y-55445513D01*
X121500500Y-55445513D01*
X121470940Y-55258881D01*
X121422828Y-55110809D01*
X121412547Y-55079168D01*
X121412545Y-55079165D01*
X121412545Y-55079163D01*
X121339939Y-54936666D01*
X121326760Y-54910801D01*
X121215690Y-54757927D01*
X121082073Y-54624310D01*
X121037649Y-54592034D01*
X120951614Y-54529525D01*
X120908948Y-54474194D01*
X120900500Y-54429207D01*
X120900500Y-53910097D01*
X120920185Y-53843058D01*
X120936819Y-53822416D01*
X122000521Y-52758714D01*
X123089170Y-51670064D01*
X123150491Y-51636581D01*
X123196246Y-51635274D01*
X123219006Y-51638878D01*
X123355514Y-51660500D01*
X123355519Y-51660500D01*
X123544486Y-51660500D01*
X123731118Y-51630940D01*
X123761753Y-51620986D01*
X123910832Y-51572547D01*
X124079199Y-51486760D01*
X124232073Y-51375690D01*
X124365690Y-51242073D01*
X124476760Y-51089199D01*
X124562547Y-50920832D01*
X124620940Y-50741118D01*
X124625275Y-50713750D01*
X124650500Y-50554486D01*
X124650500Y-50365513D01*
X124620940Y-50178881D01*
X124562545Y-49999163D01*
X124476759Y-49830800D01*
X124457719Y-49804594D01*
X124365690Y-49677927D01*
X124299944Y-49612181D01*
X124266459Y-49550858D01*
X124271443Y-49481166D01*
X124313315Y-49425233D01*
X124378779Y-49400816D01*
X124387625Y-49400500D01*
X125662375Y-49400500D01*
X125729414Y-49420185D01*
X125775169Y-49472989D01*
X125785113Y-49542147D01*
X125756088Y-49605703D01*
X125750056Y-49612181D01*
X125684312Y-49677924D01*
X125684312Y-49677925D01*
X125684310Y-49677927D01*
X125636610Y-49743579D01*
X125573240Y-49830800D01*
X125487454Y-49999163D01*
X125429059Y-50178881D01*
X125399500Y-50365513D01*
X125399500Y-50554486D01*
X125429059Y-50741118D01*
X125487454Y-50920836D01*
X125573240Y-51089199D01*
X125684310Y-51242073D01*
X125817927Y-51375690D01*
X125948386Y-51470474D01*
X125991051Y-51525803D01*
X125999500Y-51570791D01*
X125999500Y-52303330D01*
X125999499Y-52303348D01*
X125999499Y-52469054D01*
X125999498Y-52469054D01*
X126040423Y-52621785D01*
X126069358Y-52671900D01*
X126069359Y-52671904D01*
X126069360Y-52671904D01*
X126091896Y-52710939D01*
X126119479Y-52758714D01*
X126119481Y-52758717D01*
X126238349Y-52877585D01*
X126238355Y-52877590D01*
X128539933Y-55179169D01*
X128573418Y-55240492D01*
X128574725Y-55286248D01*
X128549500Y-55445513D01*
X128549500Y-55634486D01*
X128579059Y-55821118D01*
X128637454Y-56000836D01*
X128687766Y-56099577D01*
X128723240Y-56169199D01*
X128834310Y-56322073D01*
X128967927Y-56455690D01*
X129120801Y-56566760D01*
X129200347Y-56607290D01*
X129289163Y-56652545D01*
X129289165Y-56652545D01*
X129289168Y-56652547D01*
X129385497Y-56683846D01*
X129468881Y-56710940D01*
X129655514Y-56740500D01*
X129655519Y-56740500D01*
X129844486Y-56740500D01*
X130031118Y-56710940D01*
X130210832Y-56652547D01*
X130379199Y-56566760D01*
X130532073Y-56455690D01*
X130665690Y-56322073D01*
X130776760Y-56169199D01*
X130862547Y-56000832D01*
X130920940Y-55821118D01*
X130927602Y-55779055D01*
X130950500Y-55634486D01*
X130950500Y-55445513D01*
X130920940Y-55258881D01*
X130872828Y-55110809D01*
X130862547Y-55079168D01*
X130862545Y-55079165D01*
X130862545Y-55079163D01*
X130789939Y-54936666D01*
X130776760Y-54910801D01*
X130665690Y-54757927D01*
X130532073Y-54624310D01*
X130379199Y-54513240D01*
X130348331Y-54497512D01*
X130210836Y-54427454D01*
X130031118Y-54369059D01*
X129844486Y-54339500D01*
X129844481Y-54339500D01*
X129655519Y-54339500D01*
X129655514Y-54339500D01*
X129496248Y-54364725D01*
X129426954Y-54355770D01*
X129389169Y-54329933D01*
X127236819Y-52177583D01*
X127203334Y-52116260D01*
X127200500Y-52089902D01*
X127200500Y-51570791D01*
X127220185Y-51503752D01*
X127251612Y-51470475D01*
X127382073Y-51375690D01*
X127515690Y-51242073D01*
X127626760Y-51089199D01*
X127712547Y-50920832D01*
X127770940Y-50741118D01*
X127775275Y-50713750D01*
X127800500Y-50554486D01*
X127800500Y-50365513D01*
X127770940Y-50178881D01*
X127712545Y-49999163D01*
X127626759Y-49830800D01*
X127607719Y-49804594D01*
X127515690Y-49677927D01*
X127449944Y-49612181D01*
X127416459Y-49550858D01*
X127421443Y-49481166D01*
X127463315Y-49425233D01*
X127528779Y-49400816D01*
X127537625Y-49400500D01*
X128812375Y-49400500D01*
X128879414Y-49420185D01*
X128925169Y-49472989D01*
X128935113Y-49542147D01*
X128906088Y-49605703D01*
X128900056Y-49612181D01*
X128834312Y-49677924D01*
X128834312Y-49677925D01*
X128834310Y-49677927D01*
X128786610Y-49743579D01*
X128723240Y-49830800D01*
X128637454Y-49999163D01*
X128579059Y-50178881D01*
X128549500Y-50365513D01*
X128549500Y-50554486D01*
X128579059Y-50741118D01*
X128637454Y-50920836D01*
X128723240Y-51089199D01*
X128834310Y-51242073D01*
X128967927Y-51375690D01*
X129098386Y-51470474D01*
X129141051Y-51525803D01*
X129149500Y-51570791D01*
X129149500Y-52453330D01*
X129149499Y-52453348D01*
X129149499Y-52619056D01*
X129190422Y-52771783D01*
X129192892Y-52776061D01*
X129192890Y-52776061D01*
X129192895Y-52776067D01*
X129269475Y-52908709D01*
X129269481Y-52908717D01*
X129388349Y-53027585D01*
X129388355Y-53027590D01*
X131539933Y-55179169D01*
X131573418Y-55240492D01*
X131574725Y-55286248D01*
X131549500Y-55445513D01*
X131549500Y-55634486D01*
X131579059Y-55821118D01*
X131637454Y-56000836D01*
X131687766Y-56099577D01*
X131723240Y-56169199D01*
X131834310Y-56322073D01*
X131967927Y-56455690D01*
X132120801Y-56566760D01*
X132200347Y-56607290D01*
X132289163Y-56652545D01*
X132289165Y-56652545D01*
X132289168Y-56652547D01*
X132385497Y-56683846D01*
X132468881Y-56710940D01*
X132655514Y-56740500D01*
X132655519Y-56740500D01*
X132844486Y-56740500D01*
X133031118Y-56710940D01*
X133210832Y-56652547D01*
X133379199Y-56566760D01*
X133532073Y-56455690D01*
X133665690Y-56322073D01*
X133776760Y-56169199D01*
X133862547Y-56000832D01*
X133920940Y-55821118D01*
X133927602Y-55779055D01*
X133950500Y-55634486D01*
X133950500Y-55445513D01*
X133920940Y-55258881D01*
X133899539Y-55193017D01*
X133864579Y-55085424D01*
X133862585Y-55015586D01*
X133898665Y-54955753D01*
X133961365Y-54924924D01*
X134030780Y-54932888D01*
X134070192Y-54959427D01*
X134289933Y-55179168D01*
X134323418Y-55240491D01*
X134324725Y-55286247D01*
X134299500Y-55445513D01*
X134299500Y-55634486D01*
X134329059Y-55821118D01*
X134387454Y-56000836D01*
X134437766Y-56099577D01*
X134473240Y-56169199D01*
X134584310Y-56322073D01*
X134717927Y-56455690D01*
X134870801Y-56566760D01*
X134950347Y-56607290D01*
X135039163Y-56652545D01*
X135039165Y-56652545D01*
X135039168Y-56652547D01*
X135135497Y-56683846D01*
X135218881Y-56710940D01*
X135405514Y-56740500D01*
X135405519Y-56740500D01*
X135594486Y-56740500D01*
X135781118Y-56710940D01*
X135960832Y-56652547D01*
X136129199Y-56566760D01*
X136282073Y-56455690D01*
X136415690Y-56322073D01*
X136510475Y-56191613D01*
X136565804Y-56148949D01*
X136610792Y-56140500D01*
X137902187Y-56140500D01*
X137902203Y-56140501D01*
X137909799Y-56140501D01*
X138067910Y-56140501D01*
X138067913Y-56140501D01*
X138220641Y-56099577D01*
X138309900Y-56048043D01*
X138309904Y-56048041D01*
X138357565Y-56020524D01*
X138357564Y-56020524D01*
X138357572Y-56020520D01*
X138469376Y-55908716D01*
X138469376Y-55908714D01*
X138479580Y-55898511D01*
X138479583Y-55898506D01*
X139237820Y-55140270D01*
X139257255Y-55129658D01*
X139273989Y-55115158D01*
X139287320Y-55113241D01*
X139299142Y-55106786D01*
X139321228Y-55108365D01*
X139343147Y-55105214D01*
X139355398Y-55110809D01*
X139368834Y-55111770D01*
X139386560Y-55125040D01*
X139406703Y-55134239D01*
X139413985Y-55145570D01*
X139424767Y-55153642D01*
X139432504Y-55174387D01*
X139444477Y-55193017D01*
X139447628Y-55214935D01*
X139449184Y-55219106D01*
X139449500Y-55227952D01*
X139449500Y-55399902D01*
X139429815Y-55466941D01*
X139413181Y-55487583D01*
X136519481Y-58381282D01*
X136519479Y-58381285D01*
X136469361Y-58468094D01*
X136469359Y-58468096D01*
X136440425Y-58518209D01*
X136440424Y-58518210D01*
X136440423Y-58518215D01*
X136399499Y-58670943D01*
X136399499Y-58670945D01*
X136399499Y-58839046D01*
X136399500Y-58839059D01*
X136399500Y-61721636D01*
X136395097Y-61754386D01*
X136392110Y-61765292D01*
X136390423Y-61768215D01*
X136350035Y-61918942D01*
X136349947Y-61919264D01*
X136331772Y-61948716D01*
X136313759Y-61978268D01*
X136313441Y-61978422D01*
X136313255Y-61978724D01*
X136281992Y-61993699D01*
X136250912Y-62008797D01*
X136250561Y-62008755D01*
X136250242Y-62008908D01*
X136215872Y-62004607D01*
X136181537Y-62000502D01*
X136181190Y-62000267D01*
X136180913Y-62000233D01*
X136179943Y-61999423D01*
X136142669Y-61974195D01*
X135136819Y-60968345D01*
X135103334Y-60907022D01*
X135100500Y-60880664D01*
X135100500Y-60024995D01*
X135100499Y-60024982D01*
X135089999Y-59922203D01*
X135089999Y-59922202D01*
X135034814Y-59755665D01*
X134942712Y-59606344D01*
X134818656Y-59482288D01*
X134669335Y-59390186D01*
X134502798Y-59335001D01*
X134502796Y-59335000D01*
X134400017Y-59324500D01*
X134400010Y-59324500D01*
X133399990Y-59324500D01*
X133399982Y-59324500D01*
X133297203Y-59335000D01*
X133297202Y-59335001D01*
X133214669Y-59362349D01*
X133130667Y-59390185D01*
X133130662Y-59390187D01*
X132981342Y-59482289D01*
X132857289Y-59606342D01*
X132765187Y-59755662D01*
X132765186Y-59755665D01*
X132710001Y-59922202D01*
X132710001Y-59922203D01*
X132710000Y-59922203D01*
X132699500Y-60024982D01*
X132699500Y-60880664D01*
X132679815Y-60947703D01*
X132663181Y-60968345D01*
X126918345Y-66713181D01*
X126857022Y-66746666D01*
X126830664Y-66749500D01*
X112608943Y-66749500D01*
X112541904Y-66729815D01*
X112521262Y-66713181D01*
X112489170Y-66681089D01*
X112489161Y-66681081D01*
X112307117Y-66541392D01*
X112108390Y-66426657D01*
X112108376Y-66426650D01*
X111896387Y-66338842D01*
X111885825Y-66336012D01*
X111674738Y-66279452D01*
X111636715Y-66274446D01*
X111447241Y-66249500D01*
X111447234Y-66249500D01*
X111217766Y-66249500D01*
X111217758Y-66249500D01*
X111001215Y-66278009D01*
X110990262Y-66279452D01*
X110965720Y-66286028D01*
X110768612Y-66338842D01*
X110556623Y-66426650D01*
X110556609Y-66426657D01*
X110357882Y-66541392D01*
X110175838Y-66681081D01*
X110013581Y-66843338D01*
X109873892Y-67025382D01*
X109759157Y-67224109D01*
X109759150Y-67224123D01*
X109671342Y-67436112D01*
X109611953Y-67657759D01*
X109611951Y-67657770D01*
X109582000Y-67885258D01*
X109582000Y-68114741D01*
X109606946Y-68304215D01*
X109611952Y-68342238D01*
X109611953Y-68342240D01*
X109671342Y-68563887D01*
X109759150Y-68775876D01*
X109759157Y-68775890D01*
X109873892Y-68974617D01*
X110013581Y-69156661D01*
X110013589Y-69156670D01*
X110175830Y-69318911D01*
X110175838Y-69318918D01*
X110357882Y-69458607D01*
X110357885Y-69458608D01*
X110357888Y-69458611D01*
X110556612Y-69573344D01*
X110556617Y-69573346D01*
X110556623Y-69573349D01*
X110647980Y-69611190D01*
X110768613Y-69661158D01*
X110990262Y-69720548D01*
X111217766Y-69750500D01*
X111217773Y-69750500D01*
X111447227Y-69750500D01*
X111447234Y-69750500D01*
X111674738Y-69720548D01*
X111896387Y-69661158D01*
X112108388Y-69573344D01*
X112307112Y-69458611D01*
X112489161Y-69318919D01*
X112489165Y-69318914D01*
X112489170Y-69318911D01*
X112521262Y-69286819D01*
X112582585Y-69253334D01*
X112608943Y-69250500D01*
X127498422Y-69250500D01*
X127692826Y-69219709D01*
X127880026Y-69158884D01*
X128055405Y-69069524D01*
X128214646Y-68953828D01*
X133456655Y-63711819D01*
X133517978Y-63678334D01*
X133544336Y-63675500D01*
X133825500Y-63675500D01*
X133892539Y-63695185D01*
X133938294Y-63747989D01*
X133949500Y-63799500D01*
X133949500Y-65558422D01*
X133980290Y-65752826D01*
X134041117Y-65940029D01*
X134130476Y-66115405D01*
X134193501Y-66202151D01*
X134216981Y-66267958D01*
X134201156Y-66336012D01*
X134180864Y-66362718D01*
X127676286Y-72867297D01*
X127564481Y-72979101D01*
X127564479Y-72979104D01*
X127546901Y-73009551D01*
X127529322Y-73039999D01*
X127485423Y-73116034D01*
X127444499Y-73268762D01*
X127444499Y-73268764D01*
X127444499Y-73436865D01*
X127444500Y-73436878D01*
X127444500Y-73544464D01*
X127424815Y-73611503D01*
X127394812Y-73643730D01*
X127362457Y-73667950D01*
X127362451Y-73667957D01*
X127276206Y-73783164D01*
X127276202Y-73783171D01*
X127225908Y-73918017D01*
X127219501Y-73977616D01*
X127219501Y-73977623D01*
X127219500Y-73977635D01*
X127219500Y-75598370D01*
X127219501Y-75598376D01*
X127225908Y-75657983D01*
X127276202Y-75792828D01*
X127276206Y-75792835D01*
X127362452Y-75908044D01*
X127362455Y-75908047D01*
X127477664Y-75994293D01*
X127477671Y-75994297D01*
X127505287Y-76004597D01*
X127612517Y-76044591D01*
X127672127Y-76051000D01*
X128417872Y-76050999D01*
X128477483Y-76044591D01*
X128584713Y-76004597D01*
X128612329Y-75994297D01*
X128620112Y-75990047D01*
X128621865Y-75993257D01*
X128670999Y-75974861D01*
X128739291Y-75989627D01*
X128740263Y-75990252D01*
X128747670Y-75994297D01*
X128822155Y-76022077D01*
X128882517Y-76044591D01*
X128942127Y-76051000D01*
X129687872Y-76050999D01*
X129747483Y-76044591D01*
X129854713Y-76004597D01*
X129882329Y-75994297D01*
X129890112Y-75990047D01*
X129891865Y-75993257D01*
X129940999Y-75974861D01*
X130009291Y-75989627D01*
X130010263Y-75990252D01*
X130017670Y-75994297D01*
X130092155Y-76022077D01*
X130152517Y-76044591D01*
X130212127Y-76051000D01*
X130262902Y-76050999D01*
X130329940Y-76070682D01*
X130375695Y-76123485D01*
X130385640Y-76192644D01*
X130356616Y-76256200D01*
X130350584Y-76262680D01*
X130040082Y-76573182D01*
X129978761Y-76606666D01*
X129952403Y-76609500D01*
X125310792Y-76609500D01*
X125243753Y-76589815D01*
X125210474Y-76558386D01*
X125115690Y-76427927D01*
X124982073Y-76294310D01*
X124829199Y-76183240D01*
X124828243Y-76182753D01*
X124660836Y-76097454D01*
X124481118Y-76039059D01*
X124294486Y-76009500D01*
X124294481Y-76009500D01*
X124105519Y-76009500D01*
X124105514Y-76009500D01*
X123918881Y-76039059D01*
X123739163Y-76097454D01*
X123570800Y-76183240D01*
X123489805Y-76242087D01*
X123417927Y-76294310D01*
X123417925Y-76294312D01*
X123417924Y-76294312D01*
X123284312Y-76427924D01*
X123284312Y-76427925D01*
X123284310Y-76427927D01*
X123253822Y-76469890D01*
X123173240Y-76580800D01*
X123087454Y-76749163D01*
X123029059Y-76928881D01*
X122999500Y-77115513D01*
X122999500Y-77304486D01*
X123029059Y-77491118D01*
X123087454Y-77670836D01*
X123137765Y-77769576D01*
X123173240Y-77839199D01*
X123284310Y-77992073D01*
X123417927Y-78125690D01*
X123570801Y-78236760D01*
X123650347Y-78277290D01*
X123739163Y-78322545D01*
X123739165Y-78322545D01*
X123739168Y-78322547D01*
X123835497Y-78353846D01*
X123918881Y-78380940D01*
X124105514Y-78410500D01*
X124105519Y-78410500D01*
X124294486Y-78410500D01*
X124481118Y-78380940D01*
X124484670Y-78379786D01*
X124660832Y-78322547D01*
X124829199Y-78236760D01*
X124982073Y-78125690D01*
X125115690Y-77992073D01*
X125210475Y-77861613D01*
X125265804Y-77818949D01*
X125310792Y-77810500D01*
X130165831Y-77810500D01*
X130165847Y-77810501D01*
X130173443Y-77810501D01*
X130331554Y-77810501D01*
X130331557Y-77810501D01*
X130484285Y-77769577D01*
X130534404Y-77740639D01*
X130621216Y-77690520D01*
X130733020Y-77578716D01*
X130733020Y-77578714D01*
X130743228Y-77568507D01*
X130743230Y-77568504D01*
X130918021Y-77393713D01*
X137649500Y-77393713D01*
X137649500Y-77606286D01*
X137681844Y-77810501D01*
X137682754Y-77816243D01*
X137739885Y-77992074D01*
X137748444Y-78018414D01*
X137844951Y-78207820D01*
X137969890Y-78379786D01*
X138120213Y-78530109D01*
X138292179Y-78655048D01*
X138292181Y-78655049D01*
X138292184Y-78655051D01*
X138481588Y-78751557D01*
X138683757Y-78817246D01*
X138893713Y-78850500D01*
X138893714Y-78850500D01*
X139106286Y-78850500D01*
X139106287Y-78850500D01*
X139316243Y-78817246D01*
X139518412Y-78751557D01*
X139707816Y-78655051D01*
X139788277Y-78596593D01*
X139879786Y-78530109D01*
X139879788Y-78530106D01*
X139879792Y-78530104D01*
X140030104Y-78379792D01*
X140030106Y-78379788D01*
X140030109Y-78379786D01*
X140155048Y-78207820D01*
X140155047Y-78207820D01*
X140155051Y-78207816D01*
X140251557Y-78018412D01*
X140317246Y-77816243D01*
X140350500Y-77606287D01*
X140350500Y-77393713D01*
X140317246Y-77183757D01*
X140251557Y-76981588D01*
X140155051Y-76792184D01*
X140155049Y-76792181D01*
X140155048Y-76792179D01*
X140030109Y-76620213D01*
X139879786Y-76469890D01*
X139707820Y-76344951D01*
X139518414Y-76248444D01*
X139518413Y-76248443D01*
X139518412Y-76248443D01*
X139316243Y-76182754D01*
X139316241Y-76182753D01*
X139316240Y-76182753D01*
X139154957Y-76157208D01*
X139106287Y-76149500D01*
X138893713Y-76149500D01*
X138845042Y-76157208D01*
X138683760Y-76182753D01*
X138481585Y-76248444D01*
X138292179Y-76344951D01*
X138120213Y-76469890D01*
X137969890Y-76620213D01*
X137844951Y-76792179D01*
X137748444Y-76981585D01*
X137682753Y-77183760D01*
X137649500Y-77393713D01*
X130918021Y-77393713D01*
X132223713Y-76088021D01*
X132223716Y-76088020D01*
X132235979Y-76075757D01*
X132236008Y-76075740D01*
X132280321Y-76047262D01*
X132287482Y-76044591D01*
X132287483Y-76044591D01*
X132422331Y-75994296D01*
X132537546Y-75908046D01*
X132623796Y-75792831D01*
X132674091Y-75657983D01*
X132680500Y-75598373D01*
X132680499Y-73977628D01*
X132674091Y-73918017D01*
X132625442Y-73787583D01*
X132623797Y-73783171D01*
X132623793Y-73783164D01*
X132537547Y-73667955D01*
X132537544Y-73667952D01*
X132422335Y-73581706D01*
X132422328Y-73581702D01*
X132287482Y-73531408D01*
X132287483Y-73531408D01*
X132227883Y-73525001D01*
X132227881Y-73525000D01*
X132227873Y-73525000D01*
X132227865Y-73525000D01*
X132034096Y-73525000D01*
X131967057Y-73505315D01*
X131921302Y-73452511D01*
X131911358Y-73383353D01*
X131940383Y-73319797D01*
X131946415Y-73313319D01*
X132367023Y-72892712D01*
X132872916Y-72386819D01*
X132934239Y-72353334D01*
X132960597Y-72350500D01*
X137403331Y-72350500D01*
X137403347Y-72350501D01*
X137410943Y-72350501D01*
X137569054Y-72350501D01*
X137569057Y-72350501D01*
X137721785Y-72309577D01*
X137771904Y-72280639D01*
X137858716Y-72230520D01*
X137970520Y-72118716D01*
X137970520Y-72118714D01*
X137980728Y-72108507D01*
X137980730Y-72108504D01*
X138339169Y-71750064D01*
X138400490Y-71716581D01*
X138446246Y-71715274D01*
X138605514Y-71740500D01*
X138605519Y-71740500D01*
X138794486Y-71740500D01*
X138981118Y-71710940D01*
X139011753Y-71700986D01*
X139160832Y-71652547D01*
X139329199Y-71566760D01*
X139482073Y-71455690D01*
X139615690Y-71322073D01*
X139710475Y-71191613D01*
X139765804Y-71148949D01*
X139810792Y-71140500D01*
X141376234Y-71140500D01*
X141443273Y-71160185D01*
X141489028Y-71212989D01*
X141494164Y-71226178D01*
X141494781Y-71228078D01*
X141515876Y-71269479D01*
X141556953Y-71350097D01*
X141587715Y-71410469D01*
X141708028Y-71576069D01*
X141852786Y-71720827D01*
X141984386Y-71816438D01*
X142018390Y-71841143D01*
X142130683Y-71898359D01*
X142200776Y-71934074D01*
X142200778Y-71934074D01*
X142200781Y-71934076D01*
X142305137Y-71967983D01*
X142395465Y-71997333D01*
X142496557Y-72013344D01*
X142597648Y-72029356D01*
X142597649Y-72029356D01*
X142802351Y-72029356D01*
X142802352Y-72029356D01*
X143004534Y-71997333D01*
X143199219Y-71934076D01*
X143381610Y-71841143D01*
X143506968Y-71750066D01*
X143547213Y-71720827D01*
X143547215Y-71720824D01*
X143547219Y-71720822D01*
X143691966Y-71576075D01*
X143691968Y-71576071D01*
X143691971Y-71576069D01*
X143779432Y-71455687D01*
X143812287Y-71410466D01*
X143905220Y-71228075D01*
X143968477Y-71033390D01*
X144000500Y-70831208D01*
X144000500Y-70626504D01*
X143971834Y-70445519D01*
X143968477Y-70424321D01*
X143905218Y-70229632D01*
X143828552Y-70079168D01*
X143812287Y-70047246D01*
X143812285Y-70047244D01*
X143812282Y-70047237D01*
X143809741Y-70043090D01*
X143810654Y-70042530D01*
X143788909Y-69981572D01*
X143804738Y-69913519D01*
X143854846Y-69864827D01*
X143912707Y-69850500D01*
X146628759Y-69850500D01*
X146695798Y-69870185D01*
X146716440Y-69886819D01*
X148092037Y-71262416D01*
X148125522Y-71323739D01*
X148128356Y-71350097D01*
X148128356Y-72350001D01*
X148128357Y-72350019D01*
X148138856Y-72452796D01*
X148138857Y-72452799D01*
X148151896Y-72492147D01*
X148194042Y-72619334D01*
X148286144Y-72768656D01*
X148410200Y-72892712D01*
X148559522Y-72984814D01*
X148726059Y-73039999D01*
X148828847Y-73050500D01*
X150028864Y-73050499D01*
X150131653Y-73039999D01*
X150298190Y-72984814D01*
X150447512Y-72892712D01*
X150571568Y-72768656D01*
X150663670Y-72619334D01*
X150718855Y-72452797D01*
X150729356Y-72350009D01*
X150729355Y-71149992D01*
X150729248Y-71148949D01*
X150718855Y-71047203D01*
X150718854Y-71047200D01*
X150703489Y-71000832D01*
X150663670Y-70880666D01*
X150571568Y-70731344D01*
X150447512Y-70607288D01*
X150298190Y-70515186D01*
X150131653Y-70460001D01*
X150131651Y-70460000D01*
X150028872Y-70449500D01*
X150028865Y-70449500D01*
X149028953Y-70449500D01*
X148961914Y-70429815D01*
X148941272Y-70413181D01*
X147416446Y-68888355D01*
X147416444Y-68888352D01*
X147297573Y-68769481D01*
X147297572Y-68769480D01*
X147210760Y-68719360D01*
X147210760Y-68719359D01*
X147210756Y-68719358D01*
X147160641Y-68690423D01*
X147007913Y-68649499D01*
X146849799Y-68649499D01*
X146842203Y-68649499D01*
X146842187Y-68649500D01*
X136410939Y-68649500D01*
X136388903Y-68655404D01*
X136388904Y-68655405D01*
X136258214Y-68690423D01*
X136258209Y-68690426D01*
X136121290Y-68769475D01*
X136121282Y-68769481D01*
X136009478Y-68881286D01*
X135560830Y-69329933D01*
X135499507Y-69363418D01*
X135453751Y-69364725D01*
X135294486Y-69339500D01*
X135294481Y-69339500D01*
X135105519Y-69339500D01*
X135105514Y-69339500D01*
X134918881Y-69369059D01*
X134739163Y-69427454D01*
X134570800Y-69513240D01*
X134488078Y-69573342D01*
X134417927Y-69624310D01*
X134417925Y-69624312D01*
X134417924Y-69624312D01*
X134284312Y-69757924D01*
X134284312Y-69757925D01*
X134284310Y-69757927D01*
X134194429Y-69881637D01*
X134189526Y-69888386D01*
X134134196Y-69931051D01*
X134089208Y-69939500D01*
X132687169Y-69939500D01*
X132679561Y-69939499D01*
X132679558Y-69939499D01*
X132601916Y-69939499D01*
X132534876Y-69919814D01*
X132489122Y-69867009D01*
X132479179Y-69797851D01*
X132500804Y-69750500D01*
X132508204Y-69734296D01*
X132514236Y-69727818D01*
X134894235Y-67347819D01*
X134955558Y-67314334D01*
X134981916Y-67311500D01*
X135631512Y-67311500D01*
X135631528Y-67311501D01*
X135639124Y-67311501D01*
X135797235Y-67311501D01*
X135797238Y-67311501D01*
X135949966Y-67270577D01*
X136030445Y-67224112D01*
X136086897Y-67191520D01*
X136198701Y-67079716D01*
X136198701Y-67079714D01*
X136208905Y-67069511D01*
X136208909Y-67069506D01*
X137318713Y-65959702D01*
X137318716Y-65959701D01*
X137352009Y-65926407D01*
X137384807Y-65908499D01*
X137413327Y-65892926D01*
X137413328Y-65892926D01*
X137413331Y-65892925D01*
X137458144Y-65896131D01*
X137483018Y-65897910D01*
X137483019Y-65897910D01*
X137483022Y-65897911D01*
X137512778Y-65920187D01*
X137538952Y-65939780D01*
X137538954Y-65939783D01*
X137538955Y-65939784D01*
X137538955Y-65939786D01*
X137550171Y-65957797D01*
X137630476Y-66115405D01*
X137746172Y-66274646D01*
X137885354Y-66413828D01*
X138044595Y-66529524D01*
X138127455Y-66571743D01*
X138219970Y-66618882D01*
X138219972Y-66618882D01*
X138219975Y-66618884D01*
X138320317Y-66651487D01*
X138407173Y-66679709D01*
X138601578Y-66710500D01*
X138601583Y-66710500D01*
X138798422Y-66710500D01*
X138992826Y-66679709D01*
X139180025Y-66618884D01*
X139355405Y-66529524D01*
X139514646Y-66413828D01*
X139653828Y-66274646D01*
X139769524Y-66115405D01*
X139858884Y-65940025D01*
X139919709Y-65752826D01*
X139950500Y-65558422D01*
X139950500Y-63893713D01*
X146649500Y-63893713D01*
X146649500Y-64106287D01*
X146682754Y-64316243D01*
X146732276Y-64468656D01*
X146748444Y-64518414D01*
X146844951Y-64707820D01*
X146969890Y-64879786D01*
X147120213Y-65030109D01*
X147292179Y-65155048D01*
X147292181Y-65155049D01*
X147292184Y-65155051D01*
X147481588Y-65251557D01*
X147683757Y-65317246D01*
X147893713Y-65350500D01*
X147893714Y-65350500D01*
X148106286Y-65350500D01*
X148106287Y-65350500D01*
X148316243Y-65317246D01*
X148518412Y-65251557D01*
X148707816Y-65155051D01*
X148729789Y-65139086D01*
X148879786Y-65030109D01*
X148879788Y-65030106D01*
X148879792Y-65030104D01*
X149030104Y-64879792D01*
X149030106Y-64879788D01*
X149030109Y-64879786D01*
X149155048Y-64707820D01*
X149155047Y-64707820D01*
X149155051Y-64707816D01*
X149251557Y-64518412D01*
X149317246Y-64316243D01*
X149350500Y-64106287D01*
X149350500Y-63893713D01*
X149317246Y-63683757D01*
X149251557Y-63481588D01*
X149155051Y-63292184D01*
X149155049Y-63292181D01*
X149155048Y-63292179D01*
X149030109Y-63120213D01*
X148879786Y-62969890D01*
X148707820Y-62844951D01*
X148518414Y-62748444D01*
X148518413Y-62748443D01*
X148518412Y-62748443D01*
X148316243Y-62682754D01*
X148316241Y-62682753D01*
X148316240Y-62682753D01*
X148154957Y-62657208D01*
X148106287Y-62649500D01*
X147893713Y-62649500D01*
X147845042Y-62657208D01*
X147683760Y-62682753D01*
X147481585Y-62748444D01*
X147292179Y-62844951D01*
X147120213Y-62969890D01*
X146969890Y-63120213D01*
X146844951Y-63292179D01*
X146748444Y-63481585D01*
X146682753Y-63683760D01*
X146664422Y-63799500D01*
X146649500Y-63893713D01*
X139950500Y-63893713D01*
X139950500Y-63799500D01*
X139970185Y-63732461D01*
X140022989Y-63686706D01*
X140074500Y-63675500D01*
X140500005Y-63675500D01*
X140500010Y-63675500D01*
X140602798Y-63664999D01*
X140769335Y-63609814D01*
X140918656Y-63517712D01*
X141042712Y-63393656D01*
X141134814Y-63244335D01*
X141189999Y-63077798D01*
X141200500Y-62975010D01*
X141200500Y-62119335D01*
X141220185Y-62052296D01*
X141236814Y-62031659D01*
X147189046Y-56079426D01*
X147250367Y-56045943D01*
X147320059Y-56050927D01*
X147324178Y-56052548D01*
X147536516Y-56140501D01*
X147555581Y-56148398D01*
X147808884Y-56216270D01*
X148068880Y-56250500D01*
X148068887Y-56250500D01*
X148331113Y-56250500D01*
X148331120Y-56250500D01*
X148591116Y-56216270D01*
X148844419Y-56148398D01*
X149075821Y-56052548D01*
X149086695Y-56048044D01*
X149086697Y-56048043D01*
X149313803Y-55916924D01*
X149521851Y-55757282D01*
X149521855Y-55757277D01*
X149521860Y-55757274D01*
X149707274Y-55571860D01*
X149707277Y-55571855D01*
X149707282Y-55571851D01*
X149866924Y-55363803D01*
X149998043Y-55136697D01*
X150002872Y-55125040D01*
X150071471Y-54959427D01*
X150098398Y-54894419D01*
X150166270Y-54641116D01*
X150200500Y-54381120D01*
X150200500Y-54118880D01*
X150166270Y-53858884D01*
X150098398Y-53605581D01*
X150098394Y-53605571D01*
X149998046Y-53363309D01*
X149998041Y-53363299D01*
X149866924Y-53136196D01*
X149707281Y-52928148D01*
X149707274Y-52928140D01*
X149521860Y-52742726D01*
X149521851Y-52742718D01*
X149313803Y-52583075D01*
X149086700Y-52451958D01*
X149086690Y-52451953D01*
X148844428Y-52351605D01*
X148844421Y-52351603D01*
X148844419Y-52351602D01*
X148591116Y-52283730D01*
X148533339Y-52276123D01*
X148331127Y-52249500D01*
X148331120Y-52249500D01*
X148068880Y-52249500D01*
X148068872Y-52249500D01*
X147837772Y-52279926D01*
X147808884Y-52283730D01*
X147613268Y-52336145D01*
X147555581Y-52351602D01*
X147555571Y-52351605D01*
X147313309Y-52451953D01*
X147313299Y-52451958D01*
X147086196Y-52583075D01*
X146878148Y-52742718D01*
X146692718Y-52928148D01*
X146533083Y-53136186D01*
X146533076Y-53136197D01*
X146456199Y-53269351D01*
X146436493Y-53295031D01*
X140443345Y-59288181D01*
X140382022Y-59321666D01*
X140355664Y-59324500D01*
X139499982Y-59324500D01*
X139397203Y-59335000D01*
X139397202Y-59335001D01*
X139314669Y-59362349D01*
X139230667Y-59390185D01*
X139230662Y-59390187D01*
X139081342Y-59482289D01*
X138957289Y-59606342D01*
X138865187Y-59755662D01*
X138865186Y-59755665D01*
X138810001Y-59922202D01*
X138810001Y-59922203D01*
X138810000Y-59922203D01*
X138799500Y-60024982D01*
X138799500Y-60880664D01*
X138779815Y-60947703D01*
X138763181Y-60968345D01*
X137812181Y-61919345D01*
X137750858Y-61952830D01*
X137681166Y-61947846D01*
X137625233Y-61905974D01*
X137600816Y-61840510D01*
X137600500Y-61831664D01*
X137600500Y-59050096D01*
X137620185Y-58983057D01*
X137636814Y-58962420D01*
X140408506Y-56190727D01*
X140408511Y-56190724D01*
X140418714Y-56180520D01*
X140418716Y-56180520D01*
X140530520Y-56068716D01*
X140609577Y-55931784D01*
X140650500Y-55779057D01*
X140650500Y-54891018D01*
X140670185Y-54823979D01*
X140722989Y-54778224D01*
X140748552Y-54769763D01*
X140752788Y-54768855D01*
X140752797Y-54768855D01*
X140919334Y-54713670D01*
X141068656Y-54621568D01*
X141192712Y-54497512D01*
X141284814Y-54348190D01*
X141339999Y-54181653D01*
X141350500Y-54078865D01*
X141350499Y-52878848D01*
X141350370Y-52877590D01*
X141339999Y-52776059D01*
X141339998Y-52776056D01*
X141334251Y-52758714D01*
X141284814Y-52609522D01*
X141192712Y-52460200D01*
X141068656Y-52336144D01*
X140919334Y-52244042D01*
X140752797Y-52188857D01*
X140752795Y-52188856D01*
X140650010Y-52178356D01*
X139449998Y-52178356D01*
X139449981Y-52178357D01*
X139347203Y-52188856D01*
X139347200Y-52188857D01*
X139180668Y-52244041D01*
X139180663Y-52244043D01*
X139031342Y-52336145D01*
X138907289Y-52460198D01*
X138815187Y-52609519D01*
X138815185Y-52609524D01*
X138812026Y-52619057D01*
X138760001Y-52776059D01*
X138760001Y-52776060D01*
X138760000Y-52776060D01*
X138749500Y-52878839D01*
X138749500Y-53878757D01*
X138729815Y-53945796D01*
X138713181Y-53966438D01*
X137776440Y-54903181D01*
X137715117Y-54936666D01*
X137688759Y-54939500D01*
X136610792Y-54939500D01*
X136543753Y-54919815D01*
X136510474Y-54888386D01*
X136415690Y-54757927D01*
X136282073Y-54624310D01*
X136129199Y-54513240D01*
X136098331Y-54497512D01*
X135960836Y-54427454D01*
X135781118Y-54369059D01*
X135594486Y-54339500D01*
X135594481Y-54339500D01*
X135405519Y-54339500D01*
X135405514Y-54339500D01*
X135246247Y-54364725D01*
X135176953Y-54355770D01*
X135139168Y-54329933D01*
X133386819Y-52577584D01*
X133353334Y-52516261D01*
X133350500Y-52489903D01*
X133350500Y-51570791D01*
X133370185Y-51503752D01*
X133401612Y-51470475D01*
X133532073Y-51375690D01*
X133665690Y-51242073D01*
X133776760Y-51089199D01*
X133862547Y-50920832D01*
X133920940Y-50741118D01*
X133925275Y-50713750D01*
X133950500Y-50554486D01*
X133950500Y-50365513D01*
X133920940Y-50178881D01*
X133862545Y-49999163D01*
X133776759Y-49830800D01*
X133757719Y-49804594D01*
X133665690Y-49677927D01*
X133599944Y-49612181D01*
X133566459Y-49550858D01*
X133571443Y-49481166D01*
X133613315Y-49425233D01*
X133678779Y-49400816D01*
X133687625Y-49400500D01*
X152175500Y-49400500D01*
X152242539Y-49420185D01*
X152288294Y-49472989D01*
X152299500Y-49524500D01*
X152299500Y-96725500D01*
X152279815Y-96792539D01*
X152227011Y-96838294D01*
X152175500Y-96849500D01*
X106724500Y-96849500D01*
X106657461Y-96829815D01*
X106611706Y-96777011D01*
X106600500Y-96725500D01*
X106600500Y-93635258D01*
X109082000Y-93635258D01*
X109082000Y-93864741D01*
X109102265Y-94018657D01*
X109111952Y-94092238D01*
X109130688Y-94162162D01*
X109171342Y-94313887D01*
X109259150Y-94525876D01*
X109259157Y-94525890D01*
X109373892Y-94724617D01*
X109513581Y-94906661D01*
X109513589Y-94906670D01*
X109675830Y-95068911D01*
X109675838Y-95068918D01*
X109857882Y-95208607D01*
X109857885Y-95208608D01*
X109857888Y-95208611D01*
X110056612Y-95323344D01*
X110056617Y-95323346D01*
X110056623Y-95323349D01*
X110093223Y-95338509D01*
X110268613Y-95411158D01*
X110490262Y-95470548D01*
X110717766Y-95500500D01*
X110717773Y-95500500D01*
X110947227Y-95500500D01*
X110947234Y-95500500D01*
X111174738Y-95470548D01*
X111396387Y-95411158D01*
X111495228Y-95370215D01*
X111564696Y-95362747D01*
X111627175Y-95394021D01*
X111630361Y-95397096D01*
X112347639Y-96114374D01*
X112347649Y-96114385D01*
X112351979Y-96118715D01*
X112351980Y-96118716D01*
X112463784Y-96230520D01*
X112550595Y-96280639D01*
X112550597Y-96280641D01*
X112588651Y-96302611D01*
X112600715Y-96309577D01*
X112753443Y-96350500D01*
X112911557Y-96350500D01*
X121863331Y-96350500D01*
X121863347Y-96350501D01*
X121870943Y-96350501D01*
X122029054Y-96350501D01*
X122029057Y-96350501D01*
X122181785Y-96309577D01*
X122231904Y-96280639D01*
X122318716Y-96230520D01*
X122430520Y-96118716D01*
X122430520Y-96118714D01*
X122701664Y-95847572D01*
X122780721Y-95710640D01*
X122821645Y-95557913D01*
X122821645Y-95399798D01*
X122821645Y-95392203D01*
X122821644Y-95392185D01*
X122821644Y-94162162D01*
X122841329Y-94095123D01*
X122894133Y-94049368D01*
X122919696Y-94040907D01*
X122923932Y-94039999D01*
X122923941Y-94039999D01*
X123090478Y-93984814D01*
X123239800Y-93892712D01*
X123363856Y-93768656D01*
X123455958Y-93619334D01*
X123511143Y-93452797D01*
X123521644Y-93350009D01*
X123521643Y-92149992D01*
X123515396Y-92088842D01*
X123511143Y-92047203D01*
X123511142Y-92047200D01*
X123505261Y-92029452D01*
X123455958Y-91880666D01*
X123363856Y-91731344D01*
X123239800Y-91607288D01*
X123090478Y-91515186D01*
X123090475Y-91515185D01*
X122923939Y-91460000D01*
X122919677Y-91459088D01*
X122858246Y-91425801D01*
X122824563Y-91364586D01*
X122821644Y-91337837D01*
X122821644Y-89849417D01*
X122841329Y-89782378D01*
X122848998Y-89771728D01*
X122867030Y-89749296D01*
X122951641Y-89578693D01*
X122997600Y-89393889D01*
X123000500Y-89351123D01*
X123000499Y-87948878D01*
X122997600Y-87906111D01*
X122951641Y-87721307D01*
X122934248Y-87686237D01*
X122867032Y-87550707D01*
X122867030Y-87550704D01*
X122747722Y-87402278D01*
X122747721Y-87402277D01*
X122599295Y-87282969D01*
X122599292Y-87282967D01*
X122428697Y-87198360D01*
X122243892Y-87152400D01*
X122222506Y-87150950D01*
X122201123Y-87149500D01*
X122201120Y-87149500D01*
X121298877Y-87149500D01*
X121298874Y-87149501D01*
X121256113Y-87152399D01*
X121256112Y-87152399D01*
X121071303Y-87198360D01*
X120900707Y-87282967D01*
X120900704Y-87282969D01*
X120752278Y-87402277D01*
X120752277Y-87402278D01*
X120696647Y-87471486D01*
X120639304Y-87511405D01*
X120569482Y-87513985D01*
X120509349Y-87478406D01*
X120503353Y-87471486D01*
X120447722Y-87402278D01*
X120447721Y-87402277D01*
X120299295Y-87282969D01*
X120299292Y-87282967D01*
X120128697Y-87198360D01*
X119943892Y-87152400D01*
X119922506Y-87150950D01*
X119901123Y-87149500D01*
X119901120Y-87149500D01*
X118998877Y-87149500D01*
X118998874Y-87149501D01*
X118956113Y-87152399D01*
X118956112Y-87152399D01*
X118771303Y-87198360D01*
X118600707Y-87282967D01*
X118600704Y-87282969D01*
X118452278Y-87402277D01*
X118452277Y-87402278D01*
X118332969Y-87550704D01*
X118332967Y-87550707D01*
X118248360Y-87721302D01*
X118202400Y-87906107D01*
X118199500Y-87948879D01*
X118199500Y-88999901D01*
X118179815Y-89066940D01*
X118163181Y-89087582D01*
X116602430Y-90648334D01*
X116490625Y-90760138D01*
X116490624Y-90760140D01*
X116459665Y-90813763D01*
X116411567Y-90897071D01*
X116370643Y-91049799D01*
X116370643Y-91049801D01*
X116370643Y-91217902D01*
X116370644Y-91217915D01*
X116370644Y-91587837D01*
X116350959Y-91654876D01*
X116298155Y-91700631D01*
X116272603Y-91709089D01*
X116268351Y-91709999D01*
X116101812Y-91765185D01*
X116101807Y-91765187D01*
X115952486Y-91857289D01*
X115828433Y-91981342D01*
X115736331Y-92130663D01*
X115736329Y-92130668D01*
X115721092Y-92176650D01*
X115681145Y-92297203D01*
X115681145Y-92297204D01*
X115681144Y-92297204D01*
X115670644Y-92399983D01*
X115670644Y-93600001D01*
X115670645Y-93600018D01*
X115681144Y-93702796D01*
X115681145Y-93702799D01*
X115736329Y-93869331D01*
X115736331Y-93869336D01*
X115771213Y-93925888D01*
X115828432Y-94018656D01*
X115952488Y-94142712D01*
X116101810Y-94234814D01*
X116268347Y-94289999D01*
X116371135Y-94300500D01*
X117571152Y-94300499D01*
X117673941Y-94289999D01*
X117840478Y-94234814D01*
X117989800Y-94142712D01*
X118113856Y-94018656D01*
X118205958Y-93869334D01*
X118261143Y-93702797D01*
X118271644Y-93600009D01*
X118271643Y-92399992D01*
X118261143Y-92297203D01*
X118205958Y-92130666D01*
X118113856Y-91981344D01*
X117989800Y-91857288D01*
X117897032Y-91800069D01*
X117840480Y-91765187D01*
X117840475Y-91765185D01*
X117673939Y-91710000D01*
X117669677Y-91709088D01*
X117642526Y-91694376D01*
X117614441Y-91681550D01*
X117612082Y-91677879D01*
X117608246Y-91675801D01*
X117593358Y-91648744D01*
X117576667Y-91622772D01*
X117575817Y-91616866D01*
X117574563Y-91614586D01*
X117571644Y-91587837D01*
X117571644Y-91428953D01*
X117591329Y-91361914D01*
X117607963Y-91341272D01*
X118189097Y-90760138D01*
X118782829Y-90166405D01*
X118844150Y-90132922D01*
X118900432Y-90133752D01*
X118956111Y-90147600D01*
X118998877Y-90150500D01*
X119901122Y-90150499D01*
X119943889Y-90147600D01*
X120128693Y-90101641D01*
X120299296Y-90017030D01*
X120447722Y-89897722D01*
X120503353Y-89828514D01*
X120560696Y-89788595D01*
X120630518Y-89786015D01*
X120690651Y-89821594D01*
X120696647Y-89828514D01*
X120752277Y-89897721D01*
X120752278Y-89897722D01*
X120900704Y-90017030D01*
X120900707Y-90017032D01*
X121071302Y-90101639D01*
X121071303Y-90101639D01*
X121071307Y-90101641D01*
X121256111Y-90147600D01*
X121298877Y-90150500D01*
X121496644Y-90150499D01*
X121563683Y-90170183D01*
X121609438Y-90222987D01*
X121620644Y-90274499D01*
X121620644Y-91337837D01*
X121600959Y-91404876D01*
X121548155Y-91450631D01*
X121522603Y-91459089D01*
X121518351Y-91459999D01*
X121351812Y-91515185D01*
X121351807Y-91515187D01*
X121202486Y-91607289D01*
X121078433Y-91731342D01*
X120986331Y-91880663D01*
X120986330Y-91880666D01*
X120931145Y-92047203D01*
X120931145Y-92047204D01*
X120931144Y-92047204D01*
X120920644Y-92149983D01*
X120920644Y-93350001D01*
X120920645Y-93350018D01*
X120931144Y-93452796D01*
X120931145Y-93452798D01*
X120986329Y-93619331D01*
X120986331Y-93619336D01*
X121000317Y-93642011D01*
X121078432Y-93768656D01*
X121202488Y-93892712D01*
X121351810Y-93984814D01*
X121518347Y-94039999D01*
X121518353Y-94039999D01*
X121522592Y-94040907D01*
X121584028Y-94074185D01*
X121617720Y-94135394D01*
X121620644Y-94162162D01*
X121620644Y-95025500D01*
X121600959Y-95092539D01*
X121548155Y-95138294D01*
X121496644Y-95149500D01*
X113132597Y-95149500D01*
X113065558Y-95129815D01*
X113044916Y-95113181D01*
X112479596Y-94547861D01*
X112446111Y-94486538D01*
X112451095Y-94416846D01*
X112452700Y-94412764D01*
X112493658Y-94313887D01*
X112553048Y-94092238D01*
X112583000Y-93864734D01*
X112583000Y-93635266D01*
X112553048Y-93407762D01*
X112493658Y-93186113D01*
X112443690Y-93065480D01*
X112405849Y-92974123D01*
X112405846Y-92974117D01*
X112405844Y-92974112D01*
X112291111Y-92775388D01*
X112291108Y-92775385D01*
X112291107Y-92775382D01*
X112151418Y-92593338D01*
X112151411Y-92593330D01*
X111989170Y-92431089D01*
X111989161Y-92431081D01*
X111807117Y-92291392D01*
X111796946Y-92285520D01*
X111608388Y-92176656D01*
X111608376Y-92176650D01*
X111396387Y-92088842D01*
X111174738Y-92029452D01*
X111136715Y-92024446D01*
X110947241Y-91999500D01*
X110947234Y-91999500D01*
X110717766Y-91999500D01*
X110717758Y-91999500D01*
X110501215Y-92028009D01*
X110490262Y-92029452D01*
X110424025Y-92047200D01*
X110268612Y-92088842D01*
X110056623Y-92176650D01*
X110056609Y-92176657D01*
X109857882Y-92291392D01*
X109675838Y-92431081D01*
X109513581Y-92593338D01*
X109373892Y-92775382D01*
X109259157Y-92974109D01*
X109259150Y-92974123D01*
X109171342Y-93186112D01*
X109111953Y-93407759D01*
X109111951Y-93407770D01*
X109082000Y-93635258D01*
X106600500Y-93635258D01*
X106600500Y-73399983D01*
X112628356Y-73399983D01*
X112628356Y-74600001D01*
X112628357Y-74600018D01*
X112638856Y-74702796D01*
X112638857Y-74702799D01*
X112676645Y-74816834D01*
X112694042Y-74869334D01*
X112786144Y-75018656D01*
X112910200Y-75142712D01*
X113059522Y-75234814D01*
X113226059Y-75289999D01*
X113328847Y-75300500D01*
X114050902Y-75300499D01*
X114117941Y-75320183D01*
X114163696Y-75372987D01*
X114173640Y-75442146D01*
X114144615Y-75505702D01*
X114138583Y-75512180D01*
X113813243Y-75837520D01*
X113813236Y-75837527D01*
X113810142Y-75840622D01*
X113810140Y-75840624D01*
X113698336Y-75952428D01*
X113674164Y-75994296D01*
X113668218Y-76004594D01*
X113668216Y-76004597D01*
X113630062Y-76070682D01*
X113619279Y-76089359D01*
X113578355Y-76242087D01*
X113578355Y-76242089D01*
X113578355Y-76410190D01*
X113578356Y-76410203D01*
X113578356Y-79587837D01*
X113558671Y-79654876D01*
X113505867Y-79700631D01*
X113480315Y-79709089D01*
X113476063Y-79709999D01*
X113309524Y-79765185D01*
X113309519Y-79765187D01*
X113160198Y-79857289D01*
X113036145Y-79981342D01*
X112944043Y-80130663D01*
X112944041Y-80130668D01*
X112933241Y-80163260D01*
X112888857Y-80297203D01*
X112888857Y-80297204D01*
X112888856Y-80297204D01*
X112878356Y-80399983D01*
X112878356Y-81600001D01*
X112878357Y-81600018D01*
X112888856Y-81702796D01*
X112888857Y-81702799D01*
X112944041Y-81869331D01*
X112944042Y-81869334D01*
X113036144Y-82018656D01*
X113160200Y-82142712D01*
X113309522Y-82234814D01*
X113476059Y-82289999D01*
X113578847Y-82300500D01*
X114578758Y-82300499D01*
X114645797Y-82320183D01*
X114666439Y-82336818D01*
X115043995Y-82714374D01*
X115044005Y-82714385D01*
X115048335Y-82718715D01*
X115048336Y-82718716D01*
X115160140Y-82830520D01*
X115190076Y-82847803D01*
X115246951Y-82880639D01*
X115246953Y-82880641D01*
X115297069Y-82909576D01*
X115297071Y-82909577D01*
X115449798Y-82950500D01*
X115449799Y-82950500D01*
X116944610Y-82950500D01*
X117011649Y-82970185D01*
X117057404Y-83022989D01*
X117063823Y-83040382D01*
X117072892Y-83072074D01*
X117116089Y-83223045D01*
X117116090Y-83223048D01*
X117116091Y-83223049D01*
X117210302Y-83403407D01*
X117210304Y-83403409D01*
X117338890Y-83561109D01*
X117432803Y-83637684D01*
X117496593Y-83689698D01*
X117676951Y-83783909D01*
X117872582Y-83839886D01*
X117991963Y-83850500D01*
X120908036Y-83850499D01*
X121027418Y-83839886D01*
X121223049Y-83783909D01*
X121403407Y-83689698D01*
X121561109Y-83561109D01*
X121689698Y-83403407D01*
X121783909Y-83223049D01*
X121839886Y-83027418D01*
X121842011Y-83003518D01*
X121867556Y-82938486D01*
X121924204Y-82897587D01*
X121965524Y-82890500D01*
X123089208Y-82890500D01*
X123156247Y-82910185D01*
X123189524Y-82941612D01*
X123284310Y-83072073D01*
X123417927Y-83205690D01*
X123570801Y-83316760D01*
X123647294Y-83355735D01*
X123739163Y-83402545D01*
X123739165Y-83402545D01*
X123739168Y-83402547D01*
X123835497Y-83433846D01*
X123918881Y-83460940D01*
X124105514Y-83490500D01*
X124105519Y-83490500D01*
X124294486Y-83490500D01*
X124481118Y-83460940D01*
X124660832Y-83402547D01*
X124829199Y-83316760D01*
X124982073Y-83205690D01*
X125115690Y-83072073D01*
X125226760Y-82919199D01*
X125301735Y-82772050D01*
X125349709Y-82721255D01*
X125417530Y-82704460D01*
X125483665Y-82726997D01*
X125499901Y-82740665D01*
X127030449Y-84271213D01*
X127063934Y-84332536D01*
X127058950Y-84402228D01*
X127017078Y-84458161D01*
X127015655Y-84459211D01*
X126982751Y-84483117D01*
X126843115Y-84622753D01*
X126727058Y-84782495D01*
X126637408Y-84958441D01*
X126576389Y-85146236D01*
X126545500Y-85341263D01*
X126545500Y-85538736D01*
X126576389Y-85733763D01*
X126637408Y-85921558D01*
X126637409Y-85921561D01*
X126727056Y-86097501D01*
X126727058Y-86097504D01*
X126843115Y-86257246D01*
X126982753Y-86396884D01*
X127074703Y-86463688D01*
X127142499Y-86512944D01*
X127312404Y-86599516D01*
X127363199Y-86647490D01*
X127379994Y-86715311D01*
X127357456Y-86781446D01*
X127312404Y-86820483D01*
X127223403Y-86865833D01*
X127142495Y-86907058D01*
X126982753Y-87023115D01*
X126843115Y-87162753D01*
X126727058Y-87322495D01*
X126637408Y-87498441D01*
X126576389Y-87686236D01*
X126545500Y-87881263D01*
X126545500Y-88078736D01*
X126576389Y-88273763D01*
X126637408Y-88461558D01*
X126637409Y-88461561D01*
X126727056Y-88637501D01*
X126727058Y-88637504D01*
X126843115Y-88797246D01*
X126982753Y-88936884D01*
X127132234Y-89045486D01*
X127142499Y-89052944D01*
X127312404Y-89139516D01*
X127363199Y-89187490D01*
X127379994Y-89255311D01*
X127357456Y-89321446D01*
X127312404Y-89360483D01*
X127246844Y-89393889D01*
X127142495Y-89447058D01*
X126982753Y-89563115D01*
X126843115Y-89702753D01*
X126727058Y-89862495D01*
X126637408Y-90038441D01*
X126576389Y-90226236D01*
X126545500Y-90421263D01*
X126545500Y-90618736D01*
X126577152Y-90818575D01*
X126575407Y-90818851D01*
X126572290Y-90881038D01*
X126542892Y-90927871D01*
X126176286Y-91294478D01*
X126064481Y-91406282D01*
X126064477Y-91406287D01*
X126020736Y-91482051D01*
X125985423Y-91543215D01*
X125944499Y-91695943D01*
X125944499Y-91695945D01*
X125944499Y-91864046D01*
X125944500Y-91864059D01*
X125944500Y-93493169D01*
X125944499Y-93493187D01*
X125944499Y-93658893D01*
X125944498Y-93658893D01*
X125985423Y-93811624D01*
X126014358Y-93861739D01*
X126014359Y-93861743D01*
X126014360Y-93861743D01*
X126032238Y-93892710D01*
X126064479Y-93948553D01*
X126064481Y-93948556D01*
X126183349Y-94067424D01*
X126183354Y-94067428D01*
X126911445Y-94795520D01*
X126911447Y-94795521D01*
X126911451Y-94795524D01*
X127048370Y-94874573D01*
X127048377Y-94874577D01*
X127201104Y-94915501D01*
X127201106Y-94915501D01*
X127366815Y-94915501D01*
X127366831Y-94915500D01*
X136848331Y-94915500D01*
X136848347Y-94915501D01*
X136855943Y-94915501D01*
X137014054Y-94915501D01*
X137014057Y-94915501D01*
X137166785Y-94874577D01*
X137216904Y-94845639D01*
X137303716Y-94795520D01*
X137415520Y-94683716D01*
X137415520Y-94683714D01*
X137425728Y-94673507D01*
X137425730Y-94673504D01*
X138646437Y-93452796D01*
X138707758Y-93419313D01*
X138772433Y-93422547D01*
X138898632Y-93463553D01*
X138986110Y-93477408D01*
X139131903Y-93500500D01*
X139131908Y-93500500D01*
X139368097Y-93500500D01*
X139601368Y-93463553D01*
X139634471Y-93452797D01*
X139825992Y-93390568D01*
X140036433Y-93283343D01*
X140227510Y-93144517D01*
X140394517Y-92977510D01*
X140533343Y-92786433D01*
X140593583Y-92668204D01*
X140641558Y-92617409D01*
X140704068Y-92600500D01*
X144295932Y-92600500D01*
X144362971Y-92620185D01*
X144406416Y-92668203D01*
X144466657Y-92786433D01*
X144605483Y-92977510D01*
X144772490Y-93144517D01*
X144963567Y-93283343D01*
X145062991Y-93334002D01*
X145174003Y-93390566D01*
X145174005Y-93390566D01*
X145174008Y-93390568D01*
X145262476Y-93419313D01*
X145398631Y-93463553D01*
X145631903Y-93500500D01*
X145631908Y-93500500D01*
X145868097Y-93500500D01*
X146101368Y-93463553D01*
X146134471Y-93452797D01*
X146325992Y-93390568D01*
X146536433Y-93283343D01*
X146727510Y-93144517D01*
X146894517Y-92977510D01*
X147033343Y-92786433D01*
X147140568Y-92575992D01*
X147213553Y-92351368D01*
X147223983Y-92285518D01*
X147250500Y-92118097D01*
X147250500Y-91881902D01*
X147213553Y-91648631D01*
X147152263Y-91460001D01*
X147140568Y-91424008D01*
X147140566Y-91424005D01*
X147140566Y-91424003D01*
X147074569Y-91294478D01*
X147033343Y-91213567D01*
X146894517Y-91022490D01*
X146727510Y-90855483D01*
X146536433Y-90716657D01*
X146325996Y-90609433D01*
X146101368Y-90536446D01*
X145868097Y-90499500D01*
X145868092Y-90499500D01*
X145631908Y-90499500D01*
X145631903Y-90499500D01*
X145398631Y-90536446D01*
X145174003Y-90609433D01*
X144963566Y-90716657D01*
X144854550Y-90795862D01*
X144772490Y-90855483D01*
X144772488Y-90855485D01*
X144772487Y-90855485D01*
X144605485Y-91022487D01*
X144605485Y-91022488D01*
X144605483Y-91022490D01*
X144545862Y-91104550D01*
X144466657Y-91213566D01*
X144406417Y-91331795D01*
X144358442Y-91382591D01*
X144295932Y-91399500D01*
X140704068Y-91399500D01*
X140637029Y-91379815D01*
X140593583Y-91331795D01*
X140574569Y-91294478D01*
X140533343Y-91213567D01*
X140394517Y-91022490D01*
X140227510Y-90855483D01*
X140036433Y-90716657D01*
X139825996Y-90609433D01*
X139601368Y-90536446D01*
X139368097Y-90499500D01*
X139368092Y-90499500D01*
X139131908Y-90499500D01*
X139131903Y-90499500D01*
X138898631Y-90536446D01*
X138674003Y-90609433D01*
X138463566Y-90716657D01*
X138354550Y-90795862D01*
X138272490Y-90855483D01*
X138272488Y-90855485D01*
X138272487Y-90855485D01*
X138105485Y-91022487D01*
X138105485Y-91022488D01*
X138105483Y-91022490D01*
X138045862Y-91104550D01*
X137966657Y-91213566D01*
X137859433Y-91424003D01*
X137786446Y-91648631D01*
X137749500Y-91881902D01*
X137749500Y-92118097D01*
X137786447Y-92351369D01*
X137786447Y-92351372D01*
X137827450Y-92477564D01*
X137829445Y-92547405D01*
X137797200Y-92603563D01*
X136722584Y-93678181D01*
X136661261Y-93711666D01*
X136634903Y-93714500D01*
X129076536Y-93714500D01*
X129009497Y-93694815D01*
X128963742Y-93642011D01*
X128953798Y-93572853D01*
X128961109Y-93546203D01*
X128961085Y-93546195D01*
X128961258Y-93545660D01*
X128961976Y-93543046D01*
X128962589Y-93541565D01*
X128962589Y-93541564D01*
X128962591Y-93541561D01*
X129023610Y-93353763D01*
X129024206Y-93350001D01*
X129054500Y-93158736D01*
X129054500Y-92961263D01*
X129022848Y-92761425D01*
X129024594Y-92761148D01*
X129027704Y-92698973D01*
X129057103Y-92652130D01*
X129267417Y-92441816D01*
X129328739Y-92408334D01*
X129355097Y-92405500D01*
X130858331Y-92405500D01*
X130858347Y-92405501D01*
X130865943Y-92405501D01*
X131024054Y-92405501D01*
X131024057Y-92405501D01*
X131176785Y-92364577D01*
X131176787Y-92364575D01*
X131176789Y-92364575D01*
X131176790Y-92364574D01*
X131228745Y-92334578D01*
X131228746Y-92334577D01*
X131313716Y-92285520D01*
X131425520Y-92173716D01*
X131425520Y-92173714D01*
X131435724Y-92163511D01*
X131435727Y-92163506D01*
X135230520Y-88368716D01*
X135309577Y-88231784D01*
X135350501Y-88079057D01*
X135350501Y-87920942D01*
X135350501Y-87913347D01*
X135350500Y-87913329D01*
X135350500Y-87381902D01*
X137749500Y-87381902D01*
X137749500Y-87618097D01*
X137786446Y-87851368D01*
X137859433Y-88075996D01*
X137938812Y-88231784D01*
X137966657Y-88286433D01*
X138105483Y-88477510D01*
X138272490Y-88644517D01*
X138463567Y-88783343D01*
X138555939Y-88830409D01*
X138674003Y-88890566D01*
X138674005Y-88890566D01*
X138674008Y-88890568D01*
X138731487Y-88909244D01*
X138898631Y-88963553D01*
X139131903Y-89000500D01*
X139131908Y-89000500D01*
X139368097Y-89000500D01*
X139601368Y-88963553D01*
X139665457Y-88942729D01*
X139825992Y-88890568D01*
X140036433Y-88783343D01*
X140227510Y-88644517D01*
X140394517Y-88477510D01*
X140533343Y-88286433D01*
X140593583Y-88168204D01*
X140641558Y-88117409D01*
X140704068Y-88100500D01*
X144295932Y-88100500D01*
X144362971Y-88120185D01*
X144406416Y-88168203D01*
X144466657Y-88286433D01*
X144605483Y-88477510D01*
X144772490Y-88644517D01*
X144963567Y-88783343D01*
X145055939Y-88830409D01*
X145174003Y-88890566D01*
X145174005Y-88890566D01*
X145174008Y-88890568D01*
X145231487Y-88909244D01*
X145398631Y-88963553D01*
X145631903Y-89000500D01*
X145631908Y-89000500D01*
X145868097Y-89000500D01*
X146101368Y-88963553D01*
X146165457Y-88942729D01*
X146325992Y-88890568D01*
X146536433Y-88783343D01*
X146727510Y-88644517D01*
X146894517Y-88477510D01*
X147033343Y-88286433D01*
X147140568Y-88075992D01*
X147213553Y-87851368D01*
X147250500Y-87618097D01*
X147250500Y-87381902D01*
X147213553Y-87148631D01*
X147140566Y-86924003D01*
X147039423Y-86725500D01*
X147033343Y-86713567D01*
X146894517Y-86522490D01*
X146727510Y-86355483D01*
X146536433Y-86216657D01*
X146325996Y-86109433D01*
X146101368Y-86036446D01*
X145868097Y-85999500D01*
X145868092Y-85999500D01*
X145631908Y-85999500D01*
X145631903Y-85999500D01*
X145398631Y-86036446D01*
X145174003Y-86109433D01*
X144963566Y-86216657D01*
X144854550Y-86295862D01*
X144772490Y-86355483D01*
X144772488Y-86355485D01*
X144772487Y-86355485D01*
X144605485Y-86522487D01*
X144605485Y-86522488D01*
X144605483Y-86522490D01*
X144582469Y-86554166D01*
X144466657Y-86713566D01*
X144444837Y-86756390D01*
X144412180Y-86820485D01*
X144406417Y-86831795D01*
X144358442Y-86882591D01*
X144295932Y-86899500D01*
X140704068Y-86899500D01*
X140637029Y-86879815D01*
X140593583Y-86831795D01*
X140533343Y-86713567D01*
X140394517Y-86522490D01*
X140227510Y-86355483D01*
X140036433Y-86216657D01*
X139825996Y-86109433D01*
X139601368Y-86036446D01*
X139368097Y-85999500D01*
X139368092Y-85999500D01*
X139131908Y-85999500D01*
X139131903Y-85999500D01*
X138898631Y-86036446D01*
X138674003Y-86109433D01*
X138463566Y-86216657D01*
X138354550Y-86295862D01*
X138272490Y-86355483D01*
X138272488Y-86355485D01*
X138272487Y-86355485D01*
X138105485Y-86522487D01*
X138105485Y-86522488D01*
X138105483Y-86522490D01*
X138082469Y-86554166D01*
X137966657Y-86713566D01*
X137859433Y-86924003D01*
X137786446Y-87148631D01*
X137749500Y-87381902D01*
X135350500Y-87381902D01*
X135350500Y-83027942D01*
X135350379Y-83027490D01*
X135350359Y-83027416D01*
X135309577Y-82875215D01*
X135249131Y-82770520D01*
X135230520Y-82738284D01*
X135118716Y-82626480D01*
X135118713Y-82626478D01*
X132716818Y-80224583D01*
X132683333Y-80163260D01*
X132680499Y-80136902D01*
X132680499Y-79401629D01*
X132680498Y-79401623D01*
X132680497Y-79401616D01*
X132674091Y-79342017D01*
X132654076Y-79288355D01*
X132623797Y-79207171D01*
X132623793Y-79207164D01*
X132537547Y-79091955D01*
X132537544Y-79091952D01*
X132422335Y-79005706D01*
X132422328Y-79005702D01*
X132287486Y-78955410D01*
X132287485Y-78955409D01*
X132287483Y-78955409D01*
X132227873Y-78949000D01*
X132227863Y-78949000D01*
X131482129Y-78949000D01*
X131482123Y-78949001D01*
X131422516Y-78955408D01*
X131287671Y-79005702D01*
X131279886Y-79009954D01*
X131278153Y-79006780D01*
X131228698Y-79025159D01*
X131160443Y-79010225D01*
X131159497Y-79009617D01*
X131152328Y-79005702D01*
X131017486Y-78955410D01*
X131017485Y-78955409D01*
X131017483Y-78955409D01*
X130957873Y-78949000D01*
X130957863Y-78949000D01*
X130212129Y-78949000D01*
X130212123Y-78949001D01*
X130152516Y-78955408D01*
X130017671Y-79005702D01*
X130009886Y-79009954D01*
X130008153Y-79006780D01*
X129958698Y-79025159D01*
X129890443Y-79010225D01*
X129889497Y-79009617D01*
X129882328Y-79005702D01*
X129747486Y-78955410D01*
X129747485Y-78955409D01*
X129747483Y-78955409D01*
X129687873Y-78949000D01*
X129687863Y-78949000D01*
X128942129Y-78949000D01*
X128942123Y-78949001D01*
X128882516Y-78955408D01*
X128747671Y-79005702D01*
X128747664Y-79005706D01*
X128632455Y-79091952D01*
X128632452Y-79091955D01*
X128546206Y-79207164D01*
X128546202Y-79207171D01*
X128495908Y-79342017D01*
X128489501Y-79401616D01*
X128489500Y-79401627D01*
X128489500Y-80344277D01*
X128484499Y-80362943D01*
X128484499Y-80521057D01*
X128489500Y-80539723D01*
X128489500Y-81022370D01*
X128489501Y-81022376D01*
X128495908Y-81081983D01*
X128546202Y-81216828D01*
X128546203Y-81216829D01*
X128546204Y-81216831D01*
X128632452Y-81332043D01*
X128632451Y-81332043D01*
X128632452Y-81332044D01*
X128632454Y-81332046D01*
X128664812Y-81356269D01*
X128706681Y-81412200D01*
X128714500Y-81455534D01*
X128714500Y-82553491D01*
X128714499Y-82553509D01*
X128714499Y-82719215D01*
X128714498Y-82719215D01*
X128728656Y-82772051D01*
X128755423Y-82871946D01*
X128777149Y-82909576D01*
X128831386Y-83003518D01*
X128834479Y-83008875D01*
X128834481Y-83008878D01*
X128953349Y-83127746D01*
X128953355Y-83127751D01*
X129900155Y-84074551D01*
X129933640Y-84135874D01*
X129928656Y-84205566D01*
X129886784Y-84261499D01*
X129862768Y-84275175D01*
X129862780Y-84275198D01*
X129862289Y-84275448D01*
X129859931Y-84276791D01*
X129858447Y-84277405D01*
X129858439Y-84277408D01*
X129858439Y-84277409D01*
X129741145Y-84337173D01*
X129682495Y-84367058D01*
X129522753Y-84483115D01*
X129383115Y-84622753D01*
X129267058Y-84782495D01*
X129180485Y-84952403D01*
X129132510Y-85003199D01*
X129064689Y-85019994D01*
X128998554Y-84997456D01*
X128959515Y-84952403D01*
X128872944Y-84782499D01*
X128865486Y-84772234D01*
X128756884Y-84622753D01*
X128617246Y-84483115D01*
X128453560Y-84364192D01*
X128454595Y-84362766D01*
X128412821Y-84316568D01*
X128400501Y-84262682D01*
X128400501Y-84112474D01*
X128400501Y-84112472D01*
X128359577Y-83959744D01*
X128330639Y-83909624D01*
X128280520Y-83822813D01*
X128168716Y-83711009D01*
X128168715Y-83711008D01*
X128164385Y-83706678D01*
X128164374Y-83706668D01*
X123746061Y-79288355D01*
X123746059Y-79288352D01*
X123627188Y-79169481D01*
X123627187Y-79169480D01*
X123540375Y-79119360D01*
X123540375Y-79119359D01*
X123540371Y-79119358D01*
X123490256Y-79090423D01*
X123337528Y-79049499D01*
X123179414Y-79049499D01*
X123171818Y-79049499D01*
X123171802Y-79049500D01*
X121955390Y-79049500D01*
X121888351Y-79029815D01*
X121842596Y-78977011D01*
X121836176Y-78959617D01*
X121783909Y-78776951D01*
X121689698Y-78596593D01*
X121635483Y-78530104D01*
X121561109Y-78438890D01*
X121403409Y-78310304D01*
X121403410Y-78310304D01*
X121403407Y-78310302D01*
X121223049Y-78216091D01*
X121223048Y-78216090D01*
X121223045Y-78216089D01*
X121105829Y-78182550D01*
X121027418Y-78160114D01*
X121027415Y-78160113D01*
X121027413Y-78160113D01*
X120961102Y-78154217D01*
X120908037Y-78149500D01*
X120908032Y-78149500D01*
X117991971Y-78149500D01*
X117991965Y-78149500D01*
X117991964Y-78149501D01*
X117980316Y-78150536D01*
X117872584Y-78160113D01*
X117676954Y-78216089D01*
X117637384Y-78236759D01*
X117496593Y-78310302D01*
X117496591Y-78310303D01*
X117496590Y-78310304D01*
X117338890Y-78438890D01*
X117210304Y-78596590D01*
X117116089Y-78776954D01*
X117071332Y-78933376D01*
X117063826Y-78959611D01*
X117060114Y-78972583D01*
X117060113Y-78972586D01*
X117049500Y-79091966D01*
X117049500Y-80208028D01*
X117049501Y-80208034D01*
X117060113Y-80327415D01*
X117116089Y-80523045D01*
X117116090Y-80523048D01*
X117116091Y-80523049D01*
X117210302Y-80703407D01*
X117210304Y-80703409D01*
X117338890Y-80861109D01*
X117391367Y-80903898D01*
X117430884Y-80961519D01*
X117432976Y-81031358D01*
X117396978Y-81091240D01*
X117391367Y-81096102D01*
X117338890Y-81138890D01*
X117210304Y-81296590D01*
X117210302Y-81296593D01*
X117173191Y-81367638D01*
X117116089Y-81476954D01*
X117106257Y-81511318D01*
X117063825Y-81659612D01*
X117026459Y-81718649D01*
X116963105Y-81748113D01*
X116944610Y-81749500D01*
X115828953Y-81749500D01*
X115761914Y-81729815D01*
X115741272Y-81713181D01*
X115515674Y-81487583D01*
X115482189Y-81426260D01*
X115479355Y-81399902D01*
X115479355Y-80399998D01*
X115479354Y-80399981D01*
X115468855Y-80297203D01*
X115468854Y-80297200D01*
X115432756Y-80188264D01*
X115413670Y-80130666D01*
X115321568Y-79981344D01*
X115197512Y-79857288D01*
X115048190Y-79765186D01*
X115048187Y-79765185D01*
X114881651Y-79710000D01*
X114877389Y-79709088D01*
X114815958Y-79675801D01*
X114782275Y-79614586D01*
X114779356Y-79587837D01*
X114779356Y-76621240D01*
X114799041Y-76554201D01*
X114815670Y-76533564D01*
X116482828Y-74866405D01*
X116544149Y-74832922D01*
X116600434Y-74833754D01*
X116656102Y-74847598D01*
X116656103Y-74847598D01*
X116656111Y-74847600D01*
X116698877Y-74850500D01*
X117601122Y-74850499D01*
X117643889Y-74847600D01*
X117828693Y-74801641D01*
X117999296Y-74717030D01*
X118147722Y-74597722D01*
X118203353Y-74528514D01*
X118260696Y-74488595D01*
X118330518Y-74486015D01*
X118390651Y-74521594D01*
X118396647Y-74528514D01*
X118452277Y-74597721D01*
X118452278Y-74597722D01*
X118600704Y-74717030D01*
X118600707Y-74717032D01*
X118771302Y-74801639D01*
X118771303Y-74801639D01*
X118771307Y-74801641D01*
X118956111Y-74847600D01*
X118998877Y-74850500D01*
X119901122Y-74850499D01*
X119943889Y-74847600D01*
X120128693Y-74801641D01*
X120299296Y-74717030D01*
X120447722Y-74597722D01*
X120567030Y-74449296D01*
X120651641Y-74278693D01*
X120697600Y-74093889D01*
X120700500Y-74051123D01*
X120700499Y-72648878D01*
X120697600Y-72606111D01*
X120651641Y-72421307D01*
X120616277Y-72350001D01*
X120567032Y-72250707D01*
X120567030Y-72250704D01*
X120447722Y-72102278D01*
X120447721Y-72102277D01*
X120299295Y-71982969D01*
X120299292Y-71982967D01*
X120128697Y-71898360D01*
X119943885Y-71852399D01*
X119938505Y-71851555D01*
X119938721Y-71850174D01*
X119879399Y-71828289D01*
X119865673Y-71816438D01*
X119430521Y-71381285D01*
X119318717Y-71269481D01*
X119318716Y-71269480D01*
X119231904Y-71219360D01*
X119231904Y-71219359D01*
X119231900Y-71219358D01*
X119181785Y-71190423D01*
X119029057Y-71149499D01*
X118870943Y-71149499D01*
X118863347Y-71149499D01*
X118863331Y-71149500D01*
X114779057Y-71149500D01*
X114620942Y-71149500D01*
X114468215Y-71190423D01*
X114468214Y-71190423D01*
X114468212Y-71190424D01*
X114468209Y-71190425D01*
X114418096Y-71219359D01*
X114418095Y-71219360D01*
X114374689Y-71244420D01*
X114331285Y-71269479D01*
X114331282Y-71269481D01*
X113448337Y-72152426D01*
X113448335Y-72152429D01*
X113403252Y-72230517D01*
X113403251Y-72230518D01*
X113369279Y-72289358D01*
X113369279Y-72289359D01*
X113328355Y-72442087D01*
X113328355Y-72442089D01*
X113328355Y-72587837D01*
X113308670Y-72654876D01*
X113255866Y-72700631D01*
X113230316Y-72709089D01*
X113226061Y-72709999D01*
X113059524Y-72765185D01*
X113059519Y-72765187D01*
X112910198Y-72857289D01*
X112786145Y-72981342D01*
X112694043Y-73130663D01*
X112694042Y-73130666D01*
X112638857Y-73297203D01*
X112638857Y-73297204D01*
X112638856Y-73297204D01*
X112628356Y-73399983D01*
X106600500Y-73399983D01*
X106600500Y-49524500D01*
X106620185Y-49457461D01*
X106672989Y-49411706D01*
X106724500Y-49400500D01*
X116141664Y-49400500D01*
X116208703Y-49420185D01*
G37*
%TD.AperFunction*%
%TD*%
M02*
