%TF.GenerationSoftware,KiCad,Pcbnew,9.0.6*%
%TF.CreationDate,2026-07-20T21:05:45+05:00*%
%TF.ProjectId,HLT8012-Interface-board,484c5438-3031-4322-9d49-6e7465726661,rev?*%
%TF.SameCoordinates,Original*%
%TF.FileFunction,Copper,L2,Bot*%
%TF.FilePolarity,Positive*%
%FSLAX46Y46*%
G04 Gerber Fmt 4.6, Leading zero omitted, Abs format (unit mm)*
G04 Created by KiCad (PCBNEW 9.0.6) date 2026-07-20 21:05:45*
%MOMM*%
%LPD*%
G01*
G04 APERTURE LIST*
G04 Aperture macros list*
%AMRoundRect*
0 Rectangle with rounded corners*
0 $1 Rounding radius*
0 $2 $3 $4 $5 $6 $7 $8 $9 X,Y pos of 4 corners*
0 Add a 4 corners polygon primitive as box body*
4,1,4,$2,$3,$4,$5,$6,$7,$8,$9,$2,$3,0*
0 Add four circle primitives for the rounded corners*
1,1,$1+$1,$2,$3*
1,1,$1+$1,$4,$5*
1,1,$1+$1,$6,$7*
1,1,$1+$1,$8,$9*
0 Add four rect primitives between the rounded corners*
20,1,$1+$1,$2,$3,$4,$5,0*
20,1,$1+$1,$4,$5,$6,$7,0*
20,1,$1+$1,$6,$7,$8,$9,0*
20,1,$1+$1,$8,$9,$2,$3,0*%
G04 Aperture macros list end*
%TA.AperFunction,ComponentPad*%
%ADD10RoundRect,0.250000X0.550000X0.550000X-0.550000X0.550000X-0.550000X-0.550000X0.550000X-0.550000X0*%
%TD*%
%TA.AperFunction,ComponentPad*%
%ADD11C,1.600000*%
%TD*%
%TA.AperFunction,ComponentPad*%
%ADD12C,1.400000*%
%TD*%
%TA.AperFunction,ComponentPad*%
%ADD13RoundRect,0.250000X-1.000000X1.000000X-1.000000X-1.000000X1.000000X-1.000000X1.000000X1.000000X0*%
%TD*%
%TA.AperFunction,ComponentPad*%
%ADD14C,2.500000*%
%TD*%
%TA.AperFunction,ComponentPad*%
%ADD15RoundRect,0.650000X-0.650000X0.650000X-0.650000X-0.650000X0.650000X-0.650000X0.650000X0.650000X0*%
%TD*%
%TA.AperFunction,ComponentPad*%
%ADD16C,2.600000*%
%TD*%
%TA.AperFunction,ComponentPad*%
%ADD17RoundRect,0.250000X-0.550000X-0.550000X0.550000X-0.550000X0.550000X0.550000X-0.550000X0.550000X0*%
%TD*%
%TA.AperFunction,ComponentPad*%
%ADD18RoundRect,0.250000X0.550000X-0.550000X0.550000X0.550000X-0.550000X0.550000X-0.550000X-0.550000X0*%
%TD*%
%TA.AperFunction,ComponentPad*%
%ADD19C,3.000000*%
%TD*%
%TA.AperFunction,ComponentPad*%
%ADD20R,1.050000X1.500000*%
%TD*%
%TA.AperFunction,ComponentPad*%
%ADD21O,1.050000X1.500000*%
%TD*%
%TA.AperFunction,ComponentPad*%
%ADD22R,1.508000X1.508000*%
%TD*%
%TA.AperFunction,ComponentPad*%
%ADD23C,1.508000*%
%TD*%
G04 APERTURE END LIST*
D10*
%TO.P,C2,1*%
%TO.N,GND*%
X143828856Y-70800000D03*
D11*
%TO.P,C2,2*%
%TO.N,Net-(U1-V1P)*%
X141328856Y-70800000D03*
%TD*%
D10*
%TO.P,C3,1*%
%TO.N,Net-(U1-V1N)*%
X149428856Y-71750000D03*
D11*
%TO.P,C3,2*%
%TO.N,GND*%
X146928856Y-71750000D03*
%TD*%
D10*
%TO.P,C6,1*%
%TO.N,+3.3V*%
X113628856Y-73400000D03*
D11*
%TO.P,C6,2*%
%TO.N,GND*%
X111128856Y-73400000D03*
%TD*%
D12*
%TO.P,R18,1*%
%TO.N,+3.3V*%
X138740000Y-90400000D03*
%TO.P,R18,2*%
%TO.N,Net-(U2-GPIO2)*%
X133660000Y-90400000D03*
%TD*%
D13*
%TO.P,J4,1,Pin_1*%
%TO.N,GND*%
X110832500Y-88750000D03*
D14*
%TO.P,J4,2,Pin_2*%
%TO.N,+12V*%
X110832500Y-93750000D03*
%TD*%
D13*
%TO.P,J3,1,Pin_1*%
%TO.N,-AC*%
X110732500Y-62300000D03*
D14*
%TO.P,J3,2,Pin_2*%
%TO.N,/LOAD*%
X110732500Y-67300000D03*
%TD*%
D12*
%TO.P,R9,1*%
%TO.N,/LOAD*%
X135200000Y-65460000D03*
%TO.P,R9,2*%
%TO.N,Net-(U1-V1N)*%
X135200000Y-70540000D03*
%TD*%
D15*
%TO.P,JP1,1,A*%
%TO.N,Net-(JP1-A)*%
X125000000Y-78460000D03*
D16*
%TO.P,JP1,2,B*%
%TO.N,+5V*%
X125000000Y-83540000D03*
%TD*%
D12*
%TO.P,R2,1*%
%TO.N,Net-(R2-Pad1)*%
X120300000Y-55540000D03*
%TO.P,R2,2*%
%TO.N,Net-(R1-Pad1)*%
X120300000Y-50460000D03*
%TD*%
D17*
%TO.P,C8,1*%
%TO.N,+5V*%
X116971144Y-93000000D03*
D11*
%TO.P,C8,2*%
%TO.N,GND*%
X119471144Y-93000000D03*
%TD*%
D12*
%TO.P,R13,1*%
%TO.N,Net-(U1-CF1)*%
X134960000Y-85250000D03*
%TO.P,R13,2*%
%TO.N,CF1*%
X140040000Y-85250000D03*
%TD*%
D17*
%TO.P,C10,1*%
%TO.N,+12V*%
X122221144Y-92750000D03*
D11*
%TO.P,C10,2*%
%TO.N,GND*%
X124721144Y-92750000D03*
%TD*%
D12*
%TO.P,R3,1*%
%TO.N,Net-(R3-Pad1)*%
X123450000Y-55540000D03*
%TO.P,R3,2*%
%TO.N,Net-(R2-Pad1)*%
X123450000Y-50460000D03*
%TD*%
D18*
%TO.P,C1,1*%
%TO.N,V2P*%
X140050000Y-53478856D03*
D11*
%TO.P,C1,2*%
%TO.N,GND*%
X140050000Y-50978856D03*
%TD*%
D12*
%TO.P,R11,1*%
%TO.N,Net-(R11-Pad1)*%
X132750000Y-55540000D03*
%TO.P,R11,2*%
%TO.N,V2P*%
X132750000Y-50460000D03*
%TD*%
%TO.P,R14,1*%
%TO.N,CF1*%
X140000000Y-83140000D03*
%TO.P,R14,2*%
%TO.N,GND*%
X140000000Y-78060000D03*
%TD*%
D17*
%TO.P,C4,1*%
%TO.N,+5V*%
X111971144Y-79400000D03*
D11*
%TO.P,C4,2*%
%TO.N,GND*%
X114471144Y-79400000D03*
%TD*%
D12*
%TO.P,R1,1*%
%TO.N,Net-(R1-Pad1)*%
X117150000Y-55540000D03*
%TO.P,R1,2*%
%TO.N,-AC*%
X117150000Y-50460000D03*
%TD*%
%TO.P,R7,1*%
%TO.N,V2P*%
X135500000Y-55540000D03*
%TO.P,R7,2*%
%TO.N,GND*%
X135500000Y-50460000D03*
%TD*%
%TO.P,R12,1*%
%TO.N,Net-(Q1-D)*%
X133800000Y-80140000D03*
%TO.P,R12,2*%
%TO.N,Net-(JP1-A)*%
X133800000Y-75060000D03*
%TD*%
D19*
%TO.P,J1,1,Pin_1*%
%TO.N,+AC*%
X148200000Y-54250000D03*
%TD*%
D12*
%TO.P,R5,1*%
%TO.N,Net-(R4-Pad2)*%
X129750000Y-55540000D03*
%TO.P,R5,2*%
%TO.N,Net-(R11-Pad1)*%
X129750000Y-50460000D03*
%TD*%
D20*
%TO.P,Q1,1,S*%
%TO.N,SEL*%
X147470000Y-77890000D03*
D21*
%TO.P,Q1,2,G*%
%TO.N,+3.3V*%
X146200000Y-77890000D03*
%TO.P,Q1,3,D*%
%TO.N,Net-(Q1-D)*%
X144930000Y-77890000D03*
%TD*%
D12*
%TO.P,R6,1*%
%TO.N,SEL*%
X150000000Y-80740000D03*
%TO.P,R6,2*%
%TO.N,+3.3V*%
X150000000Y-75660000D03*
%TD*%
%TO.P,R4,1*%
%TO.N,Net-(R3-Pad1)*%
X126600000Y-55540000D03*
%TO.P,R4,2*%
%TO.N,Net-(R4-Pad2)*%
X126600000Y-50460000D03*
%TD*%
%TO.P,R17,1*%
%TO.N,Net-(U2-~{RST})*%
X109250000Y-81040000D03*
%TO.P,R17,2*%
%TO.N,+3.3V*%
X109250000Y-75960000D03*
%TD*%
%TO.P,R8,1*%
%TO.N,+AC*%
X138700000Y-65460000D03*
%TO.P,R8,2*%
%TO.N,Net-(U1-V1P)*%
X138700000Y-70540000D03*
%TD*%
D19*
%TO.P,J2,1,Pin_1*%
%TO.N,-AC*%
X110450000Y-54250000D03*
%TD*%
D12*
%TO.P,R19,1*%
%TO.N,Net-(U2-CH_PD)*%
X114790000Y-84500000D03*
%TO.P,R19,2*%
%TO.N,+3.3V*%
X109710000Y-84500000D03*
%TD*%
%TO.P,R15,1*%
%TO.N,GND*%
X142200000Y-74460000D03*
%TO.P,R15,2*%
%TO.N,CF*%
X142200000Y-79540000D03*
%TD*%
%TO.P,R16,1*%
%TO.N,CF*%
X136500000Y-80140000D03*
%TO.P,R16,2*%
%TO.N,Net-(U1-CF)*%
X136500000Y-75060000D03*
%TD*%
D22*
%TO.P,U2,1,GND*%
%TO.N,GND*%
X131140000Y-93310000D03*
D23*
%TO.P,U2,2,GPIO2*%
%TO.N,Net-(U2-GPIO2)*%
X131140000Y-90770000D03*
%TO.P,U2,3,GPIO0*%
%TO.N,SEL*%
X131140000Y-88230000D03*
%TO.P,U2,4,RXD*%
%TO.N,CF1*%
X131140000Y-85690000D03*
%TO.P,U2,5,VCC*%
%TO.N,+3.3V*%
X128600000Y-85690000D03*
%TO.P,U2,6,~{RST}*%
%TO.N,Net-(U2-~{RST})*%
X128600000Y-88230000D03*
%TO.P,U2,7,CH_PD*%
%TO.N,Net-(U2-CH_PD)*%
X128600000Y-90770000D03*
%TO.P,U2,8,TXD*%
%TO.N,CF*%
X128600000Y-93310000D03*
%TD*%
M02*
