%TF.GenerationSoftware,KiCad,Pcbnew,9.0.6*%
%TF.CreationDate,2026-07-10T16:37:43+05:00*%
%TF.ProjectId,HLT8012-Interface-board,484c5438-3031-4322-9d49-6e7465726661,rev?*%
%TF.SameCoordinates,Original*%
%TF.FileFunction,Legend,Top*%
%TF.FilePolarity,Positive*%
%FSLAX46Y46*%
G04 Gerber Fmt 4.6, Leading zero omitted, Abs format (unit mm)*
G04 Created by KiCad (PCBNEW 9.0.6) date 2026-07-10 16:37:43*
%MOMM*%
%LPD*%
G01*
G04 APERTURE LIST*
%ADD10C,0.150000*%
%ADD11C,0.120000*%
%ADD12C,0.200000*%
G04 APERTURE END LIST*
D10*
X118054477Y-89859580D02*
X118006858Y-89907200D01*
X118006858Y-89907200D02*
X117864001Y-89954819D01*
X117864001Y-89954819D02*
X117768763Y-89954819D01*
X117768763Y-89954819D02*
X117625906Y-89907200D01*
X117625906Y-89907200D02*
X117530668Y-89811961D01*
X117530668Y-89811961D02*
X117483049Y-89716723D01*
X117483049Y-89716723D02*
X117435430Y-89526247D01*
X117435430Y-89526247D02*
X117435430Y-89383390D01*
X117435430Y-89383390D02*
X117483049Y-89192914D01*
X117483049Y-89192914D02*
X117530668Y-89097676D01*
X117530668Y-89097676D02*
X117625906Y-89002438D01*
X117625906Y-89002438D02*
X117768763Y-88954819D01*
X117768763Y-88954819D02*
X117864001Y-88954819D01*
X117864001Y-88954819D02*
X118006858Y-89002438D01*
X118006858Y-89002438D02*
X118054477Y-89050057D01*
X118625906Y-89383390D02*
X118530668Y-89335771D01*
X118530668Y-89335771D02*
X118483049Y-89288152D01*
X118483049Y-89288152D02*
X118435430Y-89192914D01*
X118435430Y-89192914D02*
X118435430Y-89145295D01*
X118435430Y-89145295D02*
X118483049Y-89050057D01*
X118483049Y-89050057D02*
X118530668Y-89002438D01*
X118530668Y-89002438D02*
X118625906Y-88954819D01*
X118625906Y-88954819D02*
X118816382Y-88954819D01*
X118816382Y-88954819D02*
X118911620Y-89002438D01*
X118911620Y-89002438D02*
X118959239Y-89050057D01*
X118959239Y-89050057D02*
X119006858Y-89145295D01*
X119006858Y-89145295D02*
X119006858Y-89192914D01*
X119006858Y-89192914D02*
X118959239Y-89288152D01*
X118959239Y-89288152D02*
X118911620Y-89335771D01*
X118911620Y-89335771D02*
X118816382Y-89383390D01*
X118816382Y-89383390D02*
X118625906Y-89383390D01*
X118625906Y-89383390D02*
X118530668Y-89431009D01*
X118530668Y-89431009D02*
X118483049Y-89478628D01*
X118483049Y-89478628D02*
X118435430Y-89573866D01*
X118435430Y-89573866D02*
X118435430Y-89764342D01*
X118435430Y-89764342D02*
X118483049Y-89859580D01*
X118483049Y-89859580D02*
X118530668Y-89907200D01*
X118530668Y-89907200D02*
X118625906Y-89954819D01*
X118625906Y-89954819D02*
X118816382Y-89954819D01*
X118816382Y-89954819D02*
X118911620Y-89907200D01*
X118911620Y-89907200D02*
X118959239Y-89859580D01*
X118959239Y-89859580D02*
X119006858Y-89764342D01*
X119006858Y-89764342D02*
X119006858Y-89573866D01*
X119006858Y-89573866D02*
X118959239Y-89478628D01*
X118959239Y-89478628D02*
X118911620Y-89431009D01*
X118911620Y-89431009D02*
X118816382Y-89383390D01*
X122828286Y-89609580D02*
X122780667Y-89657200D01*
X122780667Y-89657200D02*
X122637810Y-89704819D01*
X122637810Y-89704819D02*
X122542572Y-89704819D01*
X122542572Y-89704819D02*
X122399715Y-89657200D01*
X122399715Y-89657200D02*
X122304477Y-89561961D01*
X122304477Y-89561961D02*
X122256858Y-89466723D01*
X122256858Y-89466723D02*
X122209239Y-89276247D01*
X122209239Y-89276247D02*
X122209239Y-89133390D01*
X122209239Y-89133390D02*
X122256858Y-88942914D01*
X122256858Y-88942914D02*
X122304477Y-88847676D01*
X122304477Y-88847676D02*
X122399715Y-88752438D01*
X122399715Y-88752438D02*
X122542572Y-88704819D01*
X122542572Y-88704819D02*
X122637810Y-88704819D01*
X122637810Y-88704819D02*
X122780667Y-88752438D01*
X122780667Y-88752438D02*
X122828286Y-88800057D01*
X123780667Y-89704819D02*
X123209239Y-89704819D01*
X123494953Y-89704819D02*
X123494953Y-88704819D01*
X123494953Y-88704819D02*
X123399715Y-88847676D01*
X123399715Y-88847676D02*
X123304477Y-88942914D01*
X123304477Y-88942914D02*
X123209239Y-88990533D01*
X124399715Y-88704819D02*
X124494953Y-88704819D01*
X124494953Y-88704819D02*
X124590191Y-88752438D01*
X124590191Y-88752438D02*
X124637810Y-88800057D01*
X124637810Y-88800057D02*
X124685429Y-88895295D01*
X124685429Y-88895295D02*
X124733048Y-89085771D01*
X124733048Y-89085771D02*
X124733048Y-89323866D01*
X124733048Y-89323866D02*
X124685429Y-89514342D01*
X124685429Y-89514342D02*
X124637810Y-89609580D01*
X124637810Y-89609580D02*
X124590191Y-89657200D01*
X124590191Y-89657200D02*
X124494953Y-89704819D01*
X124494953Y-89704819D02*
X124399715Y-89704819D01*
X124399715Y-89704819D02*
X124304477Y-89657200D01*
X124304477Y-89657200D02*
X124256858Y-89609580D01*
X124256858Y-89609580D02*
X124209239Y-89514342D01*
X124209239Y-89514342D02*
X124161620Y-89323866D01*
X124161620Y-89323866D02*
X124161620Y-89085771D01*
X124161620Y-89085771D02*
X124209239Y-88895295D01*
X124209239Y-88895295D02*
X124256858Y-88800057D01*
X124256858Y-88800057D02*
X124304477Y-88752438D01*
X124304477Y-88752438D02*
X124399715Y-88704819D01*
X136307142Y-64584819D02*
X135973809Y-64108628D01*
X135735714Y-64584819D02*
X135735714Y-63584819D01*
X135735714Y-63584819D02*
X136116666Y-63584819D01*
X136116666Y-63584819D02*
X136211904Y-63632438D01*
X136211904Y-63632438D02*
X136259523Y-63680057D01*
X136259523Y-63680057D02*
X136307142Y-63775295D01*
X136307142Y-63775295D02*
X136307142Y-63918152D01*
X136307142Y-63918152D02*
X136259523Y-64013390D01*
X136259523Y-64013390D02*
X136211904Y-64061009D01*
X136211904Y-64061009D02*
X136116666Y-64108628D01*
X136116666Y-64108628D02*
X135735714Y-64108628D01*
X137259523Y-64584819D02*
X136688095Y-64584819D01*
X136973809Y-64584819D02*
X136973809Y-63584819D01*
X136973809Y-63584819D02*
X136878571Y-63727676D01*
X136878571Y-63727676D02*
X136783333Y-63822914D01*
X136783333Y-63822914D02*
X136688095Y-63870533D01*
X137878571Y-63584819D02*
X137973809Y-63584819D01*
X137973809Y-63584819D02*
X138069047Y-63632438D01*
X138069047Y-63632438D02*
X138116666Y-63680057D01*
X138116666Y-63680057D02*
X138164285Y-63775295D01*
X138164285Y-63775295D02*
X138211904Y-63965771D01*
X138211904Y-63965771D02*
X138211904Y-64203866D01*
X138211904Y-64203866D02*
X138164285Y-64394342D01*
X138164285Y-64394342D02*
X138116666Y-64489580D01*
X138116666Y-64489580D02*
X138069047Y-64537200D01*
X138069047Y-64537200D02*
X137973809Y-64584819D01*
X137973809Y-64584819D02*
X137878571Y-64584819D01*
X137878571Y-64584819D02*
X137783333Y-64537200D01*
X137783333Y-64537200D02*
X137735714Y-64489580D01*
X137735714Y-64489580D02*
X137688095Y-64394342D01*
X137688095Y-64394342D02*
X137640476Y-64203866D01*
X137640476Y-64203866D02*
X137640476Y-63965771D01*
X137640476Y-63965771D02*
X137688095Y-63775295D01*
X137688095Y-63775295D02*
X137735714Y-63680057D01*
X137735714Y-63680057D02*
X137783333Y-63632438D01*
X137783333Y-63632438D02*
X137878571Y-63584819D01*
X123404819Y-77261904D02*
X124214342Y-77261904D01*
X124214342Y-77261904D02*
X124309580Y-77214285D01*
X124309580Y-77214285D02*
X124357200Y-77166666D01*
X124357200Y-77166666D02*
X124404819Y-77071428D01*
X124404819Y-77071428D02*
X124404819Y-76880952D01*
X124404819Y-76880952D02*
X124357200Y-76785714D01*
X124357200Y-76785714D02*
X124309580Y-76738095D01*
X124309580Y-76738095D02*
X124214342Y-76690476D01*
X124214342Y-76690476D02*
X123404819Y-76690476D01*
X123404819Y-76309523D02*
X123404819Y-75690476D01*
X123404819Y-75690476D02*
X123785771Y-76023809D01*
X123785771Y-76023809D02*
X123785771Y-75880952D01*
X123785771Y-75880952D02*
X123833390Y-75785714D01*
X123833390Y-75785714D02*
X123881009Y-75738095D01*
X123881009Y-75738095D02*
X123976247Y-75690476D01*
X123976247Y-75690476D02*
X124214342Y-75690476D01*
X124214342Y-75690476D02*
X124309580Y-75738095D01*
X124309580Y-75738095D02*
X124357200Y-75785714D01*
X124357200Y-75785714D02*
X124404819Y-75880952D01*
X124404819Y-75880952D02*
X124404819Y-76166666D01*
X124404819Y-76166666D02*
X124357200Y-76261904D01*
X124357200Y-76261904D02*
X124309580Y-76309523D01*
D11*
%TO.C,C2*%
X141140000Y-74291144D02*
X141590000Y-74291144D01*
X141365000Y-74516144D02*
X141365000Y-74066144D01*
X141640000Y-74098597D02*
G75*
G02*
X143760000Y-74098597I1060000J2119741D01*
G01*
%TO.C,C3*%
X150491144Y-73310000D02*
X150491144Y-72860000D01*
X150716144Y-73085000D02*
X150266144Y-73085000D01*
X150298597Y-72810000D02*
G75*
G02*
X150298597Y-70690000I-2119741J1060000D01*
G01*
%TO.C,C6*%
X114991144Y-75560000D02*
X114991144Y-75110000D01*
X115216144Y-75335000D02*
X114766144Y-75335000D01*
X114798597Y-75060000D02*
G75*
G02*
X114798597Y-72940000I-2119741J1060000D01*
G01*
%TO.C,SW1*%
X139000000Y-89000000D02*
X139000000Y-90500000D01*
X140250000Y-93000000D02*
X144750000Y-93000000D01*
X144750000Y-86500000D02*
X140250000Y-86500000D01*
X146000000Y-90500000D02*
X146000000Y-89000000D01*
%TO.C,J4*%
X106712500Y-86130000D02*
X114952500Y-86130000D01*
X106712500Y-88450000D02*
X106712500Y-86130000D01*
X106712500Y-96370000D02*
X106712500Y-89050000D01*
X108832500Y-86130000D02*
X108832500Y-96370000D01*
X112832500Y-86130000D02*
X112832500Y-96370000D01*
X114952500Y-86130000D02*
X114952500Y-96370000D01*
X114952500Y-96370000D02*
X106712500Y-96370000D01*
X106712500Y-88750000D02*
X106102500Y-89190000D01*
X106102500Y-88310000D01*
X106712500Y-88750000D01*
G36*
X106712500Y-88750000D02*
G01*
X106102500Y-89190000D01*
X106102500Y-88310000D01*
X106712500Y-88750000D01*
G37*
%TO.C,U4*%
X116040000Y-83590000D02*
X117300000Y-83590000D01*
X116040000Y-87350000D02*
X116040000Y-83590000D01*
X122860000Y-83590000D02*
X121600000Y-83590000D01*
X122860000Y-87350000D02*
X122860000Y-83590000D01*
X116140000Y-88630000D02*
X115810000Y-88870000D01*
X115810000Y-88390000D01*
X116140000Y-88630000D01*
G36*
X116140000Y-88630000D02*
G01*
X115810000Y-88870000D01*
X115810000Y-88390000D01*
X116140000Y-88630000D01*
G37*
%TO.C,J3*%
X107212500Y-60380000D02*
X115452500Y-60380000D01*
X107212500Y-62700000D02*
X107212500Y-60380000D01*
X107212500Y-70620000D02*
X107212500Y-63300000D01*
X109332500Y-60380000D02*
X109332500Y-70620000D01*
X113332500Y-60380000D02*
X113332500Y-70620000D01*
X115452500Y-60380000D02*
X115452500Y-70620000D01*
X115452500Y-70620000D02*
X107212500Y-70620000D01*
X107212500Y-63000000D02*
X106602500Y-63440000D01*
X106602500Y-62560000D01*
X107212500Y-63000000D01*
G36*
X107212500Y-63000000D02*
G01*
X106602500Y-63440000D01*
X106602500Y-62560000D01*
X107212500Y-63000000D01*
G37*
%TO.C,R9*%
X134280000Y-66080000D02*
X134280000Y-69920000D01*
X136120000Y-66080000D02*
X136120000Y-69920000D01*
%TO.C,R2*%
X119380000Y-54920000D02*
X119380000Y-51080000D01*
X121220000Y-54920000D02*
X121220000Y-51080000D01*
%TO.C,C8*%
X115683856Y-91665000D02*
X116133856Y-91665000D01*
X115908856Y-91440000D02*
X115908856Y-91890000D01*
X116101403Y-91940000D02*
G75*
G02*
X116101403Y-94060000I2119741J-1060000D01*
G01*
%TO.C,C10*%
X120933856Y-91415000D02*
X121383856Y-91415000D01*
X121158856Y-91190000D02*
X121158856Y-91640000D01*
X121351403Y-91690000D02*
G75*
G02*
X121351403Y-93810000I2119741J-1060000D01*
G01*
%TO.C,R3*%
X122530000Y-54920000D02*
X122530000Y-51080000D01*
X124370000Y-54920000D02*
X124370000Y-51080000D01*
%TO.C,C1*%
X138490000Y-54541144D02*
X138940000Y-54541144D01*
X138715000Y-54766144D02*
X138715000Y-54316144D01*
X138990000Y-54348597D02*
G75*
G02*
X141110000Y-54348597I1060000J2119741D01*
G01*
%TO.C,R10*%
X139127064Y-59790000D02*
X134772936Y-59790000D01*
X139127064Y-63210000D02*
X134772936Y-63210000D01*
%TO.C,R11*%
X131830000Y-54920000D02*
X131830000Y-51080000D01*
X133670000Y-54920000D02*
X133670000Y-51080000D01*
%TO.C,C4*%
X115241144Y-82560000D02*
X115241144Y-82110000D01*
X115466144Y-82335000D02*
X115016144Y-82335000D01*
X115048597Y-82060000D02*
G75*
G02*
X115048597Y-79940000I-2119741J1060000D01*
G01*
%TO.C,R1*%
X116230000Y-54920000D02*
X116230000Y-51080000D01*
X118070000Y-54920000D02*
X118070000Y-51080000D01*
%TO.C,R7*%
X134580000Y-54920000D02*
X134580000Y-51080000D01*
X136420000Y-54920000D02*
X136420000Y-51080000D01*
%TO.C,J1*%
X144430000Y-49630000D02*
X151970000Y-49630000D01*
X144430000Y-58870000D02*
X144430000Y-49630000D01*
X151970000Y-49630000D02*
X151970000Y-58870000D01*
X151970000Y-58870000D02*
X144430000Y-58870000D01*
%TO.C,R5*%
X128830000Y-54920000D02*
X128830000Y-51080000D01*
X130670000Y-54920000D02*
X130670000Y-51080000D01*
%TO.C,R4*%
X125680000Y-54920000D02*
X125680000Y-51080000D01*
X127520000Y-54920000D02*
X127520000Y-51080000D01*
%TO.C,R6*%
X123280000Y-77830000D02*
X123280000Y-81670000D01*
X125120000Y-77830000D02*
X125120000Y-81670000D01*
%TO.C,R8*%
X137780000Y-66080000D02*
X137780000Y-69920000D01*
X139620000Y-66080000D02*
X139620000Y-69920000D01*
%TO.C,J2*%
X106680000Y-49630000D02*
X114220000Y-49630000D01*
X106680000Y-58870000D02*
X106680000Y-49630000D01*
X114220000Y-49630000D02*
X114220000Y-58870000D01*
X114220000Y-58870000D02*
X106680000Y-58870000D01*
D12*
%TO.C,U1*%
X127500000Y-75900000D02*
X132400000Y-75900000D01*
X127500000Y-79100000D02*
X127500000Y-75900000D01*
X132400000Y-75900000D02*
X132400000Y-79100000D01*
X132400000Y-79100000D02*
X127500000Y-79100000D01*
X132530000Y-74025000D02*
X132530000Y-75550000D01*
D11*
%TO.C,U3*%
X116040000Y-74650000D02*
X116040000Y-78410000D01*
X116040000Y-78410000D02*
X117300000Y-78410000D01*
X122860000Y-74650000D02*
X122860000Y-78410000D01*
X122860000Y-78410000D02*
X121600000Y-78410000D01*
X123090000Y-73610000D02*
X122760000Y-73370000D01*
X123090000Y-73130000D01*
X123090000Y-73610000D01*
G36*
X123090000Y-73610000D02*
G01*
X122760000Y-73370000D01*
X123090000Y-73130000D01*
X123090000Y-73610000D01*
G37*
%TD*%
M02*
