%TF.GenerationSoftware,KiCad,Pcbnew,9.0.7*%
%TF.CreationDate,2026-02-04T19:30:04+05:00*%
%TF.ProjectId,HLT8012-Interface-board,484c5438-3031-4322-9d49-6e7465726661,rev?*%
%TF.SameCoordinates,Original*%
%TF.FileFunction,Soldermask,Top*%
%TF.FilePolarity,Negative*%
%FSLAX46Y46*%
G04 Gerber Fmt 4.6, Leading zero omitted, Abs format (unit mm)*
G04 Created by KiCad (PCBNEW 9.0.7) date 2026-02-04 19:30:04*
%MOMM*%
%LPD*%
G01*
G04 APERTURE LIST*
G04 Aperture macros list*
%AMRoundRect*
0 Rectangle with rounded corners*
0 $1 Rounding radius*
0 $2 $3 $4 $5 $6 $7 $8 $9 X,Y pos of 4 corners*
0 Add a 4 corners polygon primitive as box body*
4,1,4,$2,$3,$4,$5,$6,$7,$8,$9,$2,$3,0*
0 Add four circle primitives for the rounded corners*
1,1,$1+$1,$2,$3*
1,1,$1+$1,$4,$5*
1,1,$1+$1,$6,$7*
1,1,$1+$1,$8,$9*
0 Add four rect primitives between the rounded corners*
20,1,$1+$1,$2,$3,$4,$5,0*
20,1,$1+$1,$4,$5,$6,$7,0*
20,1,$1+$1,$6,$7,$8,$9,0*
20,1,$1+$1,$8,$9,$2,$3,0*%
G04 Aperture macros list end*
%ADD10RoundRect,0.250000X-0.400000X-0.625000X0.400000X-0.625000X0.400000X0.625000X-0.400000X0.625000X0*%
%ADD11RoundRect,0.102000X-0.762500X-0.325000X0.762500X-0.325000X0.762500X0.325000X-0.762500X0.325000X0*%
%ADD12RoundRect,0.250000X-1.000000X-1.000000X1.000000X-1.000000X1.000000X1.000000X-1.000000X1.000000X0*%
%ADD13C,2.500000*%
%ADD14RoundRect,0.250000X0.412500X0.650000X-0.412500X0.650000X-0.412500X-0.650000X0.412500X-0.650000X0*%
%ADD15RoundRect,0.250000X1.000000X-1.000000X1.000000X1.000000X-1.000000X1.000000X-1.000000X-1.000000X0*%
%ADD16RoundRect,0.250000X-0.625000X0.400000X-0.625000X-0.400000X0.625000X-0.400000X0.625000X0.400000X0*%
%ADD17RoundRect,0.250000X-0.412500X-0.650000X0.412500X-0.650000X0.412500X0.650000X-0.412500X0.650000X0*%
%ADD18RoundRect,0.250000X-0.650000X0.412500X-0.650000X-0.412500X0.650000X-0.412500X0.650000X0.412500X0*%
%ADD19C,3.000000*%
%ADD20RoundRect,0.249999X-1.425001X0.450001X-1.425001X-0.450001X1.425001X-0.450001X1.425001X0.450001X0*%
%ADD21R,1.350000X1.350000*%
%ADD22C,1.350000*%
G04 APERTURE END LIST*
D10*
%TO.C,R6*%
X112757500Y-124805000D03*
X115857500Y-124805000D03*
%TD*%
D11*
%TO.C,U1*%
X125763000Y-130345000D03*
X125763000Y-131615000D03*
X125763000Y-132885000D03*
X125763000Y-134155000D03*
X131187000Y-134155000D03*
X131187000Y-132885000D03*
X131187000Y-131615000D03*
X131187000Y-130345000D03*
%TD*%
D12*
%TO.C,J4*%
X120650000Y-109525000D03*
D13*
X125650000Y-109525000D03*
%TD*%
D14*
%TO.C,C3*%
X122662500Y-131300000D03*
X119537500Y-131300000D03*
%TD*%
D15*
%TO.C,J3*%
X138392500Y-123600000D03*
D13*
X138392500Y-118600000D03*
%TD*%
D16*
%TO.C,R7*%
X112950000Y-127325000D03*
X112950000Y-130425000D03*
%TD*%
D17*
%TO.C,C2*%
X119512500Y-128350000D03*
X122637500Y-128350000D03*
%TD*%
D10*
%TO.C,R4*%
X112757500Y-118185000D03*
X115857500Y-118185000D03*
%TD*%
D18*
%TO.C,C1*%
X115900000Y-127312500D03*
X115900000Y-130437500D03*
%TD*%
D19*
%TO.C,J1*%
X138800000Y-110050000D03*
%TD*%
D16*
%TO.C,R8*%
X126300000Y-115300000D03*
X126300000Y-118400000D03*
%TD*%
D10*
%TO.C,R3*%
X112757500Y-114875000D03*
X115857500Y-114875000D03*
%TD*%
%TO.C,R5*%
X112757500Y-121495000D03*
X115857500Y-121495000D03*
%TD*%
D19*
%TO.C,J2*%
X138775000Y-131950000D03*
%TD*%
D10*
%TO.C,R2*%
X112757500Y-111565000D03*
X115857500Y-111565000D03*
%TD*%
%TO.C,R1*%
X129550000Y-125050000D03*
X132650000Y-125050000D03*
%TD*%
D20*
%TO.C,R10*%
X120375000Y-116775000D03*
X120375000Y-122875000D03*
%TD*%
D16*
%TO.C,R9*%
X126250000Y-123750000D03*
X126250000Y-126850000D03*
%TD*%
D21*
%TO.C,J5*%
X112450000Y-135075000D03*
D22*
X114450000Y-135075000D03*
X116450000Y-135075000D03*
%TD*%
M02*
