M48
; DRILL file {KiCad 9.0.6} date 2026-07-10T16:37:45+0500
; FORMAT={-:-/ absolute / metric / decimal}
; #@! TF.CreationDate,2026-07-10T16:37:45+05:00
; #@! TF.GenerationSoftware,Kicad,Pcbnew,9.0.6
; #@! TF.FileFunction,Plated,1,2,PTH
FMAT,2
METRIC
; #@! TA.AperFunction,Plated,PTH,ComponentDrill
T1C0.700
; #@! TA.AperFunction,Plated,PTH,ComponentDrill
T2C0.800
; #@! TA.AperFunction,Plated,PTH,ComponentDrill
T3C1.000
; #@! TA.AperFunction,Plated,PTH,ComponentDrill
T4C1.100
; #@! TA.AperFunction,Plated,PTH,ComponentDrill
T5C1.300
; #@! TA.AperFunction,Plated,PTH,ComponentDrill
T6C1.500
%
G90
G05
T1
X117.15Y-50.46
X117.15Y-55.54
X120.3Y-50.46
X120.3Y-55.54
X123.45Y-50.46
X123.45Y-55.54
X124.2Y-77.21
X124.2Y-82.29
X126.6Y-50.46
X126.6Y-55.54
X129.75Y-50.46
X129.75Y-55.54
X132.75Y-50.46
X132.75Y-55.54
X135.2Y-65.46
X135.2Y-70.54
X135.5Y-50.46
X135.5Y-55.54
X138.7Y-65.46
X138.7Y-70.54
T2
X111.429Y-74.0
X111.679Y-81.0
X113.929Y-74.0
X114.179Y-81.0
X116.971Y-93.0
X119.471Y-93.0
X122.221Y-92.75
X124.721Y-92.75
X140.05Y-50.979
X140.05Y-53.479
X142.7Y-70.729
X142.7Y-73.229
X146.929Y-71.75
X149.429Y-71.75
T3
X127.8Y-85.44
X127.8Y-87.98
X127.8Y-90.52
X127.8Y-93.06
X130.34Y-85.44
X130.34Y-87.98
X130.34Y-90.52
X130.34Y-93.06
T4
X139.25Y-87.5
X139.25Y-92.0
X145.75Y-87.5
X145.75Y-92.0
T5
X110.832Y-88.75
X110.832Y-93.75
X111.332Y-63.0
X111.332Y-68.0
T6
X110.45Y-54.25
X148.2Y-54.25
M30
