%TF.GenerationSoftware,KiCad,Pcbnew,9.0.6*%
%TF.CreationDate,2026-07-10T16:37:43+05:00*%
%TF.ProjectId,HLT8012-Interface-board,484c5438-3031-4322-9d49-6e7465726661,rev?*%
%TF.SameCoordinates,Original*%
%TF.FileFunction,Soldermask,Top*%
%TF.FilePolarity,Negative*%
%FSLAX46Y46*%
G04 Gerber Fmt 4.6, Leading zero omitted, Abs format (unit mm)*
G04 Created by KiCad (PCBNEW 9.0.6) date 2026-07-10 16:37:43*
%MOMM*%
%LPD*%
G01*
G04 APERTURE LIST*
G04 Aperture macros list*
%AMRoundRect*
0 Rectangle with rounded corners*
0 $1 Rounding radius*
0 $2 $3 $4 $5 $6 $7 $8 $9 X,Y pos of 4 corners*
0 Add a 4 corners polygon primitive as box body*
4,1,4,$2,$3,$4,$5,$6,$7,$8,$9,$2,$3,0*
0 Add four circle primitives for the rounded corners*
1,1,$1+$1,$2,$3*
1,1,$1+$1,$4,$5*
1,1,$1+$1,$6,$7*
1,1,$1+$1,$8,$9*
0 Add four rect primitives between the rounded corners*
20,1,$1+$1,$2,$3,$4,$5,0*
20,1,$1+$1,$4,$5,$6,$7,0*
20,1,$1+$1,$6,$7,$8,$9,0*
20,1,$1+$1,$8,$9,$2,$3,0*%
G04 Aperture macros list end*
%ADD10RoundRect,0.250000X0.550000X-0.550000X0.550000X0.550000X-0.550000X0.550000X-0.550000X-0.550000X0*%
%ADD11C,1.600000*%
%ADD12RoundRect,0.250000X0.550000X0.550000X-0.550000X0.550000X-0.550000X-0.550000X0.550000X-0.550000X0*%
%ADD13C,2.000000*%
%ADD14RoundRect,0.250000X-1.000000X1.000000X-1.000000X-1.000000X1.000000X-1.000000X1.000000X1.000000X0*%
%ADD15C,2.500000*%
%ADD16RoundRect,0.375000X0.375000X-0.625000X0.375000X0.625000X-0.375000X0.625000X-0.375000X-0.625000X0*%
%ADD17RoundRect,0.500000X1.400000X-0.500000X1.400000X0.500000X-1.400000X0.500000X-1.400000X-0.500000X0*%
%ADD18C,1.400000*%
%ADD19RoundRect,0.250000X-0.550000X-0.550000X0.550000X-0.550000X0.550000X0.550000X-0.550000X0.550000X0*%
%ADD20C,2.200000*%
%ADD21RoundRect,0.249999X0.450001X1.425001X-0.450001X1.425001X-0.450001X-1.425001X0.450001X-1.425001X0*%
%ADD22C,3.000000*%
%ADD23RoundRect,0.102000X-0.325000X0.762500X-0.325000X-0.762500X0.325000X-0.762500X0.325000X0.762500X0*%
%ADD24RoundRect,0.375000X-0.375000X0.625000X-0.375000X-0.625000X0.375000X-0.625000X0.375000X0.625000X0*%
%ADD25RoundRect,0.500000X-1.400000X0.500000X-1.400000X-0.500000X1.400000X-0.500000X1.400000X0.500000X0*%
%ADD26RoundRect,0.102000X0.754000X-0.754000X0.754000X0.754000X-0.754000X0.754000X-0.754000X-0.754000X0*%
%ADD27C,1.712000*%
G04 APERTURE END LIST*
D10*
%TO.C,C2*%
X142700000Y-73228856D03*
D11*
X142700000Y-70728856D03*
%TD*%
D12*
%TO.C,C3*%
X149428856Y-71750000D03*
D11*
X146928856Y-71750000D03*
%TD*%
D12*
%TO.C,C6*%
X113928856Y-74000000D03*
D11*
X111428856Y-74000000D03*
%TD*%
D13*
%TO.C,SW1*%
X139250000Y-87500000D03*
X145750000Y-87500000D03*
X139250000Y-92000000D03*
X145750000Y-92000000D03*
%TD*%
D14*
%TO.C,J4*%
X110832500Y-88750000D03*
D15*
X110832500Y-93750000D03*
%TD*%
D16*
%TO.C,U4*%
X117150000Y-88650000D03*
X119450000Y-88650000D03*
D17*
X119450000Y-82350000D03*
D16*
X121750000Y-88650000D03*
%TD*%
D14*
%TO.C,J3*%
X111332500Y-63000000D03*
D15*
X111332500Y-68000000D03*
%TD*%
D18*
%TO.C,R9*%
X135200000Y-65460000D03*
X135200000Y-70540000D03*
%TD*%
%TO.C,R2*%
X120300000Y-55540000D03*
X120300000Y-50460000D03*
%TD*%
D19*
%TO.C,C8*%
X116971144Y-93000000D03*
D11*
X119471144Y-93000000D03*
%TD*%
D20*
%TO.C,H3*%
X139000000Y-77500000D03*
%TD*%
D19*
%TO.C,C10*%
X122221144Y-92750000D03*
D11*
X124721144Y-92750000D03*
%TD*%
D18*
%TO.C,R3*%
X123450000Y-55540000D03*
X123450000Y-50460000D03*
%TD*%
D20*
%TO.C,H1*%
X122750000Y-61750000D03*
%TD*%
D10*
%TO.C,C1*%
X140050000Y-53478856D03*
D11*
X140050000Y-50978856D03*
%TD*%
D21*
%TO.C,R10*%
X140000000Y-61500000D03*
X133900000Y-61500000D03*
%TD*%
D18*
%TO.C,R11*%
X132750000Y-55540000D03*
X132750000Y-50460000D03*
%TD*%
D12*
%TO.C,C4*%
X114178856Y-81000000D03*
D11*
X111678856Y-81000000D03*
%TD*%
D18*
%TO.C,R1*%
X117150000Y-55540000D03*
X117150000Y-50460000D03*
%TD*%
%TO.C,R7*%
X135500000Y-55540000D03*
X135500000Y-50460000D03*
%TD*%
D22*
%TO.C,J1*%
X148200000Y-54250000D03*
%TD*%
D18*
%TO.C,R5*%
X129750000Y-55540000D03*
X129750000Y-50460000D03*
%TD*%
D20*
%TO.C,H4*%
X148000000Y-64000000D03*
%TD*%
D18*
%TO.C,R4*%
X126600000Y-55540000D03*
X126600000Y-50460000D03*
%TD*%
%TO.C,R6*%
X124200000Y-77210000D03*
X124200000Y-82290000D03*
%TD*%
%TO.C,R8*%
X138700000Y-65460000D03*
X138700000Y-70540000D03*
%TD*%
D22*
%TO.C,J2*%
X110450000Y-54250000D03*
%TD*%
D23*
%TO.C,U1*%
X131855000Y-74788000D03*
X130585000Y-74788000D03*
X129315000Y-74788000D03*
X128045000Y-74788000D03*
X128045000Y-80212000D03*
X129315000Y-80212000D03*
X130585000Y-80212000D03*
X131855000Y-80212000D03*
%TD*%
D24*
%TO.C,U3*%
X121750000Y-73350000D03*
X119450000Y-73350000D03*
D25*
X119450000Y-79650000D03*
D24*
X117150000Y-73350000D03*
%TD*%
D26*
%TO.C,U2*%
X130340000Y-93060000D03*
D27*
X130340000Y-90520000D03*
X130340000Y-87980000D03*
X130340000Y-85440000D03*
X127800000Y-85440000D03*
X127800000Y-87980000D03*
X127800000Y-90520000D03*
X127800000Y-93060000D03*
%TD*%
M02*
