%TF.GenerationSoftware,KiCad,Pcbnew,9.0.6*%
%TF.CreationDate,2026-07-20T21:05:45+05:00*%
%TF.ProjectId,HLT8012-Interface-board,484c5438-3031-4322-9d49-6e7465726661,rev?*%
%TF.SameCoordinates,Original*%
%TF.FileFunction,Legend,Top*%
%TF.FilePolarity,Positive*%
%FSLAX46Y46*%
G04 Gerber Fmt 4.6, Leading zero omitted, Abs format (unit mm)*
G04 Created by KiCad (PCBNEW 9.0.6) date 2026-07-20 21:05:45*
%MOMM*%
%LPD*%
G01*
G04 APERTURE LIST*
%ADD10C,0.150000*%
%ADD11C,0.120000*%
%ADD12C,0.200000*%
G04 APERTURE END LIST*
D10*
X126954819Y-81833333D02*
X127669104Y-81833333D01*
X127669104Y-81833333D02*
X127811961Y-81880952D01*
X127811961Y-81880952D02*
X127907200Y-81976190D01*
X127907200Y-81976190D02*
X127954819Y-82119047D01*
X127954819Y-82119047D02*
X127954819Y-82214285D01*
X127954819Y-81357142D02*
X126954819Y-81357142D01*
X126954819Y-81357142D02*
X126954819Y-80976190D01*
X126954819Y-80976190D02*
X127002438Y-80880952D01*
X127002438Y-80880952D02*
X127050057Y-80833333D01*
X127050057Y-80833333D02*
X127145295Y-80785714D01*
X127145295Y-80785714D02*
X127288152Y-80785714D01*
X127288152Y-80785714D02*
X127383390Y-80833333D01*
X127383390Y-80833333D02*
X127431009Y-80880952D01*
X127431009Y-80880952D02*
X127478628Y-80976190D01*
X127478628Y-80976190D02*
X127478628Y-81357142D01*
X127954819Y-79833333D02*
X127954819Y-80404761D01*
X127954819Y-80119047D02*
X126954819Y-80119047D01*
X126954819Y-80119047D02*
X127097676Y-80214285D01*
X127097676Y-80214285D02*
X127192914Y-80309523D01*
X127192914Y-80309523D02*
X127240533Y-80404761D01*
X118054477Y-89859580D02*
X118006858Y-89907200D01*
X118006858Y-89907200D02*
X117864001Y-89954819D01*
X117864001Y-89954819D02*
X117768763Y-89954819D01*
X117768763Y-89954819D02*
X117625906Y-89907200D01*
X117625906Y-89907200D02*
X117530668Y-89811961D01*
X117530668Y-89811961D02*
X117483049Y-89716723D01*
X117483049Y-89716723D02*
X117435430Y-89526247D01*
X117435430Y-89526247D02*
X117435430Y-89383390D01*
X117435430Y-89383390D02*
X117483049Y-89192914D01*
X117483049Y-89192914D02*
X117530668Y-89097676D01*
X117530668Y-89097676D02*
X117625906Y-89002438D01*
X117625906Y-89002438D02*
X117768763Y-88954819D01*
X117768763Y-88954819D02*
X117864001Y-88954819D01*
X117864001Y-88954819D02*
X118006858Y-89002438D01*
X118006858Y-89002438D02*
X118054477Y-89050057D01*
X118625906Y-89383390D02*
X118530668Y-89335771D01*
X118530668Y-89335771D02*
X118483049Y-89288152D01*
X118483049Y-89288152D02*
X118435430Y-89192914D01*
X118435430Y-89192914D02*
X118435430Y-89145295D01*
X118435430Y-89145295D02*
X118483049Y-89050057D01*
X118483049Y-89050057D02*
X118530668Y-89002438D01*
X118530668Y-89002438D02*
X118625906Y-88954819D01*
X118625906Y-88954819D02*
X118816382Y-88954819D01*
X118816382Y-88954819D02*
X118911620Y-89002438D01*
X118911620Y-89002438D02*
X118959239Y-89050057D01*
X118959239Y-89050057D02*
X119006858Y-89145295D01*
X119006858Y-89145295D02*
X119006858Y-89192914D01*
X119006858Y-89192914D02*
X118959239Y-89288152D01*
X118959239Y-89288152D02*
X118911620Y-89335771D01*
X118911620Y-89335771D02*
X118816382Y-89383390D01*
X118816382Y-89383390D02*
X118625906Y-89383390D01*
X118625906Y-89383390D02*
X118530668Y-89431009D01*
X118530668Y-89431009D02*
X118483049Y-89478628D01*
X118483049Y-89478628D02*
X118435430Y-89573866D01*
X118435430Y-89573866D02*
X118435430Y-89764342D01*
X118435430Y-89764342D02*
X118483049Y-89859580D01*
X118483049Y-89859580D02*
X118530668Y-89907200D01*
X118530668Y-89907200D02*
X118625906Y-89954819D01*
X118625906Y-89954819D02*
X118816382Y-89954819D01*
X118816382Y-89954819D02*
X118911620Y-89907200D01*
X118911620Y-89907200D02*
X118959239Y-89859580D01*
X118959239Y-89859580D02*
X119006858Y-89764342D01*
X119006858Y-89764342D02*
X119006858Y-89573866D01*
X119006858Y-89573866D02*
X118959239Y-89478628D01*
X118959239Y-89478628D02*
X118911620Y-89431009D01*
X118911620Y-89431009D02*
X118816382Y-89383390D01*
X122828286Y-89609580D02*
X122780667Y-89657200D01*
X122780667Y-89657200D02*
X122637810Y-89704819D01*
X122637810Y-89704819D02*
X122542572Y-89704819D01*
X122542572Y-89704819D02*
X122399715Y-89657200D01*
X122399715Y-89657200D02*
X122304477Y-89561961D01*
X122304477Y-89561961D02*
X122256858Y-89466723D01*
X122256858Y-89466723D02*
X122209239Y-89276247D01*
X122209239Y-89276247D02*
X122209239Y-89133390D01*
X122209239Y-89133390D02*
X122256858Y-88942914D01*
X122256858Y-88942914D02*
X122304477Y-88847676D01*
X122304477Y-88847676D02*
X122399715Y-88752438D01*
X122399715Y-88752438D02*
X122542572Y-88704819D01*
X122542572Y-88704819D02*
X122637810Y-88704819D01*
X122637810Y-88704819D02*
X122780667Y-88752438D01*
X122780667Y-88752438D02*
X122828286Y-88800057D01*
X123780667Y-89704819D02*
X123209239Y-89704819D01*
X123494953Y-89704819D02*
X123494953Y-88704819D01*
X123494953Y-88704819D02*
X123399715Y-88847676D01*
X123399715Y-88847676D02*
X123304477Y-88942914D01*
X123304477Y-88942914D02*
X123209239Y-88990533D01*
X124399715Y-88704819D02*
X124494953Y-88704819D01*
X124494953Y-88704819D02*
X124590191Y-88752438D01*
X124590191Y-88752438D02*
X124637810Y-88800057D01*
X124637810Y-88800057D02*
X124685429Y-88895295D01*
X124685429Y-88895295D02*
X124733048Y-89085771D01*
X124733048Y-89085771D02*
X124733048Y-89323866D01*
X124733048Y-89323866D02*
X124685429Y-89514342D01*
X124685429Y-89514342D02*
X124637810Y-89609580D01*
X124637810Y-89609580D02*
X124590191Y-89657200D01*
X124590191Y-89657200D02*
X124494953Y-89704819D01*
X124494953Y-89704819D02*
X124399715Y-89704819D01*
X124399715Y-89704819D02*
X124304477Y-89657200D01*
X124304477Y-89657200D02*
X124256858Y-89609580D01*
X124256858Y-89609580D02*
X124209239Y-89514342D01*
X124209239Y-89514342D02*
X124161620Y-89323866D01*
X124161620Y-89323866D02*
X124161620Y-89085771D01*
X124161620Y-89085771D02*
X124209239Y-88895295D01*
X124209239Y-88895295D02*
X124256858Y-88800057D01*
X124256858Y-88800057D02*
X124304477Y-88752438D01*
X124304477Y-88752438D02*
X124399715Y-88704819D01*
X136307142Y-64584819D02*
X135973809Y-64108628D01*
X135735714Y-64584819D02*
X135735714Y-63584819D01*
X135735714Y-63584819D02*
X136116666Y-63584819D01*
X136116666Y-63584819D02*
X136211904Y-63632438D01*
X136211904Y-63632438D02*
X136259523Y-63680057D01*
X136259523Y-63680057D02*
X136307142Y-63775295D01*
X136307142Y-63775295D02*
X136307142Y-63918152D01*
X136307142Y-63918152D02*
X136259523Y-64013390D01*
X136259523Y-64013390D02*
X136211904Y-64061009D01*
X136211904Y-64061009D02*
X136116666Y-64108628D01*
X136116666Y-64108628D02*
X135735714Y-64108628D01*
X137259523Y-64584819D02*
X136688095Y-64584819D01*
X136973809Y-64584819D02*
X136973809Y-63584819D01*
X136973809Y-63584819D02*
X136878571Y-63727676D01*
X136878571Y-63727676D02*
X136783333Y-63822914D01*
X136783333Y-63822914D02*
X136688095Y-63870533D01*
X137878571Y-63584819D02*
X137973809Y-63584819D01*
X137973809Y-63584819D02*
X138069047Y-63632438D01*
X138069047Y-63632438D02*
X138116666Y-63680057D01*
X138116666Y-63680057D02*
X138164285Y-63775295D01*
X138164285Y-63775295D02*
X138211904Y-63965771D01*
X138211904Y-63965771D02*
X138211904Y-64203866D01*
X138211904Y-64203866D02*
X138164285Y-64394342D01*
X138164285Y-64394342D02*
X138116666Y-64489580D01*
X138116666Y-64489580D02*
X138069047Y-64537200D01*
X138069047Y-64537200D02*
X137973809Y-64584819D01*
X137973809Y-64584819D02*
X137878571Y-64584819D01*
X137878571Y-64584819D02*
X137783333Y-64537200D01*
X137783333Y-64537200D02*
X137735714Y-64489580D01*
X137735714Y-64489580D02*
X137688095Y-64394342D01*
X137688095Y-64394342D02*
X137640476Y-64203866D01*
X137640476Y-64203866D02*
X137640476Y-63965771D01*
X137640476Y-63965771D02*
X137688095Y-63775295D01*
X137688095Y-63775295D02*
X137735714Y-63680057D01*
X137735714Y-63680057D02*
X137783333Y-63632438D01*
X137783333Y-63632438D02*
X137878571Y-63584819D01*
X146104761Y-82000057D02*
X146009523Y-81952438D01*
X146009523Y-81952438D02*
X145914285Y-81857200D01*
X145914285Y-81857200D02*
X145771428Y-81714342D01*
X145771428Y-81714342D02*
X145676190Y-81666723D01*
X145676190Y-81666723D02*
X145580952Y-81666723D01*
X145628571Y-81904819D02*
X145533333Y-81857200D01*
X145533333Y-81857200D02*
X145438095Y-81761961D01*
X145438095Y-81761961D02*
X145390476Y-81571485D01*
X145390476Y-81571485D02*
X145390476Y-81238152D01*
X145390476Y-81238152D02*
X145438095Y-81047676D01*
X145438095Y-81047676D02*
X145533333Y-80952438D01*
X145533333Y-80952438D02*
X145628571Y-80904819D01*
X145628571Y-80904819D02*
X145819047Y-80904819D01*
X145819047Y-80904819D02*
X145914285Y-80952438D01*
X145914285Y-80952438D02*
X146009523Y-81047676D01*
X146009523Y-81047676D02*
X146057142Y-81238152D01*
X146057142Y-81238152D02*
X146057142Y-81571485D01*
X146057142Y-81571485D02*
X146009523Y-81761961D01*
X146009523Y-81761961D02*
X145914285Y-81857200D01*
X145914285Y-81857200D02*
X145819047Y-81904819D01*
X145819047Y-81904819D02*
X145628571Y-81904819D01*
X147009523Y-81904819D02*
X146438095Y-81904819D01*
X146723809Y-81904819D02*
X146723809Y-80904819D01*
X146723809Y-80904819D02*
X146628571Y-81047676D01*
X146628571Y-81047676D02*
X146533333Y-81142914D01*
X146533333Y-81142914D02*
X146438095Y-81190533D01*
X111607142Y-86874819D02*
X111273809Y-86398628D01*
X111035714Y-86874819D02*
X111035714Y-85874819D01*
X111035714Y-85874819D02*
X111416666Y-85874819D01*
X111416666Y-85874819D02*
X111511904Y-85922438D01*
X111511904Y-85922438D02*
X111559523Y-85970057D01*
X111559523Y-85970057D02*
X111607142Y-86065295D01*
X111607142Y-86065295D02*
X111607142Y-86208152D01*
X111607142Y-86208152D02*
X111559523Y-86303390D01*
X111559523Y-86303390D02*
X111511904Y-86351009D01*
X111511904Y-86351009D02*
X111416666Y-86398628D01*
X111416666Y-86398628D02*
X111035714Y-86398628D01*
X112559523Y-86874819D02*
X111988095Y-86874819D01*
X112273809Y-86874819D02*
X112273809Y-85874819D01*
X112273809Y-85874819D02*
X112178571Y-86017676D01*
X112178571Y-86017676D02*
X112083333Y-86112914D01*
X112083333Y-86112914D02*
X111988095Y-86160533D01*
X113035714Y-86874819D02*
X113226190Y-86874819D01*
X113226190Y-86874819D02*
X113321428Y-86827200D01*
X113321428Y-86827200D02*
X113369047Y-86779580D01*
X113369047Y-86779580D02*
X113464285Y-86636723D01*
X113464285Y-86636723D02*
X113511904Y-86446247D01*
X113511904Y-86446247D02*
X113511904Y-86065295D01*
X113511904Y-86065295D02*
X113464285Y-85970057D01*
X113464285Y-85970057D02*
X113416666Y-85922438D01*
X113416666Y-85922438D02*
X113321428Y-85874819D01*
X113321428Y-85874819D02*
X113130952Y-85874819D01*
X113130952Y-85874819D02*
X113035714Y-85922438D01*
X113035714Y-85922438D02*
X112988095Y-85970057D01*
X112988095Y-85970057D02*
X112940476Y-86065295D01*
X112940476Y-86065295D02*
X112940476Y-86303390D01*
X112940476Y-86303390D02*
X112988095Y-86398628D01*
X112988095Y-86398628D02*
X113035714Y-86446247D01*
X113035714Y-86446247D02*
X113130952Y-86493866D01*
X113130952Y-86493866D02*
X113321428Y-86493866D01*
X113321428Y-86493866D02*
X113416666Y-86446247D01*
X113416666Y-86446247D02*
X113464285Y-86398628D01*
X113464285Y-86398628D02*
X113511904Y-86303390D01*
X123404819Y-77261904D02*
X124214342Y-77261904D01*
X124214342Y-77261904D02*
X124309580Y-77214285D01*
X124309580Y-77214285D02*
X124357200Y-77166666D01*
X124357200Y-77166666D02*
X124404819Y-77071428D01*
X124404819Y-77071428D02*
X124404819Y-76880952D01*
X124404819Y-76880952D02*
X124357200Y-76785714D01*
X124357200Y-76785714D02*
X124309580Y-76738095D01*
X124309580Y-76738095D02*
X124214342Y-76690476D01*
X124214342Y-76690476D02*
X123404819Y-76690476D01*
X123404819Y-76309523D02*
X123404819Y-75690476D01*
X123404819Y-75690476D02*
X123785771Y-76023809D01*
X123785771Y-76023809D02*
X123785771Y-75880952D01*
X123785771Y-75880952D02*
X123833390Y-75785714D01*
X123833390Y-75785714D02*
X123881009Y-75738095D01*
X123881009Y-75738095D02*
X123976247Y-75690476D01*
X123976247Y-75690476D02*
X124214342Y-75690476D01*
X124214342Y-75690476D02*
X124309580Y-75738095D01*
X124309580Y-75738095D02*
X124357200Y-75785714D01*
X124357200Y-75785714D02*
X124404819Y-75880952D01*
X124404819Y-75880952D02*
X124404819Y-76166666D01*
X124404819Y-76166666D02*
X124357200Y-76261904D01*
X124357200Y-76261904D02*
X124309580Y-76309523D01*
D11*
%TO.C,C2*%
X144891144Y-72360000D02*
X144891144Y-71910000D01*
X145116144Y-72135000D02*
X144666144Y-72135000D01*
X144698597Y-71860000D02*
G75*
G02*
X144698597Y-69740000I-2119741J1060000D01*
G01*
%TO.C,C3*%
X150491144Y-73310000D02*
X150491144Y-72860000D01*
X150716144Y-73085000D02*
X150266144Y-73085000D01*
X150298597Y-72810000D02*
G75*
G02*
X150298597Y-70690000I-2119741J1060000D01*
G01*
%TO.C,C6*%
X114691144Y-74960000D02*
X114691144Y-74510000D01*
X114916144Y-74735000D02*
X114466144Y-74735000D01*
X114498597Y-74460000D02*
G75*
G02*
X114498597Y-72340000I-2119741J1060000D01*
G01*
%TO.C,R18*%
X138120000Y-89480000D02*
X134280000Y-89480000D01*
X138120000Y-91320000D02*
X134280000Y-91320000D01*
%TO.C,J4*%
X106712500Y-86130000D02*
X114952500Y-86130000D01*
X106712500Y-88450000D02*
X106712500Y-86130000D01*
X106712500Y-96370000D02*
X106712500Y-89050000D01*
X108832500Y-86130000D02*
X108832500Y-96370000D01*
X112832500Y-86130000D02*
X112832500Y-96370000D01*
X114952500Y-86130000D02*
X114952500Y-96370000D01*
X114952500Y-96370000D02*
X106712500Y-96370000D01*
X106712500Y-88750000D02*
X106102500Y-89190000D01*
X106102500Y-88310000D01*
X106712500Y-88750000D01*
G36*
X106712500Y-88750000D02*
G01*
X106102500Y-89190000D01*
X106102500Y-88310000D01*
X106712500Y-88750000D01*
G37*
%TO.C,U4*%
X116040000Y-83590000D02*
X117300000Y-83590000D01*
X116040000Y-87350000D02*
X116040000Y-83590000D01*
X122860000Y-83590000D02*
X121600000Y-83590000D01*
X122860000Y-87350000D02*
X122860000Y-83590000D01*
X116140000Y-88630000D02*
X115810000Y-88870000D01*
X115810000Y-88390000D01*
X116140000Y-88630000D01*
G36*
X116140000Y-88630000D02*
G01*
X115810000Y-88870000D01*
X115810000Y-88390000D01*
X116140000Y-88630000D01*
G37*
%TO.C,J3*%
X106612500Y-59680000D02*
X114852500Y-59680000D01*
X106612500Y-62000000D02*
X106612500Y-59680000D01*
X106612500Y-69920000D02*
X106612500Y-62600000D01*
X108732500Y-59680000D02*
X108732500Y-69920000D01*
X112732500Y-59680000D02*
X112732500Y-69920000D01*
X114852500Y-59680000D02*
X114852500Y-69920000D01*
X114852500Y-69920000D02*
X106612500Y-69920000D01*
X106612500Y-62300000D02*
X106002500Y-62740000D01*
X106002500Y-61860000D01*
X106612500Y-62300000D01*
G36*
X106612500Y-62300000D02*
G01*
X106002500Y-62740000D01*
X106002500Y-61860000D01*
X106612500Y-62300000D01*
G37*
%TO.C,R9*%
X134280000Y-66080000D02*
X134280000Y-69920000D01*
X136120000Y-66080000D02*
X136120000Y-69920000D01*
%TO.C,JP1*%
X123500000Y-85060000D02*
X123500000Y-76960000D01*
X123500000Y-85060000D02*
X126500000Y-85060000D01*
X126500000Y-76960000D02*
X123500000Y-76960000D01*
X126500000Y-76960000D02*
X126500000Y-85060000D01*
%TO.C,R2*%
X119380000Y-54920000D02*
X119380000Y-51080000D01*
X121220000Y-54920000D02*
X121220000Y-51080000D01*
%TO.C,C8*%
X115683856Y-91665000D02*
X116133856Y-91665000D01*
X115908856Y-91440000D02*
X115908856Y-91890000D01*
X116101403Y-91940000D02*
G75*
G02*
X116101403Y-94060000I2119741J-1060000D01*
G01*
%TO.C,R13*%
X135580000Y-84330000D02*
X139420000Y-84330000D01*
X135580000Y-86170000D02*
X139420000Y-86170000D01*
%TO.C,C10*%
X120933856Y-91415000D02*
X121383856Y-91415000D01*
X121158856Y-91190000D02*
X121158856Y-91640000D01*
X121351403Y-91690000D02*
G75*
G02*
X121351403Y-93810000I2119741J-1060000D01*
G01*
%TO.C,R3*%
X122530000Y-54920000D02*
X122530000Y-51080000D01*
X124370000Y-54920000D02*
X124370000Y-51080000D01*
%TO.C,C1*%
X138490000Y-54541144D02*
X138940000Y-54541144D01*
X138715000Y-54766144D02*
X138715000Y-54316144D01*
X138990000Y-54348597D02*
G75*
G02*
X141110000Y-54348597I1060000J2119741D01*
G01*
%TO.C,R10*%
X139127064Y-59790000D02*
X134772936Y-59790000D01*
X139127064Y-63210000D02*
X134772936Y-63210000D01*
%TO.C,R11*%
X131830000Y-54920000D02*
X131830000Y-51080000D01*
X133670000Y-54920000D02*
X133670000Y-51080000D01*
%TO.C,R14*%
X139080000Y-82520000D02*
X139080000Y-78680000D01*
X140920000Y-82520000D02*
X140920000Y-78680000D01*
%TO.C,C4*%
X110683856Y-78065000D02*
X111133856Y-78065000D01*
X110908856Y-77840000D02*
X110908856Y-78290000D01*
X111101403Y-78340000D02*
G75*
G02*
X111101403Y-80460000I2119741J-1060000D01*
G01*
%TO.C,R1*%
X116230000Y-54920000D02*
X116230000Y-51080000D01*
X118070000Y-54920000D02*
X118070000Y-51080000D01*
%TO.C,R7*%
X134580000Y-54920000D02*
X134580000Y-51080000D01*
X136420000Y-54920000D02*
X136420000Y-51080000D01*
%TO.C,R12*%
X132880000Y-79520000D02*
X132880000Y-75680000D01*
X134720000Y-79520000D02*
X134720000Y-75680000D01*
%TO.C,J1*%
X144430000Y-49630000D02*
X151970000Y-49630000D01*
X144430000Y-58870000D02*
X144430000Y-49630000D01*
X151970000Y-49630000D02*
X151970000Y-58870000D01*
X151970000Y-58870000D02*
X144430000Y-58870000D01*
%TO.C,R5*%
X128830000Y-54920000D02*
X128830000Y-51080000D01*
X130670000Y-54920000D02*
X130670000Y-51080000D01*
%TO.C,Q1*%
X148000000Y-76040000D02*
X144400000Y-76040000D01*
X146200000Y-80490000D02*
G75*
G02*
X144361522Y-76051522I0J2600000D01*
G01*
X148038478Y-76051522D02*
G75*
G02*
X146200000Y-80490001I-1838478J-1838478D01*
G01*
%TO.C,R6*%
X149080000Y-80120000D02*
X149080000Y-76280000D01*
X150920000Y-80120000D02*
X150920000Y-76280000D01*
%TO.C,R4*%
X125680000Y-54920000D02*
X125680000Y-51080000D01*
X127520000Y-54920000D02*
X127520000Y-51080000D01*
%TO.C,R17*%
X108330000Y-80420000D02*
X108330000Y-76580000D01*
X110170000Y-80420000D02*
X110170000Y-76580000D01*
%TO.C,R8*%
X137780000Y-66080000D02*
X137780000Y-69920000D01*
X139620000Y-66080000D02*
X139620000Y-69920000D01*
%TO.C,J2*%
X106680000Y-49630000D02*
X114220000Y-49630000D01*
X106680000Y-58870000D02*
X106680000Y-49630000D01*
X114220000Y-49630000D02*
X114220000Y-58870000D01*
X114220000Y-58870000D02*
X106680000Y-58870000D01*
%TO.C,R19*%
X114170000Y-83580000D02*
X110330000Y-83580000D01*
X114170000Y-85420000D02*
X110330000Y-85420000D01*
D12*
%TO.C,U1*%
X127500000Y-75900000D02*
X132400000Y-75900000D01*
X127500000Y-79100000D02*
X127500000Y-75900000D01*
X132400000Y-75900000D02*
X132400000Y-79100000D01*
X132400000Y-79100000D02*
X127500000Y-79100000D01*
X132530000Y-74025000D02*
X132530000Y-75550000D01*
D11*
%TO.C,R15*%
X141280000Y-75080000D02*
X141280000Y-78920000D01*
X143120000Y-75080000D02*
X143120000Y-78920000D01*
%TO.C,R16*%
X135580000Y-79520000D02*
X135580000Y-75680000D01*
X137420000Y-79520000D02*
X137420000Y-75680000D01*
%TO.C,U3*%
X116040000Y-74650000D02*
X116040000Y-78410000D01*
X116040000Y-78410000D02*
X117300000Y-78410000D01*
X122860000Y-74650000D02*
X122860000Y-78410000D01*
X122860000Y-78410000D02*
X121600000Y-78410000D01*
X123090000Y-73610000D02*
X122760000Y-73370000D01*
X123090000Y-73130000D01*
X123090000Y-73610000D01*
G36*
X123090000Y-73610000D02*
G01*
X122760000Y-73370000D01*
X123090000Y-73130000D01*
X123090000Y-73610000D01*
G37*
%TD*%
M02*
