%TF.GenerationSoftware,KiCad,Pcbnew,9.0.7*%
%TF.CreationDate,2026-02-04T19:16:51+05:00*%
%TF.ProjectId,HLT8012-Interface-board,484c5438-3031-4322-9d49-6e7465726661,rev?*%
%TF.SameCoordinates,Original*%
%TF.FileFunction,Copper,L2,Bot*%
%TF.FilePolarity,Positive*%
%FSLAX46Y46*%
G04 Gerber Fmt 4.6, Leading zero omitted, Abs format (unit mm)*
G04 Created by KiCad (PCBNEW 9.0.7) date 2026-02-04 19:16:51*
%MOMM*%
%LPD*%
G01*
G04 APERTURE LIST*
G04 Aperture macros list*
%AMRoundRect*
0 Rectangle with rounded corners*
0 $1 Rounding radius*
0 $2 $3 $4 $5 $6 $7 $8 $9 X,Y pos of 4 corners*
0 Add a 4 corners polygon primitive as box body*
4,1,4,$2,$3,$4,$5,$6,$7,$8,$9,$2,$3,0*
0 Add four circle primitives for the rounded corners*
1,1,$1+$1,$2,$3*
1,1,$1+$1,$4,$5*
1,1,$1+$1,$6,$7*
1,1,$1+$1,$8,$9*
0 Add four rect primitives between the rounded corners*
20,1,$1+$1,$2,$3,$4,$5,0*
20,1,$1+$1,$4,$5,$6,$7,0*
20,1,$1+$1,$6,$7,$8,$9,0*
20,1,$1+$1,$8,$9,$2,$3,0*%
G04 Aperture macros list end*
%TA.AperFunction,ComponentPad*%
%ADD10C,1.350000*%
%TD*%
%TA.AperFunction,ComponentPad*%
%ADD11R,1.350000X1.350000*%
%TD*%
%TA.AperFunction,ComponentPad*%
%ADD12RoundRect,0.250000X-1.000000X-1.000000X1.000000X-1.000000X1.000000X1.000000X-1.000000X1.000000X0*%
%TD*%
%TA.AperFunction,ComponentPad*%
%ADD13C,2.500000*%
%TD*%
%TA.AperFunction,ComponentPad*%
%ADD14RoundRect,0.250000X1.000000X-1.000000X1.000000X1.000000X-1.000000X1.000000X-1.000000X-1.000000X0*%
%TD*%
%TA.AperFunction,ComponentPad*%
%ADD15C,3.000000*%
%TD*%
%TA.AperFunction,ViaPad*%
%ADD16C,0.600000*%
%TD*%
%TA.AperFunction,Conductor*%
%ADD17C,0.200000*%
%TD*%
G04 APERTURE END LIST*
D10*
%TO.P,J5,3,Pin_3*%
%TO.N,SEL*%
X116450000Y-135075000D03*
%TO.P,J5,2,Pin_2*%
%TO.N,CF1*%
X114450000Y-135075000D03*
D11*
%TO.P,J5,1,Pin_1*%
%TO.N,CF*%
X112450000Y-135075000D03*
%TD*%
D12*
%TO.P,J4,1,Pin_1*%
%TO.N,GND*%
X120650000Y-109525000D03*
D13*
%TO.P,J4,2,Pin_2*%
%TO.N,+5V*%
X125650000Y-109525000D03*
%TD*%
D14*
%TO.P,J3,1,Pin_1*%
%TO.N,-AC*%
X138392500Y-123600000D03*
D13*
%TO.P,J3,2,Pin_2*%
%TO.N,/LOAD*%
X138392500Y-118600000D03*
%TD*%
D15*
%TO.P,J1,1,Pin_1*%
%TO.N,+AC*%
X138800000Y-110050000D03*
%TD*%
%TO.P,J2,1,Pin_1*%
%TO.N,-AC*%
X138775000Y-131950000D03*
%TD*%
D16*
%TO.N,CF*%
X129225000Y-133550000D03*
%TO.N,SEL*%
X127150000Y-130550000D03*
%TO.N,V2P*%
X117775000Y-128175000D03*
X118950000Y-134150000D03*
%TO.N,Net-(U1-V1P)*%
X125550000Y-120475000D03*
X122650000Y-126675000D03*
%TO.N,Net-(U1-V1N)*%
X125425000Y-127750000D03*
X123794485Y-131255515D03*
%TO.N,+5V*%
X126825000Y-129125000D03*
%TD*%
D17*
%TO.N,+5V*%
X126925000Y-110800000D02*
X126925000Y-118800000D01*
X126949000Y-118824000D02*
X126949000Y-120148942D01*
X126925000Y-118800000D02*
X126949000Y-118824000D01*
X126949000Y-120148942D02*
X127300000Y-120499942D01*
X125650000Y-109525000D02*
X126925000Y-110800000D01*
X127300000Y-120499942D02*
X127300000Y-128650000D01*
X127300000Y-128650000D02*
X126825000Y-129125000D01*
%TO.N,CF*%
X126724000Y-136051000D02*
X129225000Y-133550000D01*
X112450000Y-135075000D02*
X113426000Y-136051000D01*
X113426000Y-136051000D02*
X126724000Y-136051000D01*
%TO.N,SEL*%
X122625000Y-135075000D02*
X127150000Y-130550000D01*
X116450000Y-135075000D02*
X122625000Y-135075000D01*
%TO.N,V2P*%
X117775000Y-132975000D02*
X117775000Y-128175000D01*
X118950000Y-134150000D02*
X117775000Y-132975000D01*
%TO.N,Net-(U1-V1P)*%
X122650000Y-123375000D02*
X122650000Y-126675000D01*
X125550000Y-120475000D02*
X122650000Y-123375000D01*
%TO.N,Net-(U1-V1N)*%
X124300000Y-128850000D02*
X124325000Y-128850000D01*
X124300000Y-130750000D02*
X124300000Y-128850000D01*
X123794485Y-131255515D02*
X124300000Y-130750000D01*
X124325000Y-128850000D02*
X125425000Y-127750000D01*
%TD*%
M02*
