%TF.GenerationSoftware,KiCad,Pcbnew,9.0.7*%
%TF.CreationDate,2026-02-04T19:30:04+05:00*%
%TF.ProjectId,HLT8012-Interface-board,484c5438-3031-4322-9d49-6e7465726661,rev?*%
%TF.SameCoordinates,Original*%
%TF.FileFunction,Copper,L2,Bot*%
%TF.FilePolarity,Positive*%
%FSLAX46Y46*%
G04 Gerber Fmt 4.6, Leading zero omitted, Abs format (unit mm)*
G04 Created by KiCad (PCBNEW 9.0.7) date 2026-02-04 19:30:04*
%MOMM*%
%LPD*%
G01*
G04 APERTURE LIST*
G04 Aperture macros list*
%AMRoundRect*
0 Rectangle with rounded corners*
0 $1 Rounding radius*
0 $2 $3 $4 $5 $6 $7 $8 $9 X,Y pos of 4 corners*
0 Add a 4 corners polygon primitive as box body*
4,1,4,$2,$3,$4,$5,$6,$7,$8,$9,$2,$3,0*
0 Add four circle primitives for the rounded corners*
1,1,$1+$1,$2,$3*
1,1,$1+$1,$4,$5*
1,1,$1+$1,$6,$7*
1,1,$1+$1,$8,$9*
0 Add four rect primitives between the rounded corners*
20,1,$1+$1,$2,$3,$4,$5,0*
20,1,$1+$1,$4,$5,$6,$7,0*
20,1,$1+$1,$6,$7,$8,$9,0*
20,1,$1+$1,$8,$9,$2,$3,0*%
G04 Aperture macros list end*
%TA.AperFunction,ComponentPad*%
%ADD10RoundRect,0.250000X-1.000000X-1.000000X1.000000X-1.000000X1.000000X1.000000X-1.000000X1.000000X0*%
%TD*%
%TA.AperFunction,ComponentPad*%
%ADD11C,2.500000*%
%TD*%
%TA.AperFunction,ComponentPad*%
%ADD12RoundRect,0.250000X1.000000X-1.000000X1.000000X1.000000X-1.000000X1.000000X-1.000000X-1.000000X0*%
%TD*%
%TA.AperFunction,ComponentPad*%
%ADD13C,3.000000*%
%TD*%
%TA.AperFunction,ComponentPad*%
%ADD14R,1.350000X1.350000*%
%TD*%
%TA.AperFunction,ComponentPad*%
%ADD15C,1.350000*%
%TD*%
%TA.AperFunction,ViaPad*%
%ADD16C,0.600000*%
%TD*%
%TA.AperFunction,Conductor*%
%ADD17C,0.200000*%
%TD*%
G04 APERTURE END LIST*
D10*
%TO.P,J4,1,Pin_1*%
%TO.N,GND*%
X120650000Y-109525000D03*
D11*
%TO.P,J4,2,Pin_2*%
%TO.N,+5V*%
X125650000Y-109525000D03*
%TD*%
D12*
%TO.P,J3,1,Pin_1*%
%TO.N,-AC*%
X138392500Y-123600000D03*
D11*
%TO.P,J3,2,Pin_2*%
%TO.N,/LOAD*%
X138392500Y-118600000D03*
%TD*%
D13*
%TO.P,J1,1,Pin_1*%
%TO.N,+AC*%
X138800000Y-110050000D03*
%TD*%
%TO.P,J2,1,Pin_1*%
%TO.N,-AC*%
X138775000Y-131950000D03*
%TD*%
D14*
%TO.P,J5,1,Pin_1*%
%TO.N,CF*%
X112450000Y-135075000D03*
D15*
%TO.P,J5,2,Pin_2*%
%TO.N,CF1*%
X114450000Y-135075000D03*
%TO.P,J5,3,Pin_3*%
%TO.N,SEL*%
X116450000Y-135075000D03*
%TD*%
D16*
%TO.N,V2P*%
X117775000Y-128175000D03*
X118950000Y-134150000D03*
%TO.N,Net-(U1-V1P)*%
X125550000Y-120475000D03*
X122650000Y-126675000D03*
%TO.N,Net-(U1-V1N)*%
X125425000Y-127750000D03*
X123794485Y-131255515D03*
%TO.N,+5V*%
X126825000Y-129125000D03*
%TO.N,CF*%
X129225000Y-133550000D03*
%TO.N,SEL*%
X127150000Y-130550000D03*
%TD*%
D17*
%TO.N,V2P*%
X117775000Y-132975000D02*
X117775000Y-128175000D01*
X118950000Y-134150000D02*
X117775000Y-132975000D01*
%TO.N,Net-(U1-V1P)*%
X122650000Y-123375000D02*
X122650000Y-126675000D01*
X125550000Y-120475000D02*
X122650000Y-123375000D01*
%TO.N,Net-(U1-V1N)*%
X124300000Y-128850000D02*
X124325000Y-128850000D01*
X124300000Y-130750000D02*
X124300000Y-128850000D01*
X123794485Y-131255515D02*
X124300000Y-130750000D01*
X124325000Y-128850000D02*
X125425000Y-127750000D01*
%TO.N,+5V*%
X127300000Y-120499942D02*
X127300000Y-128650000D01*
X127300000Y-128650000D02*
X126825000Y-129125000D01*
X125650000Y-109525000D02*
X126925000Y-110800000D01*
X126949000Y-120148942D02*
X127300000Y-120499942D01*
X126949000Y-118824000D02*
X126949000Y-120148942D01*
X126925000Y-118800000D02*
X126949000Y-118824000D01*
X126925000Y-110800000D02*
X126925000Y-118800000D01*
%TO.N,CF*%
X126724000Y-136051000D02*
X129225000Y-133550000D01*
X112450000Y-135075000D02*
X113426000Y-136051000D01*
X113426000Y-136051000D02*
X126724000Y-136051000D01*
%TO.N,SEL*%
X116450000Y-135075000D02*
X122625000Y-135075000D01*
X122625000Y-135075000D02*
X127150000Y-130550000D01*
%TD*%
%TA.AperFunction,Conductor*%
%TO.N,GND*%
G36*
X142593039Y-105369685D02*
G01*
X142638794Y-105422489D01*
X142650000Y-105474000D01*
X142650000Y-112018054D01*
X142630315Y-112085093D01*
X142577511Y-112130848D01*
X142508353Y-112140792D01*
X142444797Y-112111767D01*
X142411724Y-112066189D01*
X142402866Y-112045161D01*
X142397370Y-112029124D01*
X142391392Y-112006815D01*
X142391392Y-112006814D01*
X142377976Y-111983577D01*
X142371087Y-111969711D01*
X142360676Y-111944993D01*
X142346505Y-111926750D01*
X142337049Y-111912688D01*
X142325504Y-111892692D01*
X142325501Y-111892689D01*
X142325500Y-111892686D01*
X142306530Y-111873716D01*
X142296285Y-111862104D01*
X142279829Y-111840920D01*
X142261422Y-111826969D01*
X142248641Y-111815827D01*
X142232316Y-111799502D01*
X142232314Y-111799500D01*
X142232311Y-111799498D01*
X142232307Y-111799495D01*
X142209076Y-111786082D01*
X142196181Y-111777522D01*
X142174802Y-111761319D01*
X142153413Y-111752608D01*
X142138186Y-111745155D01*
X142118184Y-111733607D01*
X142118182Y-111733606D01*
X142092267Y-111726662D01*
X142077596Y-111721731D01*
X142052751Y-111711613D01*
X142052749Y-111711612D01*
X142052745Y-111711611D01*
X142052748Y-111711611D01*
X142029830Y-111708732D01*
X142013203Y-111705477D01*
X141990886Y-111699498D01*
X141982836Y-111698439D01*
X141982838Y-111698423D01*
X141979407Y-111698172D01*
X141979119Y-111698129D01*
X141947437Y-111697637D01*
X141933918Y-111696686D01*
X141902469Y-111692737D01*
X141902460Y-111692737D01*
X141884407Y-111695223D01*
X141865571Y-111696367D01*
X141569979Y-111691780D01*
X141555705Y-111690733D01*
X141554591Y-111690586D01*
X141554587Y-111690585D01*
X141554261Y-111690584D01*
X141493485Y-111690578D01*
X141491576Y-111690563D01*
X141430519Y-111689615D01*
X141429387Y-111689747D01*
X141415119Y-111690569D01*
X140288033Y-111690449D01*
X140220995Y-111670757D01*
X140175246Y-111617948D01*
X140165310Y-111548789D01*
X140194342Y-111485236D01*
X140200351Y-111478781D01*
X140307282Y-111371851D01*
X140466924Y-111163803D01*
X140598043Y-110936697D01*
X140698398Y-110694419D01*
X140766270Y-110441116D01*
X140800500Y-110181120D01*
X140800500Y-109918880D01*
X140766270Y-109658884D01*
X140698398Y-109405581D01*
X140669329Y-109335402D01*
X140598046Y-109163309D01*
X140598041Y-109163299D01*
X140466924Y-108936196D01*
X140323376Y-108749123D01*
X140307282Y-108728149D01*
X140307281Y-108728148D01*
X140307274Y-108728140D01*
X140121860Y-108542726D01*
X140121851Y-108542718D01*
X139913803Y-108383075D01*
X139686700Y-108251958D01*
X139686690Y-108251953D01*
X139444428Y-108151605D01*
X139444421Y-108151603D01*
X139444419Y-108151602D01*
X139191116Y-108083730D01*
X139133339Y-108076123D01*
X138931127Y-108049500D01*
X138931120Y-108049500D01*
X138668880Y-108049500D01*
X138668872Y-108049500D01*
X138437772Y-108079926D01*
X138408884Y-108083730D01*
X138155581Y-108151602D01*
X138155571Y-108151605D01*
X137913309Y-108251953D01*
X137913299Y-108251958D01*
X137686196Y-108383075D01*
X137478148Y-108542718D01*
X137292718Y-108728148D01*
X137133075Y-108936196D01*
X137001958Y-109163299D01*
X137001953Y-109163309D01*
X136901605Y-109405571D01*
X136901602Y-109405581D01*
X136838860Y-109639741D01*
X136833730Y-109658885D01*
X136799500Y-109918872D01*
X136799500Y-110181127D01*
X136826123Y-110383339D01*
X136833730Y-110441116D01*
X136898184Y-110681661D01*
X136901602Y-110694418D01*
X136901605Y-110694428D01*
X137001953Y-110936690D01*
X137001958Y-110936700D01*
X137133075Y-111163803D01*
X137292718Y-111371851D01*
X137292726Y-111371860D01*
X137405962Y-111485096D01*
X137439447Y-111546419D01*
X137434463Y-111616111D01*
X137392591Y-111672044D01*
X137327127Y-111696461D01*
X137318720Y-111696776D01*
X136556487Y-111699473D01*
X136553215Y-111699442D01*
X136526593Y-111698833D01*
X136495573Y-111698124D01*
X136495572Y-111698124D01*
X136495566Y-111698124D01*
X136488947Y-111698841D01*
X136482336Y-111699735D01*
X136426698Y-111714854D01*
X136423529Y-111715670D01*
X136367532Y-111729311D01*
X136367531Y-111729311D01*
X136367529Y-111729312D01*
X136361320Y-111731718D01*
X136355162Y-111734295D01*
X136305327Y-111763302D01*
X136302480Y-111764909D01*
X136251925Y-111792576D01*
X136246579Y-111796487D01*
X136241266Y-111800593D01*
X136200660Y-111841487D01*
X136198324Y-111843779D01*
X134091882Y-113855993D01*
X134084249Y-113862445D01*
X134037429Y-113908002D01*
X134036611Y-113908791D01*
X133989302Y-113953986D01*
X133982574Y-113961380D01*
X132593977Y-115312585D01*
X132583544Y-115321660D01*
X132580713Y-115323857D01*
X132538541Y-115366497D01*
X132536857Y-115368167D01*
X132493961Y-115409910D01*
X132491746Y-115412716D01*
X132482586Y-115423075D01*
X132088106Y-115821941D01*
X132076539Y-115831256D01*
X132076810Y-115831581D01*
X132070572Y-115836789D01*
X132033470Y-115877075D01*
X132030426Y-115880264D01*
X131991898Y-115919221D01*
X131986987Y-115925696D01*
X131986650Y-115925440D01*
X131977882Y-115937432D01*
X131916355Y-116004241D01*
X131902893Y-116016836D01*
X131887837Y-116028954D01*
X131869780Y-116053650D01*
X131860900Y-116064458D01*
X131840171Y-116086967D01*
X131835921Y-116095082D01*
X131816802Y-116120023D01*
X131817423Y-116120541D01*
X131812219Y-116126783D01*
X131788250Y-116164679D01*
X131783554Y-116171578D01*
X131757087Y-116207779D01*
X131757084Y-116207783D01*
X131755279Y-116212445D01*
X131744456Y-116233926D01*
X131741782Y-116238154D01*
X131741777Y-116238164D01*
X131728431Y-116280979D01*
X131725680Y-116288861D01*
X131709488Y-116330667D01*
X131709487Y-116330671D01*
X131708949Y-116335643D01*
X131704055Y-116359188D01*
X131702565Y-116363969D01*
X131701318Y-116394837D01*
X131699176Y-116408455D01*
X131699832Y-116408549D01*
X131698688Y-116416592D01*
X131698591Y-116425945D01*
X131697879Y-116437983D01*
X131695316Y-116461682D01*
X131695505Y-116469813D01*
X131692729Y-116469877D01*
X131685351Y-116525719D01*
X131640202Y-116579043D01*
X131573392Y-116599492D01*
X131571975Y-116599500D01*
X127650981Y-116599500D01*
X127650981Y-116596340D01*
X127596652Y-116587869D01*
X127544395Y-116541490D01*
X127525500Y-116475695D01*
X127525500Y-114600000D01*
X128573000Y-114600000D01*
X130075000Y-114600000D01*
X131073000Y-114600000D01*
X131892965Y-114600000D01*
X131894095Y-114598858D01*
X131899978Y-114593287D01*
X131924289Y-114571724D01*
X132575000Y-113938535D01*
X132575000Y-113098000D01*
X131073000Y-113098000D01*
X131073000Y-114600000D01*
X130075000Y-114600000D01*
X130075000Y-113098000D01*
X128573000Y-113098000D01*
X128573000Y-114600000D01*
X127525500Y-114600000D01*
X127525500Y-112100000D01*
X128573000Y-112100000D01*
X130075000Y-112100000D01*
X131073000Y-112100000D01*
X132575000Y-112100000D01*
X133573000Y-112100000D01*
X134485294Y-112100000D01*
X135075000Y-111536673D01*
X135075000Y-110598000D01*
X133573000Y-110598000D01*
X133573000Y-112100000D01*
X132575000Y-112100000D01*
X132575000Y-110598000D01*
X131073000Y-110598000D01*
X131073000Y-112100000D01*
X130075000Y-112100000D01*
X130075000Y-110598000D01*
X128573000Y-110598000D01*
X128573000Y-112100000D01*
X127525500Y-112100000D01*
X127525500Y-110720943D01*
X127525499Y-110720939D01*
X127514975Y-110681662D01*
X127513911Y-110677690D01*
X127484577Y-110568215D01*
X127411197Y-110441117D01*
X127411196Y-110441114D01*
X127411196Y-110441115D01*
X127405522Y-110431287D01*
X127405521Y-110431286D01*
X127405520Y-110431284D01*
X127297095Y-110322859D01*
X127263611Y-110261536D01*
X127268595Y-110191844D01*
X127270204Y-110187754D01*
X127311158Y-110088887D01*
X127370548Y-109867238D01*
X127400500Y-109639734D01*
X127400500Y-109600000D01*
X128573000Y-109600000D01*
X130075000Y-109600000D01*
X131073000Y-109600000D01*
X132575000Y-109600000D01*
X133573000Y-109600000D01*
X135075000Y-109600000D01*
X135075000Y-108098000D01*
X133573000Y-108098000D01*
X133573000Y-109600000D01*
X132575000Y-109600000D01*
X132575000Y-108098000D01*
X131073000Y-108098000D01*
X131073000Y-109600000D01*
X130075000Y-109600000D01*
X130075000Y-108098000D01*
X128573000Y-108098000D01*
X128573000Y-109600000D01*
X127400500Y-109600000D01*
X127400500Y-109410266D01*
X127370548Y-109182762D01*
X127311158Y-108961113D01*
X127223344Y-108749112D01*
X127108611Y-108550388D01*
X127108608Y-108550385D01*
X127108607Y-108550382D01*
X126968918Y-108368338D01*
X126968911Y-108368330D01*
X126806670Y-108206089D01*
X126806661Y-108206081D01*
X126624617Y-108066392D01*
X126425890Y-107951657D01*
X126425876Y-107951650D01*
X126213887Y-107863842D01*
X125992238Y-107804452D01*
X125954215Y-107799446D01*
X125764741Y-107774500D01*
X125764734Y-107774500D01*
X125535266Y-107774500D01*
X125535258Y-107774500D01*
X125318715Y-107803009D01*
X125307762Y-107804452D01*
X125214076Y-107829554D01*
X125086112Y-107863842D01*
X124874123Y-107951650D01*
X124874109Y-107951657D01*
X124675382Y-108066392D01*
X124493338Y-108206081D01*
X124331081Y-108368338D01*
X124191392Y-108550382D01*
X124076657Y-108749109D01*
X124076650Y-108749123D01*
X123993868Y-108948978D01*
X123988842Y-108961113D01*
X123934665Y-109163309D01*
X123929453Y-109182759D01*
X123929451Y-109182770D01*
X123899500Y-109410258D01*
X123899500Y-109639741D01*
X123909356Y-109714598D01*
X123929452Y-109867238D01*
X123988842Y-110088887D01*
X124076650Y-110300876D01*
X124076657Y-110300890D01*
X124191392Y-110499617D01*
X124331081Y-110681661D01*
X124331089Y-110681670D01*
X124493330Y-110843911D01*
X124493338Y-110843918D01*
X124675382Y-110983607D01*
X124675385Y-110983608D01*
X124675388Y-110983611D01*
X124874112Y-111098344D01*
X124874117Y-111098346D01*
X124874123Y-111098349D01*
X124965480Y-111136190D01*
X125086113Y-111186158D01*
X125307762Y-111245548D01*
X125524312Y-111274057D01*
X125531460Y-111274999D01*
X125535266Y-111275500D01*
X125535273Y-111275500D01*
X125764727Y-111275500D01*
X125764734Y-111275500D01*
X125992238Y-111245548D01*
X126168411Y-111198343D01*
X126238256Y-111200006D01*
X126296119Y-111239168D01*
X126323623Y-111303397D01*
X126324500Y-111318118D01*
X126324500Y-118713330D01*
X126324499Y-118713348D01*
X126324499Y-118720943D01*
X126324499Y-118879057D01*
X126335182Y-118918926D01*
X126344275Y-118952860D01*
X126348500Y-118984954D01*
X126348500Y-119842059D01*
X126328815Y-119909098D01*
X126276011Y-119954853D01*
X126206853Y-119964797D01*
X126143297Y-119935772D01*
X126136819Y-119929740D01*
X126060292Y-119853213D01*
X126060288Y-119853210D01*
X125929185Y-119765609D01*
X125929172Y-119765602D01*
X125783501Y-119705264D01*
X125783489Y-119705261D01*
X125628845Y-119674500D01*
X125628842Y-119674500D01*
X125471158Y-119674500D01*
X125471155Y-119674500D01*
X125316510Y-119705261D01*
X125316498Y-119705264D01*
X125170827Y-119765602D01*
X125170814Y-119765609D01*
X125039711Y-119853210D01*
X125039707Y-119853213D01*
X124928213Y-119964707D01*
X124928210Y-119964711D01*
X124840609Y-120095814D01*
X124840602Y-120095827D01*
X124780264Y-120241498D01*
X124780261Y-120241508D01*
X124749361Y-120396850D01*
X124716976Y-120458761D01*
X124715425Y-120460339D01*
X122169481Y-123006282D01*
X122169479Y-123006285D01*
X122119361Y-123093094D01*
X122119359Y-123093096D01*
X122090425Y-123143209D01*
X122090424Y-123143210D01*
X122090423Y-123143215D01*
X122049499Y-123295943D01*
X122049499Y-123295945D01*
X122049499Y-123464046D01*
X122049500Y-123464059D01*
X122049500Y-126095234D01*
X122029815Y-126162273D01*
X122028602Y-126164125D01*
X121940609Y-126295814D01*
X121940602Y-126295827D01*
X121880264Y-126441498D01*
X121880261Y-126441510D01*
X121849500Y-126596153D01*
X121849500Y-126753846D01*
X121880261Y-126908489D01*
X121880264Y-126908501D01*
X121940602Y-127054172D01*
X121940609Y-127054185D01*
X122028210Y-127185288D01*
X122028213Y-127185292D01*
X122139707Y-127296786D01*
X122139711Y-127296789D01*
X122270814Y-127384390D01*
X122270827Y-127384397D01*
X122416498Y-127444735D01*
X122416503Y-127444737D01*
X122571153Y-127475499D01*
X122571156Y-127475500D01*
X122571158Y-127475500D01*
X122728844Y-127475500D01*
X122728845Y-127475499D01*
X122883497Y-127444737D01*
X123029179Y-127384394D01*
X123160289Y-127296789D01*
X123271789Y-127185289D01*
X123359394Y-127054179D01*
X123419737Y-126908497D01*
X123450500Y-126753842D01*
X123450500Y-126596158D01*
X123450500Y-126596155D01*
X123450499Y-126596153D01*
X123446071Y-126573891D01*
X123419737Y-126441503D01*
X123398344Y-126389855D01*
X123359397Y-126295827D01*
X123359390Y-126295814D01*
X123271398Y-126164125D01*
X123250520Y-126097447D01*
X123250500Y-126095234D01*
X123250500Y-124037118D01*
X124248500Y-124037118D01*
X124248500Y-124600000D01*
X125075000Y-124600000D01*
X125075000Y-123210618D01*
X124248500Y-124037118D01*
X123250500Y-124037118D01*
X123250500Y-123675097D01*
X123270185Y-123608058D01*
X123286819Y-123587416D01*
X124324254Y-122549981D01*
X125564662Y-121309572D01*
X125625983Y-121276089D01*
X125628150Y-121275638D01*
X125686085Y-121264113D01*
X125783497Y-121244737D01*
X125929179Y-121184394D01*
X126060289Y-121096789D01*
X126171789Y-120985289D01*
X126259394Y-120854179D01*
X126319737Y-120708497D01*
X126330819Y-120652785D01*
X126363203Y-120590874D01*
X126423919Y-120556300D01*
X126493688Y-120560039D01*
X126540117Y-120589295D01*
X126587349Y-120636527D01*
X126587355Y-120636532D01*
X126663181Y-120712358D01*
X126696666Y-120773681D01*
X126699500Y-120800039D01*
X126699500Y-128232016D01*
X126679815Y-128299055D01*
X126627011Y-128344810D01*
X126599696Y-128353632D01*
X126591512Y-128355260D01*
X126591500Y-128355263D01*
X126445827Y-128415602D01*
X126445814Y-128415609D01*
X126314711Y-128503210D01*
X126314707Y-128503213D01*
X126203213Y-128614707D01*
X126203210Y-128614711D01*
X126115609Y-128745814D01*
X126115602Y-128745827D01*
X126055264Y-128891498D01*
X126055261Y-128891510D01*
X126024500Y-129046153D01*
X126024500Y-129203846D01*
X126055261Y-129358489D01*
X126055264Y-129358501D01*
X126115602Y-129504172D01*
X126115609Y-129504185D01*
X126203210Y-129635288D01*
X126203213Y-129635292D01*
X126314707Y-129746786D01*
X126314711Y-129746789D01*
X126445814Y-129834390D01*
X126445821Y-129834394D01*
X126478592Y-129847968D01*
X126532995Y-129891807D01*
X126555061Y-129958101D01*
X126537783Y-130025801D01*
X126531587Y-130034640D01*
X126531595Y-130034646D01*
X126440609Y-130170814D01*
X126440602Y-130170827D01*
X126380264Y-130316498D01*
X126380261Y-130316508D01*
X126349361Y-130471850D01*
X126316976Y-130533761D01*
X126315425Y-130535339D01*
X122412584Y-134438181D01*
X122351261Y-134471666D01*
X122324903Y-134474500D01*
X119852730Y-134474500D01*
X119785691Y-134454815D01*
X119739936Y-134402011D01*
X119729992Y-134332853D01*
X119731113Y-134326308D01*
X119750500Y-134228844D01*
X119750500Y-134071155D01*
X119750499Y-134071153D01*
X119744790Y-134042452D01*
X119719737Y-133916503D01*
X119719735Y-133916498D01*
X119659397Y-133770827D01*
X119659390Y-133770814D01*
X119571789Y-133639711D01*
X119571786Y-133639707D01*
X119460292Y-133528213D01*
X119460288Y-133528210D01*
X119329185Y-133440609D01*
X119329172Y-133440602D01*
X119183501Y-133380264D01*
X119183491Y-133380261D01*
X119028149Y-133349361D01*
X118966238Y-133316976D01*
X118964660Y-133315425D01*
X118411819Y-132762584D01*
X118378334Y-132701261D01*
X118375500Y-132674903D01*
X118375500Y-132100000D01*
X119373500Y-132100000D01*
X120075000Y-132100000D01*
X121073000Y-132100000D01*
X122202182Y-132100000D01*
X122193376Y-132083524D01*
X122190640Y-132078089D01*
X122174899Y-132044807D01*
X122172433Y-132039243D01*
X122093340Y-131848293D01*
X122091150Y-131842616D01*
X122078748Y-131807955D01*
X122076839Y-131802177D01*
X122062613Y-131755282D01*
X122060990Y-131749418D01*
X122052040Y-131713692D01*
X122050706Y-131707750D01*
X122010381Y-131505023D01*
X122009340Y-131499026D01*
X122003936Y-131462595D01*
X122003191Y-131456554D01*
X121998388Y-131407782D01*
X121997940Y-131401712D01*
X121996134Y-131364940D01*
X121995985Y-131358857D01*
X121995985Y-131176668D01*
X122993985Y-131176668D01*
X122993985Y-131334361D01*
X123024746Y-131489004D01*
X123024749Y-131489016D01*
X123085087Y-131634687D01*
X123085094Y-131634700D01*
X123172695Y-131765803D01*
X123172698Y-131765807D01*
X123284192Y-131877301D01*
X123284196Y-131877304D01*
X123415299Y-131964905D01*
X123415312Y-131964912D01*
X123560983Y-132025250D01*
X123560988Y-132025252D01*
X123715638Y-132056014D01*
X123715641Y-132056015D01*
X123715643Y-132056015D01*
X123873329Y-132056015D01*
X123873330Y-132056014D01*
X124027982Y-132025252D01*
X124173664Y-131964909D01*
X124304774Y-131877304D01*
X124416274Y-131765804D01*
X124503879Y-131634694D01*
X124564222Y-131489012D01*
X124591657Y-131351089D01*
X124595123Y-131333666D01*
X124627508Y-131271755D01*
X124629028Y-131270206D01*
X124658505Y-131240728D01*
X124658509Y-131240726D01*
X124668714Y-131230520D01*
X124668716Y-131230520D01*
X124780520Y-131118716D01*
X124836348Y-131022018D01*
X124859577Y-130981785D01*
X124900500Y-130829057D01*
X124900500Y-130670943D01*
X124900500Y-129175097D01*
X124920185Y-129108058D01*
X124936819Y-129087416D01*
X125142452Y-128881783D01*
X125439662Y-128584572D01*
X125500983Y-128551089D01*
X125503150Y-128550638D01*
X125561085Y-128539113D01*
X125658497Y-128519737D01*
X125787521Y-128466294D01*
X125804172Y-128459397D01*
X125804172Y-128459396D01*
X125804179Y-128459394D01*
X125935289Y-128371789D01*
X126046789Y-128260289D01*
X126134394Y-128129179D01*
X126194737Y-127983497D01*
X126225500Y-127828842D01*
X126225500Y-127671158D01*
X126225500Y-127671155D01*
X126225499Y-127671153D01*
X126202039Y-127553213D01*
X126194737Y-127516503D01*
X126173655Y-127465606D01*
X126134397Y-127370827D01*
X126134390Y-127370814D01*
X126046789Y-127239711D01*
X126046786Y-127239707D01*
X125935292Y-127128213D01*
X125935288Y-127128210D01*
X125804185Y-127040609D01*
X125804172Y-127040602D01*
X125658501Y-126980264D01*
X125658489Y-126980261D01*
X125503845Y-126949500D01*
X125503842Y-126949500D01*
X125346158Y-126949500D01*
X125346155Y-126949500D01*
X125191510Y-126980261D01*
X125191498Y-126980264D01*
X125045827Y-127040602D01*
X125045814Y-127040609D01*
X124914711Y-127128210D01*
X124914707Y-127128213D01*
X124803213Y-127239707D01*
X124803210Y-127239711D01*
X124715609Y-127370814D01*
X124715602Y-127370827D01*
X124655264Y-127516498D01*
X124655261Y-127516508D01*
X124624361Y-127671850D01*
X124591976Y-127733761D01*
X124590425Y-127735339D01*
X124001980Y-128323783D01*
X123976301Y-128343488D01*
X123931287Y-128369477D01*
X123931281Y-128369482D01*
X123819481Y-128481282D01*
X123819475Y-128481290D01*
X123740426Y-128618209D01*
X123740423Y-128618216D01*
X123699500Y-128770943D01*
X123699500Y-130356462D01*
X123679815Y-130423501D01*
X123627011Y-130469256D01*
X123599691Y-130478079D01*
X123560995Y-130485776D01*
X123560983Y-130485779D01*
X123415312Y-130546117D01*
X123415299Y-130546124D01*
X123284196Y-130633725D01*
X123284192Y-130633728D01*
X123172698Y-130745222D01*
X123172695Y-130745226D01*
X123085094Y-130876329D01*
X123085087Y-130876342D01*
X123024749Y-131022013D01*
X123024746Y-131022025D01*
X122993985Y-131176668D01*
X121995985Y-131176668D01*
X121995985Y-131152173D01*
X121996134Y-131146090D01*
X121997940Y-131109318D01*
X121998388Y-131103248D01*
X122003191Y-131054476D01*
X122003936Y-131048435D01*
X122009340Y-131012004D01*
X122010381Y-131006007D01*
X122050706Y-130803280D01*
X122052040Y-130797338D01*
X122060990Y-130761612D01*
X122062613Y-130755748D01*
X122076839Y-130708853D01*
X122078748Y-130703075D01*
X122091150Y-130668414D01*
X122093340Y-130662737D01*
X122120155Y-130598000D01*
X121073000Y-130598000D01*
X121073000Y-132100000D01*
X120075000Y-132100000D01*
X120075000Y-130598000D01*
X119373500Y-130598000D01*
X119373500Y-132100000D01*
X118375500Y-132100000D01*
X118375500Y-129007890D01*
X119373500Y-129007890D01*
X119373500Y-129600000D01*
X120075000Y-129600000D01*
X121073000Y-129600000D01*
X122575000Y-129600000D01*
X122575000Y-128473500D01*
X122546658Y-128473500D01*
X122540575Y-128473351D01*
X122503803Y-128471545D01*
X122497733Y-128471097D01*
X122448961Y-128466294D01*
X122442920Y-128465549D01*
X122406489Y-128460145D01*
X122400492Y-128459104D01*
X122197765Y-128418779D01*
X122191823Y-128417445D01*
X122156097Y-128408495D01*
X122150233Y-128406872D01*
X122103338Y-128392646D01*
X122097560Y-128390737D01*
X122062899Y-128378335D01*
X122057222Y-128376145D01*
X121866272Y-128297052D01*
X121860708Y-128294586D01*
X121827426Y-128278845D01*
X121821991Y-128276109D01*
X121778770Y-128253008D01*
X121773475Y-128250009D01*
X121741882Y-128231074D01*
X121736737Y-128227816D01*
X121564878Y-128112983D01*
X121559902Y-128109478D01*
X121544426Y-128098000D01*
X121073000Y-128098000D01*
X121073000Y-129600000D01*
X120075000Y-129600000D01*
X120075000Y-128098000D01*
X119573500Y-128098000D01*
X119573500Y-128278342D01*
X119573351Y-128284425D01*
X119571545Y-128321197D01*
X119571097Y-128327267D01*
X119566294Y-128376039D01*
X119565549Y-128382080D01*
X119560145Y-128418511D01*
X119559104Y-128424508D01*
X119518779Y-128627235D01*
X119517445Y-128633177D01*
X119508495Y-128668903D01*
X119506872Y-128674767D01*
X119492646Y-128721662D01*
X119490737Y-128727440D01*
X119478335Y-128762101D01*
X119476145Y-128767778D01*
X119397052Y-128958728D01*
X119394586Y-128964292D01*
X119378845Y-128997574D01*
X119376109Y-129003009D01*
X119373500Y-129007890D01*
X118375500Y-129007890D01*
X118375500Y-128754765D01*
X118395185Y-128687726D01*
X118396398Y-128685874D01*
X118403820Y-128674767D01*
X118484394Y-128554179D01*
X118544737Y-128408497D01*
X118575500Y-128253842D01*
X118575500Y-128096158D01*
X118575500Y-128096155D01*
X118575499Y-128096153D01*
X118553090Y-127983497D01*
X118544737Y-127941503D01*
X118544735Y-127941498D01*
X118484397Y-127795827D01*
X118484390Y-127795814D01*
X118396789Y-127664711D01*
X118396786Y-127664707D01*
X118285292Y-127553213D01*
X118285288Y-127553210D01*
X118154185Y-127465609D01*
X118154172Y-127465602D01*
X118008501Y-127405264D01*
X118008489Y-127405261D01*
X117853845Y-127374500D01*
X117853842Y-127374500D01*
X117696158Y-127374500D01*
X117696155Y-127374500D01*
X117541510Y-127405261D01*
X117541498Y-127405264D01*
X117395827Y-127465602D01*
X117395814Y-127465609D01*
X117264711Y-127553210D01*
X117264707Y-127553213D01*
X117153213Y-127664707D01*
X117153210Y-127664711D01*
X117065609Y-127795814D01*
X117065602Y-127795827D01*
X117005264Y-127941498D01*
X117005261Y-127941510D01*
X116974500Y-128096153D01*
X116974500Y-128253846D01*
X117005261Y-128408489D01*
X117005264Y-128408501D01*
X117065602Y-128554172D01*
X117065609Y-128554185D01*
X117153602Y-128685874D01*
X117174480Y-128752551D01*
X117174500Y-128754765D01*
X117174500Y-132888330D01*
X117174499Y-132888348D01*
X117174499Y-133054054D01*
X117174498Y-133054054D01*
X117215423Y-133206786D01*
X117215424Y-133206787D01*
X117235681Y-133241873D01*
X117278771Y-133316508D01*
X117294481Y-133343717D01*
X117413349Y-133462585D01*
X117413355Y-133462590D01*
X118115425Y-134164660D01*
X118148910Y-134225983D01*
X118149361Y-134228149D01*
X118168887Y-134326308D01*
X118162660Y-134395899D01*
X118119798Y-134451077D01*
X118053908Y-134474322D01*
X118047270Y-134474500D01*
X117529890Y-134474500D01*
X117462851Y-134454815D01*
X117429572Y-134423385D01*
X117363796Y-134332853D01*
X117346621Y-134309213D01*
X117215787Y-134178379D01*
X117066096Y-134069622D01*
X117012778Y-134042455D01*
X116901235Y-133985620D01*
X116901232Y-133985619D01*
X116725265Y-133928445D01*
X116582972Y-133905908D01*
X116542514Y-133899500D01*
X116357486Y-133899500D01*
X116317028Y-133905908D01*
X116174734Y-133928445D01*
X115998767Y-133985619D01*
X115998764Y-133985620D01*
X115833903Y-134069622D01*
X115754188Y-134127539D01*
X115684213Y-134178379D01*
X115684211Y-134178381D01*
X115684210Y-134178381D01*
X115553381Y-134309210D01*
X115550314Y-134313432D01*
X115494981Y-134356094D01*
X115425367Y-134362069D01*
X115363574Y-134329459D01*
X115349686Y-134313432D01*
X115346621Y-134309213D01*
X115215787Y-134178379D01*
X115066096Y-134069622D01*
X115012778Y-134042455D01*
X114901235Y-133985620D01*
X114901232Y-133985619D01*
X114725265Y-133928445D01*
X114582972Y-133905908D01*
X114542514Y-133899500D01*
X114357486Y-133899500D01*
X114317028Y-133905908D01*
X114174734Y-133928445D01*
X113998767Y-133985619D01*
X113998764Y-133985620D01*
X113833900Y-134069624D01*
X113718392Y-134153545D01*
X113652586Y-134177025D01*
X113584532Y-134161199D01*
X113546241Y-134127539D01*
X113504034Y-134071158D01*
X113482546Y-134042454D01*
X113482544Y-134042453D01*
X113482544Y-134042452D01*
X113367335Y-133956206D01*
X113367328Y-133956202D01*
X113232482Y-133905908D01*
X113232483Y-133905908D01*
X113172883Y-133899501D01*
X113172881Y-133899500D01*
X113172873Y-133899500D01*
X113172864Y-133899500D01*
X111727129Y-133899500D01*
X111727123Y-133899501D01*
X111667516Y-133905908D01*
X111532671Y-133956202D01*
X111532664Y-133956206D01*
X111417455Y-134042452D01*
X111417452Y-134042455D01*
X111331206Y-134157664D01*
X111331202Y-134157671D01*
X111280908Y-134292517D01*
X111274501Y-134352116D01*
X111274500Y-134352135D01*
X111274500Y-135797870D01*
X111274501Y-135797876D01*
X111280908Y-135857483D01*
X111331202Y-135992328D01*
X111331206Y-135992335D01*
X111417452Y-136107544D01*
X111417455Y-136107547D01*
X111532664Y-136193793D01*
X111532671Y-136193797D01*
X111667517Y-136244091D01*
X111667516Y-136244091D01*
X111674444Y-136244835D01*
X111727127Y-136250500D01*
X112724902Y-136250499D01*
X112791941Y-136270183D01*
X112812583Y-136286818D01*
X112814084Y-136288319D01*
X112847569Y-136349642D01*
X112842585Y-136419334D01*
X112800713Y-136475267D01*
X112735249Y-136499684D01*
X112726403Y-136500000D01*
X111026362Y-136500000D01*
X110959323Y-136480315D01*
X110938681Y-136463681D01*
X110861319Y-136386319D01*
X110827834Y-136324996D01*
X110825000Y-136298638D01*
X110825000Y-132100000D01*
X111949000Y-132100000D01*
X112575000Y-132100000D01*
X113573000Y-132100000D01*
X115075000Y-132100000D01*
X115075000Y-130598000D01*
X113573000Y-130598000D01*
X113573000Y-132100000D01*
X112575000Y-132100000D01*
X112575000Y-130598000D01*
X111949000Y-130598000D01*
X111949000Y-132100000D01*
X110825000Y-132100000D01*
X110825000Y-129600000D01*
X111949000Y-129600000D01*
X112575000Y-129600000D01*
X113573000Y-129600000D01*
X115075000Y-129600000D01*
X115075000Y-128098000D01*
X113573000Y-128098000D01*
X113573000Y-129600000D01*
X112575000Y-129600000D01*
X112575000Y-128098000D01*
X111949000Y-128098000D01*
X111949000Y-129600000D01*
X110825000Y-129600000D01*
X110825000Y-127100000D01*
X111949000Y-127100000D01*
X112575000Y-127100000D01*
X113573000Y-127100000D01*
X115075000Y-127100000D01*
X116073000Y-127100000D01*
X116330254Y-127100000D01*
X116337017Y-127089878D01*
X116340522Y-127084902D01*
X116362455Y-127055329D01*
X116366199Y-127050531D01*
X116397288Y-127012649D01*
X116401262Y-127008042D01*
X116425993Y-126980755D01*
X116430191Y-126976346D01*
X116576346Y-126830191D01*
X116580755Y-126825993D01*
X116608042Y-126801262D01*
X116612649Y-126797288D01*
X116650531Y-126766199D01*
X116655329Y-126762455D01*
X116684902Y-126740522D01*
X116689878Y-126737017D01*
X116861737Y-126622184D01*
X116866882Y-126618926D01*
X116898475Y-126599991D01*
X116903770Y-126596992D01*
X116946991Y-126573891D01*
X116952426Y-126571155D01*
X116977001Y-126559532D01*
X118573000Y-126559532D01*
X118597574Y-126571155D01*
X118603009Y-126573891D01*
X118646230Y-126596992D01*
X118651525Y-126599991D01*
X118683118Y-126618926D01*
X118688263Y-126622184D01*
X118860122Y-126737017D01*
X118865098Y-126740522D01*
X118894671Y-126762455D01*
X118899469Y-126766199D01*
X118937351Y-126797288D01*
X118941958Y-126801262D01*
X118969245Y-126825993D01*
X118973654Y-126830191D01*
X119119809Y-126976346D01*
X119124007Y-126980755D01*
X119148738Y-127008042D01*
X119152712Y-127012649D01*
X119183801Y-127050531D01*
X119187545Y-127055329D01*
X119209478Y-127084902D01*
X119212983Y-127089878D01*
X119219746Y-127100000D01*
X120075000Y-127100000D01*
X120075000Y-125598000D01*
X118573000Y-125598000D01*
X118573000Y-126559532D01*
X116977001Y-126559532D01*
X116985708Y-126555414D01*
X116991272Y-126552948D01*
X117182222Y-126473855D01*
X117187899Y-126471665D01*
X117222560Y-126459263D01*
X117228338Y-126457354D01*
X117275233Y-126443128D01*
X117281097Y-126441505D01*
X117316823Y-126432555D01*
X117322765Y-126431221D01*
X117525492Y-126390896D01*
X117531489Y-126389855D01*
X117567920Y-126384451D01*
X117573961Y-126383706D01*
X117575000Y-126383603D01*
X117575000Y-125598000D01*
X116073000Y-125598000D01*
X116073000Y-127100000D01*
X115075000Y-127100000D01*
X115075000Y-125598000D01*
X113573000Y-125598000D01*
X113573000Y-127100000D01*
X112575000Y-127100000D01*
X112575000Y-125598000D01*
X111949000Y-125598000D01*
X111949000Y-127100000D01*
X110825000Y-127100000D01*
X110825000Y-124600000D01*
X111949000Y-124600000D01*
X112575000Y-124600000D01*
X113573000Y-124600000D01*
X115075000Y-124600000D01*
X116073000Y-124600000D01*
X117575000Y-124600000D01*
X118573000Y-124600000D01*
X120075000Y-124600000D01*
X120075000Y-123098000D01*
X118573000Y-123098000D01*
X118573000Y-124600000D01*
X117575000Y-124600000D01*
X117575000Y-123098000D01*
X116073000Y-123098000D01*
X116073000Y-124600000D01*
X115075000Y-124600000D01*
X115075000Y-123098000D01*
X113573000Y-123098000D01*
X113573000Y-124600000D01*
X112575000Y-124600000D01*
X112575000Y-123098000D01*
X111949000Y-123098000D01*
X111949000Y-124600000D01*
X110825000Y-124600000D01*
X110825000Y-122100000D01*
X111949000Y-122100000D01*
X112575000Y-122100000D01*
X113573000Y-122100000D01*
X115075000Y-122100000D01*
X116073000Y-122100000D01*
X117575000Y-122100000D01*
X118573000Y-122100000D01*
X120075000Y-122100000D01*
X121073000Y-122100000D01*
X121664380Y-122100000D01*
X122575000Y-121189379D01*
X122575000Y-120598000D01*
X121073000Y-120598000D01*
X121073000Y-122100000D01*
X120075000Y-122100000D01*
X120075000Y-120598000D01*
X118573000Y-120598000D01*
X118573000Y-122100000D01*
X117575000Y-122100000D01*
X117575000Y-120598000D01*
X116073000Y-120598000D01*
X116073000Y-122100000D01*
X115075000Y-122100000D01*
X115075000Y-120598000D01*
X113573000Y-120598000D01*
X113573000Y-122100000D01*
X112575000Y-122100000D01*
X112575000Y-120598000D01*
X111949000Y-120598000D01*
X111949000Y-122100000D01*
X110825000Y-122100000D01*
X110825000Y-119600000D01*
X111949000Y-119600000D01*
X112575000Y-119600000D01*
X113573000Y-119600000D01*
X115075000Y-119600000D01*
X116073000Y-119600000D01*
X117575000Y-119600000D01*
X118573000Y-119600000D01*
X120075000Y-119600000D01*
X121073000Y-119600000D01*
X122575000Y-119600000D01*
X123573000Y-119600000D01*
X123974127Y-119600000D01*
X123974991Y-119598475D01*
X123993926Y-119566882D01*
X123997184Y-119561737D01*
X124112017Y-119389878D01*
X124115522Y-119384902D01*
X124137455Y-119355329D01*
X124141199Y-119350531D01*
X124172288Y-119312649D01*
X124176262Y-119308042D01*
X124200993Y-119280755D01*
X124205191Y-119276346D01*
X124351346Y-119130191D01*
X124355755Y-119125993D01*
X124383042Y-119101262D01*
X124387649Y-119097288D01*
X124425531Y-119066199D01*
X124430329Y-119062455D01*
X124459902Y-119040522D01*
X124464878Y-119037017D01*
X124636737Y-118922184D01*
X124641882Y-118918926D01*
X124673475Y-118899991D01*
X124678770Y-118896992D01*
X124721991Y-118873891D01*
X124727426Y-118871155D01*
X124760708Y-118855414D01*
X124766272Y-118852948D01*
X124957222Y-118773855D01*
X124962899Y-118771665D01*
X124997560Y-118759263D01*
X125003338Y-118757354D01*
X125050233Y-118743128D01*
X125056097Y-118741505D01*
X125075000Y-118736769D01*
X125075000Y-118098000D01*
X123573000Y-118098000D01*
X123573000Y-119600000D01*
X122575000Y-119600000D01*
X122575000Y-118098000D01*
X121073000Y-118098000D01*
X121073000Y-119600000D01*
X120075000Y-119600000D01*
X120075000Y-118098000D01*
X118573000Y-118098000D01*
X118573000Y-119600000D01*
X117575000Y-119600000D01*
X117575000Y-118098000D01*
X116073000Y-118098000D01*
X116073000Y-119600000D01*
X115075000Y-119600000D01*
X115075000Y-118098000D01*
X113573000Y-118098000D01*
X113573000Y-119600000D01*
X112575000Y-119600000D01*
X112575000Y-118098000D01*
X111949000Y-118098000D01*
X111949000Y-119600000D01*
X110825000Y-119600000D01*
X110825000Y-117100000D01*
X111949000Y-117100000D01*
X112575000Y-117100000D01*
X113573000Y-117100000D01*
X115075000Y-117100000D01*
X116073000Y-117100000D01*
X117575000Y-117100000D01*
X118573000Y-117100000D01*
X120075000Y-117100000D01*
X121073000Y-117100000D01*
X122575000Y-117100000D01*
X123573000Y-117100000D01*
X125075000Y-117100000D01*
X125075000Y-115598000D01*
X123573000Y-115598000D01*
X123573000Y-117100000D01*
X122575000Y-117100000D01*
X122575000Y-115598000D01*
X121073000Y-115598000D01*
X121073000Y-117100000D01*
X120075000Y-117100000D01*
X120075000Y-115598000D01*
X118573000Y-115598000D01*
X118573000Y-117100000D01*
X117575000Y-117100000D01*
X117575000Y-115598000D01*
X116073000Y-115598000D01*
X116073000Y-117100000D01*
X115075000Y-117100000D01*
X115075000Y-115598000D01*
X113573000Y-115598000D01*
X113573000Y-117100000D01*
X112575000Y-117100000D01*
X112575000Y-115598000D01*
X111949000Y-115598000D01*
X111949000Y-117100000D01*
X110825000Y-117100000D01*
X110825000Y-114600000D01*
X111949000Y-114600000D01*
X112575000Y-114600000D01*
X113573000Y-114600000D01*
X115075000Y-114600000D01*
X116073000Y-114600000D01*
X117575000Y-114600000D01*
X118573000Y-114600000D01*
X120075000Y-114600000D01*
X121073000Y-114600000D01*
X122575000Y-114600000D01*
X123573000Y-114600000D01*
X125075000Y-114600000D01*
X125075000Y-113098000D01*
X123573000Y-113098000D01*
X123573000Y-114600000D01*
X122575000Y-114600000D01*
X122575000Y-113098000D01*
X121073000Y-113098000D01*
X121073000Y-114600000D01*
X120075000Y-114600000D01*
X120075000Y-113098000D01*
X118573000Y-113098000D01*
X118573000Y-114600000D01*
X117575000Y-114600000D01*
X117575000Y-113098000D01*
X116073000Y-113098000D01*
X116073000Y-114600000D01*
X115075000Y-114600000D01*
X115075000Y-113098000D01*
X113573000Y-113098000D01*
X113573000Y-114600000D01*
X112575000Y-114600000D01*
X112575000Y-113098000D01*
X111949000Y-113098000D01*
X111949000Y-114600000D01*
X110825000Y-114600000D01*
X110825000Y-112100000D01*
X111949000Y-112100000D01*
X112575000Y-112100000D01*
X113573000Y-112100000D01*
X115075000Y-112100000D01*
X116073000Y-112100000D01*
X117575000Y-112100000D01*
X117575000Y-110598000D01*
X116073000Y-110598000D01*
X116073000Y-112100000D01*
X115075000Y-112100000D01*
X115075000Y-110598000D01*
X113573000Y-110598000D01*
X113573000Y-112100000D01*
X112575000Y-112100000D01*
X112575000Y-110598000D01*
X111949000Y-110598000D01*
X111949000Y-112100000D01*
X110825000Y-112100000D01*
X110825000Y-109600000D01*
X111949000Y-109600000D01*
X112575000Y-109600000D01*
X113573000Y-109600000D01*
X115075000Y-109600000D01*
X116073000Y-109600000D01*
X117575000Y-109600000D01*
X117575000Y-108475013D01*
X118900000Y-108475013D01*
X118900000Y-109275000D01*
X120049999Y-109275000D01*
X120024979Y-109335402D01*
X120000000Y-109460981D01*
X120000000Y-109589019D01*
X120024979Y-109714598D01*
X120049999Y-109775000D01*
X118900001Y-109775000D01*
X118900001Y-110574986D01*
X118910494Y-110677697D01*
X118965641Y-110844119D01*
X118965643Y-110844124D01*
X119057684Y-110993345D01*
X119181654Y-111117315D01*
X119330875Y-111209356D01*
X119330880Y-111209358D01*
X119497302Y-111264505D01*
X119497309Y-111264506D01*
X119600019Y-111274999D01*
X120399999Y-111274999D01*
X120400000Y-111274998D01*
X120400000Y-110125001D01*
X120460402Y-110150021D01*
X120585981Y-110175000D01*
X120714019Y-110175000D01*
X120839598Y-110150021D01*
X120900000Y-110125001D01*
X120900000Y-111274999D01*
X121699972Y-111274999D01*
X121699986Y-111274998D01*
X121802697Y-111264505D01*
X121969119Y-111209358D01*
X121969124Y-111209356D01*
X122118345Y-111117315D01*
X122242315Y-110993345D01*
X122334356Y-110844124D01*
X122334358Y-110844119D01*
X122389505Y-110677697D01*
X122389506Y-110677690D01*
X122399999Y-110574986D01*
X122400000Y-110574973D01*
X122400000Y-109775000D01*
X121250001Y-109775000D01*
X121275021Y-109714598D01*
X121300000Y-109589019D01*
X121300000Y-109460981D01*
X121275021Y-109335402D01*
X121250001Y-109275000D01*
X122399999Y-109275000D01*
X122399999Y-108475028D01*
X122399998Y-108475013D01*
X122389505Y-108372302D01*
X122334358Y-108205880D01*
X122334356Y-108205875D01*
X122242315Y-108056654D01*
X122118345Y-107932684D01*
X121969124Y-107840643D01*
X121969119Y-107840641D01*
X121802697Y-107785494D01*
X121802690Y-107785493D01*
X121699986Y-107775000D01*
X120900000Y-107775000D01*
X120900000Y-108924998D01*
X120839598Y-108899979D01*
X120714019Y-108875000D01*
X120585981Y-108875000D01*
X120460402Y-108899979D01*
X120400000Y-108924998D01*
X120400000Y-107775000D01*
X119600028Y-107775000D01*
X119600012Y-107775001D01*
X119497302Y-107785494D01*
X119330880Y-107840641D01*
X119330875Y-107840643D01*
X119181654Y-107932684D01*
X119057684Y-108056654D01*
X118965643Y-108205875D01*
X118965641Y-108205880D01*
X118910494Y-108372302D01*
X118910493Y-108372309D01*
X118900000Y-108475013D01*
X117575000Y-108475013D01*
X117575000Y-108098000D01*
X116073000Y-108098000D01*
X116073000Y-109600000D01*
X115075000Y-109600000D01*
X115075000Y-108098000D01*
X113573000Y-108098000D01*
X113573000Y-109600000D01*
X112575000Y-109600000D01*
X112575000Y-108098000D01*
X111949000Y-108098000D01*
X111949000Y-109600000D01*
X110825000Y-109600000D01*
X110825000Y-107100000D01*
X113573000Y-107100000D01*
X115075000Y-107100000D01*
X116073000Y-107100000D01*
X117575000Y-107100000D01*
X118573000Y-107100000D01*
X118630752Y-107100000D01*
X123573000Y-107100000D01*
X124353224Y-107100000D01*
X124389249Y-107079201D01*
X124392792Y-107077232D01*
X124414425Y-107065668D01*
X124418034Y-107063814D01*
X124447329Y-107049366D01*
X124450999Y-107047630D01*
X124473373Y-107037492D01*
X124477098Y-107035877D01*
X124719280Y-106935562D01*
X124723052Y-106934071D01*
X124746012Y-106925429D01*
X124749833Y-106924062D01*
X124780764Y-106913562D01*
X124784625Y-106912321D01*
X124808127Y-106905191D01*
X124812033Y-106904076D01*
X125065234Y-106836232D01*
X125069169Y-106835246D01*
X125075000Y-106833886D01*
X125075000Y-106808472D01*
X126073000Y-106808472D01*
X126138704Y-106817123D01*
X126142721Y-106817719D01*
X126166950Y-106821720D01*
X126170942Y-106822446D01*
X126202976Y-106828819D01*
X126206939Y-106829675D01*
X126230831Y-106835246D01*
X126234766Y-106836232D01*
X126487967Y-106904076D01*
X126491873Y-106905191D01*
X126515375Y-106912321D01*
X126519236Y-106913562D01*
X126550167Y-106924062D01*
X126553988Y-106925429D01*
X126576948Y-106934071D01*
X126580720Y-106935562D01*
X126822902Y-107035877D01*
X126826627Y-107037492D01*
X126849001Y-107047630D01*
X126852671Y-107049366D01*
X126881966Y-107063814D01*
X126885575Y-107065668D01*
X126907208Y-107077232D01*
X126910751Y-107079201D01*
X126946776Y-107100000D01*
X127575000Y-107100000D01*
X128573000Y-107100000D01*
X130075000Y-107100000D01*
X131073000Y-107100000D01*
X132575000Y-107100000D01*
X133573000Y-107100000D01*
X135075000Y-107100000D01*
X136073000Y-107100000D01*
X137575000Y-107100000D01*
X137575000Y-107056048D01*
X138573000Y-107056048D01*
X138583263Y-107055037D01*
X138587313Y-107054704D01*
X138619910Y-107052568D01*
X138623961Y-107052369D01*
X138648492Y-107051566D01*
X138652549Y-107051500D01*
X138947451Y-107051500D01*
X138951508Y-107051566D01*
X138976039Y-107052369D01*
X138980090Y-107052568D01*
X139012687Y-107054704D01*
X139016737Y-107055037D01*
X139041167Y-107057444D01*
X139045195Y-107057907D01*
X139337578Y-107096401D01*
X139341592Y-107096996D01*
X139359786Y-107100000D01*
X140075000Y-107100000D01*
X140075000Y-106549000D01*
X138573000Y-106549000D01*
X138573000Y-107056048D01*
X137575000Y-107056048D01*
X137575000Y-106549000D01*
X136073000Y-106549000D01*
X136073000Y-107100000D01*
X135075000Y-107100000D01*
X135075000Y-106549000D01*
X133573000Y-106549000D01*
X133573000Y-107100000D01*
X132575000Y-107100000D01*
X132575000Y-106549000D01*
X131073000Y-106549000D01*
X131073000Y-107100000D01*
X130075000Y-107100000D01*
X130075000Y-106549000D01*
X128573000Y-106549000D01*
X128573000Y-107100000D01*
X127575000Y-107100000D01*
X127575000Y-106549000D01*
X126073000Y-106549000D01*
X126073000Y-106808472D01*
X125075000Y-106808472D01*
X125075000Y-106549000D01*
X123573000Y-106549000D01*
X123573000Y-107100000D01*
X118630752Y-107100000D01*
X118633007Y-107098517D01*
X118831678Y-106975976D01*
X118837926Y-106972369D01*
X118876351Y-106951651D01*
X118882797Y-106948414D01*
X118935443Y-106923866D01*
X118942067Y-106921009D01*
X118982618Y-106904900D01*
X118989393Y-106902434D01*
X119209236Y-106829584D01*
X119215713Y-106827632D01*
X119255208Y-106816896D01*
X119261780Y-106815301D01*
X119315033Y-106803902D01*
X119321683Y-106802667D01*
X119362094Y-106796298D01*
X119368798Y-106795428D01*
X119511240Y-106780877D01*
X119514381Y-106780596D01*
X119533424Y-106779139D01*
X119536577Y-106778939D01*
X119561945Y-106777647D01*
X119565100Y-106777526D01*
X119584173Y-106777041D01*
X119587325Y-106777001D01*
X120075000Y-106777000D01*
X121073000Y-106777000D01*
X121712674Y-106777000D01*
X121715826Y-106777040D01*
X121734897Y-106777525D01*
X121738051Y-106777645D01*
X121763422Y-106778937D01*
X121766573Y-106779138D01*
X121785622Y-106780595D01*
X121788768Y-106780876D01*
X121931224Y-106795430D01*
X121937933Y-106796301D01*
X121978367Y-106802676D01*
X121985018Y-106803912D01*
X122038267Y-106815314D01*
X122044835Y-106816908D01*
X122084303Y-106827638D01*
X122090776Y-106829589D01*
X122310605Y-106902433D01*
X122317382Y-106904900D01*
X122357934Y-106921010D01*
X122364555Y-106923865D01*
X122417202Y-106948413D01*
X122423649Y-106951651D01*
X122462074Y-106972369D01*
X122468322Y-106975976D01*
X122575000Y-107041775D01*
X122575000Y-106549000D01*
X121073000Y-106549000D01*
X121073000Y-106777000D01*
X120075000Y-106777000D01*
X120075000Y-106549000D01*
X118573000Y-106549000D01*
X118573000Y-107100000D01*
X117575000Y-107100000D01*
X117575000Y-106549000D01*
X116073000Y-106549000D01*
X116073000Y-107100000D01*
X115075000Y-107100000D01*
X115075000Y-106549000D01*
X113573000Y-106549000D01*
X113573000Y-107100000D01*
X110825000Y-107100000D01*
X110825000Y-105549000D01*
X110844685Y-105481961D01*
X110897489Y-105436206D01*
X110949000Y-105425000D01*
X140900000Y-105425000D01*
X140938681Y-105386319D01*
X141000004Y-105352834D01*
X141026362Y-105350000D01*
X142526000Y-105350000D01*
X142593039Y-105369685D01*
G37*
%TD.AperFunction*%
%TD*%
M02*
