%TF.GenerationSoftware,KiCad,Pcbnew,9.0.7*%
%TF.CreationDate,2026-02-01T23:09:29+05:00*%
%TF.ProjectId,HLT8012-Interface-board,484c5438-3031-4322-9d49-6e7465726661,rev?*%
%TF.SameCoordinates,Original*%
%TF.FileFunction,Profile,NP*%
%FSLAX46Y46*%
G04 Gerber Fmt 4.6, Leading zero omitted, Abs format (unit mm)*
G04 Created by KiCad (PCBNEW 9.0.7) date 2026-02-01 23:09:29*
%MOMM*%
%LPD*%
G01*
G04 APERTURE LIST*
%ADD10C,0.050000*%
%TA.AperFunction,Profile*%
%ADD11C,0.050000*%
%TD*%
G04 APERTURE END LIST*
D10*
X132375000Y-116600000D02*
X132375000Y-116600000D01*
X132200000Y-116450000D02*
X132199703Y-116451842D01*
X132199429Y-116453669D01*
X132199177Y-116455478D01*
X132198948Y-116457272D01*
X132198741Y-116459048D01*
X132198556Y-116460810D01*
X132198393Y-116462555D01*
X132198251Y-116464285D01*
X132198130Y-116465999D01*
X132198031Y-116467698D01*
X132197952Y-116469381D01*
X132197894Y-116471051D01*
X132197856Y-116472705D01*
X132197839Y-116474345D01*
X132197841Y-116475970D01*
X132197864Y-116477582D01*
X132197906Y-116479179D01*
X132197968Y-116480763D01*
X132198049Y-116482333D01*
X132198150Y-116483890D01*
X132198269Y-116485433D01*
X132198408Y-116486964D01*
X132198565Y-116488482D01*
X132198741Y-116489986D01*
X132198936Y-116491479D01*
X132199149Y-116492958D01*
X132199380Y-116494427D01*
X132199630Y-116495882D01*
X132199897Y-116497327D01*
X132200183Y-116498758D01*
X132200487Y-116500180D01*
X132200809Y-116501588D01*
X132201506Y-116504373D01*
X132202274Y-116507115D01*
X132203112Y-116509814D01*
X132204021Y-116512472D01*
X132205000Y-116515090D01*
X132206049Y-116517668D01*
X132207168Y-116520208D01*
X132208357Y-116522711D01*
X132209618Y-116525178D01*
X132210949Y-116527609D01*
X132212352Y-116530006D01*
X132213827Y-116532368D01*
X132215375Y-116534697D01*
X132216996Y-116536994D01*
X132218692Y-116539258D01*
X132220463Y-116541490D01*
X132222311Y-116543690D01*
X132224236Y-116545859D01*
X132226239Y-116547997D01*
X132228323Y-116550105D01*
X132230487Y-116552181D01*
X132232734Y-116554226D01*
X132235065Y-116556240D01*
X132237481Y-116558223D01*
X132239984Y-116560175D01*
X132242575Y-116562094D01*
X132245255Y-116563981D01*
X132248027Y-116565835D01*
X132250891Y-116567656D01*
X132253848Y-116569443D01*
X132256901Y-116571194D01*
X132260051Y-116572910D01*
X132263298Y-116574588D01*
X132266645Y-116576229D01*
X132270091Y-116577831D01*
X132273638Y-116579392D01*
X132277287Y-116580913D01*
X132281038Y-116582390D01*
X132284891Y-116583822D01*
X132288846Y-116585209D01*
X132292903Y-116586548D01*
X132297061Y-116587838D01*
X132301318Y-116589076D01*
X132305672Y-116590262D01*
X132310121Y-116591392D01*
X132314660Y-116592464D01*
X132319285Y-116593477D01*
X132323988Y-116594428D01*
X132328761Y-116595314D01*
X132333594Y-116596133D01*
X132338471Y-116596882D01*
X132343374Y-116597557D01*
X132348279Y-116598158D01*
X132353150Y-116598678D01*
X132357942Y-116599117D01*
X132362585Y-116599470D01*
X132366971Y-116599734D01*
X132370911Y-116599907D01*
X132373993Y-116599989D01*
X132375000Y-116600000D01*
X136550000Y-112200000D02*
X136501422Y-112246082D01*
X136443069Y-112301472D01*
X136364111Y-112376465D01*
X136266129Y-112469585D01*
X136150702Y-112579358D01*
X136019408Y-112704311D01*
X135948305Y-112772019D01*
X135873828Y-112842969D01*
X135796174Y-112916977D01*
X135715540Y-112993858D01*
X135632125Y-113073429D01*
X135546124Y-113155505D01*
X135457737Y-113239902D01*
X135367159Y-113326436D01*
X135274589Y-113414922D01*
X135180225Y-113505176D01*
X135084262Y-113597014D01*
X134986900Y-113690251D01*
X134888334Y-113784704D01*
X134788763Y-113880188D01*
X134688385Y-113976519D01*
X134587395Y-114073512D01*
X134485993Y-114170984D01*
X134384375Y-114268750D01*
X134282739Y-114366626D01*
X134181281Y-114464427D01*
X134080200Y-114561970D01*
X134029863Y-114610587D01*
X133979694Y-114659070D01*
X133929717Y-114707396D01*
X133879958Y-114755543D01*
X133830441Y-114803486D01*
X133781191Y-114851204D01*
X133732233Y-114898673D01*
X133683591Y-114945870D01*
X133635289Y-114992772D01*
X133587354Y-115039355D01*
X133539808Y-115085598D01*
X133492677Y-115131477D01*
X133445986Y-115176969D01*
X133399760Y-115222050D01*
X133354022Y-115266699D01*
X133308798Y-115310891D01*
X133264112Y-115354604D01*
X133219989Y-115397815D01*
X133176454Y-115440500D01*
X133133531Y-115482638D01*
X133091245Y-115524203D01*
X133049621Y-115565175D01*
X133008683Y-115605529D01*
X132968456Y-115645243D01*
X132928965Y-115684293D01*
X132890234Y-115722656D01*
X132852289Y-115760310D01*
X132815153Y-115797232D01*
X132778851Y-115833398D01*
X132743409Y-115868785D01*
X132708850Y-115903371D01*
X132675200Y-115937132D01*
X132642483Y-115970045D01*
X132610724Y-116002087D01*
X132579947Y-116033236D01*
X132550177Y-116063468D01*
X132521440Y-116092760D01*
X132507465Y-116107046D01*
X132493758Y-116121089D01*
X132480322Y-116134885D01*
X132467158Y-116148432D01*
X132454271Y-116161727D01*
X132441664Y-116174767D01*
X132429339Y-116187548D01*
X132417300Y-116200069D01*
X132405550Y-116212326D01*
X132394092Y-116224316D01*
X132382928Y-116236037D01*
X132372063Y-116247486D01*
X132361499Y-116258659D01*
X132351239Y-116269554D01*
X132341286Y-116280168D01*
X132331644Y-116290498D01*
X132322316Y-116300541D01*
X132313303Y-116310295D01*
X132304611Y-116319756D01*
X132296241Y-116328922D01*
X132288197Y-116337789D01*
X132280482Y-116346356D01*
X132273099Y-116354618D01*
X132266051Y-116362573D01*
X132259341Y-116370219D01*
X132252972Y-116377551D01*
X132246948Y-116384568D01*
X132241271Y-116391267D01*
X132235945Y-116397645D01*
X132230972Y-116403698D01*
X132226356Y-116409424D01*
X132222099Y-116414820D01*
X132220107Y-116417393D01*
X132218206Y-116419883D01*
X132216396Y-116422289D01*
X132214678Y-116424611D01*
X132213053Y-116426848D01*
X132211520Y-116429000D01*
X132210080Y-116431066D01*
X132208733Y-116433047D01*
X132207480Y-116434942D01*
X132206322Y-116436750D01*
X132205257Y-116438472D01*
X132204288Y-116440106D01*
X132203415Y-116441653D01*
X132202637Y-116443112D01*
X132201955Y-116444483D01*
X132201369Y-116445765D01*
X132200881Y-116446958D01*
X132200489Y-116448062D01*
X132200196Y-116449076D01*
X132200000Y-116450000D01*
X141925000Y-112200000D02*
X141924960Y-112199883D01*
X141924824Y-112199754D01*
X141924534Y-112199602D01*
X141924001Y-112199419D01*
X141923111Y-112199205D01*
X141921722Y-112198958D01*
X141919670Y-112198681D01*
X141916765Y-112198373D01*
X141912791Y-112198035D01*
X141907506Y-112197670D01*
X141900644Y-112197280D01*
X141891912Y-112196866D01*
X141880991Y-112196431D01*
X141867537Y-112195977D01*
X141851181Y-112195508D01*
X141831529Y-112195026D01*
X141808161Y-112194535D01*
X141780634Y-112194037D01*
X141748477Y-112193538D01*
X141711199Y-112193040D01*
X141668285Y-112192548D01*
X141619196Y-112192066D01*
X141563372Y-112191599D01*
X141500233Y-112191152D01*
X141429181Y-112190729D01*
X141349599Y-112190336D01*
X141260854Y-112189978D01*
X141162303Y-112189661D01*
X141053293Y-112189390D01*
X140933164Y-112189171D01*
X140801259Y-112189011D01*
X140656926Y-112188915D01*
X140499528Y-112188890D01*
X140328457Y-112188942D01*
X140143141Y-112189077D01*
X139943072Y-112189302D01*
X139727826Y-112189623D01*
X139497099Y-112190045D01*
X139250756Y-112190573D01*
X138988906Y-112191212D01*
X138712002Y-112191964D01*
X138421002Y-112192832D01*
X138117637Y-112193811D01*
X137804848Y-112194895D01*
X137487613Y-112196068D01*
X137174620Y-112197295D01*
X136882192Y-112198507D01*
X136645327Y-112199546D01*
X136573033Y-112199882D01*
X136550000Y-112200000D01*
X141925000Y-116500000D02*
X141925000Y-112200000D01*
X133075000Y-116500000D02*
X141925000Y-116500000D01*
X132375000Y-116600000D02*
X132386238Y-116597335D01*
X132397368Y-116594715D01*
X132408439Y-116592130D01*
X132419403Y-116589590D01*
X132430308Y-116587084D01*
X132441106Y-116584623D01*
X132451846Y-116582196D01*
X132462477Y-116579813D01*
X132473051Y-116577464D01*
X132483517Y-116575159D01*
X132493925Y-116572887D01*
X132504225Y-116570659D01*
X132514469Y-116568463D01*
X132524603Y-116566311D01*
X132534681Y-116564192D01*
X132544649Y-116562115D01*
X132554562Y-116560071D01*
X132564365Y-116558069D01*
X132574113Y-116556098D01*
X132583751Y-116554171D01*
X132593333Y-116552274D01*
X132602805Y-116550419D01*
X132612222Y-116548596D01*
X132621529Y-116546814D01*
X132639923Y-116543352D01*
X132657985Y-116540032D01*
X132675717Y-116536854D01*
X132693117Y-116533814D01*
X132710186Y-116530913D01*
X132726923Y-116528147D01*
X132743328Y-116525516D01*
X132759399Y-116523019D01*
X132775137Y-116520652D01*
X132790540Y-116518415D01*
X132805607Y-116516306D01*
X132820338Y-116514323D01*
X132834731Y-116512465D01*
X132848785Y-116510729D01*
X132862498Y-116509115D01*
X132875868Y-116507619D01*
X132888894Y-116506240D01*
X132901573Y-116504976D01*
X132913901Y-116503826D01*
X132925878Y-116502786D01*
X132937498Y-116501856D01*
X132948759Y-116501032D01*
X132959656Y-116500312D01*
X132970184Y-116499693D01*
X132980337Y-116499175D01*
X132990109Y-116498752D01*
X132999492Y-116498423D01*
X133008478Y-116498184D01*
X133017056Y-116498033D01*
X133025214Y-116497964D01*
X133032936Y-116497975D01*
X133040204Y-116498059D01*
X133046995Y-116498212D01*
X133053278Y-116498427D01*
X133059013Y-116498695D01*
X133064142Y-116499004D01*
X133068578Y-116499339D01*
X133072164Y-116499671D01*
X133074558Y-116499942D01*
X133075000Y-116500000D01*
D11*
X133825000Y-120400000D02*
X142225000Y-120400000D01*
X133825000Y-121850000D02*
X133825000Y-120400000D01*
X142225000Y-121850000D02*
X133825000Y-121850000D01*
X142225000Y-120400000D02*
X142225000Y-121850000D01*
D10*
X132100000Y-117100000D02*
X132100824Y-117100299D01*
X132101792Y-117100680D01*
X132103076Y-117101221D01*
X132104635Y-117101926D01*
X132106427Y-117102802D01*
X132108411Y-117103851D01*
X132109463Y-117104442D01*
X132110547Y-117105078D01*
X132111658Y-117105760D01*
X132112792Y-117106489D01*
X132113943Y-117107264D01*
X132115106Y-117108087D01*
X132116276Y-117108958D01*
X132117448Y-117109878D01*
X132118616Y-117110847D01*
X132119775Y-117111865D01*
X132120921Y-117112934D01*
X132122048Y-117114054D01*
X132123151Y-117115226D01*
X132124225Y-117116449D01*
X132125264Y-117117725D01*
X132126264Y-117119054D01*
X132127219Y-117120438D01*
X132128125Y-117121875D01*
X132128976Y-117123367D01*
X132129379Y-117124134D01*
X132129766Y-117124915D01*
X132130137Y-117125710D01*
X132130491Y-117126519D01*
X132130828Y-117127342D01*
X132131146Y-117128180D01*
X132131446Y-117129032D01*
X132131726Y-117129898D01*
X132131985Y-117130778D01*
X132132224Y-117131673D01*
X132132442Y-117132583D01*
X132132637Y-117133507D01*
X132132810Y-117134447D01*
X132132959Y-117135400D01*
X132133084Y-117136369D01*
X132133185Y-117137353D01*
X132133260Y-117138352D01*
X132133309Y-117139365D01*
X132133332Y-117140394D01*
X132133327Y-117141439D01*
X132133295Y-117142498D01*
X132133234Y-117143573D01*
X132133143Y-117144663D01*
X132133023Y-117145769D01*
X132132873Y-117146891D01*
X132132691Y-117148028D01*
X132132478Y-117149181D01*
X132132232Y-117150349D01*
X132131953Y-117151534D01*
X132131641Y-117152734D01*
X132131294Y-117153951D01*
X132130912Y-117155184D01*
X132130494Y-117156432D01*
X132130041Y-117157697D01*
X132129550Y-117158979D01*
X132129022Y-117160276D01*
X132128456Y-117161590D01*
X132127850Y-117162921D01*
X132127206Y-117164268D01*
X132126521Y-117165632D01*
X132125795Y-117167013D01*
X132125028Y-117168410D01*
X132124219Y-117169825D01*
X132123367Y-117171256D01*
X132122472Y-117172704D01*
X132121533Y-117174170D01*
X132120549Y-117175653D01*
X132119520Y-117177152D01*
X132118446Y-117178669D01*
X132117324Y-117180204D01*
X132116155Y-117181756D01*
X132114939Y-117183325D01*
X132113674Y-117184913D01*
X132112360Y-117186517D01*
X132110996Y-117188140D01*
X132109581Y-117189780D01*
X132108116Y-117191438D01*
X132106599Y-117193114D01*
X132105029Y-117194809D01*
X132103407Y-117196521D01*
X132101730Y-117198251D01*
X132100000Y-117200000D01*
D11*
X127550000Y-117100000D02*
X132100000Y-117100000D01*
X127550000Y-119900000D02*
X127550000Y-117100000D01*
X128000000Y-119450000D02*
X127550000Y-119900000D01*
X129850000Y-119450000D02*
X128000000Y-119450000D01*
X132100000Y-117200000D02*
X129850000Y-119450000D01*
X110225000Y-104757500D02*
X143225000Y-104757500D01*
X143225000Y-137257500D01*
X110225000Y-137257500D01*
X110225000Y-104757500D01*
M02*
