M48
; DRILL file {KiCad 9.0.6} date 2026-07-20T21:05:47+0500
; FORMAT={-:-/ absolute / metric / decimal}
; #@! TF.CreationDate,2026-07-20T21:05:47+05:00
; #@! TF.GenerationSoftware,Kicad,Pcbnew,9.0.6
; #@! TF.FileFunction,Plated,1,2,PTH
FMAT,2
METRIC
; #@! TA.AperFunction,Plated,PTH,ComponentDrill
T1C0.700
; #@! TA.AperFunction,Plated,PTH,ComponentDrill
T2C0.750
; #@! TA.AperFunction,Plated,PTH,ComponentDrill
T3C0.800
; #@! TA.AperFunction,Plated,PTH,ComponentDrill
T4C1.000
; #@! TA.AperFunction,Plated,PTH,ComponentDrill
T5C1.300
; #@! TA.AperFunction,Plated,PTH,ComponentDrill
T6C1.500
%
G90
G05
T1
X109.25Y-75.96
X109.25Y-81.04
X109.71Y-84.5
X114.79Y-84.5
X117.15Y-50.46
X117.15Y-55.54
X120.3Y-50.46
X120.3Y-55.54
X123.45Y-50.46
X123.45Y-55.54
X126.6Y-50.46
X126.6Y-55.54
X129.75Y-50.46
X129.75Y-55.54
X132.75Y-50.46
X132.75Y-55.54
X133.66Y-90.4
X133.8Y-75.06
X133.8Y-80.14
X134.96Y-85.25
X135.2Y-65.46
X135.2Y-70.54
X135.5Y-50.46
X135.5Y-55.54
X136.5Y-75.06
X136.5Y-80.14
X138.7Y-65.46
X138.7Y-70.54
X138.74Y-90.4
X140.0Y-78.06
X140.0Y-83.14
X140.04Y-85.25
X142.2Y-74.46
X142.2Y-79.54
X150.0Y-75.66
X150.0Y-80.74
T2
X144.93Y-77.89
X146.2Y-77.89
X147.47Y-77.89
T3
X111.129Y-73.4
X111.971Y-79.4
X113.629Y-73.4
X114.471Y-79.4
X116.971Y-93.0
X119.471Y-93.0
X122.221Y-92.75
X124.721Y-92.75
X140.05Y-50.979
X140.05Y-53.479
X141.329Y-70.8
X143.829Y-70.8
X146.929Y-71.75
X149.429Y-71.75
T4
X128.6Y-85.69
X128.6Y-88.23
X128.6Y-90.77
X128.6Y-93.31
X131.14Y-85.69
X131.14Y-88.23
X131.14Y-90.77
X131.14Y-93.31
T5
X110.733Y-62.3
X110.733Y-67.3
X110.832Y-88.75
X110.832Y-93.75
X125.0Y-78.46
X125.0Y-83.54
T6
X110.45Y-54.25
X148.2Y-54.25
M30
