%TF.GenerationSoftware,KiCad,Pcbnew,9.0.7*%
%TF.CreationDate,2026-02-04T19:30:03+05:00*%
%TF.ProjectId,HLT8012-Interface-board,484c5438-3031-4322-9d49-6e7465726661,rev?*%
%TF.SameCoordinates,Original*%
%TF.FileFunction,Copper,L1,Top*%
%TF.FilePolarity,Positive*%
%FSLAX46Y46*%
G04 Gerber Fmt 4.6, Leading zero omitted, Abs format (unit mm)*
G04 Created by KiCad (PCBNEW 9.0.7) date 2026-02-04 19:30:03*
%MOMM*%
%LPD*%
G01*
G04 APERTURE LIST*
G04 Aperture macros list*
%AMRoundRect*
0 Rectangle with rounded corners*
0 $1 Rounding radius*
0 $2 $3 $4 $5 $6 $7 $8 $9 X,Y pos of 4 corners*
0 Add a 4 corners polygon primitive as box body*
4,1,4,$2,$3,$4,$5,$6,$7,$8,$9,$2,$3,0*
0 Add four circle primitives for the rounded corners*
1,1,$1+$1,$2,$3*
1,1,$1+$1,$4,$5*
1,1,$1+$1,$6,$7*
1,1,$1+$1,$8,$9*
0 Add four rect primitives between the rounded corners*
20,1,$1+$1,$2,$3,$4,$5,0*
20,1,$1+$1,$4,$5,$6,$7,0*
20,1,$1+$1,$6,$7,$8,$9,0*
20,1,$1+$1,$8,$9,$2,$3,0*%
G04 Aperture macros list end*
%TA.AperFunction,SMDPad,CuDef*%
%ADD10RoundRect,0.250000X-0.400000X-0.625000X0.400000X-0.625000X0.400000X0.625000X-0.400000X0.625000X0*%
%TD*%
%TA.AperFunction,SMDPad,CuDef*%
%ADD11R,1.525000X0.650000*%
%TD*%
%TA.AperFunction,ComponentPad*%
%ADD12RoundRect,0.250000X-1.000000X-1.000000X1.000000X-1.000000X1.000000X1.000000X-1.000000X1.000000X0*%
%TD*%
%TA.AperFunction,ComponentPad*%
%ADD13C,2.500000*%
%TD*%
%TA.AperFunction,SMDPad,CuDef*%
%ADD14RoundRect,0.250000X0.412500X0.650000X-0.412500X0.650000X-0.412500X-0.650000X0.412500X-0.650000X0*%
%TD*%
%TA.AperFunction,ComponentPad*%
%ADD15RoundRect,0.250000X1.000000X-1.000000X1.000000X1.000000X-1.000000X1.000000X-1.000000X-1.000000X0*%
%TD*%
%TA.AperFunction,SMDPad,CuDef*%
%ADD16RoundRect,0.250000X-0.625000X0.400000X-0.625000X-0.400000X0.625000X-0.400000X0.625000X0.400000X0*%
%TD*%
%TA.AperFunction,SMDPad,CuDef*%
%ADD17RoundRect,0.250000X-0.412500X-0.650000X0.412500X-0.650000X0.412500X0.650000X-0.412500X0.650000X0*%
%TD*%
%TA.AperFunction,SMDPad,CuDef*%
%ADD18RoundRect,0.250000X-0.650000X0.412500X-0.650000X-0.412500X0.650000X-0.412500X0.650000X0.412500X0*%
%TD*%
%TA.AperFunction,ComponentPad*%
%ADD19C,3.000000*%
%TD*%
%TA.AperFunction,SMDPad,CuDef*%
%ADD20RoundRect,0.249999X-1.425001X0.450001X-1.425001X-0.450001X1.425001X-0.450001X1.425001X0.450001X0*%
%TD*%
%TA.AperFunction,ComponentPad*%
%ADD21R,1.350000X1.350000*%
%TD*%
%TA.AperFunction,ComponentPad*%
%ADD22C,1.350000*%
%TD*%
%TA.AperFunction,ViaPad*%
%ADD23C,0.600000*%
%TD*%
%TA.AperFunction,Conductor*%
%ADD24C,0.200000*%
%TD*%
%TA.AperFunction,Conductor*%
%ADD25C,3.200000*%
%TD*%
G04 APERTURE END LIST*
D10*
%TO.P,R6,1*%
%TO.N,Net-(R5-Pad2)*%
X112757500Y-124805000D03*
%TO.P,R6,2*%
%TO.N,V2P*%
X115857500Y-124805000D03*
%TD*%
D11*
%TO.P,U1,1,VDD*%
%TO.N,+5V*%
X125763000Y-130345000D03*
%TO.P,U1,2,V1P*%
%TO.N,Net-(U1-V1P)*%
X125763000Y-131615000D03*
%TO.P,U1,3,V1N*%
%TO.N,Net-(U1-V1N)*%
X125763000Y-132885000D03*
%TO.P,U1,4,V2P*%
%TO.N,V2P*%
X125763000Y-134155000D03*
%TO.P,U1,5,GND*%
%TO.N,GND*%
X131187000Y-134155000D03*
%TO.P,U1,6,CF*%
%TO.N,CF*%
X131187000Y-132885000D03*
%TO.P,U1,7,CF1*%
%TO.N,CF1*%
X131187000Y-131615000D03*
%TO.P,U1,8,SEL*%
%TO.N,SEL*%
X131187000Y-130345000D03*
%TD*%
D12*
%TO.P,J4,1,Pin_1*%
%TO.N,GND*%
X120650000Y-109525000D03*
D13*
%TO.P,J4,2,Pin_2*%
%TO.N,+5V*%
X125650000Y-109525000D03*
%TD*%
D14*
%TO.P,C3,1*%
%TO.N,Net-(U1-V1N)*%
X122662500Y-131300000D03*
%TO.P,C3,2*%
%TO.N,GND*%
X119537500Y-131300000D03*
%TD*%
D15*
%TO.P,J3,1,Pin_1*%
%TO.N,-AC*%
X138392500Y-123600000D03*
D13*
%TO.P,J3,2,Pin_2*%
%TO.N,/LOAD*%
X138392500Y-118600000D03*
%TD*%
D16*
%TO.P,R7,1*%
%TO.N,V2P*%
X112950000Y-127325000D03*
%TO.P,R7,2*%
%TO.N,GND*%
X112950000Y-130425000D03*
%TD*%
D17*
%TO.P,C2,1*%
%TO.N,GND*%
X119512500Y-128350000D03*
%TO.P,C2,2*%
%TO.N,Net-(U1-V1P)*%
X122637500Y-128350000D03*
%TD*%
D10*
%TO.P,R4,1*%
%TO.N,Net-(R3-Pad1)*%
X112757500Y-118185000D03*
%TO.P,R4,2*%
%TO.N,Net-(R4-Pad2)*%
X115857500Y-118185000D03*
%TD*%
D18*
%TO.P,C1,1*%
%TO.N,V2P*%
X115900000Y-127312500D03*
%TO.P,C1,2*%
%TO.N,GND*%
X115900000Y-130437500D03*
%TD*%
D19*
%TO.P,J1,1,Pin_1*%
%TO.N,+AC*%
X138800000Y-110050000D03*
%TD*%
D16*
%TO.P,R8,1*%
%TO.N,+AC*%
X126300000Y-115300000D03*
%TO.P,R8,2*%
%TO.N,Net-(U1-V1P)*%
X126300000Y-118400000D03*
%TD*%
D10*
%TO.P,R3,1*%
%TO.N,Net-(R3-Pad1)*%
X112757500Y-114875000D03*
%TO.P,R3,2*%
%TO.N,Net-(R2-Pad1)*%
X115857500Y-114875000D03*
%TD*%
%TO.P,R5,1*%
%TO.N,Net-(R4-Pad2)*%
X112757500Y-121495000D03*
%TO.P,R5,2*%
%TO.N,Net-(R5-Pad2)*%
X115857500Y-121495000D03*
%TD*%
D19*
%TO.P,J2,1,Pin_1*%
%TO.N,-AC*%
X138775000Y-131950000D03*
%TD*%
D10*
%TO.P,R2,1*%
%TO.N,Net-(R2-Pad1)*%
X112757500Y-111565000D03*
%TO.P,R2,2*%
%TO.N,Net-(R1-Pad1)*%
X115857500Y-111565000D03*
%TD*%
%TO.P,R1,1*%
%TO.N,Net-(R1-Pad1)*%
X129550000Y-125050000D03*
%TO.P,R1,2*%
%TO.N,-AC*%
X132650000Y-125050000D03*
%TD*%
D20*
%TO.P,R10,1*%
%TO.N,+AC*%
X120375000Y-116775000D03*
%TO.P,R10,2*%
%TO.N,/LOAD*%
X120375000Y-122875000D03*
%TD*%
D16*
%TO.P,R9,1*%
%TO.N,/LOAD*%
X126250000Y-123750000D03*
%TO.P,R9,2*%
%TO.N,Net-(U1-V1N)*%
X126250000Y-126850000D03*
%TD*%
D21*
%TO.P,J5,1,Pin_1*%
%TO.N,CF*%
X112450000Y-135075000D03*
D22*
%TO.P,J5,2,Pin_2*%
%TO.N,CF1*%
X114450000Y-135075000D03*
%TO.P,J5,3,Pin_3*%
%TO.N,SEL*%
X116450000Y-135075000D03*
%TD*%
D23*
%TO.N,V2P*%
X117775000Y-128175000D03*
X118950000Y-134150000D03*
%TO.N,Net-(U1-V1P)*%
X125550000Y-120475000D03*
X122650000Y-126675000D03*
%TO.N,Net-(U1-V1N)*%
X125425000Y-127750000D03*
X123794485Y-131255515D03*
%TO.N,+5V*%
X126825000Y-129125000D03*
%TO.N,CF*%
X129225000Y-133550000D03*
%TO.N,SEL*%
X127150000Y-130550000D03*
%TD*%
D24*
%TO.N,V2P*%
X116812500Y-127312500D02*
X115900000Y-127312500D01*
X115857500Y-124805000D02*
X115470000Y-124805000D01*
X117675000Y-128175000D02*
X116812500Y-127312500D01*
X115470000Y-124805000D02*
X112950000Y-127325000D01*
X125763000Y-134155000D02*
X118955000Y-134155000D01*
X118955000Y-134155000D02*
X118950000Y-134150000D01*
X115857500Y-124292500D02*
X115857500Y-124805000D01*
X117775000Y-128175000D02*
X117675000Y-128175000D01*
X125763000Y-134155000D02*
X125708000Y-134100000D01*
X115900000Y-127312500D02*
X115900000Y-124847500D01*
X115900000Y-124847500D02*
X115857500Y-124805000D01*
%TO.N,Net-(U1-V1P)*%
X122637500Y-128350000D02*
X122637500Y-129250000D01*
X126300000Y-119725000D02*
X125550000Y-120475000D01*
X122637500Y-129250000D02*
X125002500Y-131615000D01*
X122650000Y-128337500D02*
X122637500Y-128350000D01*
X122650000Y-126675000D02*
X122650000Y-128337500D01*
X126300000Y-118400000D02*
X126300000Y-119725000D01*
X125002500Y-131615000D02*
X125763000Y-131615000D01*
%TO.N,Net-(U1-V1N)*%
X124247500Y-132885000D02*
X122662500Y-131300000D01*
X125763000Y-132885000D02*
X124247500Y-132885000D01*
X125425000Y-127750000D02*
X125425000Y-127675000D01*
X125425000Y-127675000D02*
X126250000Y-126850000D01*
X125678000Y-132800000D02*
X125763000Y-132885000D01*
X122662500Y-131300000D02*
X123750000Y-131300000D01*
X123750000Y-131300000D02*
X123794485Y-131255515D01*
D25*
%TO.N,+AC*%
X138800000Y-110050000D02*
X131550000Y-110050000D01*
X131550000Y-110050000D02*
X126300000Y-115300000D01*
X121850000Y-115300000D02*
X126300000Y-115300000D01*
X120375000Y-116775000D02*
X121850000Y-115300000D01*
%TO.N,-AC*%
X132650000Y-125050000D02*
X136942500Y-125050000D01*
X136942500Y-125050000D02*
X138392500Y-123600000D01*
X138775000Y-123982500D02*
X138392500Y-123600000D01*
X138775000Y-131950000D02*
X138775000Y-123982500D01*
%TO.N,/LOAD*%
X120375000Y-122875000D02*
X125375000Y-122875000D01*
X134290260Y-118600000D02*
X138392500Y-118600000D01*
X130640260Y-122250000D02*
X134290260Y-118600000D01*
X127750000Y-122250000D02*
X130640260Y-122250000D01*
X126250000Y-123750000D02*
X127750000Y-122250000D01*
X125375000Y-122875000D02*
X126250000Y-123750000D01*
D24*
%TO.N,+5V*%
X126825000Y-129283000D02*
X125763000Y-130345000D01*
X126825000Y-129125000D02*
X126825000Y-129283000D01*
%TO.N,Net-(R1-Pad1)*%
X120104340Y-125651000D02*
X116808500Y-122355160D01*
X116808500Y-122355160D02*
X116808500Y-112516000D01*
X129550000Y-125050000D02*
X128949000Y-125651000D01*
X128949000Y-125651000D02*
X120104340Y-125651000D01*
X116808500Y-112516000D02*
X115857500Y-111565000D01*
X115857500Y-110690000D02*
X115857500Y-111565000D01*
%TO.N,Net-(R2-Pad1)*%
X112757500Y-111565000D02*
X112757500Y-111775000D01*
X112757500Y-111775000D02*
X115857500Y-114875000D01*
%TO.N,Net-(R3-Pad1)*%
X112757500Y-114875000D02*
X112757500Y-118185000D01*
%TO.N,Net-(R4-Pad2)*%
X115857500Y-118395000D02*
X112757500Y-121495000D01*
X115857500Y-118185000D02*
X115857500Y-118395000D01*
%TO.N,Net-(R5-Pad2)*%
X115857500Y-121705000D02*
X112757500Y-124805000D01*
X115857500Y-121495000D02*
X115857500Y-121705000D01*
%TO.N,CF*%
X129890000Y-132885000D02*
X131187000Y-132885000D01*
X129225000Y-133550000D02*
X129890000Y-132885000D01*
%TO.N,CF1*%
X117479057Y-133529000D02*
X118731057Y-134781000D01*
X118731057Y-134781000D02*
X127069000Y-134781000D01*
X115996000Y-133529000D02*
X117479057Y-133529000D01*
X114450000Y-135075000D02*
X115996000Y-133529000D01*
X127069000Y-134781000D02*
X130235000Y-131615000D01*
X130235000Y-131615000D02*
X131187000Y-131615000D01*
%TO.N,SEL*%
X127150000Y-130550000D02*
X127355000Y-130345000D01*
X127355000Y-130345000D02*
X131187000Y-130345000D01*
%TD*%
%TA.AperFunction,Conductor*%
%TO.N,GND*%
G36*
X142667539Y-105277685D02*
G01*
X142713294Y-105330489D01*
X142724500Y-105382000D01*
X142724500Y-136633000D01*
X142704815Y-136700039D01*
X142652011Y-136745794D01*
X142600500Y-136757000D01*
X110849500Y-136757000D01*
X110782461Y-136737315D01*
X110736706Y-136684511D01*
X110725500Y-136633000D01*
X110725500Y-134352135D01*
X111274500Y-134352135D01*
X111274500Y-135797870D01*
X111274501Y-135797876D01*
X111280908Y-135857483D01*
X111331202Y-135992328D01*
X111331206Y-135992335D01*
X111417452Y-136107544D01*
X111417455Y-136107547D01*
X111532664Y-136193793D01*
X111532671Y-136193797D01*
X111667517Y-136244091D01*
X111667516Y-136244091D01*
X111674444Y-136244835D01*
X111727127Y-136250500D01*
X113172872Y-136250499D01*
X113232483Y-136244091D01*
X113367331Y-136193796D01*
X113482546Y-136107546D01*
X113546241Y-136022459D01*
X113602174Y-135980590D01*
X113671866Y-135975606D01*
X113718392Y-135996453D01*
X113833904Y-136080378D01*
X113887224Y-136107546D01*
X113998764Y-136164379D01*
X113998767Y-136164380D01*
X114086750Y-136192967D01*
X114174736Y-136221555D01*
X114357486Y-136250500D01*
X114357487Y-136250500D01*
X114542513Y-136250500D01*
X114542514Y-136250500D01*
X114725264Y-136221555D01*
X114901235Y-136164379D01*
X115066096Y-136080378D01*
X115215787Y-135971621D01*
X115346621Y-135840787D01*
X115349680Y-135836576D01*
X115405006Y-135793909D01*
X115474619Y-135787926D01*
X115536415Y-135820529D01*
X115550315Y-135836570D01*
X115553379Y-135840787D01*
X115684213Y-135971621D01*
X115833904Y-136080378D01*
X115887224Y-136107546D01*
X115998764Y-136164379D01*
X115998767Y-136164380D01*
X116086750Y-136192967D01*
X116174736Y-136221555D01*
X116357486Y-136250500D01*
X116357487Y-136250500D01*
X116542513Y-136250500D01*
X116542514Y-136250500D01*
X116725264Y-136221555D01*
X116901235Y-136164379D01*
X117066096Y-136080378D01*
X117215787Y-135971621D01*
X117346621Y-135840787D01*
X117455378Y-135691096D01*
X117539379Y-135526235D01*
X117596555Y-135350264D01*
X117625500Y-135167514D01*
X117625500Y-134982486D01*
X117599044Y-134815452D01*
X117607998Y-134746162D01*
X117652994Y-134692710D01*
X117719746Y-134672070D01*
X117787060Y-134690795D01*
X117809198Y-134708376D01*
X118246196Y-135145374D01*
X118246206Y-135145385D01*
X118250536Y-135149715D01*
X118250537Y-135149716D01*
X118362341Y-135261520D01*
X118362343Y-135261521D01*
X118362347Y-135261524D01*
X118440741Y-135306784D01*
X118499273Y-135340577D01*
X118611076Y-135370534D01*
X118651999Y-135381500D01*
X118652000Y-135381500D01*
X126982331Y-135381500D01*
X126982347Y-135381501D01*
X126989943Y-135381501D01*
X127148054Y-135381501D01*
X127148057Y-135381501D01*
X127300785Y-135340577D01*
X127359314Y-135306785D01*
X127437716Y-135261520D01*
X127549520Y-135149716D01*
X127549520Y-135149714D01*
X127559724Y-135139511D01*
X127559728Y-135139506D01*
X128171389Y-134527844D01*
X129924500Y-134527844D01*
X129930901Y-134587372D01*
X129930903Y-134587379D01*
X129981145Y-134722086D01*
X129981149Y-134722093D01*
X130067309Y-134837187D01*
X130067312Y-134837190D01*
X130182406Y-134923350D01*
X130182413Y-134923354D01*
X130317120Y-134973596D01*
X130317127Y-134973598D01*
X130376655Y-134979999D01*
X130376672Y-134980000D01*
X130937000Y-134980000D01*
X131437000Y-134980000D01*
X131997328Y-134980000D01*
X131997344Y-134979999D01*
X132056872Y-134973598D01*
X132056879Y-134973596D01*
X132191586Y-134923354D01*
X132191593Y-134923350D01*
X132306687Y-134837190D01*
X132306690Y-134837187D01*
X132392850Y-134722093D01*
X132392854Y-134722086D01*
X132443096Y-134587379D01*
X132443098Y-134587372D01*
X132449499Y-134527844D01*
X132449500Y-134527827D01*
X132449500Y-134508000D01*
X133473500Y-134508000D01*
X134975500Y-134508000D01*
X135973500Y-134508000D01*
X137019252Y-134508000D01*
X137014215Y-134504391D01*
X137010950Y-134501970D01*
X136766573Y-134314455D01*
X136763393Y-134311932D01*
X136744420Y-134296361D01*
X136741326Y-134293736D01*
X136716767Y-134272198D01*
X136713762Y-134269473D01*
X136695845Y-134252692D01*
X136692929Y-134249870D01*
X136576500Y-134133441D01*
X140973500Y-134133441D01*
X140973500Y-134508000D01*
X141726500Y-134508000D01*
X141726500Y-133006000D01*
X141691383Y-133006000D01*
X141578706Y-133278027D01*
X141577091Y-133281752D01*
X141566962Y-133304106D01*
X141565228Y-133307771D01*
X141550780Y-133337069D01*
X141548927Y-133340678D01*
X141537354Y-133362330D01*
X141535382Y-133365878D01*
X141381383Y-133632610D01*
X141379298Y-133636088D01*
X141366355Y-133656903D01*
X141364162Y-133660306D01*
X141346018Y-133687466D01*
X141343706Y-133690806D01*
X141329391Y-133710785D01*
X141326970Y-133714050D01*
X141139455Y-133958427D01*
X141136932Y-133961607D01*
X141121361Y-133980580D01*
X141118736Y-133983674D01*
X141097198Y-134008233D01*
X141094473Y-134011238D01*
X141077692Y-134029155D01*
X141074870Y-134032071D01*
X140973500Y-134133441D01*
X136576500Y-134133441D01*
X136475130Y-134032071D01*
X136472308Y-134029155D01*
X136455527Y-134011238D01*
X136452802Y-134008233D01*
X136431264Y-133983674D01*
X136428639Y-133980580D01*
X136413068Y-133961607D01*
X136410545Y-133958427D01*
X136223030Y-133714050D01*
X136220609Y-133710785D01*
X136206294Y-133690806D01*
X136203982Y-133687466D01*
X136185838Y-133660306D01*
X136183645Y-133656903D01*
X136170702Y-133636088D01*
X136168617Y-133632610D01*
X136014618Y-133365878D01*
X136012646Y-133362330D01*
X136001073Y-133340678D01*
X135999220Y-133337069D01*
X135984772Y-133307771D01*
X135983038Y-133304106D01*
X135973500Y-133283056D01*
X135973500Y-134508000D01*
X134975500Y-134508000D01*
X134975500Y-133006000D01*
X133473500Y-133006000D01*
X133473500Y-134508000D01*
X132449500Y-134508000D01*
X132449500Y-134405000D01*
X131437000Y-134405000D01*
X131437000Y-134980000D01*
X130937000Y-134980000D01*
X130937000Y-134405000D01*
X129924500Y-134405000D01*
X129924500Y-134527844D01*
X128171389Y-134527844D01*
X128533398Y-134165835D01*
X128594719Y-134132352D01*
X128664411Y-134137336D01*
X128708758Y-134165837D01*
X128714707Y-134171786D01*
X128714711Y-134171789D01*
X128845814Y-134259390D01*
X128845827Y-134259397D01*
X128972660Y-134311932D01*
X128991503Y-134319737D01*
X129146153Y-134350499D01*
X129146156Y-134350500D01*
X129146158Y-134350500D01*
X129303844Y-134350500D01*
X129303845Y-134350499D01*
X129458497Y-134319737D01*
X129604179Y-134259394D01*
X129735289Y-134171789D01*
X129846789Y-134060289D01*
X129896681Y-133985621D01*
X129913727Y-133960110D01*
X129967339Y-133915304D01*
X130016829Y-133905000D01*
X132449500Y-133905000D01*
X132449500Y-133782172D01*
X132449499Y-133782155D01*
X132443098Y-133722627D01*
X132443097Y-133722623D01*
X132392849Y-133587904D01*
X132388601Y-133580123D01*
X132391860Y-133578343D01*
X132373546Y-133529374D01*
X132388336Y-133461087D01*
X132389523Y-133459239D01*
X132393293Y-133452335D01*
X132393292Y-133452335D01*
X132393296Y-133452331D01*
X132443591Y-133317483D01*
X132450000Y-133257873D01*
X132449999Y-132512128D01*
X132443591Y-132452517D01*
X132409329Y-132360655D01*
X132393297Y-132317670D01*
X132389047Y-132309888D01*
X132392257Y-132308134D01*
X132373861Y-132259001D01*
X132388627Y-132190709D01*
X132389252Y-132189736D01*
X132393297Y-132182329D01*
X132422960Y-132102797D01*
X132443591Y-132047483D01*
X132447836Y-132008000D01*
X133473500Y-132008000D01*
X134975500Y-132008000D01*
X134975500Y-130506000D01*
X133473500Y-130506000D01*
X133473500Y-132008000D01*
X132447836Y-132008000D01*
X132450000Y-131987873D01*
X132449999Y-131242128D01*
X132443591Y-131182517D01*
X132438594Y-131169119D01*
X132393297Y-131047670D01*
X132389047Y-131039888D01*
X132392257Y-131038134D01*
X132373861Y-130989001D01*
X132388627Y-130920709D01*
X132389252Y-130919736D01*
X132393297Y-130912329D01*
X132407225Y-130874986D01*
X132443591Y-130777483D01*
X132450000Y-130717873D01*
X132449999Y-129972128D01*
X132443591Y-129912517D01*
X132438866Y-129899849D01*
X132393297Y-129777671D01*
X132393293Y-129777664D01*
X132307047Y-129662455D01*
X132307044Y-129662452D01*
X132191835Y-129576206D01*
X132191828Y-129576202D01*
X132056982Y-129525908D01*
X132056983Y-129525908D01*
X131997383Y-129519501D01*
X131997381Y-129519500D01*
X131997373Y-129519500D01*
X131997364Y-129519500D01*
X130376629Y-129519500D01*
X130376623Y-129519501D01*
X130317016Y-129525908D01*
X130182171Y-129576202D01*
X130182164Y-129576206D01*
X130066957Y-129662451D01*
X130066949Y-129662458D01*
X130042732Y-129694810D01*
X129986799Y-129736682D01*
X129943465Y-129744500D01*
X127605805Y-129744500D01*
X127538766Y-129724815D01*
X127493011Y-129672011D01*
X127483067Y-129602853D01*
X127502703Y-129551609D01*
X127531841Y-129508000D01*
X133473500Y-129508000D01*
X134975500Y-129508000D01*
X134975500Y-128148500D01*
X133473500Y-128148500D01*
X133473500Y-129508000D01*
X127531841Y-129508000D01*
X127534390Y-129504185D01*
X127534390Y-129504184D01*
X127534394Y-129504179D01*
X127594737Y-129358497D01*
X127625500Y-129203842D01*
X127625500Y-129046158D01*
X127625500Y-129046155D01*
X127625499Y-129046153D01*
X127605326Y-128944737D01*
X127594737Y-128891503D01*
X127591791Y-128884390D01*
X127534397Y-128745827D01*
X127534390Y-128745814D01*
X127446789Y-128614711D01*
X127446786Y-128614707D01*
X127335292Y-128503213D01*
X127335288Y-128503210D01*
X127204185Y-128415609D01*
X127204172Y-128415602D01*
X127178873Y-128405123D01*
X128473500Y-128405123D01*
X128526145Y-128532222D01*
X128528335Y-128537899D01*
X128540737Y-128572560D01*
X128542646Y-128578338D01*
X128556872Y-128625233D01*
X128558495Y-128631097D01*
X128567445Y-128666823D01*
X128568779Y-128672765D01*
X128583446Y-128746500D01*
X129626671Y-128746500D01*
X129664963Y-128721890D01*
X129672577Y-128717372D01*
X129735167Y-128683195D01*
X129743081Y-128679233D01*
X129791818Y-128656975D01*
X129799998Y-128653587D01*
X129975500Y-128588129D01*
X129975500Y-128521500D01*
X130973500Y-128521500D01*
X132010748Y-128521500D01*
X132014072Y-128521545D01*
X132034173Y-128522084D01*
X132037493Y-128522217D01*
X132064180Y-128523649D01*
X132067489Y-128523871D01*
X132087482Y-128525481D01*
X132090785Y-128525792D01*
X132194675Y-128536962D01*
X132202343Y-128538029D01*
X132248529Y-128545936D01*
X132256119Y-128547481D01*
X132316830Y-128561826D01*
X132324309Y-128563842D01*
X132369172Y-128577450D01*
X132376512Y-128579929D01*
X132475500Y-128616848D01*
X132475500Y-128147895D01*
X132467407Y-128147631D01*
X132463356Y-128147432D01*
X132430760Y-128145296D01*
X132426714Y-128144964D01*
X132402285Y-128142558D01*
X132398254Y-128142094D01*
X132092870Y-128101889D01*
X132088852Y-128101293D01*
X132064623Y-128097292D01*
X132060632Y-128096566D01*
X132028596Y-128090193D01*
X132024632Y-128089337D01*
X132000740Y-128083766D01*
X131996805Y-128082780D01*
X131710256Y-128006000D01*
X130973500Y-128006000D01*
X130973500Y-128521500D01*
X129975500Y-128521500D01*
X129975500Y-128006000D01*
X128473500Y-128006000D01*
X128473500Y-128405123D01*
X127178873Y-128405123D01*
X127058501Y-128355264D01*
X127058489Y-128355261D01*
X126903845Y-128324500D01*
X126903842Y-128324500D01*
X126746158Y-128324500D01*
X126746155Y-128324500D01*
X126591510Y-128355261D01*
X126591498Y-128355264D01*
X126445827Y-128415602D01*
X126445814Y-128415609D01*
X126314711Y-128503210D01*
X126314707Y-128503213D01*
X126203213Y-128614707D01*
X126203210Y-128614711D01*
X126115609Y-128745814D01*
X126115602Y-128745827D01*
X126055264Y-128891498D01*
X126055261Y-128891510D01*
X126024500Y-129046153D01*
X126024500Y-129182901D01*
X126004815Y-129249940D01*
X125988181Y-129270582D01*
X125775582Y-129483181D01*
X125714259Y-129516666D01*
X125687901Y-129519500D01*
X124952629Y-129519500D01*
X124952623Y-129519501D01*
X124893016Y-129525908D01*
X124758171Y-129576202D01*
X124758164Y-129576206D01*
X124642955Y-129662452D01*
X124642952Y-129662455D01*
X124556706Y-129777664D01*
X124556702Y-129777671D01*
X124506408Y-129912517D01*
X124499645Y-129975428D01*
X124498493Y-129975304D01*
X124476793Y-130036726D01*
X124421596Y-130079563D01*
X124352001Y-130085758D01*
X124290105Y-130053344D01*
X124288568Y-130051833D01*
X123735952Y-129499217D01*
X123702467Y-129437894D01*
X123707451Y-129368202D01*
X123718093Y-129346441D01*
X123734814Y-129319334D01*
X123789999Y-129152797D01*
X123800500Y-129050009D01*
X123800499Y-127649992D01*
X123789999Y-127547203D01*
X123734814Y-127380666D01*
X123642712Y-127231344D01*
X123518656Y-127107288D01*
X123518652Y-127107285D01*
X123464154Y-127073670D01*
X123417429Y-127021722D01*
X123406208Y-126952760D01*
X123414690Y-126920679D01*
X123419737Y-126908497D01*
X123450500Y-126753842D01*
X123450500Y-126596158D01*
X123450500Y-126596155D01*
X123450499Y-126596153D01*
X123422689Y-126456344D01*
X123419737Y-126441503D01*
X123412052Y-126422951D01*
X123404584Y-126353484D01*
X123435859Y-126291005D01*
X123495947Y-126255352D01*
X123526614Y-126251500D01*
X124752356Y-126251500D01*
X124819395Y-126271185D01*
X124865150Y-126323989D01*
X124875714Y-126388099D01*
X124874501Y-126399974D01*
X124874500Y-126399996D01*
X124874500Y-127117058D01*
X124854815Y-127184097D01*
X124838183Y-127204737D01*
X124803213Y-127239708D01*
X124803208Y-127239714D01*
X124715609Y-127370814D01*
X124715602Y-127370827D01*
X124655264Y-127516498D01*
X124655261Y-127516510D01*
X124624500Y-127671153D01*
X124624500Y-127828846D01*
X124655261Y-127983489D01*
X124655264Y-127983501D01*
X124715602Y-128129172D01*
X124715609Y-128129185D01*
X124803210Y-128260288D01*
X124803213Y-128260292D01*
X124914707Y-128371786D01*
X124914711Y-128371789D01*
X125045814Y-128459390D01*
X125045827Y-128459397D01*
X125086271Y-128476149D01*
X125191503Y-128519737D01*
X125330981Y-128547481D01*
X125346153Y-128550499D01*
X125346156Y-128550500D01*
X125346158Y-128550500D01*
X125503844Y-128550500D01*
X125503845Y-128550499D01*
X125658497Y-128519737D01*
X125804179Y-128459394D01*
X125935289Y-128371789D01*
X126046789Y-128260289D01*
X126134394Y-128129179D01*
X126155987Y-128077045D01*
X126199827Y-128022644D01*
X126266120Y-128000578D01*
X126270548Y-128000499D01*
X126925002Y-128000499D01*
X126925008Y-128000499D01*
X127027797Y-127989999D01*
X127194334Y-127934814D01*
X127343656Y-127842712D01*
X127467712Y-127718656D01*
X127559814Y-127569334D01*
X127614999Y-127402797D01*
X127625500Y-127300009D01*
X127625499Y-126399992D01*
X127624800Y-126393147D01*
X127624285Y-126388098D01*
X127637056Y-126319405D01*
X127684939Y-126268522D01*
X127747643Y-126251500D01*
X128619894Y-126251500D01*
X128684990Y-126269961D01*
X128830659Y-126359810D01*
X128830660Y-126359810D01*
X128830666Y-126359814D01*
X128997203Y-126414999D01*
X129099991Y-126425500D01*
X130000008Y-126425499D01*
X130000016Y-126425498D01*
X130000019Y-126425498D01*
X130056302Y-126419748D01*
X130102797Y-126414999D01*
X130269334Y-126359814D01*
X130418656Y-126267712D01*
X130542712Y-126143656D01*
X130595461Y-126058134D01*
X130647407Y-126011411D01*
X130716370Y-126000188D01*
X130780452Y-126028031D01*
X130808386Y-126061231D01*
X130899751Y-126219479D01*
X130899754Y-126219484D01*
X130899756Y-126219486D01*
X131067370Y-126437926D01*
X131067376Y-126437933D01*
X131262066Y-126632623D01*
X131262072Y-126632628D01*
X131480521Y-126800249D01*
X131633778Y-126888732D01*
X131718971Y-126937919D01*
X131718976Y-126937921D01*
X131718979Y-126937923D01*
X131973368Y-127043295D01*
X132239334Y-127114560D01*
X132512326Y-127150500D01*
X136550500Y-127150500D01*
X136617539Y-127170185D01*
X136663294Y-127222989D01*
X136674500Y-127274500D01*
X136674500Y-132087667D01*
X136674501Y-132087684D01*
X136710438Y-132360655D01*
X136710439Y-132360660D01*
X136710440Y-132360666D01*
X136725979Y-132418657D01*
X136781704Y-132626630D01*
X136887075Y-132881017D01*
X136887080Y-132881028D01*
X136954822Y-132998359D01*
X137024751Y-133119479D01*
X137024753Y-133119482D01*
X137024754Y-133119483D01*
X137192370Y-133337926D01*
X137192376Y-133337933D01*
X137387066Y-133532623D01*
X137387072Y-133532628D01*
X137605521Y-133700249D01*
X137747386Y-133782155D01*
X137843971Y-133837919D01*
X137843976Y-133837921D01*
X137843979Y-133837923D01*
X138098368Y-133943295D01*
X138364334Y-134014560D01*
X138637326Y-134050500D01*
X138637333Y-134050500D01*
X138912667Y-134050500D01*
X138912674Y-134050500D01*
X139185666Y-134014560D01*
X139451632Y-133943295D01*
X139706021Y-133837923D01*
X139944479Y-133700249D01*
X140162928Y-133532628D01*
X140357628Y-133337928D01*
X140525249Y-133119479D01*
X140662923Y-132881021D01*
X140768295Y-132626632D01*
X140839560Y-132360666D01*
X140875500Y-132087674D01*
X140875500Y-124124589D01*
X140875501Y-124124560D01*
X140875501Y-123844833D01*
X140875500Y-123844819D01*
X140857927Y-123711344D01*
X140839560Y-123571834D01*
X140768295Y-123305868D01*
X140662924Y-123051479D01*
X140525249Y-122813021D01*
X140472515Y-122744297D01*
X140455751Y-122722449D01*
X140455748Y-122722446D01*
X140454101Y-122720300D01*
X140406688Y-122658509D01*
X140357629Y-122594573D01*
X140357624Y-122594567D01*
X140162928Y-122399872D01*
X140114742Y-122351686D01*
X140084717Y-122303008D01*
X140077315Y-122280670D01*
X140077314Y-122280666D01*
X139985212Y-122131344D01*
X139861156Y-122007288D01*
X139726562Y-121924270D01*
X139711836Y-121915187D01*
X139711831Y-121915185D01*
X139618044Y-121884107D01*
X139581561Y-121864776D01*
X139561981Y-121849751D01*
X139531733Y-121832288D01*
X139474179Y-121799059D01*
X140973500Y-121799059D01*
X141074869Y-121900428D01*
X141077689Y-121903341D01*
X141094471Y-121921258D01*
X141097201Y-121924270D01*
X141118739Y-121948831D01*
X141121362Y-121951923D01*
X141136934Y-121970898D01*
X141139455Y-121974074D01*
X141141058Y-121976163D01*
X141141057Y-121976163D01*
X141141060Y-121976166D01*
X141165487Y-122008000D01*
X141726500Y-122008000D01*
X141726500Y-120506000D01*
X140973500Y-120506000D01*
X140973500Y-121799059D01*
X139474179Y-121799059D01*
X139323522Y-121712076D01*
X139323512Y-121712071D01*
X139069147Y-121606710D01*
X139069134Y-121606706D01*
X139069135Y-121606706D01*
X139069132Y-121606705D01*
X138803167Y-121535440D01*
X138803166Y-121535439D01*
X138803163Y-121535439D01*
X138530181Y-121499499D01*
X138530174Y-121499499D01*
X138254827Y-121499499D01*
X138254819Y-121499499D01*
X138012166Y-121531446D01*
X137981834Y-121535440D01*
X137715868Y-121606705D01*
X137715858Y-121606708D01*
X137461482Y-121712074D01*
X137461478Y-121712076D01*
X137416716Y-121737920D01*
X137316842Y-121795583D01*
X137223021Y-121849749D01*
X137203436Y-121864778D01*
X137166956Y-121884107D01*
X137073166Y-121915186D01*
X137073163Y-121915187D01*
X136923842Y-122007289D01*
X136799789Y-122131342D01*
X136707685Y-122280666D01*
X136700280Y-122303014D01*
X136670256Y-122351687D01*
X136108763Y-122913181D01*
X136047440Y-122946666D01*
X136021082Y-122949500D01*
X133210678Y-122949500D01*
X133143639Y-122929815D01*
X133097884Y-122877011D01*
X133087940Y-122807853D01*
X133116965Y-122744297D01*
X133122997Y-122737819D01*
X135123996Y-120736819D01*
X135185319Y-120703334D01*
X135211677Y-120700500D01*
X138530167Y-120700500D01*
X138530174Y-120700500D01*
X138803166Y-120664560D01*
X139069132Y-120593295D01*
X139323521Y-120487923D01*
X139561979Y-120350249D01*
X139780428Y-120182628D01*
X139975128Y-119987928D01*
X139975129Y-119987927D01*
X139975131Y-119987925D01*
X140116217Y-119804056D01*
X140142749Y-119769479D01*
X140280423Y-119531021D01*
X140289959Y-119508000D01*
X141357006Y-119508000D01*
X141726500Y-119508000D01*
X141726500Y-118006000D01*
X141438145Y-118006000D01*
X141439066Y-118010632D01*
X141439792Y-118014623D01*
X141443793Y-118038852D01*
X141444389Y-118042870D01*
X141484594Y-118348254D01*
X141485058Y-118352285D01*
X141487464Y-118376714D01*
X141487796Y-118380760D01*
X141489932Y-118413356D01*
X141490131Y-118417407D01*
X141490934Y-118441938D01*
X141491000Y-118445995D01*
X141491000Y-118754005D01*
X141490934Y-118758062D01*
X141490131Y-118782593D01*
X141489932Y-118786644D01*
X141487796Y-118819240D01*
X141487464Y-118823286D01*
X141485058Y-118847715D01*
X141484594Y-118851746D01*
X141444389Y-119157130D01*
X141443793Y-119161148D01*
X141439792Y-119185377D01*
X141439066Y-119189368D01*
X141432693Y-119221404D01*
X141431837Y-119225368D01*
X141426266Y-119249260D01*
X141425280Y-119253195D01*
X141357006Y-119508000D01*
X140289959Y-119508000D01*
X140385795Y-119276632D01*
X140457060Y-119010666D01*
X140493000Y-118737674D01*
X140493000Y-118462326D01*
X140457060Y-118189334D01*
X140385795Y-117923368D01*
X140280423Y-117668979D01*
X140280421Y-117668976D01*
X140280419Y-117668971D01*
X140208461Y-117544337D01*
X140142749Y-117430521D01*
X140005493Y-117251645D01*
X139975129Y-117212073D01*
X139972451Y-117209019D01*
X139973168Y-117208390D01*
X139941753Y-117150858D01*
X139946737Y-117081166D01*
X139988609Y-117025233D01*
X140054073Y-117000816D01*
X140062919Y-117000500D01*
X141990890Y-117000500D01*
X141990892Y-117000500D01*
X142118186Y-116966392D01*
X142232314Y-116900500D01*
X142325500Y-116807314D01*
X142391392Y-116693186D01*
X142425500Y-116565892D01*
X142425500Y-112239056D01*
X142426467Y-112223602D01*
X142426544Y-112222989D01*
X142429809Y-112196995D01*
X142426659Y-112174119D01*
X142425500Y-112157205D01*
X142425500Y-112134109D01*
X142425499Y-112134105D01*
X142418557Y-112108197D01*
X142415490Y-112093017D01*
X142413183Y-112076264D01*
X142411831Y-112066443D01*
X142402868Y-112045164D01*
X142397370Y-112029124D01*
X142391392Y-112006815D01*
X142391392Y-112006814D01*
X142377976Y-111983577D01*
X142371087Y-111969711D01*
X142360676Y-111944993D01*
X142346505Y-111926750D01*
X142337049Y-111912688D01*
X142325504Y-111892692D01*
X142325501Y-111892689D01*
X142325500Y-111892686D01*
X142306530Y-111873716D01*
X142296285Y-111862104D01*
X142279829Y-111840920D01*
X142261422Y-111826969D01*
X142248641Y-111815827D01*
X142232316Y-111799502D01*
X142232314Y-111799500D01*
X142232311Y-111799498D01*
X142232307Y-111799495D01*
X142209076Y-111786082D01*
X142196181Y-111777522D01*
X142174802Y-111761319D01*
X142153413Y-111752608D01*
X142138186Y-111745155D01*
X142118184Y-111733607D01*
X142118182Y-111733606D01*
X142092267Y-111726662D01*
X142077596Y-111721731D01*
X142052751Y-111711613D01*
X142052749Y-111711612D01*
X142052745Y-111711611D01*
X142052748Y-111711611D01*
X142029830Y-111708732D01*
X142013203Y-111705477D01*
X141990886Y-111699498D01*
X141982836Y-111698439D01*
X141982838Y-111698423D01*
X141979407Y-111698172D01*
X141979119Y-111698129D01*
X141947437Y-111697637D01*
X141933918Y-111696686D01*
X141902469Y-111692737D01*
X141902460Y-111692737D01*
X141884407Y-111695223D01*
X141865571Y-111696367D01*
X141569979Y-111691780D01*
X141555705Y-111690733D01*
X141554591Y-111690586D01*
X141554587Y-111690585D01*
X141554261Y-111690584D01*
X141493485Y-111690578D01*
X141491576Y-111690563D01*
X141430519Y-111689615D01*
X141429387Y-111689747D01*
X141415119Y-111690569D01*
X140429441Y-111690464D01*
X140362403Y-111670772D01*
X140316654Y-111617963D01*
X140306718Y-111548804D01*
X140335750Y-111485251D01*
X140341774Y-111478782D01*
X140382624Y-111437932D01*
X140382628Y-111437928D01*
X140550249Y-111219479D01*
X140687923Y-110981021D01*
X140793295Y-110726632D01*
X140864560Y-110460666D01*
X140900500Y-110187674D01*
X140900500Y-109912326D01*
X140864560Y-109639334D01*
X140793295Y-109373368D01*
X140687923Y-109118979D01*
X140687921Y-109118976D01*
X140687919Y-109118971D01*
X140630842Y-109020112D01*
X140550249Y-108880521D01*
X140382628Y-108662072D01*
X140382623Y-108662066D01*
X140187933Y-108467376D01*
X140187926Y-108467370D01*
X139969483Y-108299754D01*
X139969482Y-108299753D01*
X139969479Y-108299751D01*
X139874407Y-108244861D01*
X139731028Y-108162080D01*
X139731017Y-108162075D01*
X139476630Y-108056704D01*
X139287397Y-108006000D01*
X139210666Y-107985440D01*
X139210660Y-107985439D01*
X139210655Y-107985438D01*
X138937684Y-107949501D01*
X138937679Y-107949500D01*
X138937674Y-107949500D01*
X131412326Y-107949500D01*
X131412320Y-107949500D01*
X131412315Y-107949501D01*
X131139344Y-107985438D01*
X131139337Y-107985439D01*
X131139334Y-107985440D01*
X131083125Y-108000500D01*
X130873369Y-108056704D01*
X130644268Y-108151602D01*
X130633791Y-108155941D01*
X130618977Y-108162077D01*
X130618975Y-108162078D01*
X130380520Y-108299750D01*
X130162073Y-108467370D01*
X130162066Y-108467376D01*
X125466263Y-113163181D01*
X125404940Y-113196666D01*
X125378582Y-113199500D01*
X121712326Y-113199500D01*
X121712320Y-113199500D01*
X121712315Y-113199501D01*
X121439344Y-113235438D01*
X121439337Y-113235439D01*
X121439334Y-113235440D01*
X121383125Y-113250500D01*
X121173369Y-113306704D01*
X120918985Y-113412074D01*
X120918975Y-113412078D01*
X120680520Y-113549750D01*
X120462073Y-113717370D01*
X120462066Y-113717376D01*
X118792376Y-115387066D01*
X118792370Y-115387073D01*
X118624757Y-115605511D01*
X118624747Y-115605526D01*
X118606046Y-115637917D01*
X118563758Y-115681453D01*
X118481344Y-115732287D01*
X118357289Y-115856342D01*
X118265187Y-116005662D01*
X118265185Y-116005667D01*
X118261484Y-116016836D01*
X118210001Y-116172202D01*
X118210001Y-116172203D01*
X118210000Y-116172203D01*
X118199500Y-116274982D01*
X118199500Y-117275017D01*
X118210000Y-117377796D01*
X118265185Y-117544332D01*
X118265187Y-117544337D01*
X118357289Y-117693657D01*
X118481343Y-117817711D01*
X118481347Y-117817714D01*
X118563756Y-117868545D01*
X118606045Y-117912082D01*
X118612562Y-117923369D01*
X118624751Y-117944480D01*
X118624756Y-117944486D01*
X118624757Y-117944488D01*
X118792370Y-118162926D01*
X118792376Y-118162933D01*
X118987066Y-118357623D01*
X118987073Y-118357629D01*
X119205520Y-118525249D01*
X119443975Y-118662921D01*
X119443976Y-118662921D01*
X119443979Y-118662923D01*
X119612154Y-118732583D01*
X119673665Y-118758062D01*
X119698368Y-118768294D01*
X119964334Y-118839559D01*
X120237326Y-118875500D01*
X120237333Y-118875500D01*
X120512667Y-118875500D01*
X120512674Y-118875500D01*
X120785666Y-118839559D01*
X121051632Y-118768294D01*
X121306021Y-118662923D01*
X121544480Y-118525249D01*
X121762928Y-118357628D01*
X122683737Y-117436819D01*
X122745060Y-117403334D01*
X122771418Y-117400500D01*
X124940819Y-117400500D01*
X125007858Y-117420185D01*
X125053613Y-117472989D01*
X125063557Y-117542147D01*
X125046358Y-117589594D01*
X125024925Y-117624344D01*
X124990187Y-117680663D01*
X124990185Y-117680668D01*
X124985881Y-117693657D01*
X124935001Y-117847203D01*
X124935001Y-117847204D01*
X124935000Y-117847204D01*
X124924500Y-117949983D01*
X124924500Y-118850001D01*
X124924501Y-118850019D01*
X124935000Y-118952796D01*
X124935001Y-118952799D01*
X124977583Y-119081300D01*
X124990186Y-119119334D01*
X125082288Y-119268656D01*
X125206344Y-119392712D01*
X125348272Y-119480253D01*
X125394997Y-119532201D01*
X125406220Y-119601163D01*
X125378377Y-119665245D01*
X125322114Y-119702893D01*
X125322130Y-119702932D01*
X125321937Y-119703011D01*
X125320308Y-119704102D01*
X125319186Y-119704448D01*
X125316507Y-119705260D01*
X125170827Y-119765602D01*
X125170814Y-119765609D01*
X125039711Y-119853210D01*
X125039707Y-119853213D01*
X124928213Y-119964707D01*
X124928210Y-119964711D01*
X124840609Y-120095814D01*
X124840602Y-120095827D01*
X124780264Y-120241498D01*
X124780261Y-120241510D01*
X124749500Y-120396153D01*
X124749500Y-120553846D01*
X124763914Y-120626309D01*
X124757687Y-120695900D01*
X124714824Y-120751078D01*
X124648934Y-120774322D01*
X124642297Y-120774500D01*
X120237326Y-120774500D01*
X120237320Y-120774500D01*
X120237315Y-120774501D01*
X119964344Y-120810438D01*
X119964337Y-120810439D01*
X119964334Y-120810440D01*
X119928719Y-120819983D01*
X119698369Y-120881704D01*
X119443982Y-120987075D01*
X119443971Y-120987080D01*
X119205516Y-121124754D01*
X118987073Y-121292370D01*
X118987066Y-121292376D01*
X118792376Y-121487066D01*
X118792370Y-121487073D01*
X118624757Y-121705512D01*
X118624748Y-121705526D01*
X118606044Y-121737920D01*
X118563757Y-121781454D01*
X118481344Y-121832287D01*
X118357289Y-121956342D01*
X118265187Y-122105662D01*
X118265185Y-122105667D01*
X118243867Y-122170001D01*
X118210001Y-122272202D01*
X118210001Y-122272203D01*
X118210000Y-122272203D01*
X118199500Y-122374982D01*
X118199500Y-122597562D01*
X118179815Y-122664601D01*
X118127011Y-122710356D01*
X118057853Y-122720300D01*
X117994297Y-122691275D01*
X117987819Y-122685243D01*
X117445319Y-122142743D01*
X117411834Y-122081420D01*
X117409000Y-122055062D01*
X117409000Y-119508000D01*
X123473500Y-119508000D01*
X124033090Y-119508000D01*
X124056548Y-119472892D01*
X124054444Y-119467596D01*
X124051978Y-119460820D01*
X123979091Y-119240863D01*
X123977139Y-119234386D01*
X123966401Y-119194884D01*
X123964805Y-119188309D01*
X123953407Y-119135055D01*
X123952173Y-119128411D01*
X123945804Y-119088006D01*
X123944934Y-119081300D01*
X123930376Y-118938790D01*
X123930095Y-118935642D01*
X123928639Y-118916600D01*
X123928439Y-118913453D01*
X123927147Y-118888085D01*
X123927026Y-118884930D01*
X123926541Y-118865857D01*
X123926501Y-118862705D01*
X123926500Y-118398500D01*
X123473500Y-118398500D01*
X123473500Y-119508000D01*
X117409000Y-119508000D01*
X117409000Y-114294559D01*
X118473500Y-114294559D01*
X119762059Y-113006000D01*
X118473500Y-113006000D01*
X118473500Y-114294559D01*
X117409000Y-114294559D01*
X117409000Y-112436945D01*
X117409000Y-112436943D01*
X117392939Y-112377003D01*
X117368077Y-112284215D01*
X117317720Y-112196995D01*
X117289020Y-112147284D01*
X117177216Y-112035480D01*
X117177215Y-112035479D01*
X117172885Y-112031149D01*
X117172874Y-112031139D01*
X117044318Y-111902583D01*
X117010833Y-111841260D01*
X117007999Y-111814902D01*
X117007999Y-110889998D01*
X117007998Y-110889981D01*
X116997499Y-110787203D01*
X116997498Y-110787200D01*
X116942314Y-110620666D01*
X116850212Y-110471344D01*
X116726156Y-110347288D01*
X116576834Y-110255186D01*
X116410297Y-110200001D01*
X116410295Y-110200000D01*
X116307516Y-110189500D01*
X116307509Y-110189500D01*
X116224834Y-110189500D01*
X116162834Y-110172887D01*
X116089286Y-110130424D01*
X116089285Y-110130423D01*
X116089284Y-110130423D01*
X115936557Y-110089500D01*
X115778443Y-110089500D01*
X115625716Y-110130423D01*
X115625711Y-110130425D01*
X115552161Y-110172888D01*
X115490164Y-110189500D01*
X115407499Y-110189500D01*
X115407480Y-110189501D01*
X115304703Y-110200000D01*
X115304700Y-110200001D01*
X115138168Y-110255185D01*
X115138163Y-110255187D01*
X114988842Y-110347289D01*
X114864789Y-110471342D01*
X114772687Y-110620663D01*
X114772686Y-110620666D01*
X114717501Y-110787203D01*
X114717501Y-110787204D01*
X114717500Y-110787204D01*
X114707001Y-110889981D01*
X114707000Y-110889996D01*
X114707000Y-112240001D01*
X114707001Y-112240018D01*
X114717500Y-112342796D01*
X114717501Y-112342799D01*
X114772685Y-112509331D01*
X114772686Y-112509334D01*
X114864788Y-112658656D01*
X114988844Y-112782712D01*
X115138166Y-112874814D01*
X115304703Y-112929999D01*
X115407491Y-112940500D01*
X116084000Y-112940499D01*
X116151039Y-112960183D01*
X116196794Y-113012987D01*
X116208000Y-113064499D01*
X116208000Y-113375500D01*
X116188315Y-113442539D01*
X116135511Y-113488294D01*
X116084000Y-113499500D01*
X115407499Y-113499500D01*
X115407483Y-113499501D01*
X115396913Y-113500581D01*
X115328221Y-113487807D01*
X115296638Y-113464903D01*
X113944318Y-112112583D01*
X113910833Y-112051260D01*
X113907999Y-112024902D01*
X113907999Y-110889998D01*
X113907998Y-110889981D01*
X113897499Y-110787203D01*
X113897498Y-110787200D01*
X113842314Y-110620666D01*
X113750212Y-110471344D01*
X113626156Y-110347288D01*
X113476834Y-110255186D01*
X113310297Y-110200001D01*
X113310295Y-110200000D01*
X113207510Y-110189500D01*
X112307498Y-110189500D01*
X112307480Y-110189501D01*
X112204703Y-110200000D01*
X112204700Y-110200001D01*
X112038168Y-110255185D01*
X112038163Y-110255187D01*
X111888842Y-110347289D01*
X111764789Y-110471342D01*
X111672687Y-110620663D01*
X111672686Y-110620666D01*
X111617501Y-110787203D01*
X111617501Y-110787204D01*
X111617500Y-110787204D01*
X111607001Y-110889981D01*
X111607000Y-110889996D01*
X111607000Y-112240001D01*
X111607001Y-112240018D01*
X111617500Y-112342796D01*
X111617501Y-112342799D01*
X111672685Y-112509331D01*
X111672686Y-112509334D01*
X111764788Y-112658656D01*
X111888844Y-112782712D01*
X112038166Y-112874814D01*
X112204703Y-112929999D01*
X112307491Y-112940500D01*
X113022402Y-112940499D01*
X113089441Y-112960183D01*
X113110083Y-112976818D01*
X113438324Y-113305059D01*
X113471809Y-113366382D01*
X113466825Y-113436074D01*
X113424953Y-113492007D01*
X113359489Y-113516424D01*
X113316979Y-113511113D01*
X113316914Y-113511418D01*
X113313402Y-113510666D01*
X113311640Y-113510446D01*
X113310299Y-113510001D01*
X113310295Y-113510000D01*
X113207510Y-113499500D01*
X112307498Y-113499500D01*
X112307480Y-113499501D01*
X112204703Y-113510000D01*
X112204700Y-113510001D01*
X112038168Y-113565185D01*
X112038163Y-113565187D01*
X111888842Y-113657289D01*
X111764789Y-113781342D01*
X111672687Y-113930663D01*
X111672685Y-113930668D01*
X111664834Y-113954362D01*
X111617501Y-114097203D01*
X111617501Y-114097204D01*
X111617500Y-114097204D01*
X111607000Y-114199983D01*
X111607000Y-115550001D01*
X111607001Y-115550018D01*
X111617500Y-115652796D01*
X111617501Y-115652799D01*
X111672685Y-115819331D01*
X111672687Y-115819336D01*
X111680240Y-115831581D01*
X111764788Y-115968656D01*
X111888844Y-116092712D01*
X112038166Y-116184814D01*
X112072000Y-116196025D01*
X112129447Y-116235796D01*
X112156272Y-116300311D01*
X112157000Y-116313732D01*
X112157000Y-116746267D01*
X112137315Y-116813306D01*
X112084511Y-116859061D01*
X112072006Y-116863972D01*
X112038171Y-116875184D01*
X112038163Y-116875187D01*
X111888842Y-116967289D01*
X111764789Y-117091342D01*
X111672687Y-117240663D01*
X111672685Y-117240668D01*
X111649313Y-117311200D01*
X111617501Y-117407203D01*
X111617501Y-117407204D01*
X111617500Y-117407204D01*
X111607000Y-117509983D01*
X111607000Y-118860001D01*
X111607001Y-118860018D01*
X111617500Y-118962796D01*
X111617501Y-118962799D01*
X111672685Y-119129331D01*
X111672687Y-119129336D01*
X111692309Y-119161148D01*
X111764788Y-119278656D01*
X111888844Y-119402712D01*
X112038166Y-119494814D01*
X112204703Y-119549999D01*
X112307491Y-119560500D01*
X113207508Y-119560499D01*
X113207516Y-119560498D01*
X113207519Y-119560498D01*
X113305392Y-119550500D01*
X113310297Y-119549999D01*
X113476834Y-119494814D01*
X113626156Y-119402712D01*
X113750212Y-119278656D01*
X113842314Y-119129334D01*
X113897499Y-118962797D01*
X113908000Y-118860009D01*
X113907999Y-117509992D01*
X113897499Y-117407203D01*
X113842314Y-117240666D01*
X113750212Y-117091344D01*
X113626156Y-116967288D01*
X113476834Y-116875186D01*
X113476828Y-116875184D01*
X113442994Y-116863972D01*
X113385550Y-116824199D01*
X113358728Y-116759683D01*
X113358000Y-116746267D01*
X113358000Y-116313732D01*
X113377685Y-116246693D01*
X113430489Y-116200938D01*
X113442995Y-116196026D01*
X113476834Y-116184814D01*
X113626156Y-116092712D01*
X113750212Y-115968656D01*
X113842314Y-115819334D01*
X113897499Y-115652797D01*
X113908000Y-115550009D01*
X113907999Y-114199992D01*
X113897499Y-114097203D01*
X113897057Y-114095869D01*
X113897026Y-114094997D01*
X113896081Y-114090578D01*
X113896868Y-114090409D01*
X113894650Y-114026041D01*
X113930378Y-113965997D01*
X113992896Y-113934800D01*
X114062356Y-113942355D01*
X114102441Y-113969176D01*
X114670681Y-114537416D01*
X114704166Y-114598739D01*
X114707000Y-114625097D01*
X114707000Y-115550001D01*
X114707001Y-115550019D01*
X114717500Y-115652796D01*
X114717501Y-115652799D01*
X114772685Y-115819331D01*
X114772687Y-115819336D01*
X114780240Y-115831581D01*
X114864788Y-115968656D01*
X114988844Y-116092712D01*
X115138166Y-116184814D01*
X115304703Y-116239999D01*
X115407491Y-116250500D01*
X116084000Y-116250499D01*
X116151039Y-116270183D01*
X116196794Y-116322987D01*
X116208000Y-116374499D01*
X116208000Y-116685500D01*
X116188315Y-116752539D01*
X116135511Y-116798294D01*
X116084000Y-116809500D01*
X115407498Y-116809500D01*
X115407480Y-116809501D01*
X115304703Y-116820000D01*
X115304700Y-116820001D01*
X115138168Y-116875185D01*
X115138163Y-116875187D01*
X114988842Y-116967289D01*
X114864789Y-117091342D01*
X114772687Y-117240663D01*
X114772685Y-117240668D01*
X114749313Y-117311200D01*
X114717501Y-117407203D01*
X114717501Y-117407204D01*
X114717500Y-117407204D01*
X114707000Y-117509983D01*
X114707000Y-118644902D01*
X114687315Y-118711941D01*
X114670681Y-118732583D01*
X113318361Y-120084902D01*
X113257038Y-120118387D01*
X113218082Y-120120579D01*
X113207528Y-120119501D01*
X113207512Y-120119500D01*
X113207509Y-120119500D01*
X113207503Y-120119500D01*
X112307498Y-120119500D01*
X112307480Y-120119501D01*
X112204703Y-120130000D01*
X112204700Y-120130001D01*
X112038168Y-120185185D01*
X112038163Y-120185187D01*
X111888842Y-120277289D01*
X111764789Y-120401342D01*
X111672687Y-120550663D01*
X111672685Y-120550668D01*
X111669370Y-120560673D01*
X111617501Y-120717203D01*
X111617501Y-120717204D01*
X111617500Y-120717204D01*
X111607000Y-120819983D01*
X111607000Y-122170001D01*
X111607001Y-122170018D01*
X111617500Y-122272796D01*
X111617501Y-122272799D01*
X111672685Y-122439331D01*
X111672686Y-122439334D01*
X111764788Y-122588656D01*
X111888844Y-122712712D01*
X112038166Y-122804814D01*
X112204703Y-122859999D01*
X112307491Y-122870500D01*
X113207508Y-122870499D01*
X113207516Y-122870498D01*
X113207519Y-122870498D01*
X113263802Y-122864748D01*
X113310297Y-122859999D01*
X113476834Y-122804814D01*
X113626156Y-122712712D01*
X113750212Y-122588656D01*
X113842314Y-122439334D01*
X113897499Y-122272797D01*
X113908000Y-122170009D01*
X113907999Y-121245095D01*
X113927683Y-121178057D01*
X113944313Y-121157420D01*
X114512561Y-120589172D01*
X114573882Y-120555689D01*
X114643574Y-120560673D01*
X114699507Y-120602545D01*
X114723924Y-120668009D01*
X114718614Y-120710521D01*
X114718918Y-120710586D01*
X114718169Y-120714079D01*
X114717949Y-120715849D01*
X114717502Y-120717196D01*
X114717500Y-120717204D01*
X114707000Y-120819983D01*
X114707000Y-121954902D01*
X114687315Y-122021941D01*
X114670681Y-122042583D01*
X113318361Y-123394902D01*
X113257038Y-123428387D01*
X113218082Y-123430579D01*
X113207528Y-123429501D01*
X113207512Y-123429500D01*
X113207509Y-123429500D01*
X113207503Y-123429500D01*
X112307498Y-123429500D01*
X112307480Y-123429501D01*
X112204703Y-123440000D01*
X112204700Y-123440001D01*
X112038168Y-123495185D01*
X112038163Y-123495187D01*
X111888842Y-123587289D01*
X111764789Y-123711342D01*
X111672687Y-123860663D01*
X111672685Y-123860668D01*
X111669370Y-123870673D01*
X111617501Y-124027203D01*
X111617501Y-124027204D01*
X111617500Y-124027204D01*
X111607000Y-124129983D01*
X111607000Y-125480001D01*
X111607001Y-125480018D01*
X111617500Y-125582796D01*
X111617501Y-125582799D01*
X111672685Y-125749331D01*
X111672686Y-125749334D01*
X111764788Y-125898656D01*
X111888844Y-126022712D01*
X111952439Y-126061938D01*
X111999164Y-126113884D01*
X112010387Y-126182847D01*
X111982544Y-126246929D01*
X111952441Y-126273014D01*
X111856344Y-126332287D01*
X111732289Y-126456342D01*
X111640187Y-126605663D01*
X111640185Y-126605668D01*
X111631251Y-126632629D01*
X111585001Y-126772203D01*
X111585001Y-126772204D01*
X111585000Y-126772204D01*
X111574500Y-126874983D01*
X111574500Y-127775001D01*
X111574501Y-127775019D01*
X111585000Y-127877796D01*
X111585001Y-127877799D01*
X111640185Y-128044331D01*
X111640187Y-128044336D01*
X111664508Y-128083766D01*
X111732288Y-128193656D01*
X111856344Y-128317712D01*
X112005666Y-128409814D01*
X112172203Y-128464999D01*
X112274991Y-128475500D01*
X113625008Y-128475499D01*
X113727797Y-128464999D01*
X113894334Y-128409814D01*
X114043656Y-128317712D01*
X114167712Y-128193656D01*
X114259814Y-128044334D01*
X114294795Y-127938767D01*
X114334565Y-127881326D01*
X114399080Y-127854502D01*
X114467856Y-127866817D01*
X114519057Y-127914359D01*
X114530205Y-127938769D01*
X114565184Y-128044329D01*
X114565186Y-128044333D01*
X114565187Y-128044336D01*
X114589508Y-128083766D01*
X114657288Y-128193656D01*
X114781344Y-128317712D01*
X114930666Y-128409814D01*
X115097203Y-128464999D01*
X115199991Y-128475500D01*
X116600008Y-128475499D01*
X116702797Y-128464999D01*
X116869334Y-128409814D01*
X116869335Y-128409812D01*
X116876189Y-128407542D01*
X116876877Y-128409618D01*
X116935383Y-128400725D01*
X116999170Y-128429238D01*
X117033285Y-128476149D01*
X117065602Y-128554172D01*
X117065609Y-128554185D01*
X117153210Y-128685288D01*
X117153213Y-128685292D01*
X117264707Y-128796786D01*
X117264711Y-128796789D01*
X117395814Y-128884390D01*
X117395827Y-128884397D01*
X117510784Y-128932013D01*
X117541503Y-128944737D01*
X117696153Y-128975499D01*
X117696156Y-128975500D01*
X117696158Y-128975500D01*
X117853844Y-128975500D01*
X117853845Y-128975499D01*
X118008497Y-128944737D01*
X118154179Y-128884394D01*
X118157102Y-128882440D01*
X118158868Y-128881887D01*
X118159554Y-128881521D01*
X118159623Y-128881650D01*
X118223777Y-128861558D01*
X118291159Y-128880037D01*
X118337853Y-128932013D01*
X118350000Y-128985536D01*
X118350000Y-129049970D01*
X118350001Y-129049987D01*
X118360494Y-129152697D01*
X118415641Y-129319119D01*
X118415643Y-129319124D01*
X118507684Y-129468345D01*
X118631654Y-129592315D01*
X118780875Y-129684356D01*
X118780882Y-129684359D01*
X118862594Y-129711435D01*
X118920039Y-129751207D01*
X118946863Y-129815722D01*
X118934549Y-129884498D01*
X118887006Y-129935699D01*
X118862597Y-129946846D01*
X118805884Y-129965639D01*
X118805875Y-129965643D01*
X118656654Y-130057684D01*
X118532684Y-130181654D01*
X118440643Y-130330875D01*
X118440641Y-130330880D01*
X118385494Y-130497302D01*
X118385493Y-130497309D01*
X118375000Y-130600013D01*
X118375000Y-131050000D01*
X119287500Y-131050000D01*
X119287500Y-129899849D01*
X119254195Y-129838859D01*
X119259179Y-129769167D01*
X119262500Y-129763999D01*
X119262500Y-129750149D01*
X119762500Y-129750149D01*
X119795804Y-129811141D01*
X119790820Y-129880833D01*
X119787500Y-129885999D01*
X119787500Y-131050000D01*
X120699999Y-131050000D01*
X120699999Y-130600028D01*
X120699998Y-130600013D01*
X120689505Y-130497302D01*
X120634358Y-130330880D01*
X120634356Y-130330875D01*
X120542315Y-130181654D01*
X120418345Y-130057684D01*
X120269124Y-129965643D01*
X120269119Y-129965641D01*
X120187404Y-129938564D01*
X120129959Y-129898792D01*
X120103136Y-129834276D01*
X120115451Y-129765500D01*
X120162994Y-129714300D01*
X120187404Y-129703152D01*
X120244119Y-129684358D01*
X120244124Y-129684356D01*
X120393345Y-129592315D01*
X120517315Y-129468345D01*
X120609356Y-129319124D01*
X120609358Y-129319119D01*
X120664505Y-129152697D01*
X120664506Y-129152690D01*
X120674999Y-129049986D01*
X120675000Y-129049973D01*
X120675000Y-128600000D01*
X119762500Y-128600000D01*
X119762500Y-129750149D01*
X119262500Y-129750149D01*
X119262500Y-128100000D01*
X119762500Y-128100000D01*
X120674999Y-128100000D01*
X120674999Y-127650028D01*
X120674998Y-127650013D01*
X120664505Y-127547302D01*
X120609358Y-127380880D01*
X120609356Y-127380875D01*
X120517315Y-127231654D01*
X120393345Y-127107684D01*
X120244124Y-127015643D01*
X120244119Y-127015641D01*
X120077697Y-126960494D01*
X120077690Y-126960493D01*
X119974986Y-126950000D01*
X119762500Y-126950000D01*
X119762500Y-128100000D01*
X119262500Y-128100000D01*
X119262500Y-126950000D01*
X119050029Y-126950000D01*
X119050012Y-126950001D01*
X118947302Y-126960494D01*
X118780880Y-127015641D01*
X118780875Y-127015643D01*
X118631654Y-127107684D01*
X118507684Y-127231654D01*
X118415643Y-127380875D01*
X118415642Y-127380878D01*
X118396474Y-127438724D01*
X118356701Y-127496168D01*
X118292185Y-127522991D01*
X118223409Y-127510676D01*
X118209878Y-127502822D01*
X118154183Y-127465608D01*
X118154172Y-127465602D01*
X118008501Y-127405264D01*
X118008489Y-127405261D01*
X117853845Y-127374500D01*
X117853842Y-127374500D01*
X117775097Y-127374500D01*
X117708058Y-127354815D01*
X117687416Y-127338181D01*
X117336818Y-126987583D01*
X117303333Y-126926260D01*
X117300499Y-126899902D01*
X117300499Y-126849998D01*
X117300498Y-126849981D01*
X117289999Y-126747203D01*
X117289998Y-126747200D01*
X117234814Y-126580666D01*
X117142712Y-126431344D01*
X117018656Y-126307288D01*
X116909866Y-126240186D01*
X116869336Y-126215187D01*
X116869335Y-126215186D01*
X116869334Y-126215186D01*
X116808050Y-126194878D01*
X116750607Y-126155106D01*
X116723784Y-126090590D01*
X116736099Y-126021814D01*
X116759369Y-125989498D01*
X116850212Y-125898656D01*
X116942314Y-125749334D01*
X116997499Y-125582797D01*
X117008000Y-125480009D01*
X117007999Y-124129992D01*
X116997499Y-124027203D01*
X116942314Y-123860666D01*
X116850212Y-123711344D01*
X116726156Y-123587288D01*
X116576834Y-123495186D01*
X116410297Y-123440001D01*
X116410295Y-123440000D01*
X116307510Y-123429500D01*
X115407498Y-123429500D01*
X115407480Y-123429501D01*
X115304703Y-123440000D01*
X115304692Y-123440003D01*
X115303350Y-123440448D01*
X115302474Y-123440478D01*
X115298078Y-123441419D01*
X115297910Y-123440634D01*
X115233521Y-123442844D01*
X115173483Y-123407107D01*
X115142295Y-123344584D01*
X115149862Y-123275126D01*
X115176672Y-123235061D01*
X115504916Y-122906818D01*
X115566239Y-122873333D01*
X115592597Y-122870499D01*
X116307502Y-122870499D01*
X116307508Y-122870499D01*
X116400500Y-122860999D01*
X116469190Y-122873768D01*
X116500780Y-122896675D01*
X119735624Y-126131520D01*
X119735626Y-126131521D01*
X119735630Y-126131524D01*
X119845366Y-126194879D01*
X119872556Y-126210577D01*
X120025283Y-126251501D01*
X120025285Y-126251501D01*
X120190994Y-126251501D01*
X120191010Y-126251500D01*
X121773386Y-126251500D01*
X121840425Y-126271185D01*
X121886180Y-126323989D01*
X121896124Y-126393147D01*
X121887947Y-126422950D01*
X121886892Y-126425499D01*
X121880263Y-126441502D01*
X121880261Y-126441510D01*
X121849500Y-126596153D01*
X121849500Y-126753846D01*
X121873598Y-126874991D01*
X121880263Y-126908497D01*
X121880264Y-126908500D01*
X121882031Y-126914324D01*
X121880894Y-126914668D01*
X121887692Y-126977862D01*
X121856419Y-127040343D01*
X121830758Y-127061388D01*
X121756347Y-127107285D01*
X121756343Y-127107288D01*
X121632289Y-127231342D01*
X121540187Y-127380663D01*
X121540185Y-127380668D01*
X121540115Y-127380880D01*
X121485001Y-127547203D01*
X121485001Y-127547204D01*
X121485000Y-127547204D01*
X121474500Y-127649983D01*
X121474500Y-129050001D01*
X121474501Y-129050018D01*
X121485000Y-129152796D01*
X121485001Y-129152799D01*
X121540115Y-129319119D01*
X121540186Y-129319334D01*
X121632288Y-129468656D01*
X121756344Y-129592712D01*
X121905666Y-129684814D01*
X121986007Y-129711436D01*
X122043450Y-129751207D01*
X122070274Y-129815723D01*
X122057959Y-129884499D01*
X122010417Y-129935699D01*
X121986009Y-129946846D01*
X121930670Y-129965184D01*
X121930663Y-129965187D01*
X121781342Y-130057289D01*
X121657289Y-130181342D01*
X121565187Y-130330663D01*
X121565185Y-130330668D01*
X121565115Y-130330880D01*
X121510001Y-130497203D01*
X121510001Y-130497204D01*
X121510000Y-130497204D01*
X121499500Y-130599983D01*
X121499500Y-132000001D01*
X121499501Y-132000018D01*
X121510000Y-132102796D01*
X121510001Y-132102799D01*
X121539132Y-132190709D01*
X121565186Y-132269334D01*
X121657288Y-132418656D01*
X121781344Y-132542712D01*
X121930666Y-132634814D01*
X122097203Y-132689999D01*
X122199991Y-132700500D01*
X123125008Y-132700499D01*
X123146918Y-132698260D01*
X123215608Y-132711028D01*
X123247202Y-132733937D01*
X123762639Y-133249374D01*
X123762649Y-133249385D01*
X123766979Y-133253715D01*
X123766980Y-133253716D01*
X123856084Y-133342820D01*
X123889568Y-133404141D01*
X123884584Y-133473833D01*
X123842713Y-133529767D01*
X123777249Y-133554184D01*
X123768402Y-133554500D01*
X119536691Y-133554500D01*
X119469652Y-133534815D01*
X119463805Y-133530560D01*
X119329185Y-133440609D01*
X119329172Y-133440602D01*
X119183501Y-133380264D01*
X119183489Y-133380261D01*
X119028845Y-133349500D01*
X119028842Y-133349500D01*
X118871158Y-133349500D01*
X118871155Y-133349500D01*
X118716510Y-133380261D01*
X118716498Y-133380264D01*
X118570827Y-133440602D01*
X118570816Y-133440608D01*
X118457059Y-133516618D01*
X118390382Y-133537495D01*
X118323002Y-133519010D01*
X118300488Y-133501196D01*
X117966647Y-133167355D01*
X117966645Y-133167352D01*
X117847774Y-133048481D01*
X117847773Y-133048480D01*
X117760961Y-132998360D01*
X117760961Y-132998359D01*
X117760957Y-132998358D01*
X117710842Y-132969423D01*
X117558114Y-132928499D01*
X117400000Y-132928499D01*
X117392404Y-132928499D01*
X117392388Y-132928500D01*
X116075057Y-132928500D01*
X115916943Y-132928500D01*
X115764215Y-132969423D01*
X115764214Y-132969423D01*
X115764212Y-132969424D01*
X115764209Y-132969425D01*
X115714096Y-132998359D01*
X115714095Y-132998360D01*
X115670689Y-133023420D01*
X115627285Y-133048479D01*
X115627282Y-133048481D01*
X115515478Y-133160286D01*
X114788979Y-133886784D01*
X114727656Y-133920269D01*
X114681901Y-133921576D01*
X114542514Y-133899500D01*
X114357486Y-133899500D01*
X114322761Y-133905000D01*
X114174734Y-133928445D01*
X113998767Y-133985619D01*
X113998764Y-133985620D01*
X113833900Y-134069624D01*
X113718392Y-134153545D01*
X113652586Y-134177025D01*
X113584532Y-134161199D01*
X113546241Y-134127539D01*
X113520939Y-134093740D01*
X113482546Y-134042454D01*
X113482544Y-134042453D01*
X113482544Y-134042452D01*
X113367335Y-133956206D01*
X113367328Y-133956202D01*
X113232482Y-133905908D01*
X113232483Y-133905908D01*
X113172883Y-133899501D01*
X113172881Y-133899500D01*
X113172873Y-133899500D01*
X113172864Y-133899500D01*
X111727129Y-133899500D01*
X111727123Y-133899501D01*
X111667516Y-133905908D01*
X111532671Y-133956202D01*
X111532664Y-133956206D01*
X111417455Y-134042452D01*
X111417452Y-134042455D01*
X111331206Y-134157664D01*
X111331202Y-134157671D01*
X111280908Y-134292517D01*
X111274501Y-134352116D01*
X111274500Y-134352135D01*
X110725500Y-134352135D01*
X110725500Y-131999986D01*
X118375001Y-131999986D01*
X118385494Y-132102697D01*
X118440641Y-132269119D01*
X118440643Y-132269124D01*
X118532684Y-132418345D01*
X118656654Y-132542315D01*
X118805875Y-132634356D01*
X118805880Y-132634358D01*
X118972302Y-132689505D01*
X118972309Y-132689506D01*
X119075019Y-132699999D01*
X119287499Y-132699999D01*
X119787500Y-132699999D01*
X119999972Y-132699999D01*
X119999986Y-132699998D01*
X120102697Y-132689505D01*
X120269119Y-132634358D01*
X120269124Y-132634356D01*
X120418345Y-132542315D01*
X120542315Y-132418345D01*
X120634356Y-132269124D01*
X120634358Y-132269119D01*
X120689505Y-132102697D01*
X120689506Y-132102690D01*
X120699999Y-131999986D01*
X120700000Y-131999973D01*
X120700000Y-131550000D01*
X119787500Y-131550000D01*
X119787500Y-132699999D01*
X119287499Y-132699999D01*
X119287500Y-132699998D01*
X119287500Y-131550000D01*
X118375001Y-131550000D01*
X118375001Y-131999986D01*
X110725500Y-131999986D01*
X110725500Y-130874986D01*
X111575001Y-130874986D01*
X111585494Y-130977697D01*
X111640641Y-131144119D01*
X111640643Y-131144124D01*
X111732684Y-131293345D01*
X111856654Y-131417315D01*
X112005875Y-131509356D01*
X112005880Y-131509358D01*
X112172302Y-131564505D01*
X112172309Y-131564506D01*
X112275019Y-131574999D01*
X112699999Y-131574999D01*
X113200000Y-131574999D01*
X113624972Y-131574999D01*
X113624986Y-131574998D01*
X113727697Y-131564505D01*
X113894119Y-131509358D01*
X113894124Y-131509356D01*
X114043345Y-131417315D01*
X114167315Y-131293345D01*
X114259356Y-131144124D01*
X114259359Y-131144117D01*
X114290651Y-131049683D01*
X114330423Y-130992238D01*
X114394938Y-130965414D01*
X114463714Y-130977729D01*
X114514915Y-131025271D01*
X114526063Y-131049681D01*
X114565642Y-131169121D01*
X114565643Y-131169124D01*
X114657684Y-131318345D01*
X114781654Y-131442315D01*
X114930875Y-131534356D01*
X114930880Y-131534358D01*
X115097302Y-131589505D01*
X115097309Y-131589506D01*
X115200019Y-131599999D01*
X115649999Y-131599999D01*
X116150000Y-131599999D01*
X116599972Y-131599999D01*
X116599986Y-131599998D01*
X116702697Y-131589505D01*
X116869119Y-131534358D01*
X116869124Y-131534356D01*
X117018345Y-131442315D01*
X117142315Y-131318345D01*
X117234356Y-131169124D01*
X117234358Y-131169119D01*
X117289505Y-131002697D01*
X117289506Y-131002690D01*
X117299999Y-130899986D01*
X117300000Y-130899973D01*
X117300000Y-130687500D01*
X116150000Y-130687500D01*
X116150000Y-131599999D01*
X115649999Y-131599999D01*
X115650000Y-131599998D01*
X115650000Y-130687500D01*
X114494656Y-130687500D01*
X114445106Y-130714555D01*
X114375414Y-130709569D01*
X114331069Y-130681069D01*
X114325000Y-130675000D01*
X113200000Y-130675000D01*
X113200000Y-131574999D01*
X112699999Y-131574999D01*
X112700000Y-131574998D01*
X112700000Y-130675000D01*
X111575001Y-130675000D01*
X111575001Y-130874986D01*
X110725500Y-130874986D01*
X110725500Y-129975013D01*
X111575000Y-129975013D01*
X111575000Y-130175000D01*
X112700000Y-130175000D01*
X113200000Y-130175000D01*
X114330343Y-130175000D01*
X114379889Y-130147945D01*
X114449581Y-130152929D01*
X114493930Y-130181430D01*
X114500000Y-130187500D01*
X115650000Y-130187500D01*
X116150000Y-130187500D01*
X117299999Y-130187500D01*
X117299999Y-129975028D01*
X117299998Y-129975013D01*
X117289505Y-129872302D01*
X117234358Y-129705880D01*
X117234356Y-129705875D01*
X117142315Y-129556654D01*
X117018345Y-129432684D01*
X116869124Y-129340643D01*
X116869119Y-129340641D01*
X116702697Y-129285494D01*
X116702690Y-129285493D01*
X116599986Y-129275000D01*
X116150000Y-129275000D01*
X116150000Y-130187500D01*
X115650000Y-130187500D01*
X115650000Y-129275000D01*
X115200028Y-129275000D01*
X115200012Y-129275001D01*
X115097302Y-129285494D01*
X114930880Y-129340641D01*
X114930875Y-129340643D01*
X114781654Y-129432684D01*
X114657684Y-129556654D01*
X114565643Y-129705875D01*
X114565641Y-129705880D01*
X114530206Y-129812817D01*
X114490433Y-129870262D01*
X114425917Y-129897085D01*
X114357141Y-129884770D01*
X114305942Y-129837227D01*
X114294794Y-129812817D01*
X114259358Y-129705880D01*
X114259356Y-129705875D01*
X114167315Y-129556654D01*
X114043345Y-129432684D01*
X113894124Y-129340643D01*
X113894119Y-129340641D01*
X113727697Y-129285494D01*
X113727690Y-129285493D01*
X113624986Y-129275000D01*
X113200000Y-129275000D01*
X113200000Y-130175000D01*
X112700000Y-130175000D01*
X112700000Y-129275000D01*
X112275028Y-129275000D01*
X112275012Y-129275001D01*
X112172302Y-129285494D01*
X112005880Y-129340641D01*
X112005875Y-129340643D01*
X111856654Y-129432684D01*
X111732684Y-129556654D01*
X111640643Y-129705875D01*
X111640641Y-129705880D01*
X111585494Y-129872302D01*
X111585493Y-129872309D01*
X111575000Y-129975013D01*
X110725500Y-129975013D01*
X110725500Y-109308090D01*
X111723500Y-109308090D01*
X111916637Y-109244091D01*
X111923114Y-109242139D01*
X111962616Y-109231401D01*
X111969191Y-109229805D01*
X112022445Y-109218407D01*
X112029089Y-109217173D01*
X112041498Y-109215217D01*
X113473500Y-109215217D01*
X113485957Y-109217181D01*
X113492608Y-109218416D01*
X113545859Y-109229818D01*
X113552426Y-109231413D01*
X113591900Y-109242144D01*
X113598375Y-109244095D01*
X113818318Y-109316977D01*
X113825096Y-109319444D01*
X113865647Y-109335554D01*
X113872266Y-109338409D01*
X113924912Y-109362956D01*
X113931360Y-109366194D01*
X113969785Y-109386912D01*
X113976032Y-109390519D01*
X114166500Y-109508000D01*
X114448500Y-109508000D01*
X114638968Y-109390519D01*
X114645215Y-109386912D01*
X114683640Y-109366194D01*
X114690087Y-109362956D01*
X114742732Y-109338409D01*
X114749354Y-109335553D01*
X114789904Y-109319444D01*
X114796680Y-109316978D01*
X114975500Y-109257722D01*
X114975500Y-109091639D01*
X115973500Y-109091639D01*
X115977350Y-109091765D01*
X116026356Y-109094977D01*
X116034435Y-109095773D01*
X116099236Y-109104306D01*
X116107240Y-109105628D01*
X116155394Y-109115207D01*
X116163294Y-109117049D01*
X116379148Y-109174886D01*
X116386914Y-109177242D01*
X116433409Y-109193025D01*
X116441001Y-109195882D01*
X116454014Y-109201271D01*
X116538820Y-109209936D01*
X116545528Y-109210807D01*
X116585957Y-109217181D01*
X116592608Y-109218416D01*
X116645859Y-109229818D01*
X116652426Y-109231413D01*
X116691900Y-109242144D01*
X116698375Y-109244095D01*
X116918318Y-109316977D01*
X116925096Y-109319444D01*
X116965647Y-109335554D01*
X116972266Y-109338409D01*
X117024912Y-109362956D01*
X117031360Y-109366194D01*
X117069785Y-109386912D01*
X117076032Y-109390519D01*
X117266500Y-109508000D01*
X117475500Y-109508000D01*
X117475500Y-108475013D01*
X118900000Y-108475013D01*
X118900000Y-109275000D01*
X120049999Y-109275000D01*
X120024979Y-109335402D01*
X120000000Y-109460981D01*
X120000000Y-109589019D01*
X120024979Y-109714598D01*
X120049999Y-109775000D01*
X118900001Y-109775000D01*
X118900001Y-110574986D01*
X118910494Y-110677697D01*
X118965641Y-110844119D01*
X118965643Y-110844124D01*
X119057684Y-110993345D01*
X119181654Y-111117315D01*
X119330875Y-111209356D01*
X119330880Y-111209358D01*
X119497302Y-111264505D01*
X119497309Y-111264506D01*
X119600019Y-111274999D01*
X120399999Y-111274999D01*
X120400000Y-111274998D01*
X120400000Y-110125001D01*
X120460402Y-110150021D01*
X120585981Y-110175000D01*
X120714019Y-110175000D01*
X120839598Y-110150021D01*
X120900000Y-110125001D01*
X120900000Y-111274999D01*
X121699972Y-111274999D01*
X121699986Y-111274998D01*
X121802697Y-111264505D01*
X121969119Y-111209358D01*
X121969124Y-111209356D01*
X122118345Y-111117315D01*
X122242315Y-110993345D01*
X122334356Y-110844124D01*
X122334358Y-110844119D01*
X122389505Y-110677697D01*
X122389506Y-110677690D01*
X122399999Y-110574986D01*
X122400000Y-110574973D01*
X122400000Y-109775000D01*
X121250001Y-109775000D01*
X121275021Y-109714598D01*
X121300000Y-109589019D01*
X121300000Y-109460981D01*
X121289911Y-109410258D01*
X123899500Y-109410258D01*
X123899500Y-109639741D01*
X123909356Y-109714598D01*
X123929452Y-109867238D01*
X123988842Y-110088887D01*
X124076650Y-110300876D01*
X124076657Y-110300890D01*
X124191392Y-110499617D01*
X124331081Y-110681661D01*
X124331089Y-110681670D01*
X124493330Y-110843911D01*
X124493338Y-110843918D01*
X124675382Y-110983607D01*
X124675385Y-110983608D01*
X124675388Y-110983611D01*
X124874112Y-111098344D01*
X124874117Y-111098346D01*
X124874123Y-111098349D01*
X124965480Y-111136190D01*
X125086113Y-111186158D01*
X125307762Y-111245548D01*
X125524312Y-111274057D01*
X125531460Y-111274999D01*
X125535266Y-111275500D01*
X125535273Y-111275500D01*
X125764727Y-111275500D01*
X125764734Y-111275500D01*
X125992238Y-111245548D01*
X126213887Y-111186158D01*
X126425888Y-111098344D01*
X126624612Y-110983611D01*
X126806661Y-110843919D01*
X126806665Y-110843914D01*
X126806670Y-110843911D01*
X126968911Y-110681670D01*
X126968914Y-110681665D01*
X126968919Y-110681661D01*
X127108611Y-110499612D01*
X127223344Y-110300888D01*
X127311158Y-110088887D01*
X127370548Y-109867238D01*
X127400500Y-109639734D01*
X127400500Y-109410266D01*
X127370548Y-109182762D01*
X127311158Y-108961113D01*
X127223344Y-108749112D01*
X127108611Y-108550388D01*
X127108608Y-108550385D01*
X127108607Y-108550382D01*
X126968918Y-108368338D01*
X126968911Y-108368330D01*
X126806670Y-108206089D01*
X126806661Y-108206081D01*
X126624617Y-108066392D01*
X126425890Y-107951657D01*
X126425876Y-107951650D01*
X126213887Y-107863842D01*
X125992238Y-107804452D01*
X125954215Y-107799446D01*
X125764741Y-107774500D01*
X125764734Y-107774500D01*
X125535266Y-107774500D01*
X125535258Y-107774500D01*
X125318715Y-107803009D01*
X125307762Y-107804452D01*
X125214076Y-107829554D01*
X125086112Y-107863842D01*
X124874123Y-107951650D01*
X124874109Y-107951657D01*
X124675382Y-108066392D01*
X124493338Y-108206081D01*
X124331081Y-108368338D01*
X124191392Y-108550382D01*
X124076657Y-108749109D01*
X124076650Y-108749123D01*
X123993868Y-108948978D01*
X123988842Y-108961113D01*
X123931563Y-109174886D01*
X123929453Y-109182759D01*
X123929451Y-109182770D01*
X123899500Y-109410258D01*
X121289911Y-109410258D01*
X121275021Y-109335402D01*
X121250001Y-109275000D01*
X122399999Y-109275000D01*
X122399999Y-108475028D01*
X122399998Y-108475013D01*
X122389505Y-108372302D01*
X122334358Y-108205880D01*
X122334356Y-108205875D01*
X122242315Y-108056654D01*
X122118345Y-107932684D01*
X121969124Y-107840643D01*
X121969119Y-107840641D01*
X121802697Y-107785494D01*
X121802690Y-107785493D01*
X121699986Y-107775000D01*
X120900000Y-107775000D01*
X120900000Y-108924998D01*
X120839598Y-108899979D01*
X120714019Y-108875000D01*
X120585981Y-108875000D01*
X120460402Y-108899979D01*
X120400000Y-108924998D01*
X120400000Y-107775000D01*
X119600028Y-107775000D01*
X119600012Y-107775001D01*
X119497302Y-107785494D01*
X119330880Y-107840641D01*
X119330875Y-107840643D01*
X119181654Y-107932684D01*
X119057684Y-108056654D01*
X118965643Y-108205875D01*
X118965641Y-108205880D01*
X118910494Y-108372302D01*
X118910493Y-108372309D01*
X118900000Y-108475013D01*
X117475500Y-108475013D01*
X117475500Y-108006000D01*
X115973500Y-108006000D01*
X115973500Y-109091639D01*
X114975500Y-109091639D01*
X114975500Y-108006000D01*
X113473500Y-108006000D01*
X113473500Y-109215217D01*
X112041498Y-109215217D01*
X112069494Y-109210804D01*
X112076200Y-109209934D01*
X112218710Y-109195376D01*
X112221858Y-109195095D01*
X112240900Y-109193639D01*
X112244047Y-109193439D01*
X112269415Y-109192147D01*
X112272570Y-109192026D01*
X112291643Y-109191541D01*
X112294795Y-109191501D01*
X112475500Y-109191500D01*
X112475500Y-108006000D01*
X111723500Y-108006000D01*
X111723500Y-109308090D01*
X110725500Y-109308090D01*
X110725500Y-107008000D01*
X111723500Y-107008000D01*
X112475500Y-107008000D01*
X113473500Y-107008000D01*
X114975500Y-107008000D01*
X115973500Y-107008000D01*
X117475500Y-107008000D01*
X118473500Y-107008000D01*
X118779759Y-107008000D01*
X123473500Y-107008000D01*
X124544399Y-107008000D01*
X124719280Y-106935562D01*
X124723052Y-106934071D01*
X124746012Y-106925429D01*
X124749833Y-106924062D01*
X124780764Y-106913562D01*
X124784625Y-106912321D01*
X124808127Y-106905191D01*
X124812033Y-106904076D01*
X124975500Y-106860275D01*
X124975500Y-106795373D01*
X125973500Y-106795373D01*
X126138703Y-106817123D01*
X126142721Y-106817719D01*
X126166950Y-106821720D01*
X126170942Y-106822446D01*
X126202976Y-106828819D01*
X126206939Y-106829675D01*
X126230831Y-106835246D01*
X126234766Y-106836232D01*
X126487967Y-106904076D01*
X126491873Y-106905191D01*
X126515375Y-106912321D01*
X126519236Y-106913562D01*
X126550167Y-106924062D01*
X126553988Y-106925429D01*
X126576948Y-106934071D01*
X126580720Y-106935562D01*
X126755601Y-107008000D01*
X127475500Y-107008000D01*
X128473500Y-107008000D01*
X129975500Y-107008000D01*
X129975500Y-107001242D01*
X130973500Y-107001242D01*
X130988852Y-106998707D01*
X130992870Y-106998111D01*
X131298254Y-106957906D01*
X131302285Y-106957442D01*
X131326714Y-106955036D01*
X131330760Y-106954704D01*
X131363356Y-106952568D01*
X131367407Y-106952369D01*
X131391938Y-106951566D01*
X131395995Y-106951500D01*
X132475500Y-106951500D01*
X133473500Y-106951500D01*
X134975500Y-106951500D01*
X135973500Y-106951500D01*
X137475500Y-106951500D01*
X138473500Y-106951500D01*
X138954005Y-106951500D01*
X138958062Y-106951566D01*
X138982593Y-106952369D01*
X138986644Y-106952568D01*
X139019240Y-106954704D01*
X139023286Y-106955036D01*
X139047715Y-106957442D01*
X139051746Y-106957906D01*
X139357130Y-106998111D01*
X139361148Y-106998707D01*
X139385377Y-107002708D01*
X139389368Y-107003434D01*
X139412321Y-107008000D01*
X139975500Y-107008000D01*
X140973500Y-107008000D01*
X141726500Y-107008000D01*
X141726500Y-106256000D01*
X140973500Y-106256000D01*
X140973500Y-107008000D01*
X139975500Y-107008000D01*
X139975500Y-106256000D01*
X138473500Y-106256000D01*
X138473500Y-106951500D01*
X137475500Y-106951500D01*
X137475500Y-106256000D01*
X135973500Y-106256000D01*
X135973500Y-106951500D01*
X134975500Y-106951500D01*
X134975500Y-106256000D01*
X133473500Y-106256000D01*
X133473500Y-106951500D01*
X132475500Y-106951500D01*
X132475500Y-106256000D01*
X130973500Y-106256000D01*
X130973500Y-107001242D01*
X129975500Y-107001242D01*
X129975500Y-106256000D01*
X128473500Y-106256000D01*
X128473500Y-107008000D01*
X127475500Y-107008000D01*
X127475500Y-106256000D01*
X125973500Y-106256000D01*
X125973500Y-106795373D01*
X124975500Y-106795373D01*
X124975500Y-106256000D01*
X123473500Y-106256000D01*
X123473500Y-107008000D01*
X118779759Y-107008000D01*
X118831678Y-106975976D01*
X118837926Y-106972369D01*
X118876351Y-106951651D01*
X118882797Y-106948414D01*
X118935443Y-106923866D01*
X118942067Y-106921009D01*
X118982618Y-106904900D01*
X118989393Y-106902434D01*
X119209236Y-106829584D01*
X119215713Y-106827632D01*
X119255208Y-106816896D01*
X119261780Y-106815301D01*
X119315033Y-106803902D01*
X119321683Y-106802667D01*
X119362094Y-106796298D01*
X119368798Y-106795428D01*
X119511240Y-106780877D01*
X119514381Y-106780596D01*
X119533424Y-106779139D01*
X119536577Y-106778939D01*
X119561945Y-106777647D01*
X119565100Y-106777526D01*
X119584173Y-106777041D01*
X119587325Y-106777001D01*
X119975500Y-106777000D01*
X120973500Y-106777000D01*
X121712674Y-106777000D01*
X121715826Y-106777040D01*
X121734897Y-106777525D01*
X121738051Y-106777645D01*
X121763422Y-106778937D01*
X121766573Y-106779138D01*
X121785622Y-106780595D01*
X121788768Y-106780876D01*
X121931224Y-106795430D01*
X121937933Y-106796301D01*
X121978367Y-106802676D01*
X121985018Y-106803912D01*
X122038267Y-106815314D01*
X122044835Y-106816908D01*
X122084303Y-106827638D01*
X122090776Y-106829589D01*
X122310605Y-106902433D01*
X122317382Y-106904900D01*
X122357934Y-106921010D01*
X122364555Y-106923865D01*
X122417202Y-106948413D01*
X122423649Y-106951651D01*
X122462074Y-106972369D01*
X122468322Y-106975976D01*
X122475500Y-106980403D01*
X122475500Y-106256000D01*
X120973500Y-106256000D01*
X120973500Y-106777000D01*
X119975500Y-106777000D01*
X119975500Y-106256000D01*
X118473500Y-106256000D01*
X118473500Y-107008000D01*
X117475500Y-107008000D01*
X117475500Y-106256000D01*
X115973500Y-106256000D01*
X115973500Y-107008000D01*
X114975500Y-107008000D01*
X114975500Y-106256000D01*
X113473500Y-106256000D01*
X113473500Y-107008000D01*
X112475500Y-107008000D01*
X112475500Y-106256000D01*
X111723500Y-106256000D01*
X111723500Y-107008000D01*
X110725500Y-107008000D01*
X110725500Y-105382000D01*
X110745185Y-105314961D01*
X110797989Y-105269206D01*
X110849500Y-105258000D01*
X142600500Y-105258000D01*
X142667539Y-105277685D01*
G37*
%TD.AperFunction*%
%TD*%
M02*
