%TF.GenerationSoftware,KiCad,Pcbnew,9.0.6*%
%TF.CreationDate,2026-07-20T21:05:45+05:00*%
%TF.ProjectId,HLT8012-Interface-board,484c5438-3031-4322-9d49-6e7465726661,rev?*%
%TF.SameCoordinates,Original*%
%TF.FileFunction,Copper,L1,Top*%
%TF.FilePolarity,Negative*%
%FSLAX46Y46*%
G04 Gerber Fmt 4.6, Leading zero omitted, Abs format (unit mm)*
G04 Created by KiCad (PCBNEW 9.0.6) date 2026-07-20 21:05:45*
%MOMM*%
%LPD*%
G01*
G04 APERTURE LIST*
G04 Aperture macros list*
%AMRoundRect*
0 Rectangle with rounded corners*
0 $1 Rounding radius*
0 $2 $3 $4 $5 $6 $7 $8 $9 X,Y pos of 4 corners*
0 Add a 4 corners polygon primitive as box body*
4,1,4,$2,$3,$4,$5,$6,$7,$8,$9,$2,$3,0*
0 Add four circle primitives for the rounded corners*
1,1,$1+$1,$2,$3*
1,1,$1+$1,$4,$5*
1,1,$1+$1,$6,$7*
1,1,$1+$1,$8,$9*
0 Add four rect primitives between the rounded corners*
20,1,$1+$1,$2,$3,$4,$5,0*
20,1,$1+$1,$4,$5,$6,$7,0*
20,1,$1+$1,$6,$7,$8,$9,0*
20,1,$1+$1,$8,$9,$2,$3,0*%
G04 Aperture macros list end*
%TA.AperFunction,ComponentPad*%
%ADD10RoundRect,0.250000X0.550000X0.550000X-0.550000X0.550000X-0.550000X-0.550000X0.550000X-0.550000X0*%
%TD*%
%TA.AperFunction,ComponentPad*%
%ADD11C,1.600000*%
%TD*%
%TA.AperFunction,ComponentPad*%
%ADD12C,1.400000*%
%TD*%
%TA.AperFunction,ComponentPad*%
%ADD13RoundRect,0.250000X-1.000000X1.000000X-1.000000X-1.000000X1.000000X-1.000000X1.000000X1.000000X0*%
%TD*%
%TA.AperFunction,ComponentPad*%
%ADD14C,2.500000*%
%TD*%
%TA.AperFunction,SMDPad,CuDef*%
%ADD15RoundRect,0.375000X0.375000X-0.625000X0.375000X0.625000X-0.375000X0.625000X-0.375000X-0.625000X0*%
%TD*%
%TA.AperFunction,SMDPad,CuDef*%
%ADD16RoundRect,0.500000X1.400000X-0.500000X1.400000X0.500000X-1.400000X0.500000X-1.400000X-0.500000X0*%
%TD*%
%TA.AperFunction,ComponentPad*%
%ADD17RoundRect,0.650000X-0.650000X0.650000X-0.650000X-0.650000X0.650000X-0.650000X0.650000X0.650000X0*%
%TD*%
%TA.AperFunction,ComponentPad*%
%ADD18C,2.600000*%
%TD*%
%TA.AperFunction,ComponentPad*%
%ADD19RoundRect,0.250000X-0.550000X-0.550000X0.550000X-0.550000X0.550000X0.550000X-0.550000X0.550000X0*%
%TD*%
%TA.AperFunction,ComponentPad*%
%ADD20RoundRect,0.250000X0.550000X-0.550000X0.550000X0.550000X-0.550000X0.550000X-0.550000X-0.550000X0*%
%TD*%
%TA.AperFunction,SMDPad,CuDef*%
%ADD21RoundRect,0.249999X0.450001X1.425001X-0.450001X1.425001X-0.450001X-1.425001X0.450001X-1.425001X0*%
%TD*%
%TA.AperFunction,ComponentPad*%
%ADD22C,3.000000*%
%TD*%
%TA.AperFunction,ComponentPad*%
%ADD23R,1.050000X1.500000*%
%TD*%
%TA.AperFunction,ComponentPad*%
%ADD24O,1.050000X1.500000*%
%TD*%
%TA.AperFunction,SMDPad,CuDef*%
%ADD25R,0.650000X1.525000*%
%TD*%
%TA.AperFunction,SMDPad,CuDef*%
%ADD26RoundRect,0.375000X-0.375000X0.625000X-0.375000X-0.625000X0.375000X-0.625000X0.375000X0.625000X0*%
%TD*%
%TA.AperFunction,SMDPad,CuDef*%
%ADD27RoundRect,0.500000X-1.400000X0.500000X-1.400000X-0.500000X1.400000X-0.500000X1.400000X0.500000X0*%
%TD*%
%TA.AperFunction,ComponentPad*%
%ADD28R,1.508000X1.508000*%
%TD*%
%TA.AperFunction,ComponentPad*%
%ADD29C,1.508000*%
%TD*%
%TA.AperFunction,Conductor*%
%ADD30C,0.200000*%
%TD*%
%TA.AperFunction,Conductor*%
%ADD31C,1.500000*%
%TD*%
G04 APERTURE END LIST*
D10*
%TO.P,C2,1*%
%TO.N,GND*%
X143828856Y-70800000D03*
D11*
%TO.P,C2,2*%
%TO.N,Net-(U1-V1P)*%
X141328856Y-70800000D03*
%TD*%
D10*
%TO.P,C3,1*%
%TO.N,Net-(U1-V1N)*%
X149428856Y-71750000D03*
D11*
%TO.P,C3,2*%
%TO.N,GND*%
X146928856Y-71750000D03*
%TD*%
D10*
%TO.P,C6,1*%
%TO.N,+3.3V*%
X113628856Y-73400000D03*
D11*
%TO.P,C6,2*%
%TO.N,GND*%
X111128856Y-73400000D03*
%TD*%
D12*
%TO.P,R18,1*%
%TO.N,+3.3V*%
X138740000Y-90400000D03*
%TO.P,R18,2*%
%TO.N,Net-(U2-GPIO2)*%
X133660000Y-90400000D03*
%TD*%
D13*
%TO.P,J4,1,Pin_1*%
%TO.N,GND*%
X110832500Y-88750000D03*
D14*
%TO.P,J4,2,Pin_2*%
%TO.N,+12V*%
X110832500Y-93750000D03*
%TD*%
D15*
%TO.P,U4,1,GND*%
%TO.N,GND*%
X117150000Y-88650000D03*
%TO.P,U4,2,VO*%
%TO.N,+5V*%
X119450000Y-88650000D03*
D16*
X119450000Y-82350000D03*
D15*
%TO.P,U4,3,VI*%
%TO.N,+12V*%
X121750000Y-88650000D03*
%TD*%
D13*
%TO.P,J3,1,Pin_1*%
%TO.N,-AC*%
X110732500Y-62300000D03*
D14*
%TO.P,J3,2,Pin_2*%
%TO.N,/LOAD*%
X110732500Y-67300000D03*
%TD*%
D12*
%TO.P,R9,1*%
%TO.N,/LOAD*%
X135200000Y-65460000D03*
%TO.P,R9,2*%
%TO.N,Net-(U1-V1N)*%
X135200000Y-70540000D03*
%TD*%
D17*
%TO.P,JP1,1,A*%
%TO.N,Net-(JP1-A)*%
X125000000Y-78460000D03*
D18*
%TO.P,JP1,2,B*%
%TO.N,+5V*%
X125000000Y-83540000D03*
%TD*%
D12*
%TO.P,R2,1*%
%TO.N,Net-(R2-Pad1)*%
X120300000Y-55540000D03*
%TO.P,R2,2*%
%TO.N,Net-(R1-Pad1)*%
X120300000Y-50460000D03*
%TD*%
D19*
%TO.P,C8,1*%
%TO.N,+5V*%
X116971144Y-93000000D03*
D11*
%TO.P,C8,2*%
%TO.N,GND*%
X119471144Y-93000000D03*
%TD*%
D12*
%TO.P,R13,1*%
%TO.N,Net-(U1-CF1)*%
X134960000Y-85250000D03*
%TO.P,R13,2*%
%TO.N,CF1*%
X140040000Y-85250000D03*
%TD*%
D19*
%TO.P,C10,1*%
%TO.N,+12V*%
X122221144Y-92750000D03*
D11*
%TO.P,C10,2*%
%TO.N,GND*%
X124721144Y-92750000D03*
%TD*%
D12*
%TO.P,R3,1*%
%TO.N,Net-(R3-Pad1)*%
X123450000Y-55540000D03*
%TO.P,R3,2*%
%TO.N,Net-(R2-Pad1)*%
X123450000Y-50460000D03*
%TD*%
D20*
%TO.P,C1,1*%
%TO.N,V2P*%
X140050000Y-53478856D03*
D11*
%TO.P,C1,2*%
%TO.N,GND*%
X140050000Y-50978856D03*
%TD*%
D21*
%TO.P,R10,1*%
%TO.N,+AC*%
X140000000Y-61500000D03*
%TO.P,R10,2*%
%TO.N,/LOAD*%
X133900000Y-61500000D03*
%TD*%
D12*
%TO.P,R11,1*%
%TO.N,Net-(R11-Pad1)*%
X132750000Y-55540000D03*
%TO.P,R11,2*%
%TO.N,V2P*%
X132750000Y-50460000D03*
%TD*%
%TO.P,R14,1*%
%TO.N,CF1*%
X140000000Y-83140000D03*
%TO.P,R14,2*%
%TO.N,GND*%
X140000000Y-78060000D03*
%TD*%
D19*
%TO.P,C4,1*%
%TO.N,+5V*%
X111971144Y-79400000D03*
D11*
%TO.P,C4,2*%
%TO.N,GND*%
X114471144Y-79400000D03*
%TD*%
D12*
%TO.P,R1,1*%
%TO.N,Net-(R1-Pad1)*%
X117150000Y-55540000D03*
%TO.P,R1,2*%
%TO.N,-AC*%
X117150000Y-50460000D03*
%TD*%
%TO.P,R7,1*%
%TO.N,V2P*%
X135500000Y-55540000D03*
%TO.P,R7,2*%
%TO.N,GND*%
X135500000Y-50460000D03*
%TD*%
%TO.P,R12,1*%
%TO.N,Net-(Q1-D)*%
X133800000Y-80140000D03*
%TO.P,R12,2*%
%TO.N,Net-(JP1-A)*%
X133800000Y-75060000D03*
%TD*%
D22*
%TO.P,J1,1,Pin_1*%
%TO.N,+AC*%
X148200000Y-54250000D03*
%TD*%
D12*
%TO.P,R5,1*%
%TO.N,Net-(R4-Pad2)*%
X129750000Y-55540000D03*
%TO.P,R5,2*%
%TO.N,Net-(R11-Pad1)*%
X129750000Y-50460000D03*
%TD*%
D23*
%TO.P,Q1,1,S*%
%TO.N,SEL*%
X147470000Y-77890000D03*
D24*
%TO.P,Q1,2,G*%
%TO.N,+3.3V*%
X146200000Y-77890000D03*
%TO.P,Q1,3,D*%
%TO.N,Net-(Q1-D)*%
X144930000Y-77890000D03*
%TD*%
D12*
%TO.P,R6,1*%
%TO.N,SEL*%
X150000000Y-80740000D03*
%TO.P,R6,2*%
%TO.N,+3.3V*%
X150000000Y-75660000D03*
%TD*%
%TO.P,R4,1*%
%TO.N,Net-(R3-Pad1)*%
X126600000Y-55540000D03*
%TO.P,R4,2*%
%TO.N,Net-(R4-Pad2)*%
X126600000Y-50460000D03*
%TD*%
%TO.P,R17,1*%
%TO.N,Net-(U2-~{RST})*%
X109250000Y-81040000D03*
%TO.P,R17,2*%
%TO.N,+3.3V*%
X109250000Y-75960000D03*
%TD*%
%TO.P,R8,1*%
%TO.N,+AC*%
X138700000Y-65460000D03*
%TO.P,R8,2*%
%TO.N,Net-(U1-V1P)*%
X138700000Y-70540000D03*
%TD*%
D22*
%TO.P,J2,1,Pin_1*%
%TO.N,-AC*%
X110450000Y-54250000D03*
%TD*%
D12*
%TO.P,R19,1*%
%TO.N,Net-(U2-CH_PD)*%
X114790000Y-84500000D03*
%TO.P,R19,2*%
%TO.N,+3.3V*%
X109710000Y-84500000D03*
%TD*%
D25*
%TO.P,U1,1,VDD*%
%TO.N,Net-(JP1-A)*%
X131855000Y-74788000D03*
%TO.P,U1,2,V1P*%
%TO.N,Net-(U1-V1P)*%
X130585000Y-74788000D03*
%TO.P,U1,3,V1N*%
%TO.N,Net-(U1-V1N)*%
X129315000Y-74788000D03*
%TO.P,U1,4,V2P*%
%TO.N,V2P*%
X128045000Y-74788000D03*
%TO.P,U1,5,GND*%
%TO.N,GND*%
X128045000Y-80212000D03*
%TO.P,U1,6,CF*%
%TO.N,Net-(U1-CF)*%
X129315000Y-80212000D03*
%TO.P,U1,7,CF1*%
%TO.N,Net-(U1-CF1)*%
X130585000Y-80212000D03*
%TO.P,U1,8,SEL*%
%TO.N,Net-(Q1-D)*%
X131855000Y-80212000D03*
%TD*%
D12*
%TO.P,R15,1*%
%TO.N,GND*%
X142200000Y-74460000D03*
%TO.P,R15,2*%
%TO.N,CF*%
X142200000Y-79540000D03*
%TD*%
%TO.P,R16,1*%
%TO.N,CF*%
X136500000Y-80140000D03*
%TO.P,R16,2*%
%TO.N,Net-(U1-CF)*%
X136500000Y-75060000D03*
%TD*%
D26*
%TO.P,U3,1,GND*%
%TO.N,GND*%
X121750000Y-73350000D03*
%TO.P,U3,2,VO*%
%TO.N,+3.3V*%
X119450000Y-73350000D03*
D27*
X119450000Y-79650000D03*
D26*
%TO.P,U3,3,VI*%
%TO.N,+5V*%
X117150000Y-73350000D03*
%TD*%
D28*
%TO.P,U2,1,GND*%
%TO.N,GND*%
X131140000Y-93310000D03*
D29*
%TO.P,U2,2,GPIO2*%
%TO.N,Net-(U2-GPIO2)*%
X131140000Y-90770000D03*
%TO.P,U2,3,GPIO0*%
%TO.N,SEL*%
X131140000Y-88230000D03*
%TO.P,U2,4,RXD*%
%TO.N,CF1*%
X131140000Y-85690000D03*
%TO.P,U2,5,VCC*%
%TO.N,+3.3V*%
X128600000Y-85690000D03*
%TO.P,U2,6,~{RST}*%
%TO.N,Net-(U2-~{RST})*%
X128600000Y-88230000D03*
%TO.P,U2,7,CH_PD*%
%TO.N,Net-(U2-CH_PD)*%
X128600000Y-90770000D03*
%TO.P,U2,8,TXD*%
%TO.N,CF*%
X128600000Y-93310000D03*
%TD*%
D30*
%TO.N,V2P*%
X135500000Y-55540000D02*
X137988856Y-55540000D01*
X132750000Y-52790000D02*
X135500000Y-55540000D01*
X136950000Y-62000000D02*
X137000000Y-61950000D01*
X134681819Y-66711000D02*
X135718181Y-66711000D01*
X137988856Y-55540000D02*
X140050000Y-53478856D01*
X140050000Y-55700000D02*
X140050000Y-53478856D01*
X135718181Y-66711000D02*
X136950000Y-65479181D01*
X136950000Y-65479181D02*
X136950000Y-62000000D01*
X128045000Y-74788000D02*
X128045000Y-73347819D01*
X137000000Y-61950000D02*
X137000000Y-58750000D01*
X132750000Y-50460000D02*
X132750000Y-52790000D01*
X137000000Y-58750000D02*
X140050000Y-55700000D01*
X128045000Y-73347819D02*
X134681819Y-66711000D01*
%TO.N,Net-(U1-V1P)*%
X138960000Y-70800000D02*
X138700000Y-70540000D01*
X141328856Y-70800000D02*
X138960000Y-70800000D01*
X141188856Y-70540000D02*
X141328856Y-70400000D01*
X130585000Y-74788000D02*
X130585000Y-73825500D01*
X130585000Y-73825500D02*
X132660500Y-71750000D01*
X137490000Y-71750000D02*
X138700000Y-70540000D01*
X132660500Y-71750000D02*
X137490000Y-71750000D01*
%TO.N,Net-(U1-V1N)*%
X146928856Y-69250000D02*
X136490000Y-69250000D01*
X135160000Y-70500000D02*
X135200000Y-70540000D01*
X136490000Y-69250000D02*
X135200000Y-70540000D01*
X129315000Y-73825500D02*
X132600500Y-70540000D01*
X135315000Y-70655000D02*
X135200000Y-70540000D01*
X132600500Y-70540000D02*
X135200000Y-70540000D01*
X129315000Y-74788000D02*
X129315000Y-73825500D01*
X149428856Y-71750000D02*
X146928856Y-69250000D01*
D31*
%TO.N,+AC*%
X148200000Y-54250000D02*
X147250000Y-54250000D01*
X138700000Y-65460000D02*
X138700000Y-62800000D01*
X138700000Y-62800000D02*
X140000000Y-61500000D01*
X147250000Y-54250000D02*
X140000000Y-61500000D01*
%TO.N,-AC*%
X110450000Y-54250000D02*
X113360000Y-54250000D01*
X110732500Y-55782500D02*
X110450000Y-55500000D01*
X110732500Y-62300000D02*
X110732500Y-55782500D01*
X113360000Y-54250000D02*
X117150000Y-50460000D01*
X110450000Y-55500000D02*
X110450000Y-54250000D01*
%TO.N,/LOAD*%
X128100000Y-67300000D02*
X133900000Y-61500000D01*
X110732500Y-67300000D02*
X128100000Y-67300000D01*
X135200000Y-65460000D02*
X135200000Y-62800000D01*
X135200000Y-62800000D02*
X133900000Y-61500000D01*
D30*
%TO.N,+5V*%
X111971144Y-79400000D02*
X111971144Y-78528856D01*
X111971144Y-79771144D02*
X113900000Y-81700000D01*
X113900000Y-81700000D02*
X118800000Y-81700000D01*
X119510000Y-82290000D02*
X119450000Y-82350000D01*
X116971144Y-93000000D02*
X116971144Y-91128856D01*
X116971144Y-91128856D02*
X119450000Y-88650000D01*
X111971144Y-79400000D02*
X111971144Y-79771144D01*
X123810000Y-82350000D02*
X125000000Y-83540000D01*
X119450000Y-82350000D02*
X123810000Y-82350000D01*
X113871144Y-81700000D02*
X113900000Y-81700000D01*
X119050000Y-82350000D02*
X118950000Y-82250000D01*
X111971144Y-78528856D02*
X117150000Y-73350000D01*
X118800000Y-81700000D02*
X119450000Y-82350000D01*
X119450000Y-82350000D02*
X119050000Y-82350000D01*
%TO.N,Net-(R1-Pad1)*%
X120300000Y-50460000D02*
X120300000Y-52390000D01*
X120300000Y-52390000D02*
X117150000Y-55540000D01*
%TO.N,Net-(R2-Pad1)*%
X120300000Y-55540000D02*
X120300000Y-53610000D01*
X120300000Y-53610000D02*
X123450000Y-50460000D01*
%TO.N,Net-(R3-Pad1)*%
X126600000Y-55540000D02*
X123450000Y-55540000D01*
%TO.N,Net-(R4-Pad2)*%
X126600000Y-52390000D02*
X129750000Y-55540000D01*
X126600000Y-50460000D02*
X126600000Y-52390000D01*
%TO.N,CF*%
X142200000Y-79540000D02*
X142200000Y-78550051D01*
X136700000Y-80340000D02*
X136500000Y-80140000D01*
X146291051Y-74459000D02*
X150547471Y-74459000D01*
X129885000Y-92025000D02*
X128600000Y-93310000D01*
X137100000Y-79540000D02*
X136500000Y-80140000D01*
X142200000Y-79540000D02*
X137100000Y-79540000D01*
X151200000Y-75111529D02*
X151200000Y-85200000D01*
X144375000Y-92025000D02*
X129885000Y-92025000D01*
X142200000Y-78550051D02*
X146291051Y-74459000D01*
X151200000Y-85200000D02*
X144375000Y-92025000D01*
X150547471Y-74459000D02*
X151200000Y-75111529D01*
%TO.N,CF1*%
X140000000Y-84000000D02*
X140000000Y-85210000D01*
X140000000Y-85210000D02*
X140040000Y-85250000D01*
X140000000Y-83140000D02*
X140000000Y-84000000D01*
X136948000Y-87052000D02*
X140000000Y-84000000D01*
X131140000Y-85690000D02*
X132502000Y-87052000D01*
X132502000Y-87052000D02*
X136948000Y-87052000D01*
%TO.N,SEL*%
X148200000Y-80800000D02*
X148260000Y-80740000D01*
X142361529Y-88230000D02*
X147470000Y-83121529D01*
X148260000Y-80740000D02*
X150000000Y-80740000D01*
X131140000Y-88230000D02*
X142361529Y-88230000D01*
X147470000Y-80070000D02*
X148200000Y-80800000D01*
X147470000Y-77890000D02*
X147470000Y-80070000D01*
X147470000Y-83121529D02*
X147470000Y-80070000D01*
%TO.N,+12V*%
X121950000Y-95750000D02*
X122221144Y-95478856D01*
X112832500Y-95750000D02*
X121950000Y-95750000D01*
X122221144Y-92750000D02*
X122221144Y-89121144D01*
X122221144Y-95478856D02*
X122221144Y-92750000D01*
X110832500Y-93750000D02*
X112832500Y-95750000D01*
X122221144Y-89121144D02*
X121750000Y-88650000D01*
%TO.N,+3.3V*%
X129981000Y-84309000D02*
X132320529Y-84309000D01*
X128600000Y-85690000D02*
X129981000Y-84309000D01*
X134462529Y-86451000D02*
X135457471Y-86451000D01*
X109250000Y-75960000D02*
X111068856Y-75960000D01*
X129855000Y-86945000D02*
X128600000Y-85690000D01*
X109710000Y-84500000D02*
X108049000Y-82839000D01*
X131945839Y-89199000D02*
X131659839Y-89485000D01*
X130620161Y-89485000D02*
X129855000Y-88719839D01*
X129855000Y-88719839D02*
X129855000Y-86945000D01*
X135457471Y-86451000D02*
X138799000Y-83109471D01*
X108049000Y-82839000D02*
X108049000Y-77161000D01*
X139700529Y-81741000D02*
X143547413Y-81741000D01*
X108049000Y-77161000D02*
X109250000Y-75960000D01*
X132320529Y-84309000D02*
X134462529Y-86451000D01*
X143547413Y-81741000D02*
X146200000Y-79088413D01*
X138740000Y-90400000D02*
X137539000Y-89199000D01*
X128600000Y-84593001D02*
X124656999Y-80650000D01*
X118800000Y-74000000D02*
X119450000Y-73350000D01*
X117949000Y-71849000D02*
X119450000Y-73350000D01*
X128600000Y-85690000D02*
X129310000Y-85690000D01*
X131659839Y-89485000D02*
X130620161Y-89485000D01*
X138799000Y-82642529D02*
X139700529Y-81741000D01*
X146200000Y-77890000D02*
X146200000Y-76883000D01*
X111068856Y-75960000D02*
X113628856Y-73400000D01*
X128600000Y-85690000D02*
X128600000Y-84593001D01*
X146200000Y-79088413D02*
X146200000Y-77890000D01*
X115179856Y-71849000D02*
X117949000Y-71849000D01*
X124656999Y-80650000D02*
X120450000Y-80650000D01*
X137539000Y-89199000D02*
X131945839Y-89199000D01*
X120450000Y-80650000D02*
X119450000Y-79650000D01*
X138799000Y-83109471D02*
X138799000Y-82642529D01*
X150000000Y-75660000D02*
X147423000Y-75660000D01*
X113628856Y-73400000D02*
X115179856Y-71849000D01*
X146200000Y-76883000D02*
X147423000Y-75660000D01*
%TO.N,Net-(U2-~{RST})*%
X110511000Y-82301000D02*
X114629914Y-82301000D01*
X125711000Y-85341000D02*
X128600000Y-88230000D01*
X117669914Y-85341000D02*
X125711000Y-85341000D01*
X114629914Y-82301000D02*
X117669914Y-85341000D01*
X109250000Y-81040000D02*
X110511000Y-82301000D01*
%TO.N,Net-(Q1-D)*%
X137198471Y-81140000D02*
X136997471Y-81341000D01*
X136997471Y-81341000D02*
X135001000Y-81341000D01*
X144930000Y-78870000D02*
X142660000Y-81140000D01*
X132183000Y-80540000D02*
X131855000Y-80212000D01*
X133800000Y-80140000D02*
X132583000Y-80140000D01*
X142660000Y-81140000D02*
X137198471Y-81140000D01*
X144930000Y-77890000D02*
X144930000Y-78870000D01*
X135001000Y-81341000D02*
X133800000Y-80140000D01*
X132583000Y-80140000D02*
X132183000Y-80540000D01*
%TO.N,Net-(R11-Pad1)*%
X129750000Y-50460000D02*
X129750000Y-52540000D01*
X129750000Y-52540000D02*
X132750000Y-55540000D01*
%TO.N,Net-(JP1-A)*%
X125000000Y-77000000D02*
X125750000Y-76250000D01*
X132127000Y-75060000D02*
X131855000Y-74788000D01*
X133800000Y-75060000D02*
X132127000Y-75060000D01*
X131855000Y-75750500D02*
X131855000Y-74788000D01*
X125000000Y-78460000D02*
X125000000Y-77000000D01*
X131355500Y-76250000D02*
X131855000Y-75750500D01*
X125750000Y-76250000D02*
X131355500Y-76250000D01*
%TO.N,Net-(U2-GPIO2)*%
X131140000Y-90770000D02*
X133440000Y-90770000D01*
X133440000Y-90770000D02*
X133750000Y-90460000D01*
%TO.N,Net-(U1-CF)*%
X135800000Y-78600000D02*
X130200000Y-78600000D01*
X130200000Y-78600000D02*
X129315000Y-79485000D01*
X136500000Y-77900000D02*
X135800000Y-78600000D01*
X129315000Y-79485000D02*
X129315000Y-80212000D01*
X136500000Y-75060000D02*
X136500000Y-77900000D01*
%TO.N,Net-(U1-CF1)*%
X134960000Y-85250000D02*
X130585000Y-80875000D01*
X130585000Y-80875000D02*
X130585000Y-80212000D01*
%TO.N,Net-(U2-CH_PD)*%
X116232000Y-85942000D02*
X123772000Y-85942000D01*
X123772000Y-85942000D02*
X128600000Y-90770000D01*
X114790000Y-84500000D02*
X116232000Y-85942000D01*
%TD*%
%TA.AperFunction,Conductor*%
%TO.N,GND*%
G36*
X116208703Y-49420185D02*
G01*
X116254458Y-49472989D01*
X116264402Y-49542147D01*
X116235377Y-49605703D01*
X116229345Y-49612181D01*
X112878345Y-52963181D01*
X112817022Y-52996666D01*
X112790664Y-52999500D01*
X112073182Y-52999500D01*
X112006143Y-52979815D01*
X111974808Y-52950989D01*
X111973332Y-52949066D01*
X111957282Y-52928149D01*
X111957277Y-52928144D01*
X111957274Y-52928140D01*
X111771860Y-52742726D01*
X111771851Y-52742718D01*
X111563803Y-52583075D01*
X111336700Y-52451958D01*
X111336690Y-52451953D01*
X111094428Y-52351605D01*
X111094421Y-52351603D01*
X111094419Y-52351602D01*
X110841116Y-52283730D01*
X110783339Y-52276123D01*
X110581127Y-52249500D01*
X110581120Y-52249500D01*
X110318880Y-52249500D01*
X110318872Y-52249500D01*
X110087772Y-52279926D01*
X110058884Y-52283730D01*
X109863268Y-52336145D01*
X109805581Y-52351602D01*
X109805571Y-52351605D01*
X109563309Y-52451953D01*
X109563299Y-52451958D01*
X109336196Y-52583075D01*
X109128148Y-52742718D01*
X108942718Y-52928148D01*
X108783075Y-53136196D01*
X108651958Y-53363299D01*
X108651953Y-53363309D01*
X108551605Y-53605571D01*
X108551602Y-53605581D01*
X108483730Y-53858885D01*
X108449500Y-54118872D01*
X108449500Y-54381127D01*
X108464969Y-54498617D01*
X108483730Y-54641116D01*
X108550691Y-54891018D01*
X108551602Y-54894418D01*
X108551605Y-54894428D01*
X108651953Y-55136690D01*
X108651958Y-55136700D01*
X108783075Y-55363803D01*
X108942718Y-55571851D01*
X108942726Y-55571860D01*
X109128143Y-55757277D01*
X109128147Y-55757280D01*
X109128149Y-55757282D01*
X109156527Y-55779057D01*
X109218284Y-55826445D01*
X109259486Y-55882873D01*
X109260728Y-55886502D01*
X109291117Y-55980030D01*
X109380476Y-56155405D01*
X109458318Y-56262545D01*
X109481798Y-56328350D01*
X109482000Y-56335430D01*
X109482000Y-60504091D01*
X109462315Y-60571130D01*
X109418231Y-60609641D01*
X109419313Y-60611395D01*
X109413167Y-60615185D01*
X109413166Y-60615186D01*
X109314919Y-60675784D01*
X109263842Y-60707289D01*
X109139789Y-60831342D01*
X109047687Y-60980663D01*
X109047686Y-60980666D01*
X108992501Y-61147203D01*
X108992501Y-61147204D01*
X108992500Y-61147204D01*
X108982000Y-61249983D01*
X108982000Y-63350001D01*
X108982001Y-63350018D01*
X108992500Y-63452796D01*
X108992501Y-63452799D01*
X109044531Y-63609812D01*
X109047686Y-63619334D01*
X109139788Y-63768656D01*
X109263844Y-63892712D01*
X109413166Y-63984814D01*
X109579703Y-64039999D01*
X109682491Y-64050500D01*
X111782508Y-64050499D01*
X111885297Y-64039999D01*
X112051834Y-63984814D01*
X112201156Y-63892712D01*
X112325212Y-63768656D01*
X112417314Y-63619334D01*
X112472499Y-63452797D01*
X112483000Y-63350009D01*
X112482999Y-61249992D01*
X112472499Y-61147203D01*
X112417314Y-60980666D01*
X112325212Y-60831344D01*
X112201156Y-60707288D01*
X112051834Y-60615186D01*
X112051832Y-60615185D01*
X112045687Y-60611395D01*
X112046790Y-60609605D01*
X112002149Y-60570290D01*
X111983000Y-60504091D01*
X111983000Y-55684084D01*
X111976635Y-55643898D01*
X111985589Y-55574605D01*
X112030585Y-55521153D01*
X112097337Y-55500513D01*
X112099108Y-55500500D01*
X113458422Y-55500500D01*
X113652826Y-55469709D01*
X113661345Y-55466941D01*
X113840026Y-55408884D01*
X114015405Y-55319524D01*
X114174646Y-55203828D01*
X118103828Y-51274646D01*
X118219523Y-51115406D01*
X118308883Y-50940026D01*
X118369709Y-50752827D01*
X118386504Y-50646785D01*
X118400500Y-50558422D01*
X118400500Y-50361578D01*
X118371563Y-50178882D01*
X118369709Y-50167174D01*
X118308883Y-49979974D01*
X118308881Y-49979971D01*
X118308881Y-49979969D01*
X118261741Y-49887454D01*
X118219523Y-49804595D01*
X118103828Y-49645355D01*
X118070654Y-49612181D01*
X118037169Y-49550858D01*
X118042153Y-49481166D01*
X118084025Y-49425233D01*
X118149489Y-49400816D01*
X118158335Y-49400500D01*
X119362375Y-49400500D01*
X119429414Y-49420185D01*
X119475169Y-49472989D01*
X119485113Y-49542147D01*
X119456088Y-49605703D01*
X119450056Y-49612181D01*
X119384312Y-49677924D01*
X119384312Y-49677925D01*
X119384310Y-49677927D01*
X119336610Y-49743579D01*
X119273240Y-49830800D01*
X119187454Y-49999163D01*
X119129059Y-50178881D01*
X119099500Y-50365513D01*
X119099500Y-50554486D01*
X119129059Y-50741118D01*
X119187454Y-50920836D01*
X119273240Y-51089199D01*
X119384310Y-51242073D01*
X119517927Y-51375690D01*
X119648386Y-51470474D01*
X119691051Y-51525803D01*
X119699500Y-51570791D01*
X119699500Y-52089902D01*
X119679815Y-52156941D01*
X119663181Y-52177583D01*
X117510830Y-54329933D01*
X117449507Y-54363418D01*
X117403751Y-54364725D01*
X117244486Y-54339500D01*
X117244481Y-54339500D01*
X117055519Y-54339500D01*
X117055514Y-54339500D01*
X116868881Y-54369059D01*
X116689163Y-54427454D01*
X116520800Y-54513240D01*
X116433579Y-54576610D01*
X116367927Y-54624310D01*
X116367925Y-54624312D01*
X116367924Y-54624312D01*
X116234312Y-54757924D01*
X116234312Y-54757925D01*
X116234310Y-54757927D01*
X116218779Y-54779304D01*
X116123240Y-54910800D01*
X116037454Y-55079163D01*
X115979059Y-55258881D01*
X115949500Y-55445513D01*
X115949500Y-55634486D01*
X115979059Y-55821118D01*
X116037454Y-56000836D01*
X116087766Y-56099577D01*
X116123240Y-56169199D01*
X116234310Y-56322073D01*
X116367927Y-56455690D01*
X116520801Y-56566760D01*
X116600347Y-56607290D01*
X116689163Y-56652545D01*
X116689165Y-56652545D01*
X116689168Y-56652547D01*
X116785497Y-56683846D01*
X116868881Y-56710940D01*
X117055514Y-56740500D01*
X117055519Y-56740500D01*
X117244486Y-56740500D01*
X117431118Y-56710940D01*
X117610832Y-56652547D01*
X117779199Y-56566760D01*
X117932073Y-56455690D01*
X118065690Y-56322073D01*
X118176760Y-56169199D01*
X118262547Y-56000832D01*
X118320940Y-55821118D01*
X118327602Y-55779055D01*
X118350500Y-55634486D01*
X118350500Y-55445513D01*
X118325274Y-55286246D01*
X118334228Y-55216953D01*
X118360065Y-55179169D01*
X119487820Y-54051413D01*
X119549142Y-54017930D01*
X119618834Y-54022914D01*
X119674767Y-54064786D01*
X119699184Y-54130250D01*
X119699500Y-54139096D01*
X119699500Y-54429207D01*
X119679815Y-54496246D01*
X119648386Y-54529525D01*
X119517925Y-54624311D01*
X119384312Y-54757924D01*
X119384312Y-54757925D01*
X119384310Y-54757927D01*
X119368779Y-54779304D01*
X119273240Y-54910800D01*
X119187454Y-55079163D01*
X119129059Y-55258881D01*
X119099500Y-55445513D01*
X119099500Y-55634486D01*
X119129059Y-55821118D01*
X119187454Y-56000836D01*
X119237766Y-56099577D01*
X119273240Y-56169199D01*
X119384310Y-56322073D01*
X119517927Y-56455690D01*
X119670801Y-56566760D01*
X119750347Y-56607290D01*
X119839163Y-56652545D01*
X119839165Y-56652545D01*
X119839168Y-56652547D01*
X119935497Y-56683846D01*
X120018881Y-56710940D01*
X120205514Y-56740500D01*
X120205519Y-56740500D01*
X120394486Y-56740500D01*
X120581118Y-56710940D01*
X120760832Y-56652547D01*
X120929199Y-56566760D01*
X121082073Y-56455690D01*
X121215690Y-56322073D01*
X121326760Y-56169199D01*
X121412547Y-56000832D01*
X121470940Y-55821118D01*
X121477602Y-55779055D01*
X121500500Y-55634486D01*
X121500500Y-55445513D01*
X122249500Y-55445513D01*
X122249500Y-55634486D01*
X122279059Y-55821118D01*
X122337454Y-56000836D01*
X122387766Y-56099577D01*
X122423240Y-56169199D01*
X122534310Y-56322073D01*
X122667927Y-56455690D01*
X122820801Y-56566760D01*
X122900347Y-56607290D01*
X122989163Y-56652545D01*
X122989165Y-56652545D01*
X122989168Y-56652547D01*
X123085497Y-56683846D01*
X123168881Y-56710940D01*
X123355514Y-56740500D01*
X123355519Y-56740500D01*
X123544486Y-56740500D01*
X123731118Y-56710940D01*
X123910832Y-56652547D01*
X124079199Y-56566760D01*
X124232073Y-56455690D01*
X124365690Y-56322073D01*
X124460475Y-56191613D01*
X124515804Y-56148949D01*
X124560792Y-56140500D01*
X125489208Y-56140500D01*
X125556247Y-56160185D01*
X125589524Y-56191612D01*
X125684310Y-56322073D01*
X125817927Y-56455690D01*
X125970801Y-56566760D01*
X126050347Y-56607290D01*
X126139163Y-56652545D01*
X126139165Y-56652545D01*
X126139168Y-56652547D01*
X126235497Y-56683846D01*
X126318881Y-56710940D01*
X126505514Y-56740500D01*
X126505519Y-56740500D01*
X126694486Y-56740500D01*
X126881118Y-56710940D01*
X127060832Y-56652547D01*
X127229199Y-56566760D01*
X127382073Y-56455690D01*
X127515690Y-56322073D01*
X127626760Y-56169199D01*
X127712547Y-56000832D01*
X127770940Y-55821118D01*
X127777602Y-55779055D01*
X127800500Y-55634486D01*
X127800500Y-55445513D01*
X127770940Y-55258881D01*
X127722828Y-55110809D01*
X127712547Y-55079168D01*
X127712545Y-55079165D01*
X127712545Y-55079163D01*
X127639939Y-54936666D01*
X127626760Y-54910801D01*
X127515690Y-54757927D01*
X127382073Y-54624310D01*
X127229199Y-54513240D01*
X127198331Y-54497512D01*
X127060836Y-54427454D01*
X126881118Y-54369059D01*
X126694486Y-54339500D01*
X126694481Y-54339500D01*
X126505519Y-54339500D01*
X126505514Y-54339500D01*
X126318881Y-54369059D01*
X126139163Y-54427454D01*
X125970800Y-54513240D01*
X125883579Y-54576610D01*
X125817927Y-54624310D01*
X125817925Y-54624312D01*
X125817924Y-54624312D01*
X125684312Y-54757924D01*
X125684312Y-54757925D01*
X125684310Y-54757927D01*
X125589526Y-54888386D01*
X125534196Y-54931051D01*
X125489208Y-54939500D01*
X124560792Y-54939500D01*
X124493753Y-54919815D01*
X124460474Y-54888386D01*
X124365690Y-54757927D01*
X124232073Y-54624310D01*
X124079199Y-54513240D01*
X124048331Y-54497512D01*
X123910836Y-54427454D01*
X123731118Y-54369059D01*
X123544486Y-54339500D01*
X123544481Y-54339500D01*
X123355519Y-54339500D01*
X123355514Y-54339500D01*
X123168881Y-54369059D01*
X122989163Y-54427454D01*
X122820800Y-54513240D01*
X122733579Y-54576610D01*
X122667927Y-54624310D01*
X122667925Y-54624312D01*
X122667924Y-54624312D01*
X122534312Y-54757924D01*
X122534312Y-54757925D01*
X122534310Y-54757927D01*
X122518779Y-54779304D01*
X122423240Y-54910800D01*
X122337454Y-55079163D01*
X122279059Y-55258881D01*
X122249500Y-55445513D01*
X121500500Y-55445513D01*
X121470940Y-55258881D01*
X121422828Y-55110809D01*
X121412547Y-55079168D01*
X121412545Y-55079165D01*
X121412545Y-55079163D01*
X121339939Y-54936666D01*
X121326760Y-54910801D01*
X121215690Y-54757927D01*
X121082073Y-54624310D01*
X121037649Y-54592034D01*
X120951614Y-54529525D01*
X120908948Y-54474194D01*
X120900500Y-54429207D01*
X120900500Y-53910097D01*
X120920185Y-53843058D01*
X120936819Y-53822416D01*
X122000521Y-52758714D01*
X123089170Y-51670064D01*
X123150491Y-51636581D01*
X123196246Y-51635274D01*
X123219006Y-51638878D01*
X123355514Y-51660500D01*
X123355519Y-51660500D01*
X123544486Y-51660500D01*
X123731118Y-51630940D01*
X123761753Y-51620986D01*
X123910832Y-51572547D01*
X124079199Y-51486760D01*
X124232073Y-51375690D01*
X124365690Y-51242073D01*
X124476760Y-51089199D01*
X124562547Y-50920832D01*
X124620940Y-50741118D01*
X124625275Y-50713750D01*
X124650500Y-50554486D01*
X124650500Y-50365513D01*
X124620940Y-50178881D01*
X124562545Y-49999163D01*
X124476759Y-49830800D01*
X124457719Y-49804594D01*
X124365690Y-49677927D01*
X124299944Y-49612181D01*
X124266459Y-49550858D01*
X124271443Y-49481166D01*
X124313315Y-49425233D01*
X124378779Y-49400816D01*
X124387625Y-49400500D01*
X125662375Y-49400500D01*
X125729414Y-49420185D01*
X125775169Y-49472989D01*
X125785113Y-49542147D01*
X125756088Y-49605703D01*
X125750056Y-49612181D01*
X125684312Y-49677924D01*
X125684312Y-49677925D01*
X125684310Y-49677927D01*
X125636610Y-49743579D01*
X125573240Y-49830800D01*
X125487454Y-49999163D01*
X125429059Y-50178881D01*
X125399500Y-50365513D01*
X125399500Y-50554486D01*
X125429059Y-50741118D01*
X125487454Y-50920836D01*
X125573240Y-51089199D01*
X125684310Y-51242073D01*
X125817927Y-51375690D01*
X125948386Y-51470474D01*
X125991051Y-51525803D01*
X125999500Y-51570791D01*
X125999500Y-52303330D01*
X125999499Y-52303348D01*
X125999499Y-52469054D01*
X125999498Y-52469054D01*
X126040423Y-52621785D01*
X126069358Y-52671900D01*
X126069359Y-52671904D01*
X126069360Y-52671904D01*
X126091896Y-52710939D01*
X126119479Y-52758714D01*
X126119481Y-52758717D01*
X126238349Y-52877585D01*
X126238355Y-52877590D01*
X128539933Y-55179169D01*
X128573418Y-55240492D01*
X128574725Y-55286248D01*
X128549500Y-55445513D01*
X128549500Y-55634486D01*
X128579059Y-55821118D01*
X128637454Y-56000836D01*
X128687766Y-56099577D01*
X128723240Y-56169199D01*
X128834310Y-56322073D01*
X128967927Y-56455690D01*
X129120801Y-56566760D01*
X129200347Y-56607290D01*
X129289163Y-56652545D01*
X129289165Y-56652545D01*
X129289168Y-56652547D01*
X129385497Y-56683846D01*
X129468881Y-56710940D01*
X129655514Y-56740500D01*
X129655519Y-56740500D01*
X129844486Y-56740500D01*
X130031118Y-56710940D01*
X130210832Y-56652547D01*
X130379199Y-56566760D01*
X130532073Y-56455690D01*
X130665690Y-56322073D01*
X130776760Y-56169199D01*
X130862547Y-56000832D01*
X130920940Y-55821118D01*
X130927602Y-55779055D01*
X130950500Y-55634486D01*
X130950500Y-55445513D01*
X130920940Y-55258881D01*
X130872828Y-55110809D01*
X130862547Y-55079168D01*
X130862545Y-55079165D01*
X130862545Y-55079163D01*
X130789939Y-54936666D01*
X130776760Y-54910801D01*
X130665690Y-54757927D01*
X130532073Y-54624310D01*
X130379199Y-54513240D01*
X130348331Y-54497512D01*
X130210836Y-54427454D01*
X130031118Y-54369059D01*
X129844486Y-54339500D01*
X129844481Y-54339500D01*
X129655519Y-54339500D01*
X129655514Y-54339500D01*
X129496248Y-54364725D01*
X129426954Y-54355770D01*
X129389169Y-54329933D01*
X127236819Y-52177583D01*
X127203334Y-52116260D01*
X127200500Y-52089902D01*
X127200500Y-51570791D01*
X127220185Y-51503752D01*
X127251612Y-51470475D01*
X127382073Y-51375690D01*
X127515690Y-51242073D01*
X127626760Y-51089199D01*
X127712547Y-50920832D01*
X127770940Y-50741118D01*
X127775275Y-50713750D01*
X127800500Y-50554486D01*
X127800500Y-50365513D01*
X127770940Y-50178881D01*
X127712545Y-49999163D01*
X127626759Y-49830800D01*
X127607719Y-49804594D01*
X127515690Y-49677927D01*
X127449944Y-49612181D01*
X127416459Y-49550858D01*
X127421443Y-49481166D01*
X127463315Y-49425233D01*
X127528779Y-49400816D01*
X127537625Y-49400500D01*
X128812375Y-49400500D01*
X128879414Y-49420185D01*
X128925169Y-49472989D01*
X128935113Y-49542147D01*
X128906088Y-49605703D01*
X128900056Y-49612181D01*
X128834312Y-49677924D01*
X128834312Y-49677925D01*
X128834310Y-49677927D01*
X128786610Y-49743579D01*
X128723240Y-49830800D01*
X128637454Y-49999163D01*
X128579059Y-50178881D01*
X128549500Y-50365513D01*
X128549500Y-50554486D01*
X128579059Y-50741118D01*
X128637454Y-50920836D01*
X128723240Y-51089199D01*
X128834310Y-51242073D01*
X128967927Y-51375690D01*
X129098386Y-51470474D01*
X129141051Y-51525803D01*
X129149500Y-51570791D01*
X129149500Y-52453330D01*
X129149499Y-52453348D01*
X129149499Y-52619056D01*
X129190422Y-52771783D01*
X129192892Y-52776061D01*
X129192890Y-52776061D01*
X129192895Y-52776067D01*
X129269475Y-52908709D01*
X129269481Y-52908717D01*
X129388349Y-53027585D01*
X129388355Y-53027590D01*
X131539933Y-55179169D01*
X131573418Y-55240492D01*
X131574725Y-55286248D01*
X131549500Y-55445513D01*
X131549500Y-55634486D01*
X131579059Y-55821118D01*
X131637454Y-56000836D01*
X131687766Y-56099577D01*
X131723240Y-56169199D01*
X131834310Y-56322073D01*
X131967927Y-56455690D01*
X132120801Y-56566760D01*
X132200347Y-56607290D01*
X132289163Y-56652545D01*
X132289165Y-56652545D01*
X132289168Y-56652547D01*
X132385497Y-56683846D01*
X132468881Y-56710940D01*
X132655514Y-56740500D01*
X132655519Y-56740500D01*
X132844486Y-56740500D01*
X133031118Y-56710940D01*
X133210832Y-56652547D01*
X133379199Y-56566760D01*
X133532073Y-56455690D01*
X133665690Y-56322073D01*
X133776760Y-56169199D01*
X133862547Y-56000832D01*
X133920940Y-55821118D01*
X133927602Y-55779055D01*
X133950500Y-55634486D01*
X133950500Y-55445513D01*
X133920940Y-55258881D01*
X133899539Y-55193017D01*
X133864579Y-55085424D01*
X133862585Y-55015586D01*
X133898665Y-54955753D01*
X133961365Y-54924924D01*
X134030780Y-54932888D01*
X134070192Y-54959427D01*
X134289933Y-55179168D01*
X134323418Y-55240491D01*
X134324725Y-55286247D01*
X134299500Y-55445513D01*
X134299500Y-55634486D01*
X134329059Y-55821118D01*
X134387454Y-56000836D01*
X134437766Y-56099577D01*
X134473240Y-56169199D01*
X134584310Y-56322073D01*
X134717927Y-56455690D01*
X134870801Y-56566760D01*
X134950347Y-56607290D01*
X135039163Y-56652545D01*
X135039165Y-56652545D01*
X135039168Y-56652547D01*
X135135497Y-56683846D01*
X135218881Y-56710940D01*
X135405514Y-56740500D01*
X135405519Y-56740500D01*
X135594486Y-56740500D01*
X135781118Y-56710940D01*
X135960832Y-56652547D01*
X136129199Y-56566760D01*
X136282073Y-56455690D01*
X136415690Y-56322073D01*
X136510475Y-56191613D01*
X136565804Y-56148949D01*
X136610792Y-56140500D01*
X137902187Y-56140500D01*
X137902203Y-56140501D01*
X137909799Y-56140501D01*
X138067910Y-56140501D01*
X138067913Y-56140501D01*
X138220641Y-56099577D01*
X138309900Y-56048043D01*
X138309904Y-56048041D01*
X138357565Y-56020524D01*
X138357564Y-56020524D01*
X138357572Y-56020520D01*
X138469376Y-55908716D01*
X138469376Y-55908714D01*
X138479580Y-55898511D01*
X138479583Y-55898506D01*
X139237820Y-55140270D01*
X139257255Y-55129658D01*
X139273989Y-55115158D01*
X139287320Y-55113241D01*
X139299142Y-55106786D01*
X139321228Y-55108365D01*
X139343147Y-55105214D01*
X139355398Y-55110809D01*
X139368834Y-55111770D01*
X139386560Y-55125040D01*
X139406703Y-55134239D01*
X139413985Y-55145570D01*
X139424767Y-55153642D01*
X139432504Y-55174387D01*
X139444477Y-55193017D01*
X139447628Y-55214935D01*
X139449184Y-55219106D01*
X139449500Y-55227952D01*
X139449500Y-55399902D01*
X139429815Y-55466941D01*
X139413181Y-55487583D01*
X136519481Y-58381282D01*
X136519479Y-58381285D01*
X136469361Y-58468094D01*
X136469359Y-58468096D01*
X136440425Y-58518209D01*
X136440424Y-58518210D01*
X136440423Y-58518215D01*
X136399499Y-58670943D01*
X136399499Y-58670945D01*
X136399499Y-58839046D01*
X136399500Y-58839059D01*
X136399500Y-61721636D01*
X136395097Y-61754386D01*
X136392110Y-61765292D01*
X136390423Y-61768215D01*
X136350035Y-61918942D01*
X136349947Y-61919264D01*
X136331772Y-61948716D01*
X136313759Y-61978268D01*
X136313441Y-61978422D01*
X136313255Y-61978724D01*
X136281992Y-61993699D01*
X136250912Y-62008797D01*
X136250561Y-62008755D01*
X136250242Y-62008908D01*
X136215872Y-62004607D01*
X136181537Y-62000502D01*
X136181190Y-62000267D01*
X136180913Y-62000233D01*
X136179943Y-61999423D01*
X136142669Y-61974195D01*
X135136819Y-60968345D01*
X135103334Y-60907022D01*
X135100500Y-60880664D01*
X135100500Y-60024995D01*
X135100499Y-60024982D01*
X135089999Y-59922203D01*
X135089999Y-59922202D01*
X135034814Y-59755665D01*
X134942712Y-59606344D01*
X134818656Y-59482288D01*
X134669335Y-59390186D01*
X134502798Y-59335001D01*
X134502796Y-59335000D01*
X134400017Y-59324500D01*
X134400010Y-59324500D01*
X133399990Y-59324500D01*
X133399982Y-59324500D01*
X133297203Y-59335000D01*
X133297202Y-59335001D01*
X133214669Y-59362349D01*
X133130667Y-59390185D01*
X133130662Y-59390187D01*
X132981342Y-59482289D01*
X132857289Y-59606342D01*
X132765187Y-59755662D01*
X132765186Y-59755665D01*
X132710001Y-59922202D01*
X132710001Y-59922203D01*
X132710000Y-59922203D01*
X132699500Y-60024982D01*
X132699500Y-60880664D01*
X132679815Y-60947703D01*
X132663181Y-60968345D01*
X127618345Y-66013181D01*
X127557022Y-66046666D01*
X127530664Y-66049500D01*
X112008943Y-66049500D01*
X111941904Y-66029815D01*
X111921262Y-66013181D01*
X111889170Y-65981089D01*
X111889161Y-65981081D01*
X111707117Y-65841392D01*
X111508390Y-65726657D01*
X111508376Y-65726650D01*
X111296387Y-65638842D01*
X111074738Y-65579452D01*
X111036715Y-65574446D01*
X110847241Y-65549500D01*
X110847234Y-65549500D01*
X110617766Y-65549500D01*
X110617758Y-65549500D01*
X110401215Y-65578009D01*
X110390262Y-65579452D01*
X110296576Y-65604554D01*
X110168612Y-65638842D01*
X109956623Y-65726650D01*
X109956609Y-65726657D01*
X109757882Y-65841392D01*
X109575838Y-65981081D01*
X109413581Y-66143338D01*
X109273892Y-66325382D01*
X109159157Y-66524109D01*
X109159150Y-66524123D01*
X109071342Y-66736112D01*
X109011953Y-66957759D01*
X109011951Y-66957770D01*
X108982000Y-67185258D01*
X108982000Y-67414741D01*
X109006946Y-67604215D01*
X109011952Y-67642238D01*
X109011953Y-67642240D01*
X109071342Y-67863887D01*
X109159150Y-68075876D01*
X109159157Y-68075890D01*
X109273892Y-68274617D01*
X109413581Y-68456661D01*
X109413589Y-68456670D01*
X109575830Y-68618911D01*
X109575838Y-68618918D01*
X109757882Y-68758607D01*
X109757885Y-68758608D01*
X109757888Y-68758611D01*
X109956612Y-68873344D01*
X109956617Y-68873346D01*
X109956623Y-68873349D01*
X110047980Y-68911190D01*
X110168613Y-68961158D01*
X110390262Y-69020548D01*
X110617766Y-69050500D01*
X110617773Y-69050500D01*
X110847227Y-69050500D01*
X110847234Y-69050500D01*
X111074738Y-69020548D01*
X111296387Y-68961158D01*
X111508388Y-68873344D01*
X111707112Y-68758611D01*
X111889161Y-68618919D01*
X111889165Y-68618914D01*
X111889170Y-68618911D01*
X111921262Y-68586819D01*
X111982585Y-68553334D01*
X112008943Y-68550500D01*
X128198422Y-68550500D01*
X128392826Y-68519709D01*
X128580026Y-68458884D01*
X128755405Y-68369524D01*
X128914646Y-68253828D01*
X133456655Y-63711819D01*
X133517978Y-63678334D01*
X133544336Y-63675500D01*
X133825500Y-63675500D01*
X133892539Y-63695185D01*
X133938294Y-63747989D01*
X133949500Y-63799500D01*
X133949500Y-65558422D01*
X133980290Y-65752826D01*
X134041117Y-65940029D01*
X134130476Y-66115405D01*
X134193501Y-66202151D01*
X134216981Y-66267958D01*
X134201156Y-66336012D01*
X134180864Y-66362718D01*
X127679781Y-72863801D01*
X127679775Y-72863807D01*
X127676286Y-72867297D01*
X127676284Y-72867299D01*
X127564480Y-72979103D01*
X127534354Y-73031284D01*
X127528695Y-73041084D01*
X127528691Y-73041090D01*
X127485423Y-73116033D01*
X127485423Y-73116034D01*
X127444499Y-73268762D01*
X127444499Y-73268764D01*
X127444499Y-73436865D01*
X127444500Y-73436878D01*
X127444500Y-73544464D01*
X127424815Y-73611503D01*
X127394812Y-73643730D01*
X127362457Y-73667950D01*
X127362451Y-73667957D01*
X127276206Y-73783164D01*
X127276202Y-73783171D01*
X127225908Y-73918017D01*
X127219501Y-73977616D01*
X127219500Y-73977627D01*
X127219500Y-74778882D01*
X127219501Y-75525500D01*
X127199816Y-75592539D01*
X127147013Y-75638294D01*
X127095501Y-75649500D01*
X125670943Y-75649500D01*
X125518213Y-75690423D01*
X125480985Y-75711918D01*
X125480984Y-75711918D01*
X125381287Y-75769477D01*
X125381282Y-75769481D01*
X124527583Y-76623181D01*
X124466260Y-76656666D01*
X124439902Y-76659500D01*
X124278984Y-76659500D01*
X124190375Y-76665650D01*
X124190359Y-76665652D01*
X123982823Y-76714465D01*
X123982817Y-76714467D01*
X123982815Y-76714468D01*
X123833875Y-76780231D01*
X123787761Y-76800592D01*
X123611858Y-76921088D01*
X123611852Y-76921093D01*
X123461093Y-77071852D01*
X123461088Y-77071858D01*
X123340592Y-77247761D01*
X123254467Y-77442817D01*
X123254465Y-77442823D01*
X123205652Y-77650359D01*
X123205650Y-77650375D01*
X123199500Y-77738984D01*
X123199500Y-79181015D01*
X123205650Y-79269624D01*
X123205652Y-79269640D01*
X123254465Y-79477176D01*
X123254467Y-79477182D01*
X123254468Y-79477185D01*
X123340591Y-79672237D01*
X123368679Y-79713240D01*
X123464329Y-79852872D01*
X123462832Y-79853897D01*
X123487229Y-79910443D01*
X123475831Y-79979377D01*
X123428973Y-80031205D01*
X123364147Y-80049500D01*
X121974500Y-80049500D01*
X121907461Y-80029815D01*
X121861706Y-79977011D01*
X121850500Y-79925500D01*
X121850499Y-79091971D01*
X121850499Y-79091964D01*
X121839886Y-78972582D01*
X121783909Y-78776951D01*
X121689698Y-78596593D01*
X121609809Y-78498617D01*
X121561109Y-78438890D01*
X121403409Y-78310304D01*
X121403410Y-78310304D01*
X121403407Y-78310302D01*
X121223049Y-78216091D01*
X121223048Y-78216090D01*
X121223045Y-78216089D01*
X121101575Y-78181333D01*
X121027418Y-78160114D01*
X121027415Y-78160113D01*
X121027413Y-78160113D01*
X120961102Y-78154217D01*
X120908037Y-78149500D01*
X120908032Y-78149500D01*
X117991971Y-78149500D01*
X117991965Y-78149500D01*
X117991964Y-78149501D01*
X117980316Y-78150536D01*
X117872584Y-78160113D01*
X117676954Y-78216089D01*
X117606476Y-78252904D01*
X117496593Y-78310302D01*
X117496591Y-78310303D01*
X117496590Y-78310304D01*
X117338890Y-78438890D01*
X117225931Y-78577425D01*
X117210302Y-78596593D01*
X117197384Y-78621323D01*
X117116089Y-78776954D01*
X117073663Y-78925230D01*
X117064423Y-78957525D01*
X117060114Y-78972583D01*
X117060113Y-78972586D01*
X117057894Y-78997546D01*
X117050227Y-79083793D01*
X117049500Y-79091966D01*
X117049500Y-80208028D01*
X117049501Y-80208034D01*
X117060113Y-80327415D01*
X117116089Y-80523045D01*
X117116090Y-80523048D01*
X117116091Y-80523049D01*
X117210302Y-80703407D01*
X117338891Y-80861109D01*
X117361320Y-80879397D01*
X117400838Y-80937018D01*
X117402930Y-81006856D01*
X117366933Y-81066739D01*
X117304275Y-81097654D01*
X117282960Y-81099500D01*
X114200097Y-81099500D01*
X114133058Y-81079815D01*
X114112416Y-81063181D01*
X113288068Y-80238833D01*
X113254583Y-80177510D01*
X113258044Y-80112147D01*
X113261143Y-80102797D01*
X113271644Y-80000009D01*
X113271643Y-78799992D01*
X113269592Y-78779918D01*
X113261143Y-78697203D01*
X113261142Y-78697200D01*
X113236989Y-78624312D01*
X113205958Y-78530666D01*
X113113856Y-78381344D01*
X113113854Y-78381342D01*
X113110064Y-78375197D01*
X113112672Y-78373588D01*
X113091702Y-78321540D01*
X113104773Y-78252904D01*
X113127430Y-78221803D01*
X116482828Y-74866405D01*
X116544149Y-74832922D01*
X116600434Y-74833754D01*
X116656102Y-74847598D01*
X116656103Y-74847598D01*
X116656111Y-74847600D01*
X116698877Y-74850500D01*
X117601122Y-74850499D01*
X117643889Y-74847600D01*
X117828693Y-74801641D01*
X117999296Y-74717030D01*
X118147722Y-74597722D01*
X118203353Y-74528514D01*
X118260696Y-74488595D01*
X118330518Y-74486015D01*
X118390651Y-74521594D01*
X118396647Y-74528514D01*
X118452277Y-74597721D01*
X118452278Y-74597722D01*
X118600704Y-74717030D01*
X118600707Y-74717032D01*
X118771302Y-74801639D01*
X118771303Y-74801639D01*
X118771307Y-74801641D01*
X118956111Y-74847600D01*
X118998877Y-74850500D01*
X119901122Y-74850499D01*
X119943889Y-74847600D01*
X120128693Y-74801641D01*
X120299296Y-74717030D01*
X120447722Y-74597722D01*
X120567030Y-74449296D01*
X120582226Y-74418657D01*
X120651639Y-74278697D01*
X120651638Y-74278697D01*
X120651641Y-74278693D01*
X120697600Y-74093889D01*
X120700500Y-74051123D01*
X120700499Y-72648878D01*
X120697600Y-72606111D01*
X120651641Y-72421307D01*
X120616277Y-72350001D01*
X120567032Y-72250707D01*
X120567030Y-72250704D01*
X120447722Y-72102278D01*
X120447721Y-72102277D01*
X120299295Y-71982969D01*
X120299292Y-71982967D01*
X120128697Y-71898360D01*
X119943892Y-71852400D01*
X119922506Y-71850950D01*
X119901123Y-71849500D01*
X119901120Y-71849500D01*
X118998877Y-71849500D01*
X118998874Y-71849501D01*
X118956113Y-71852399D01*
X118956109Y-71852400D01*
X118900433Y-71866246D01*
X118830625Y-71863322D01*
X118782827Y-71833592D01*
X118436590Y-71487355D01*
X118436588Y-71487352D01*
X118317717Y-71368481D01*
X118317716Y-71368480D01*
X118230904Y-71318360D01*
X118230904Y-71318359D01*
X118230900Y-71318358D01*
X118180785Y-71289423D01*
X118028057Y-71248499D01*
X117869943Y-71248499D01*
X117862347Y-71248499D01*
X117862331Y-71248500D01*
X115258913Y-71248500D01*
X115100798Y-71248500D01*
X114948071Y-71289423D01*
X114948070Y-71289423D01*
X114948068Y-71289424D01*
X114948065Y-71289425D01*
X114897952Y-71318359D01*
X114897951Y-71318360D01*
X114854545Y-71343420D01*
X114811141Y-71368479D01*
X114811138Y-71368481D01*
X114699334Y-71480286D01*
X114116438Y-72063181D01*
X114055115Y-72096666D01*
X114028757Y-72099500D01*
X113028854Y-72099500D01*
X113028836Y-72099501D01*
X112926059Y-72110000D01*
X112926056Y-72110001D01*
X112759524Y-72165185D01*
X112759519Y-72165187D01*
X112610198Y-72257289D01*
X112486145Y-72381342D01*
X112394043Y-72530663D01*
X112394041Y-72530668D01*
X112369929Y-72603433D01*
X112338857Y-72697203D01*
X112338857Y-72697204D01*
X112338856Y-72697204D01*
X112328356Y-72799983D01*
X112328356Y-73799901D01*
X112308671Y-73866940D01*
X112292036Y-73887582D01*
X111214101Y-74965520D01*
X110856440Y-75323181D01*
X110795117Y-75356666D01*
X110768759Y-75359500D01*
X110360792Y-75359500D01*
X110293753Y-75339815D01*
X110260474Y-75308386D01*
X110165690Y-75177927D01*
X110032073Y-75044310D01*
X109879199Y-74933240D01*
X109710836Y-74847454D01*
X109531118Y-74789059D01*
X109344486Y-74759500D01*
X109344481Y-74759500D01*
X109155519Y-74759500D01*
X109155514Y-74759500D01*
X108968881Y-74789059D01*
X108789163Y-74847454D01*
X108620800Y-74933240D01*
X108533579Y-74996610D01*
X108467927Y-75044310D01*
X108467925Y-75044312D01*
X108467924Y-75044312D01*
X108334312Y-75177924D01*
X108334312Y-75177925D01*
X108334310Y-75177927D01*
X108333182Y-75179480D01*
X108223240Y-75330800D01*
X108137454Y-75499163D01*
X108079059Y-75678881D01*
X108049500Y-75865513D01*
X108049500Y-76054486D01*
X108074725Y-76213751D01*
X108065770Y-76283045D01*
X108039933Y-76320830D01*
X107680286Y-76680478D01*
X107568481Y-76792282D01*
X107568479Y-76792284D01*
X107555760Y-76814316D01*
X107534869Y-76850501D01*
X107489423Y-76929215D01*
X107448499Y-77081943D01*
X107448499Y-77081945D01*
X107448499Y-77250046D01*
X107448500Y-77250059D01*
X107448500Y-82752330D01*
X107448499Y-82752348D01*
X107448499Y-82918054D01*
X107448498Y-82918054D01*
X107489424Y-83070789D01*
X107489425Y-83070790D01*
X107505343Y-83098360D01*
X107505344Y-83098361D01*
X107568477Y-83207712D01*
X107568481Y-83207717D01*
X107687349Y-83326585D01*
X107687355Y-83326590D01*
X108499933Y-84139168D01*
X108533418Y-84200491D01*
X108534725Y-84246247D01*
X108509500Y-84405513D01*
X108509500Y-84594486D01*
X108539059Y-84781118D01*
X108597454Y-84960836D01*
X108679031Y-85120938D01*
X108683240Y-85129199D01*
X108794310Y-85282073D01*
X108927927Y-85415690D01*
X109080801Y-85526760D01*
X109160347Y-85567290D01*
X109249163Y-85612545D01*
X109249165Y-85612545D01*
X109249168Y-85612547D01*
X109345497Y-85643846D01*
X109428881Y-85670940D01*
X109615514Y-85700500D01*
X109615519Y-85700500D01*
X109804486Y-85700500D01*
X109991118Y-85670940D01*
X110021753Y-85660986D01*
X110170832Y-85612547D01*
X110339199Y-85526760D01*
X110492073Y-85415690D01*
X110625690Y-85282073D01*
X110736760Y-85129199D01*
X110822547Y-84960832D01*
X110880940Y-84781118D01*
X110889084Y-84729699D01*
X110910500Y-84594486D01*
X110910500Y-84405513D01*
X110880940Y-84218881D01*
X110838743Y-84089013D01*
X110822547Y-84039168D01*
X110822545Y-84039165D01*
X110822545Y-84039163D01*
X110761837Y-83920017D01*
X110736760Y-83870801D01*
X110625690Y-83717927D01*
X110492073Y-83584310D01*
X110339199Y-83473240D01*
X110170836Y-83387454D01*
X109991118Y-83329059D01*
X109804486Y-83299500D01*
X109804481Y-83299500D01*
X109615519Y-83299500D01*
X109615514Y-83299500D01*
X109456247Y-83324725D01*
X109386953Y-83315770D01*
X109349168Y-83289933D01*
X109019242Y-82960007D01*
X108685819Y-82626583D01*
X108652334Y-82565260D01*
X108649500Y-82538902D01*
X108649500Y-82277837D01*
X108669185Y-82210798D01*
X108721989Y-82165043D01*
X108791147Y-82155099D01*
X108811810Y-82159903D01*
X108923682Y-82196253D01*
X108968881Y-82210940D01*
X109155514Y-82240500D01*
X109155519Y-82240500D01*
X109344486Y-82240500D01*
X109461017Y-82222042D01*
X109503753Y-82215274D01*
X109573045Y-82224228D01*
X109610831Y-82250066D01*
X110026139Y-82665374D01*
X110026149Y-82665385D01*
X110030479Y-82669715D01*
X110030480Y-82669716D01*
X110142284Y-82781520D01*
X110227154Y-82830519D01*
X110279215Y-82860577D01*
X110431942Y-82901500D01*
X110431943Y-82901500D01*
X114329817Y-82901500D01*
X114396856Y-82921185D01*
X114417498Y-82937819D01*
X114595656Y-83115977D01*
X114629141Y-83177300D01*
X114624157Y-83246992D01*
X114582285Y-83302925D01*
X114527374Y-83326131D01*
X114508880Y-83329060D01*
X114329163Y-83387454D01*
X114160800Y-83473240D01*
X114101604Y-83516249D01*
X114007927Y-83584310D01*
X114007925Y-83584312D01*
X114007924Y-83584312D01*
X113874312Y-83717924D01*
X113874312Y-83717925D01*
X113874310Y-83717927D01*
X113837059Y-83769199D01*
X113763240Y-83870800D01*
X113677454Y-84039163D01*
X113619059Y-84218881D01*
X113589500Y-84405513D01*
X113589500Y-84594486D01*
X113619059Y-84781118D01*
X113677454Y-84960836D01*
X113759031Y-85120938D01*
X113763240Y-85129199D01*
X113874310Y-85282073D01*
X114007927Y-85415690D01*
X114160801Y-85526760D01*
X114240347Y-85567290D01*
X114329163Y-85612545D01*
X114329165Y-85612545D01*
X114329168Y-85612547D01*
X114425497Y-85643846D01*
X114508881Y-85670940D01*
X114695514Y-85700500D01*
X114695519Y-85700500D01*
X114884486Y-85700500D01*
X115001017Y-85682042D01*
X115043753Y-85675274D01*
X115113045Y-85684228D01*
X115150831Y-85710066D01*
X115747139Y-86306374D01*
X115747149Y-86306385D01*
X115751479Y-86310715D01*
X115751480Y-86310716D01*
X115863284Y-86422520D01*
X115935962Y-86464480D01*
X116000215Y-86501577D01*
X116152943Y-86542501D01*
X116152946Y-86542501D01*
X116318653Y-86542501D01*
X116318669Y-86542500D01*
X123471903Y-86542500D01*
X123538942Y-86562185D01*
X123559584Y-86578819D01*
X127342892Y-90362127D01*
X127376377Y-90423450D01*
X127375873Y-90471222D01*
X127377152Y-90471425D01*
X127345500Y-90671263D01*
X127345500Y-90868736D01*
X127376389Y-91063763D01*
X127426477Y-91217915D01*
X127437409Y-91251561D01*
X127512925Y-91399767D01*
X127527058Y-91427504D01*
X127643115Y-91587246D01*
X127782753Y-91726884D01*
X127932234Y-91835486D01*
X127942499Y-91842944D01*
X128112404Y-91929516D01*
X128163199Y-91977490D01*
X128179994Y-92045311D01*
X128157456Y-92111446D01*
X128112404Y-92150483D01*
X127955321Y-92230522D01*
X127942495Y-92237058D01*
X127782753Y-92353115D01*
X127643115Y-92492753D01*
X127527058Y-92652495D01*
X127437408Y-92828441D01*
X127376389Y-93016236D01*
X127345500Y-93211263D01*
X127345500Y-93408736D01*
X127376389Y-93603763D01*
X127429967Y-93768656D01*
X127437409Y-93791561D01*
X127477037Y-93869334D01*
X127527058Y-93967504D01*
X127643115Y-94127246D01*
X127782753Y-94266884D01*
X127932234Y-94375486D01*
X127942499Y-94382944D01*
X128118439Y-94472591D01*
X128243637Y-94513270D01*
X128306236Y-94533610D01*
X128501264Y-94564500D01*
X128501269Y-94564500D01*
X128698736Y-94564500D01*
X128893763Y-94533610D01*
X129081561Y-94472591D01*
X129257501Y-94382944D01*
X129352557Y-94313882D01*
X129417246Y-94266884D01*
X129417248Y-94266881D01*
X129417252Y-94266879D01*
X129556879Y-94127252D01*
X129556881Y-94127248D01*
X129556884Y-94127246D01*
X129619612Y-94040907D01*
X129672944Y-93967501D01*
X129762591Y-93791561D01*
X129823610Y-93603763D01*
X129824206Y-93600001D01*
X129854500Y-93408736D01*
X129854500Y-93211263D01*
X129822848Y-93011425D01*
X129824594Y-93011148D01*
X129827704Y-92948973D01*
X129857103Y-92902130D01*
X130097417Y-92661816D01*
X130158739Y-92628334D01*
X130185097Y-92625500D01*
X144288331Y-92625500D01*
X144288347Y-92625501D01*
X144295943Y-92625501D01*
X144454054Y-92625501D01*
X144454057Y-92625501D01*
X144606785Y-92584577D01*
X144656904Y-92555639D01*
X144743716Y-92505520D01*
X144855520Y-92393716D01*
X144855520Y-92393714D01*
X144865728Y-92383507D01*
X144865729Y-92383504D01*
X151680520Y-85568716D01*
X151759577Y-85431784D01*
X151800501Y-85279057D01*
X151800501Y-85120942D01*
X151800501Y-85113347D01*
X151800500Y-85113329D01*
X151800500Y-75032473D01*
X151800499Y-75032470D01*
X151800052Y-75030801D01*
X151800047Y-75030783D01*
X151782560Y-74965520D01*
X151759576Y-74879743D01*
X151759573Y-74879738D01*
X151680524Y-74742819D01*
X151680521Y-74742815D01*
X151680520Y-74742813D01*
X151568716Y-74631009D01*
X151568715Y-74631008D01*
X151564385Y-74626678D01*
X151564374Y-74626668D01*
X151035061Y-74097355D01*
X151035059Y-74097352D01*
X150916188Y-73978481D01*
X150916187Y-73978480D01*
X150811461Y-73918017D01*
X150811460Y-73918016D01*
X150779254Y-73899422D01*
X150723352Y-73884443D01*
X150626528Y-73858499D01*
X150468414Y-73858499D01*
X150460818Y-73858499D01*
X150460802Y-73858500D01*
X146377721Y-73858500D01*
X146377705Y-73858499D01*
X146370109Y-73858499D01*
X146211994Y-73858499D01*
X146132061Y-73879917D01*
X146059267Y-73899422D01*
X146027059Y-73918018D01*
X146027058Y-73918017D01*
X145922338Y-73978477D01*
X145922333Y-73978481D01*
X141719481Y-78181333D01*
X141719479Y-78181336D01*
X141690642Y-78231284D01*
X141669360Y-78268146D01*
X141640423Y-78318266D01*
X141602408Y-78460137D01*
X141600654Y-78465015D01*
X141582981Y-78489212D01*
X141567379Y-78514809D01*
X141559756Y-78521012D01*
X141559445Y-78521438D01*
X141559040Y-78521594D01*
X141556859Y-78523369D01*
X141417927Y-78624310D01*
X141417925Y-78624312D01*
X141417924Y-78624312D01*
X141284312Y-78757924D01*
X141284312Y-78757925D01*
X141284310Y-78757927D01*
X141193927Y-78882328D01*
X141189526Y-78888386D01*
X141134196Y-78931051D01*
X141089208Y-78939500D01*
X137020941Y-78939500D01*
X136875125Y-78978570D01*
X136863549Y-78979046D01*
X136856161Y-78982098D01*
X136837285Y-78980127D01*
X136820891Y-78980802D01*
X136812657Y-78979307D01*
X136781118Y-78969060D01*
X136594481Y-78939500D01*
X136593312Y-78939500D01*
X136586243Y-78938217D01*
X136560366Y-78925230D01*
X136533321Y-78914908D01*
X136529521Y-78909751D01*
X136523796Y-78906878D01*
X136509048Y-78881963D01*
X136491877Y-78858658D01*
X136491468Y-78852265D01*
X136488205Y-78846752D01*
X136489268Y-78817818D01*
X136487423Y-78788930D01*
X136490537Y-78783277D01*
X136490771Y-78776930D01*
X136506453Y-78754392D01*
X136520702Y-78728531D01*
X136858506Y-78390728D01*
X136858511Y-78390724D01*
X136868714Y-78380520D01*
X136868716Y-78380520D01*
X136980520Y-78268716D01*
X137059577Y-78131784D01*
X137100500Y-77979057D01*
X137100500Y-76170791D01*
X137120185Y-76103752D01*
X137151612Y-76070475D01*
X137282073Y-75975690D01*
X137415690Y-75842073D01*
X137526760Y-75689199D01*
X137612547Y-75520832D01*
X137670940Y-75341118D01*
X137683043Y-75264703D01*
X137700500Y-75154486D01*
X137700500Y-74965513D01*
X137670940Y-74778881D01*
X137624129Y-74634814D01*
X137612547Y-74599168D01*
X137612545Y-74599165D01*
X137612545Y-74599163D01*
X137541383Y-74459500D01*
X137526760Y-74430801D01*
X137415690Y-74277927D01*
X137282073Y-74144310D01*
X137129199Y-74033240D01*
X136960836Y-73947454D01*
X136781118Y-73889059D01*
X136594486Y-73859500D01*
X136594481Y-73859500D01*
X136405519Y-73859500D01*
X136405514Y-73859500D01*
X136218881Y-73889059D01*
X136039163Y-73947454D01*
X135870800Y-74033240D01*
X135846191Y-74051120D01*
X135717927Y-74144310D01*
X135717925Y-74144312D01*
X135717924Y-74144312D01*
X135584312Y-74277924D01*
X135584312Y-74277925D01*
X135584310Y-74277927D01*
X135583751Y-74278697D01*
X135473240Y-74430800D01*
X135387454Y-74599163D01*
X135329059Y-74778881D01*
X135299500Y-74965513D01*
X135299500Y-75154486D01*
X135329059Y-75341118D01*
X135387454Y-75520836D01*
X135453012Y-75649500D01*
X135473240Y-75689199D01*
X135584310Y-75842073D01*
X135717927Y-75975690D01*
X135848386Y-76070474D01*
X135891051Y-76125803D01*
X135899500Y-76170791D01*
X135899500Y-77599903D01*
X135879815Y-77666942D01*
X135863181Y-77687584D01*
X135587584Y-77963181D01*
X135526261Y-77996666D01*
X135499903Y-77999500D01*
X130286669Y-77999500D01*
X130286653Y-77999499D01*
X130279057Y-77999499D01*
X130120943Y-77999499D01*
X130013587Y-78028265D01*
X129968210Y-78040424D01*
X129968209Y-78040425D01*
X129918096Y-78069359D01*
X129918095Y-78069360D01*
X129874689Y-78094420D01*
X129831285Y-78119479D01*
X129831282Y-78119481D01*
X129719478Y-78231286D01*
X129038082Y-78912681D01*
X128976759Y-78946166D01*
X128950412Y-78949000D01*
X128942135Y-78949000D01*
X128942122Y-78949001D01*
X128882516Y-78955408D01*
X128747671Y-79005702D01*
X128747664Y-79005706D01*
X128632455Y-79091952D01*
X128632452Y-79091955D01*
X128546206Y-79207164D01*
X128546202Y-79207171D01*
X128495908Y-79342017D01*
X128489501Y-79401616D01*
X128489500Y-79401635D01*
X128489500Y-81022370D01*
X128489501Y-81022376D01*
X128495908Y-81081983D01*
X128546202Y-81216828D01*
X128546206Y-81216835D01*
X128632452Y-81332044D01*
X128632455Y-81332047D01*
X128747664Y-81418293D01*
X128747671Y-81418297D01*
X128784173Y-81431911D01*
X128882517Y-81468591D01*
X128942127Y-81475000D01*
X129687872Y-81474999D01*
X129747483Y-81468591D01*
X129747488Y-81468589D01*
X129882329Y-81418297D01*
X129890112Y-81414047D01*
X129891865Y-81417257D01*
X129940999Y-81398861D01*
X130009291Y-81413627D01*
X130010263Y-81414252D01*
X130017670Y-81418297D01*
X130152516Y-81468591D01*
X130177732Y-81471302D01*
X130212127Y-81475000D01*
X130284401Y-81474999D01*
X130351440Y-81494683D01*
X130372083Y-81511318D01*
X132357583Y-83496818D01*
X132368193Y-83516249D01*
X132382695Y-83532984D01*
X132384612Y-83546318D01*
X132391068Y-83558141D01*
X132389488Y-83580227D01*
X132392640Y-83602143D01*
X132387044Y-83614395D01*
X132386084Y-83627833D01*
X132372813Y-83645559D01*
X132363617Y-83665699D01*
X132352284Y-83672982D01*
X132344212Y-83683766D01*
X132323466Y-83691503D01*
X132304840Y-83703475D01*
X132282919Y-83706627D01*
X132278748Y-83708183D01*
X132269905Y-83708499D01*
X132241472Y-83708499D01*
X132241468Y-83708499D01*
X132233863Y-83708500D01*
X132233862Y-83708499D01*
X132233860Y-83708500D01*
X130067669Y-83708500D01*
X130067653Y-83708499D01*
X130060057Y-83708499D01*
X129901943Y-83708499D01*
X129794587Y-83737265D01*
X129749210Y-83749424D01*
X129749209Y-83749425D01*
X129699096Y-83778359D01*
X129699095Y-83778360D01*
X129677898Y-83790598D01*
X129612285Y-83828479D01*
X129612282Y-83828481D01*
X129500478Y-83940286D01*
X129236180Y-84204583D01*
X129228235Y-84208920D01*
X129222810Y-84216169D01*
X129198047Y-84225405D01*
X129174857Y-84238068D01*
X129165828Y-84237422D01*
X129157346Y-84240586D01*
X129131523Y-84234969D01*
X129105165Y-84233084D01*
X129096112Y-84227266D01*
X129089073Y-84225735D01*
X129060820Y-84204585D01*
X128968716Y-84112481D01*
X128968713Y-84112479D01*
X125328415Y-80472181D01*
X125294930Y-80410858D01*
X125299914Y-80341166D01*
X125341786Y-80285233D01*
X125407250Y-80260816D01*
X125416096Y-80260500D01*
X125721016Y-80260500D01*
X125758110Y-80257925D01*
X125809630Y-80254349D01*
X125809636Y-80254347D01*
X125809640Y-80254347D01*
X125965468Y-80217695D01*
X126017185Y-80205532D01*
X126212237Y-80119409D01*
X126388142Y-79998911D01*
X126538911Y-79848142D01*
X126659409Y-79672237D01*
X126745532Y-79477185D01*
X126773582Y-79357927D01*
X126794347Y-79269640D01*
X126794347Y-79269636D01*
X126794349Y-79269630D01*
X126800500Y-79181012D01*
X126800500Y-77738988D01*
X126794349Y-77650370D01*
X126794347Y-77650364D01*
X126794347Y-77650359D01*
X126745534Y-77442823D01*
X126745532Y-77442817D01*
X126745532Y-77442815D01*
X126659409Y-77247763D01*
X126538911Y-77071858D01*
X126538906Y-77071852D01*
X126529235Y-77062181D01*
X126495750Y-77000858D01*
X126500734Y-76931166D01*
X126542606Y-76875233D01*
X126608070Y-76850816D01*
X126616916Y-76850500D01*
X131268831Y-76850500D01*
X131268847Y-76850501D01*
X131276443Y-76850501D01*
X131434554Y-76850501D01*
X131434557Y-76850501D01*
X131587285Y-76809577D01*
X131658924Y-76768216D01*
X131724216Y-76730520D01*
X131836020Y-76618716D01*
X131836021Y-76618714D01*
X132335520Y-76119216D01*
X132383743Y-76035687D01*
X132416819Y-75998421D01*
X132422327Y-75994297D01*
X132422331Y-75994296D01*
X132537546Y-75908046D01*
X132623796Y-75792831D01*
X132623799Y-75792821D01*
X132626284Y-75788273D01*
X132675686Y-75738865D01*
X132743958Y-75724008D01*
X132809424Y-75748421D01*
X132835437Y-75774807D01*
X132880921Y-75837409D01*
X132884310Y-75842073D01*
X133017927Y-75975690D01*
X133170801Y-76086760D01*
X133204150Y-76103752D01*
X133339163Y-76172545D01*
X133339165Y-76172545D01*
X133339168Y-76172547D01*
X133435497Y-76203846D01*
X133518881Y-76230940D01*
X133705514Y-76260500D01*
X133705519Y-76260500D01*
X133894486Y-76260500D01*
X134081118Y-76230940D01*
X134260832Y-76172547D01*
X134429199Y-76086760D01*
X134582073Y-75975690D01*
X134715690Y-75842073D01*
X134826760Y-75689199D01*
X134912547Y-75520832D01*
X134970940Y-75341118D01*
X134983043Y-75264703D01*
X135000500Y-75154486D01*
X135000500Y-74965513D01*
X134970940Y-74778881D01*
X134924129Y-74634814D01*
X134912547Y-74599168D01*
X134912545Y-74599165D01*
X134912545Y-74599163D01*
X134841383Y-74459500D01*
X134826760Y-74430801D01*
X134715690Y-74277927D01*
X134582073Y-74144310D01*
X134429199Y-74033240D01*
X134260836Y-73947454D01*
X134081118Y-73889059D01*
X133894486Y-73859500D01*
X133894481Y-73859500D01*
X133705519Y-73859500D01*
X133705514Y-73859500D01*
X133518881Y-73889059D01*
X133339163Y-73947454D01*
X133170800Y-74033240D01*
X133146191Y-74051120D01*
X133017927Y-74144310D01*
X133017925Y-74144312D01*
X133017924Y-74144312D01*
X132892180Y-74270057D01*
X132830857Y-74303542D01*
X132761165Y-74298558D01*
X132705232Y-74256686D01*
X132680815Y-74191222D01*
X132680499Y-74182376D01*
X132680499Y-73977629D01*
X132680498Y-73977623D01*
X132680497Y-73977616D01*
X132674091Y-73918017D01*
X132663290Y-73889059D01*
X132623797Y-73783171D01*
X132623793Y-73783164D01*
X132537547Y-73667955D01*
X132537544Y-73667952D01*
X132422335Y-73581706D01*
X132422328Y-73581702D01*
X132287482Y-73531408D01*
X132287483Y-73531408D01*
X132227883Y-73525001D01*
X132227881Y-73525000D01*
X132227873Y-73525000D01*
X132227865Y-73525000D01*
X132034096Y-73525000D01*
X131967057Y-73505315D01*
X131921302Y-73452511D01*
X131911358Y-73383353D01*
X131940383Y-73319797D01*
X131946415Y-73313319D01*
X132326677Y-72933058D01*
X132872916Y-72386819D01*
X132934239Y-72353334D01*
X132960597Y-72350500D01*
X137403331Y-72350500D01*
X137403347Y-72350501D01*
X137410943Y-72350501D01*
X137569054Y-72350501D01*
X137569057Y-72350501D01*
X137721785Y-72309577D01*
X137771904Y-72280639D01*
X137858716Y-72230520D01*
X137970520Y-72118716D01*
X137970520Y-72118714D01*
X137980728Y-72108507D01*
X137980730Y-72108504D01*
X138339169Y-71750064D01*
X138400490Y-71716581D01*
X138446246Y-71715274D01*
X138605514Y-71740500D01*
X138605519Y-71740500D01*
X138794486Y-71740500D01*
X138981118Y-71710940D01*
X139011753Y-71700986D01*
X139160832Y-71652547D01*
X139329199Y-71566760D01*
X139482073Y-71455690D01*
X139500944Y-71436819D01*
X139562267Y-71403334D01*
X139588625Y-71400500D01*
X140099254Y-71400500D01*
X140166293Y-71420185D01*
X140209739Y-71468205D01*
X140216571Y-71481614D01*
X140336884Y-71647213D01*
X140481642Y-71791971D01*
X140628077Y-71898360D01*
X140647246Y-71912287D01*
X140763463Y-71971503D01*
X140829632Y-72005218D01*
X140829634Y-72005218D01*
X140829637Y-72005220D01*
X140933993Y-72039127D01*
X141024321Y-72068477D01*
X141125413Y-72084488D01*
X141226504Y-72100500D01*
X141226505Y-72100500D01*
X141431207Y-72100500D01*
X141431208Y-72100500D01*
X141633390Y-72068477D01*
X141828075Y-72005220D01*
X142010466Y-71912287D01*
X142118781Y-71833592D01*
X142176069Y-71791971D01*
X142176071Y-71791968D01*
X142176075Y-71791966D01*
X142320822Y-71647219D01*
X142320824Y-71647215D01*
X142320827Y-71647213D01*
X142379279Y-71566759D01*
X142441143Y-71481610D01*
X142534076Y-71299219D01*
X142597333Y-71104534D01*
X142629356Y-70902352D01*
X142629356Y-70697648D01*
X142600457Y-70515187D01*
X142597333Y-70495465D01*
X142534074Y-70300776D01*
X142500359Y-70234607D01*
X142441143Y-70118390D01*
X142412646Y-70079167D01*
X142389556Y-70047385D01*
X142366076Y-69981579D01*
X142381902Y-69913525D01*
X142432008Y-69864830D01*
X142489874Y-69850500D01*
X146628759Y-69850500D01*
X146695798Y-69870185D01*
X146716440Y-69886819D01*
X148092037Y-71262416D01*
X148125522Y-71323739D01*
X148128356Y-71350097D01*
X148128356Y-72350001D01*
X148128357Y-72350019D01*
X148138856Y-72452796D01*
X148138857Y-72452799D01*
X148144287Y-72469185D01*
X148194042Y-72619334D01*
X148286144Y-72768656D01*
X148410200Y-72892712D01*
X148559522Y-72984814D01*
X148726059Y-73039999D01*
X148828847Y-73050500D01*
X150028864Y-73050499D01*
X150131653Y-73039999D01*
X150298190Y-72984814D01*
X150447512Y-72892712D01*
X150571568Y-72768656D01*
X150663670Y-72619334D01*
X150718855Y-72452797D01*
X150729356Y-72350009D01*
X150729355Y-71149992D01*
X150718855Y-71047203D01*
X150663670Y-70880666D01*
X150571568Y-70731344D01*
X150447512Y-70607288D01*
X150298190Y-70515186D01*
X150131653Y-70460001D01*
X150131651Y-70460000D01*
X150028872Y-70449500D01*
X150028865Y-70449500D01*
X149028953Y-70449500D01*
X148961914Y-70429815D01*
X148941272Y-70413181D01*
X147416446Y-68888355D01*
X147416444Y-68888352D01*
X147297573Y-68769481D01*
X147297572Y-68769480D01*
X147210760Y-68719360D01*
X147210760Y-68719359D01*
X147210756Y-68719358D01*
X147160641Y-68690423D01*
X147007913Y-68649499D01*
X146849799Y-68649499D01*
X146842203Y-68649499D01*
X146842187Y-68649500D01*
X136410940Y-68649500D01*
X136370019Y-68660464D01*
X136370019Y-68660465D01*
X136332751Y-68670451D01*
X136258214Y-68690423D01*
X136258209Y-68690426D01*
X136121290Y-68769475D01*
X136121282Y-68769481D01*
X136009478Y-68881286D01*
X135560830Y-69329933D01*
X135499507Y-69363418D01*
X135453751Y-69364725D01*
X135294486Y-69339500D01*
X135294481Y-69339500D01*
X135105519Y-69339500D01*
X135105514Y-69339500D01*
X134918881Y-69369059D01*
X134739163Y-69427454D01*
X134570800Y-69513240D01*
X134483579Y-69576610D01*
X134417927Y-69624310D01*
X134417925Y-69624312D01*
X134417924Y-69624312D01*
X134284312Y-69757924D01*
X134284312Y-69757925D01*
X134284310Y-69757927D01*
X134190665Y-69886818D01*
X134189526Y-69888386D01*
X134134196Y-69931051D01*
X134089208Y-69939500D01*
X132687169Y-69939500D01*
X132679561Y-69939499D01*
X132679558Y-69939499D01*
X132601916Y-69939499D01*
X132534876Y-69919814D01*
X132489122Y-69867009D01*
X132479179Y-69797851D01*
X132499212Y-69753986D01*
X132508204Y-69734296D01*
X132514236Y-69727818D01*
X134894235Y-67347819D01*
X134955558Y-67314334D01*
X134981916Y-67311500D01*
X135631512Y-67311500D01*
X135631528Y-67311501D01*
X135639124Y-67311501D01*
X135797235Y-67311501D01*
X135797238Y-67311501D01*
X135949966Y-67270577D01*
X136000085Y-67241639D01*
X136086897Y-67191520D01*
X136198701Y-67079716D01*
X136198701Y-67079714D01*
X136208909Y-67069507D01*
X136208911Y-67069504D01*
X137318713Y-65959702D01*
X137318716Y-65959701D01*
X137352009Y-65926407D01*
X137384807Y-65908499D01*
X137413327Y-65892926D01*
X137413328Y-65892926D01*
X137413331Y-65892925D01*
X137458144Y-65896131D01*
X137483018Y-65897910D01*
X137483019Y-65897910D01*
X137483022Y-65897911D01*
X137512778Y-65920187D01*
X137538952Y-65939780D01*
X137538954Y-65939783D01*
X137538955Y-65939784D01*
X137538955Y-65939786D01*
X137550171Y-65957797D01*
X137586866Y-66029815D01*
X137630476Y-66115405D01*
X137746172Y-66274646D01*
X137885354Y-66413828D01*
X138044595Y-66529524D01*
X138127455Y-66571743D01*
X138219970Y-66618882D01*
X138219972Y-66618882D01*
X138219975Y-66618884D01*
X138320317Y-66651487D01*
X138407173Y-66679709D01*
X138601578Y-66710500D01*
X138601583Y-66710500D01*
X138798422Y-66710500D01*
X138992826Y-66679709D01*
X139180025Y-66618884D01*
X139355405Y-66529524D01*
X139514646Y-66413828D01*
X139653828Y-66274646D01*
X139769524Y-66115405D01*
X139858884Y-65940025D01*
X139919709Y-65752826D01*
X139923855Y-65726650D01*
X139950500Y-65558422D01*
X139950500Y-63799500D01*
X139970185Y-63732461D01*
X140022989Y-63686706D01*
X140074500Y-63675500D01*
X140500005Y-63675500D01*
X140500010Y-63675500D01*
X140602798Y-63664999D01*
X140769335Y-63609814D01*
X140918656Y-63517712D01*
X141042712Y-63393656D01*
X141134814Y-63244335D01*
X141189999Y-63077798D01*
X141200500Y-62975010D01*
X141200500Y-62119335D01*
X141220185Y-62052296D01*
X141236814Y-62031659D01*
X147189046Y-56079426D01*
X147250367Y-56045943D01*
X147320059Y-56050927D01*
X147324178Y-56052548D01*
X147536516Y-56140501D01*
X147555581Y-56148398D01*
X147808884Y-56216270D01*
X148068880Y-56250500D01*
X148068887Y-56250500D01*
X148331113Y-56250500D01*
X148331120Y-56250500D01*
X148591116Y-56216270D01*
X148844419Y-56148398D01*
X149075821Y-56052548D01*
X149086695Y-56048044D01*
X149086697Y-56048043D01*
X149313803Y-55916924D01*
X149521851Y-55757282D01*
X149521855Y-55757277D01*
X149521860Y-55757274D01*
X149707274Y-55571860D01*
X149707277Y-55571855D01*
X149707282Y-55571851D01*
X149866924Y-55363803D01*
X149998043Y-55136697D01*
X150002872Y-55125040D01*
X150071471Y-54959427D01*
X150098398Y-54894419D01*
X150166270Y-54641116D01*
X150200500Y-54381120D01*
X150200500Y-54118880D01*
X150166270Y-53858884D01*
X150098398Y-53605581D01*
X150098394Y-53605571D01*
X149998046Y-53363309D01*
X149998041Y-53363299D01*
X149866924Y-53136196D01*
X149707281Y-52928148D01*
X149707274Y-52928140D01*
X149521860Y-52742726D01*
X149521851Y-52742718D01*
X149313803Y-52583075D01*
X149086700Y-52451958D01*
X149086690Y-52451953D01*
X148844428Y-52351605D01*
X148844421Y-52351603D01*
X148844419Y-52351602D01*
X148591116Y-52283730D01*
X148533339Y-52276123D01*
X148331127Y-52249500D01*
X148331120Y-52249500D01*
X148068880Y-52249500D01*
X148068872Y-52249500D01*
X147837772Y-52279926D01*
X147808884Y-52283730D01*
X147613268Y-52336145D01*
X147555581Y-52351602D01*
X147555571Y-52351605D01*
X147313309Y-52451953D01*
X147313299Y-52451958D01*
X147086196Y-52583075D01*
X146878148Y-52742718D01*
X146692718Y-52928148D01*
X146533083Y-53136186D01*
X146533076Y-53136197D01*
X146456199Y-53269351D01*
X146436493Y-53295031D01*
X140443345Y-59288181D01*
X140382022Y-59321666D01*
X140355664Y-59324500D01*
X139499982Y-59324500D01*
X139397203Y-59335000D01*
X139397202Y-59335001D01*
X139314669Y-59362349D01*
X139230667Y-59390185D01*
X139230662Y-59390187D01*
X139081342Y-59482289D01*
X138957289Y-59606342D01*
X138865187Y-59755662D01*
X138865186Y-59755665D01*
X138810001Y-59922202D01*
X138810001Y-59922203D01*
X138810000Y-59922203D01*
X138799500Y-60024982D01*
X138799500Y-60880664D01*
X138779815Y-60947703D01*
X138763181Y-60968345D01*
X137812181Y-61919345D01*
X137750858Y-61952830D01*
X137681166Y-61947846D01*
X137625233Y-61905974D01*
X137600816Y-61840510D01*
X137600500Y-61831664D01*
X137600500Y-59050096D01*
X137620185Y-58983057D01*
X137636814Y-58962420D01*
X140408506Y-56190727D01*
X140408511Y-56190724D01*
X140418714Y-56180520D01*
X140418716Y-56180520D01*
X140530520Y-56068716D01*
X140609577Y-55931784D01*
X140650500Y-55779057D01*
X140650500Y-54891018D01*
X140670185Y-54823979D01*
X140722989Y-54778224D01*
X140748552Y-54769763D01*
X140752788Y-54768855D01*
X140752797Y-54768855D01*
X140919334Y-54713670D01*
X141068656Y-54621568D01*
X141192712Y-54497512D01*
X141284814Y-54348190D01*
X141339999Y-54181653D01*
X141350500Y-54078865D01*
X141350499Y-52878848D01*
X141350370Y-52877590D01*
X141339999Y-52776059D01*
X141339998Y-52776056D01*
X141334251Y-52758714D01*
X141284814Y-52609522D01*
X141192712Y-52460200D01*
X141068656Y-52336144D01*
X140919334Y-52244042D01*
X140752797Y-52188857D01*
X140752795Y-52188856D01*
X140650010Y-52178356D01*
X139449998Y-52178356D01*
X139449981Y-52178357D01*
X139347203Y-52188856D01*
X139347200Y-52188857D01*
X139180668Y-52244041D01*
X139180663Y-52244043D01*
X139031342Y-52336145D01*
X138907289Y-52460198D01*
X138815187Y-52609519D01*
X138815185Y-52609524D01*
X138812026Y-52619057D01*
X138760001Y-52776059D01*
X138760001Y-52776060D01*
X138760000Y-52776060D01*
X138749500Y-52878839D01*
X138749500Y-53878757D01*
X138729815Y-53945796D01*
X138713181Y-53966438D01*
X137776440Y-54903181D01*
X137715117Y-54936666D01*
X137688759Y-54939500D01*
X136610792Y-54939500D01*
X136543753Y-54919815D01*
X136510474Y-54888386D01*
X136415690Y-54757927D01*
X136282073Y-54624310D01*
X136129199Y-54513240D01*
X136098331Y-54497512D01*
X135960836Y-54427454D01*
X135781118Y-54369059D01*
X135594486Y-54339500D01*
X135594481Y-54339500D01*
X135405519Y-54339500D01*
X135405514Y-54339500D01*
X135246247Y-54364725D01*
X135176953Y-54355770D01*
X135139168Y-54329933D01*
X133386819Y-52577584D01*
X133353334Y-52516261D01*
X133350500Y-52489903D01*
X133350500Y-51570791D01*
X133370185Y-51503752D01*
X133401612Y-51470475D01*
X133532073Y-51375690D01*
X133665690Y-51242073D01*
X133776760Y-51089199D01*
X133862547Y-50920832D01*
X133920940Y-50741118D01*
X133925275Y-50713750D01*
X133950500Y-50554486D01*
X133950500Y-50365513D01*
X133920940Y-50178881D01*
X133862545Y-49999163D01*
X133776759Y-49830800D01*
X133757719Y-49804594D01*
X133665690Y-49677927D01*
X133599944Y-49612181D01*
X133566459Y-49550858D01*
X133571443Y-49481166D01*
X133613315Y-49425233D01*
X133678779Y-49400816D01*
X133687625Y-49400500D01*
X152175500Y-49400500D01*
X152242539Y-49420185D01*
X152288294Y-49472989D01*
X152299500Y-49524500D01*
X152299500Y-96725500D01*
X152279815Y-96792539D01*
X152227011Y-96838294D01*
X152175500Y-96849500D01*
X106724500Y-96849500D01*
X106657461Y-96829815D01*
X106611706Y-96777011D01*
X106600500Y-96725500D01*
X106600500Y-93635258D01*
X109082000Y-93635258D01*
X109082000Y-93864741D01*
X109102265Y-94018657D01*
X109111952Y-94092238D01*
X109130688Y-94162162D01*
X109171342Y-94313887D01*
X109259150Y-94525876D01*
X109259157Y-94525890D01*
X109373892Y-94724617D01*
X109513581Y-94906661D01*
X109513589Y-94906670D01*
X109675830Y-95068911D01*
X109675838Y-95068918D01*
X109857882Y-95208607D01*
X109857885Y-95208608D01*
X109857888Y-95208611D01*
X110056612Y-95323344D01*
X110056617Y-95323346D01*
X110056623Y-95323349D01*
X110093223Y-95338509D01*
X110268613Y-95411158D01*
X110490262Y-95470548D01*
X110717766Y-95500500D01*
X110717773Y-95500500D01*
X110947227Y-95500500D01*
X110947234Y-95500500D01*
X111174738Y-95470548D01*
X111396387Y-95411158D01*
X111495228Y-95370215D01*
X111564696Y-95362747D01*
X111627175Y-95394021D01*
X111630361Y-95397096D01*
X112347639Y-96114374D01*
X112347649Y-96114385D01*
X112351979Y-96118715D01*
X112351980Y-96118716D01*
X112463784Y-96230520D01*
X112550595Y-96280639D01*
X112550597Y-96280641D01*
X112588651Y-96302611D01*
X112600715Y-96309577D01*
X112753443Y-96350500D01*
X112911557Y-96350500D01*
X121863331Y-96350500D01*
X121863347Y-96350501D01*
X121870943Y-96350501D01*
X122029054Y-96350501D01*
X122029057Y-96350501D01*
X122181785Y-96309577D01*
X122231904Y-96280639D01*
X122318716Y-96230520D01*
X122430520Y-96118716D01*
X122430520Y-96118714D01*
X122701664Y-95847572D01*
X122780721Y-95710640D01*
X122821645Y-95557913D01*
X122821645Y-95399798D01*
X122821645Y-95392203D01*
X122821644Y-95392185D01*
X122821644Y-94162162D01*
X122841329Y-94095123D01*
X122894133Y-94049368D01*
X122919696Y-94040907D01*
X122923932Y-94039999D01*
X122923941Y-94039999D01*
X123090478Y-93984814D01*
X123239800Y-93892712D01*
X123363856Y-93768656D01*
X123455958Y-93619334D01*
X123511143Y-93452797D01*
X123521644Y-93350009D01*
X123521643Y-92149992D01*
X123517705Y-92111446D01*
X123511143Y-92047203D01*
X123511142Y-92047200D01*
X123505261Y-92029452D01*
X123455958Y-91880666D01*
X123363856Y-91731344D01*
X123239800Y-91607288D01*
X123090478Y-91515186D01*
X123090475Y-91515185D01*
X122923939Y-91460000D01*
X122919677Y-91459088D01*
X122858246Y-91425801D01*
X122824563Y-91364586D01*
X122821644Y-91337837D01*
X122821644Y-89849417D01*
X122841329Y-89782378D01*
X122848998Y-89771728D01*
X122867030Y-89749296D01*
X122951641Y-89578693D01*
X122997600Y-89393889D01*
X123000500Y-89351123D01*
X123000499Y-87948878D01*
X122997600Y-87906111D01*
X122951641Y-87721307D01*
X122900000Y-87617182D01*
X122867032Y-87550707D01*
X122867030Y-87550704D01*
X122747722Y-87402278D01*
X122747721Y-87402277D01*
X122599295Y-87282969D01*
X122599292Y-87282967D01*
X122428697Y-87198360D01*
X122243892Y-87152400D01*
X122222506Y-87150950D01*
X122201123Y-87149500D01*
X122201120Y-87149500D01*
X121298877Y-87149500D01*
X121298874Y-87149501D01*
X121256113Y-87152399D01*
X121256112Y-87152399D01*
X121071303Y-87198360D01*
X120900707Y-87282967D01*
X120900704Y-87282969D01*
X120752278Y-87402277D01*
X120752277Y-87402278D01*
X120696647Y-87471486D01*
X120639304Y-87511405D01*
X120569482Y-87513985D01*
X120509349Y-87478406D01*
X120503353Y-87471486D01*
X120447722Y-87402278D01*
X120447721Y-87402277D01*
X120299295Y-87282969D01*
X120299292Y-87282967D01*
X120128697Y-87198360D01*
X119943892Y-87152400D01*
X119922506Y-87150950D01*
X119901123Y-87149500D01*
X119901120Y-87149500D01*
X118998877Y-87149500D01*
X118998874Y-87149501D01*
X118956113Y-87152399D01*
X118956112Y-87152399D01*
X118771303Y-87198360D01*
X118600707Y-87282967D01*
X118600704Y-87282969D01*
X118452278Y-87402277D01*
X118452277Y-87402278D01*
X118332969Y-87550704D01*
X118332967Y-87550707D01*
X118248360Y-87721302D01*
X118202400Y-87906107D01*
X118199500Y-87948879D01*
X118199500Y-88999901D01*
X118179815Y-89066940D01*
X118163181Y-89087582D01*
X116602430Y-90648334D01*
X116490625Y-90760138D01*
X116490624Y-90760140D01*
X116451032Y-90828716D01*
X116411567Y-90897071D01*
X116370643Y-91049799D01*
X116370643Y-91049801D01*
X116370643Y-91217902D01*
X116370644Y-91217915D01*
X116370644Y-91587837D01*
X116350959Y-91654876D01*
X116298155Y-91700631D01*
X116272603Y-91709089D01*
X116268351Y-91709999D01*
X116101812Y-91765185D01*
X116101807Y-91765187D01*
X115952486Y-91857289D01*
X115828433Y-91981342D01*
X115736331Y-92130663D01*
X115736329Y-92130668D01*
X115721092Y-92176650D01*
X115681145Y-92297203D01*
X115681145Y-92297204D01*
X115681144Y-92297204D01*
X115670644Y-92399983D01*
X115670644Y-93600001D01*
X115670645Y-93600018D01*
X115681144Y-93702796D01*
X115681145Y-93702799D01*
X115736329Y-93869331D01*
X115736331Y-93869336D01*
X115771213Y-93925888D01*
X115828432Y-94018656D01*
X115952488Y-94142712D01*
X116101810Y-94234814D01*
X116268347Y-94289999D01*
X116371135Y-94300500D01*
X117571152Y-94300499D01*
X117673941Y-94289999D01*
X117840478Y-94234814D01*
X117989800Y-94142712D01*
X118113856Y-94018656D01*
X118205958Y-93869334D01*
X118261143Y-93702797D01*
X118271644Y-93600009D01*
X118271643Y-92399992D01*
X118269958Y-92383501D01*
X118261143Y-92297203D01*
X118261142Y-92297200D01*
X118241212Y-92237056D01*
X118205958Y-92130666D01*
X118113856Y-91981344D01*
X117989800Y-91857288D01*
X117840478Y-91765186D01*
X117738344Y-91731342D01*
X117673939Y-91710000D01*
X117669677Y-91709088D01*
X117642526Y-91694376D01*
X117614441Y-91681550D01*
X117612082Y-91677879D01*
X117608246Y-91675801D01*
X117593358Y-91648744D01*
X117576667Y-91622772D01*
X117575817Y-91616866D01*
X117574563Y-91614586D01*
X117571644Y-91587837D01*
X117571644Y-91428953D01*
X117591329Y-91361914D01*
X117607963Y-91341272D01*
X118189097Y-90760138D01*
X118782829Y-90166405D01*
X118844150Y-90132922D01*
X118900432Y-90133752D01*
X118956111Y-90147600D01*
X118998877Y-90150500D01*
X119901122Y-90150499D01*
X119943889Y-90147600D01*
X120128693Y-90101641D01*
X120299296Y-90017030D01*
X120447722Y-89897722D01*
X120503353Y-89828514D01*
X120560696Y-89788595D01*
X120630518Y-89786015D01*
X120690651Y-89821594D01*
X120696647Y-89828514D01*
X120752277Y-89897721D01*
X120752278Y-89897722D01*
X120900704Y-90017030D01*
X120900707Y-90017032D01*
X121071302Y-90101639D01*
X121071303Y-90101639D01*
X121071307Y-90101641D01*
X121256111Y-90147600D01*
X121298877Y-90150500D01*
X121496644Y-90150499D01*
X121563683Y-90170183D01*
X121609438Y-90222987D01*
X121620644Y-90274499D01*
X121620644Y-91337837D01*
X121600959Y-91404876D01*
X121548155Y-91450631D01*
X121522603Y-91459089D01*
X121518351Y-91459999D01*
X121351812Y-91515185D01*
X121351807Y-91515187D01*
X121202486Y-91607289D01*
X121078433Y-91731342D01*
X120986331Y-91880663D01*
X120986330Y-91880666D01*
X120931145Y-92047203D01*
X120931145Y-92047204D01*
X120931144Y-92047204D01*
X120920644Y-92149983D01*
X120920644Y-93350001D01*
X120920645Y-93350018D01*
X120931144Y-93452796D01*
X120931145Y-93452799D01*
X120986329Y-93619331D01*
X120986331Y-93619336D01*
X121021213Y-93675888D01*
X121078432Y-93768656D01*
X121202488Y-93892712D01*
X121351810Y-93984814D01*
X121518347Y-94039999D01*
X121518353Y-94039999D01*
X121522592Y-94040907D01*
X121584028Y-94074185D01*
X121617720Y-94135394D01*
X121620644Y-94162162D01*
X121620644Y-95025500D01*
X121600959Y-95092539D01*
X121548155Y-95138294D01*
X121496644Y-95149500D01*
X113132597Y-95149500D01*
X113065558Y-95129815D01*
X113044916Y-95113181D01*
X112479596Y-94547861D01*
X112446111Y-94486538D01*
X112451095Y-94416846D01*
X112452700Y-94412764D01*
X112493658Y-94313887D01*
X112553048Y-94092238D01*
X112583000Y-93864734D01*
X112583000Y-93635266D01*
X112553048Y-93407762D01*
X112493658Y-93186113D01*
X112423293Y-93016237D01*
X112405849Y-92974123D01*
X112405846Y-92974117D01*
X112405844Y-92974112D01*
X112291111Y-92775388D01*
X112291108Y-92775385D01*
X112291107Y-92775382D01*
X112151418Y-92593338D01*
X112151411Y-92593330D01*
X111989170Y-92431089D01*
X111989161Y-92431081D01*
X111807117Y-92291392D01*
X111608390Y-92176657D01*
X111608376Y-92176650D01*
X111396387Y-92088842D01*
X111387236Y-92086390D01*
X111174738Y-92029452D01*
X111136715Y-92024446D01*
X110947241Y-91999500D01*
X110947234Y-91999500D01*
X110717766Y-91999500D01*
X110717758Y-91999500D01*
X110501215Y-92028009D01*
X110490262Y-92029452D01*
X110431075Y-92045311D01*
X110268612Y-92088842D01*
X110056623Y-92176650D01*
X110056609Y-92176657D01*
X109857882Y-92291392D01*
X109675838Y-92431081D01*
X109513581Y-92593338D01*
X109373892Y-92775382D01*
X109259157Y-92974109D01*
X109259150Y-92974123D01*
X109171342Y-93186112D01*
X109111953Y-93407759D01*
X109111951Y-93407770D01*
X109082000Y-93635258D01*
X106600500Y-93635258D01*
X106600500Y-49524500D01*
X106620185Y-49457461D01*
X106672989Y-49411706D01*
X106724500Y-49400500D01*
X116141664Y-49400500D01*
X116208703Y-49420185D01*
G37*
%TD.AperFunction*%
%TD*%
M02*
